G75*
%MOIN*%
%OFA0B0*%
%FSLAX25Y25*%
%IPPOS*%
%LPD*%
%AMOC8*
5,1,8,0,0,1.08239X$1,22.5*
%
%ADD10C,0.00000*%
%ADD11R,0.04724X0.04724*%
%ADD12R,0.12598X0.07087*%
%ADD13OC8,0.06300*%
%ADD14C,0.06300*%
%ADD15C,0.07050*%
%ADD16OC8,0.05200*%
%ADD17R,0.04724X0.02165*%
%ADD18R,0.04724X0.02362*%
%ADD19C,0.10000*%
%ADD20OC8,0.10000*%
%ADD21R,0.06299X0.03937*%
%ADD22R,0.24409X0.21260*%
%ADD23C,0.07400*%
%ADD24R,0.05118X0.05906*%
%ADD25R,0.05906X0.05118*%
%ADD26R,0.03937X0.05512*%
%ADD27R,0.05000X0.02200*%
%ADD28C,0.01200*%
%ADD29C,0.02800*%
%ADD30C,0.02400*%
%ADD31C,0.04000*%
%ADD32C,0.01000*%
%ADD33C,0.02000*%
%ADD34C,0.04000*%
%ADD35C,0.03600*%
%ADD36C,0.04800*%
D10*
X0031197Y0016379D02*
X0401197Y0016379D01*
X0401439Y0016382D01*
X0401680Y0016391D01*
X0401921Y0016405D01*
X0402162Y0016426D01*
X0402402Y0016452D01*
X0402642Y0016484D01*
X0402881Y0016522D01*
X0403118Y0016565D01*
X0403355Y0016615D01*
X0403590Y0016670D01*
X0403824Y0016730D01*
X0404056Y0016797D01*
X0404287Y0016868D01*
X0404516Y0016946D01*
X0404743Y0017029D01*
X0404968Y0017117D01*
X0405191Y0017211D01*
X0405411Y0017310D01*
X0405629Y0017415D01*
X0405844Y0017524D01*
X0406057Y0017639D01*
X0406267Y0017759D01*
X0406473Y0017884D01*
X0406677Y0018014D01*
X0406878Y0018149D01*
X0407075Y0018289D01*
X0407269Y0018433D01*
X0407459Y0018582D01*
X0407645Y0018736D01*
X0407828Y0018894D01*
X0408007Y0019056D01*
X0408182Y0019223D01*
X0408353Y0019394D01*
X0408520Y0019569D01*
X0408682Y0019748D01*
X0408840Y0019931D01*
X0408994Y0020117D01*
X0409143Y0020307D01*
X0409287Y0020501D01*
X0409427Y0020698D01*
X0409562Y0020899D01*
X0409692Y0021103D01*
X0409817Y0021309D01*
X0409937Y0021519D01*
X0410052Y0021732D01*
X0410161Y0021947D01*
X0410266Y0022165D01*
X0410365Y0022385D01*
X0410459Y0022608D01*
X0410547Y0022833D01*
X0410630Y0023060D01*
X0410708Y0023289D01*
X0410779Y0023520D01*
X0410846Y0023752D01*
X0410906Y0023986D01*
X0410961Y0024221D01*
X0411011Y0024458D01*
X0411054Y0024695D01*
X0411092Y0024934D01*
X0411124Y0025174D01*
X0411150Y0025414D01*
X0411171Y0025655D01*
X0411185Y0025896D01*
X0411194Y0026137D01*
X0411197Y0026379D01*
X0411197Y0253879D01*
X0411164Y0254090D01*
X0411127Y0254300D01*
X0411084Y0254510D01*
X0411036Y0254718D01*
X0410983Y0254925D01*
X0410925Y0255130D01*
X0410862Y0255334D01*
X0410794Y0255537D01*
X0410721Y0255738D01*
X0410644Y0255937D01*
X0410561Y0256134D01*
X0410474Y0256329D01*
X0410383Y0256522D01*
X0410286Y0256712D01*
X0410185Y0256901D01*
X0410080Y0257086D01*
X0409970Y0257270D01*
X0409856Y0257450D01*
X0409737Y0257628D01*
X0409614Y0257802D01*
X0409487Y0257974D01*
X0409356Y0258142D01*
X0409220Y0258308D01*
X0409081Y0258470D01*
X0408938Y0258628D01*
X0408791Y0258784D01*
X0408641Y0258935D01*
X0408487Y0259083D01*
X0408329Y0259227D01*
X0408168Y0259367D01*
X0408003Y0259503D01*
X0407835Y0259636D01*
X0407665Y0259764D01*
X0407491Y0259888D01*
X0407314Y0260008D01*
X0407134Y0260123D01*
X0406952Y0260234D01*
X0406767Y0260341D01*
X0406579Y0260443D01*
X0406389Y0260540D01*
X0406197Y0260633D01*
X0406002Y0260722D01*
X0405805Y0260805D01*
X0405607Y0260884D01*
X0405407Y0260958D01*
X0405204Y0261027D01*
X0405001Y0261091D01*
X0404795Y0261150D01*
X0404589Y0261205D01*
X0404381Y0261254D01*
X0404172Y0261298D01*
X0403962Y0261337D01*
X0403751Y0261371D01*
X0403540Y0261400D01*
X0403327Y0261424D01*
X0403115Y0261443D01*
X0402901Y0261456D01*
X0402688Y0261465D01*
X0402474Y0261468D01*
X0402261Y0261466D01*
X0402047Y0261459D01*
X0401834Y0261447D01*
X0401621Y0261429D01*
X0401409Y0261407D01*
X0401197Y0261379D01*
X0031197Y0261379D01*
X0030955Y0261376D01*
X0030714Y0261367D01*
X0030473Y0261353D01*
X0030232Y0261332D01*
X0029992Y0261306D01*
X0029752Y0261274D01*
X0029513Y0261236D01*
X0029276Y0261193D01*
X0029039Y0261143D01*
X0028804Y0261088D01*
X0028570Y0261028D01*
X0028338Y0260961D01*
X0028107Y0260890D01*
X0027878Y0260812D01*
X0027651Y0260729D01*
X0027426Y0260641D01*
X0027203Y0260547D01*
X0026983Y0260448D01*
X0026765Y0260343D01*
X0026550Y0260234D01*
X0026337Y0260119D01*
X0026127Y0259999D01*
X0025921Y0259874D01*
X0025717Y0259744D01*
X0025516Y0259609D01*
X0025319Y0259469D01*
X0025125Y0259325D01*
X0024935Y0259176D01*
X0024749Y0259022D01*
X0024566Y0258864D01*
X0024387Y0258702D01*
X0024212Y0258535D01*
X0024041Y0258364D01*
X0023874Y0258189D01*
X0023712Y0258010D01*
X0023554Y0257827D01*
X0023400Y0257641D01*
X0023251Y0257451D01*
X0023107Y0257257D01*
X0022967Y0257060D01*
X0022832Y0256859D01*
X0022702Y0256655D01*
X0022577Y0256449D01*
X0022457Y0256239D01*
X0022342Y0256026D01*
X0022233Y0255811D01*
X0022128Y0255593D01*
X0022029Y0255373D01*
X0021935Y0255150D01*
X0021847Y0254925D01*
X0021764Y0254698D01*
X0021686Y0254469D01*
X0021615Y0254238D01*
X0021548Y0254006D01*
X0021488Y0253772D01*
X0021433Y0253537D01*
X0021383Y0253300D01*
X0021340Y0253063D01*
X0021302Y0252824D01*
X0021270Y0252584D01*
X0021244Y0252344D01*
X0021223Y0252103D01*
X0021209Y0251862D01*
X0021200Y0251621D01*
X0021197Y0251379D01*
X0021197Y0028879D01*
X0021170Y0028603D01*
X0021149Y0028325D01*
X0021136Y0028048D01*
X0021129Y0027770D01*
X0021129Y0027492D01*
X0021136Y0027215D01*
X0021149Y0026937D01*
X0021170Y0026660D01*
X0021197Y0026384D01*
X0021231Y0026108D01*
X0021271Y0025833D01*
X0021319Y0025560D01*
X0021373Y0025287D01*
X0021434Y0025016D01*
X0021501Y0024746D01*
X0021575Y0024479D01*
X0021656Y0024213D01*
X0021743Y0023949D01*
X0021836Y0023687D01*
X0021936Y0023428D01*
X0022043Y0023172D01*
X0022155Y0022918D01*
X0022274Y0022666D01*
X0022399Y0022418D01*
X0022530Y0022173D01*
X0022666Y0021932D01*
X0022809Y0021693D01*
X0022958Y0021458D01*
X0023112Y0021227D01*
X0023272Y0021000D01*
X0023437Y0020777D01*
X0023608Y0020558D01*
X0023785Y0020343D01*
X0023966Y0020133D01*
X0024152Y0019927D01*
X0024344Y0019726D01*
X0024540Y0019529D01*
X0024742Y0019338D01*
X0024947Y0019151D01*
X0025158Y0018970D01*
X0025372Y0018793D01*
X0025591Y0018622D01*
X0025814Y0018457D01*
X0026042Y0018297D01*
X0026272Y0018142D01*
X0026507Y0017994D01*
X0026745Y0017851D01*
X0026987Y0017714D01*
X0027232Y0017583D01*
X0027480Y0017458D01*
X0027731Y0017339D01*
X0027985Y0017226D01*
X0028242Y0017120D01*
X0028501Y0017020D01*
X0028763Y0016926D01*
X0029026Y0016839D01*
X0029292Y0016759D01*
X0029560Y0016684D01*
X0029829Y0016617D01*
X0030100Y0016556D01*
X0030373Y0016502D01*
X0030647Y0016454D01*
X0030921Y0016413D01*
X0031197Y0016379D01*
X0026807Y0028879D02*
X0026809Y0029048D01*
X0026815Y0029217D01*
X0026826Y0029386D01*
X0026840Y0029554D01*
X0026859Y0029722D01*
X0026882Y0029890D01*
X0026908Y0030057D01*
X0026939Y0030223D01*
X0026974Y0030389D01*
X0027013Y0030553D01*
X0027057Y0030717D01*
X0027104Y0030879D01*
X0027155Y0031040D01*
X0027210Y0031200D01*
X0027269Y0031359D01*
X0027331Y0031516D01*
X0027398Y0031671D01*
X0027469Y0031825D01*
X0027543Y0031977D01*
X0027621Y0032127D01*
X0027702Y0032275D01*
X0027787Y0032421D01*
X0027876Y0032565D01*
X0027968Y0032707D01*
X0028064Y0032846D01*
X0028163Y0032983D01*
X0028265Y0033118D01*
X0028371Y0033250D01*
X0028480Y0033379D01*
X0028592Y0033506D01*
X0028707Y0033630D01*
X0028825Y0033751D01*
X0028946Y0033869D01*
X0029070Y0033984D01*
X0029197Y0034096D01*
X0029326Y0034205D01*
X0029458Y0034311D01*
X0029593Y0034413D01*
X0029730Y0034512D01*
X0029869Y0034608D01*
X0030011Y0034700D01*
X0030155Y0034789D01*
X0030301Y0034874D01*
X0030449Y0034955D01*
X0030599Y0035033D01*
X0030751Y0035107D01*
X0030905Y0035178D01*
X0031060Y0035245D01*
X0031217Y0035307D01*
X0031376Y0035366D01*
X0031536Y0035421D01*
X0031697Y0035472D01*
X0031859Y0035519D01*
X0032023Y0035563D01*
X0032187Y0035602D01*
X0032353Y0035637D01*
X0032519Y0035668D01*
X0032686Y0035694D01*
X0032854Y0035717D01*
X0033022Y0035736D01*
X0033190Y0035750D01*
X0033359Y0035761D01*
X0033528Y0035767D01*
X0033697Y0035769D01*
X0033866Y0035767D01*
X0034035Y0035761D01*
X0034204Y0035750D01*
X0034372Y0035736D01*
X0034540Y0035717D01*
X0034708Y0035694D01*
X0034875Y0035668D01*
X0035041Y0035637D01*
X0035207Y0035602D01*
X0035371Y0035563D01*
X0035535Y0035519D01*
X0035697Y0035472D01*
X0035858Y0035421D01*
X0036018Y0035366D01*
X0036177Y0035307D01*
X0036334Y0035245D01*
X0036489Y0035178D01*
X0036643Y0035107D01*
X0036795Y0035033D01*
X0036945Y0034955D01*
X0037093Y0034874D01*
X0037239Y0034789D01*
X0037383Y0034700D01*
X0037525Y0034608D01*
X0037664Y0034512D01*
X0037801Y0034413D01*
X0037936Y0034311D01*
X0038068Y0034205D01*
X0038197Y0034096D01*
X0038324Y0033984D01*
X0038448Y0033869D01*
X0038569Y0033751D01*
X0038687Y0033630D01*
X0038802Y0033506D01*
X0038914Y0033379D01*
X0039023Y0033250D01*
X0039129Y0033118D01*
X0039231Y0032983D01*
X0039330Y0032846D01*
X0039426Y0032707D01*
X0039518Y0032565D01*
X0039607Y0032421D01*
X0039692Y0032275D01*
X0039773Y0032127D01*
X0039851Y0031977D01*
X0039925Y0031825D01*
X0039996Y0031671D01*
X0040063Y0031516D01*
X0040125Y0031359D01*
X0040184Y0031200D01*
X0040239Y0031040D01*
X0040290Y0030879D01*
X0040337Y0030717D01*
X0040381Y0030553D01*
X0040420Y0030389D01*
X0040455Y0030223D01*
X0040486Y0030057D01*
X0040512Y0029890D01*
X0040535Y0029722D01*
X0040554Y0029554D01*
X0040568Y0029386D01*
X0040579Y0029217D01*
X0040585Y0029048D01*
X0040587Y0028879D01*
X0040585Y0028710D01*
X0040579Y0028541D01*
X0040568Y0028372D01*
X0040554Y0028204D01*
X0040535Y0028036D01*
X0040512Y0027868D01*
X0040486Y0027701D01*
X0040455Y0027535D01*
X0040420Y0027369D01*
X0040381Y0027205D01*
X0040337Y0027041D01*
X0040290Y0026879D01*
X0040239Y0026718D01*
X0040184Y0026558D01*
X0040125Y0026399D01*
X0040063Y0026242D01*
X0039996Y0026087D01*
X0039925Y0025933D01*
X0039851Y0025781D01*
X0039773Y0025631D01*
X0039692Y0025483D01*
X0039607Y0025337D01*
X0039518Y0025193D01*
X0039426Y0025051D01*
X0039330Y0024912D01*
X0039231Y0024775D01*
X0039129Y0024640D01*
X0039023Y0024508D01*
X0038914Y0024379D01*
X0038802Y0024252D01*
X0038687Y0024128D01*
X0038569Y0024007D01*
X0038448Y0023889D01*
X0038324Y0023774D01*
X0038197Y0023662D01*
X0038068Y0023553D01*
X0037936Y0023447D01*
X0037801Y0023345D01*
X0037664Y0023246D01*
X0037525Y0023150D01*
X0037383Y0023058D01*
X0037239Y0022969D01*
X0037093Y0022884D01*
X0036945Y0022803D01*
X0036795Y0022725D01*
X0036643Y0022651D01*
X0036489Y0022580D01*
X0036334Y0022513D01*
X0036177Y0022451D01*
X0036018Y0022392D01*
X0035858Y0022337D01*
X0035697Y0022286D01*
X0035535Y0022239D01*
X0035371Y0022195D01*
X0035207Y0022156D01*
X0035041Y0022121D01*
X0034875Y0022090D01*
X0034708Y0022064D01*
X0034540Y0022041D01*
X0034372Y0022022D01*
X0034204Y0022008D01*
X0034035Y0021997D01*
X0033866Y0021991D01*
X0033697Y0021989D01*
X0033528Y0021991D01*
X0033359Y0021997D01*
X0033190Y0022008D01*
X0033022Y0022022D01*
X0032854Y0022041D01*
X0032686Y0022064D01*
X0032519Y0022090D01*
X0032353Y0022121D01*
X0032187Y0022156D01*
X0032023Y0022195D01*
X0031859Y0022239D01*
X0031697Y0022286D01*
X0031536Y0022337D01*
X0031376Y0022392D01*
X0031217Y0022451D01*
X0031060Y0022513D01*
X0030905Y0022580D01*
X0030751Y0022651D01*
X0030599Y0022725D01*
X0030449Y0022803D01*
X0030301Y0022884D01*
X0030155Y0022969D01*
X0030011Y0023058D01*
X0029869Y0023150D01*
X0029730Y0023246D01*
X0029593Y0023345D01*
X0029458Y0023447D01*
X0029326Y0023553D01*
X0029197Y0023662D01*
X0029070Y0023774D01*
X0028946Y0023889D01*
X0028825Y0024007D01*
X0028707Y0024128D01*
X0028592Y0024252D01*
X0028480Y0024379D01*
X0028371Y0024508D01*
X0028265Y0024640D01*
X0028163Y0024775D01*
X0028064Y0024912D01*
X0027968Y0025051D01*
X0027876Y0025193D01*
X0027787Y0025337D01*
X0027702Y0025483D01*
X0027621Y0025631D01*
X0027543Y0025781D01*
X0027469Y0025933D01*
X0027398Y0026087D01*
X0027331Y0026242D01*
X0027269Y0026399D01*
X0027210Y0026558D01*
X0027155Y0026718D01*
X0027104Y0026879D01*
X0027057Y0027041D01*
X0027013Y0027205D01*
X0026974Y0027369D01*
X0026939Y0027535D01*
X0026908Y0027701D01*
X0026882Y0027868D01*
X0026859Y0028036D01*
X0026840Y0028204D01*
X0026826Y0028372D01*
X0026815Y0028541D01*
X0026809Y0028710D01*
X0026807Y0028879D01*
X0026807Y0248879D02*
X0026809Y0249048D01*
X0026815Y0249217D01*
X0026826Y0249386D01*
X0026840Y0249554D01*
X0026859Y0249722D01*
X0026882Y0249890D01*
X0026908Y0250057D01*
X0026939Y0250223D01*
X0026974Y0250389D01*
X0027013Y0250553D01*
X0027057Y0250717D01*
X0027104Y0250879D01*
X0027155Y0251040D01*
X0027210Y0251200D01*
X0027269Y0251359D01*
X0027331Y0251516D01*
X0027398Y0251671D01*
X0027469Y0251825D01*
X0027543Y0251977D01*
X0027621Y0252127D01*
X0027702Y0252275D01*
X0027787Y0252421D01*
X0027876Y0252565D01*
X0027968Y0252707D01*
X0028064Y0252846D01*
X0028163Y0252983D01*
X0028265Y0253118D01*
X0028371Y0253250D01*
X0028480Y0253379D01*
X0028592Y0253506D01*
X0028707Y0253630D01*
X0028825Y0253751D01*
X0028946Y0253869D01*
X0029070Y0253984D01*
X0029197Y0254096D01*
X0029326Y0254205D01*
X0029458Y0254311D01*
X0029593Y0254413D01*
X0029730Y0254512D01*
X0029869Y0254608D01*
X0030011Y0254700D01*
X0030155Y0254789D01*
X0030301Y0254874D01*
X0030449Y0254955D01*
X0030599Y0255033D01*
X0030751Y0255107D01*
X0030905Y0255178D01*
X0031060Y0255245D01*
X0031217Y0255307D01*
X0031376Y0255366D01*
X0031536Y0255421D01*
X0031697Y0255472D01*
X0031859Y0255519D01*
X0032023Y0255563D01*
X0032187Y0255602D01*
X0032353Y0255637D01*
X0032519Y0255668D01*
X0032686Y0255694D01*
X0032854Y0255717D01*
X0033022Y0255736D01*
X0033190Y0255750D01*
X0033359Y0255761D01*
X0033528Y0255767D01*
X0033697Y0255769D01*
X0033866Y0255767D01*
X0034035Y0255761D01*
X0034204Y0255750D01*
X0034372Y0255736D01*
X0034540Y0255717D01*
X0034708Y0255694D01*
X0034875Y0255668D01*
X0035041Y0255637D01*
X0035207Y0255602D01*
X0035371Y0255563D01*
X0035535Y0255519D01*
X0035697Y0255472D01*
X0035858Y0255421D01*
X0036018Y0255366D01*
X0036177Y0255307D01*
X0036334Y0255245D01*
X0036489Y0255178D01*
X0036643Y0255107D01*
X0036795Y0255033D01*
X0036945Y0254955D01*
X0037093Y0254874D01*
X0037239Y0254789D01*
X0037383Y0254700D01*
X0037525Y0254608D01*
X0037664Y0254512D01*
X0037801Y0254413D01*
X0037936Y0254311D01*
X0038068Y0254205D01*
X0038197Y0254096D01*
X0038324Y0253984D01*
X0038448Y0253869D01*
X0038569Y0253751D01*
X0038687Y0253630D01*
X0038802Y0253506D01*
X0038914Y0253379D01*
X0039023Y0253250D01*
X0039129Y0253118D01*
X0039231Y0252983D01*
X0039330Y0252846D01*
X0039426Y0252707D01*
X0039518Y0252565D01*
X0039607Y0252421D01*
X0039692Y0252275D01*
X0039773Y0252127D01*
X0039851Y0251977D01*
X0039925Y0251825D01*
X0039996Y0251671D01*
X0040063Y0251516D01*
X0040125Y0251359D01*
X0040184Y0251200D01*
X0040239Y0251040D01*
X0040290Y0250879D01*
X0040337Y0250717D01*
X0040381Y0250553D01*
X0040420Y0250389D01*
X0040455Y0250223D01*
X0040486Y0250057D01*
X0040512Y0249890D01*
X0040535Y0249722D01*
X0040554Y0249554D01*
X0040568Y0249386D01*
X0040579Y0249217D01*
X0040585Y0249048D01*
X0040587Y0248879D01*
X0040585Y0248710D01*
X0040579Y0248541D01*
X0040568Y0248372D01*
X0040554Y0248204D01*
X0040535Y0248036D01*
X0040512Y0247868D01*
X0040486Y0247701D01*
X0040455Y0247535D01*
X0040420Y0247369D01*
X0040381Y0247205D01*
X0040337Y0247041D01*
X0040290Y0246879D01*
X0040239Y0246718D01*
X0040184Y0246558D01*
X0040125Y0246399D01*
X0040063Y0246242D01*
X0039996Y0246087D01*
X0039925Y0245933D01*
X0039851Y0245781D01*
X0039773Y0245631D01*
X0039692Y0245483D01*
X0039607Y0245337D01*
X0039518Y0245193D01*
X0039426Y0245051D01*
X0039330Y0244912D01*
X0039231Y0244775D01*
X0039129Y0244640D01*
X0039023Y0244508D01*
X0038914Y0244379D01*
X0038802Y0244252D01*
X0038687Y0244128D01*
X0038569Y0244007D01*
X0038448Y0243889D01*
X0038324Y0243774D01*
X0038197Y0243662D01*
X0038068Y0243553D01*
X0037936Y0243447D01*
X0037801Y0243345D01*
X0037664Y0243246D01*
X0037525Y0243150D01*
X0037383Y0243058D01*
X0037239Y0242969D01*
X0037093Y0242884D01*
X0036945Y0242803D01*
X0036795Y0242725D01*
X0036643Y0242651D01*
X0036489Y0242580D01*
X0036334Y0242513D01*
X0036177Y0242451D01*
X0036018Y0242392D01*
X0035858Y0242337D01*
X0035697Y0242286D01*
X0035535Y0242239D01*
X0035371Y0242195D01*
X0035207Y0242156D01*
X0035041Y0242121D01*
X0034875Y0242090D01*
X0034708Y0242064D01*
X0034540Y0242041D01*
X0034372Y0242022D01*
X0034204Y0242008D01*
X0034035Y0241997D01*
X0033866Y0241991D01*
X0033697Y0241989D01*
X0033528Y0241991D01*
X0033359Y0241997D01*
X0033190Y0242008D01*
X0033022Y0242022D01*
X0032854Y0242041D01*
X0032686Y0242064D01*
X0032519Y0242090D01*
X0032353Y0242121D01*
X0032187Y0242156D01*
X0032023Y0242195D01*
X0031859Y0242239D01*
X0031697Y0242286D01*
X0031536Y0242337D01*
X0031376Y0242392D01*
X0031217Y0242451D01*
X0031060Y0242513D01*
X0030905Y0242580D01*
X0030751Y0242651D01*
X0030599Y0242725D01*
X0030449Y0242803D01*
X0030301Y0242884D01*
X0030155Y0242969D01*
X0030011Y0243058D01*
X0029869Y0243150D01*
X0029730Y0243246D01*
X0029593Y0243345D01*
X0029458Y0243447D01*
X0029326Y0243553D01*
X0029197Y0243662D01*
X0029070Y0243774D01*
X0028946Y0243889D01*
X0028825Y0244007D01*
X0028707Y0244128D01*
X0028592Y0244252D01*
X0028480Y0244379D01*
X0028371Y0244508D01*
X0028265Y0244640D01*
X0028163Y0244775D01*
X0028064Y0244912D01*
X0027968Y0245051D01*
X0027876Y0245193D01*
X0027787Y0245337D01*
X0027702Y0245483D01*
X0027621Y0245631D01*
X0027543Y0245781D01*
X0027469Y0245933D01*
X0027398Y0246087D01*
X0027331Y0246242D01*
X0027269Y0246399D01*
X0027210Y0246558D01*
X0027155Y0246718D01*
X0027104Y0246879D01*
X0027057Y0247041D01*
X0027013Y0247205D01*
X0026974Y0247369D01*
X0026939Y0247535D01*
X0026908Y0247701D01*
X0026882Y0247868D01*
X0026859Y0248036D01*
X0026840Y0248204D01*
X0026826Y0248372D01*
X0026815Y0248541D01*
X0026809Y0248710D01*
X0026807Y0248879D01*
X0391807Y0248879D02*
X0391809Y0249048D01*
X0391815Y0249217D01*
X0391826Y0249386D01*
X0391840Y0249554D01*
X0391859Y0249722D01*
X0391882Y0249890D01*
X0391908Y0250057D01*
X0391939Y0250223D01*
X0391974Y0250389D01*
X0392013Y0250553D01*
X0392057Y0250717D01*
X0392104Y0250879D01*
X0392155Y0251040D01*
X0392210Y0251200D01*
X0392269Y0251359D01*
X0392331Y0251516D01*
X0392398Y0251671D01*
X0392469Y0251825D01*
X0392543Y0251977D01*
X0392621Y0252127D01*
X0392702Y0252275D01*
X0392787Y0252421D01*
X0392876Y0252565D01*
X0392968Y0252707D01*
X0393064Y0252846D01*
X0393163Y0252983D01*
X0393265Y0253118D01*
X0393371Y0253250D01*
X0393480Y0253379D01*
X0393592Y0253506D01*
X0393707Y0253630D01*
X0393825Y0253751D01*
X0393946Y0253869D01*
X0394070Y0253984D01*
X0394197Y0254096D01*
X0394326Y0254205D01*
X0394458Y0254311D01*
X0394593Y0254413D01*
X0394730Y0254512D01*
X0394869Y0254608D01*
X0395011Y0254700D01*
X0395155Y0254789D01*
X0395301Y0254874D01*
X0395449Y0254955D01*
X0395599Y0255033D01*
X0395751Y0255107D01*
X0395905Y0255178D01*
X0396060Y0255245D01*
X0396217Y0255307D01*
X0396376Y0255366D01*
X0396536Y0255421D01*
X0396697Y0255472D01*
X0396859Y0255519D01*
X0397023Y0255563D01*
X0397187Y0255602D01*
X0397353Y0255637D01*
X0397519Y0255668D01*
X0397686Y0255694D01*
X0397854Y0255717D01*
X0398022Y0255736D01*
X0398190Y0255750D01*
X0398359Y0255761D01*
X0398528Y0255767D01*
X0398697Y0255769D01*
X0398866Y0255767D01*
X0399035Y0255761D01*
X0399204Y0255750D01*
X0399372Y0255736D01*
X0399540Y0255717D01*
X0399708Y0255694D01*
X0399875Y0255668D01*
X0400041Y0255637D01*
X0400207Y0255602D01*
X0400371Y0255563D01*
X0400535Y0255519D01*
X0400697Y0255472D01*
X0400858Y0255421D01*
X0401018Y0255366D01*
X0401177Y0255307D01*
X0401334Y0255245D01*
X0401489Y0255178D01*
X0401643Y0255107D01*
X0401795Y0255033D01*
X0401945Y0254955D01*
X0402093Y0254874D01*
X0402239Y0254789D01*
X0402383Y0254700D01*
X0402525Y0254608D01*
X0402664Y0254512D01*
X0402801Y0254413D01*
X0402936Y0254311D01*
X0403068Y0254205D01*
X0403197Y0254096D01*
X0403324Y0253984D01*
X0403448Y0253869D01*
X0403569Y0253751D01*
X0403687Y0253630D01*
X0403802Y0253506D01*
X0403914Y0253379D01*
X0404023Y0253250D01*
X0404129Y0253118D01*
X0404231Y0252983D01*
X0404330Y0252846D01*
X0404426Y0252707D01*
X0404518Y0252565D01*
X0404607Y0252421D01*
X0404692Y0252275D01*
X0404773Y0252127D01*
X0404851Y0251977D01*
X0404925Y0251825D01*
X0404996Y0251671D01*
X0405063Y0251516D01*
X0405125Y0251359D01*
X0405184Y0251200D01*
X0405239Y0251040D01*
X0405290Y0250879D01*
X0405337Y0250717D01*
X0405381Y0250553D01*
X0405420Y0250389D01*
X0405455Y0250223D01*
X0405486Y0250057D01*
X0405512Y0249890D01*
X0405535Y0249722D01*
X0405554Y0249554D01*
X0405568Y0249386D01*
X0405579Y0249217D01*
X0405585Y0249048D01*
X0405587Y0248879D01*
X0405585Y0248710D01*
X0405579Y0248541D01*
X0405568Y0248372D01*
X0405554Y0248204D01*
X0405535Y0248036D01*
X0405512Y0247868D01*
X0405486Y0247701D01*
X0405455Y0247535D01*
X0405420Y0247369D01*
X0405381Y0247205D01*
X0405337Y0247041D01*
X0405290Y0246879D01*
X0405239Y0246718D01*
X0405184Y0246558D01*
X0405125Y0246399D01*
X0405063Y0246242D01*
X0404996Y0246087D01*
X0404925Y0245933D01*
X0404851Y0245781D01*
X0404773Y0245631D01*
X0404692Y0245483D01*
X0404607Y0245337D01*
X0404518Y0245193D01*
X0404426Y0245051D01*
X0404330Y0244912D01*
X0404231Y0244775D01*
X0404129Y0244640D01*
X0404023Y0244508D01*
X0403914Y0244379D01*
X0403802Y0244252D01*
X0403687Y0244128D01*
X0403569Y0244007D01*
X0403448Y0243889D01*
X0403324Y0243774D01*
X0403197Y0243662D01*
X0403068Y0243553D01*
X0402936Y0243447D01*
X0402801Y0243345D01*
X0402664Y0243246D01*
X0402525Y0243150D01*
X0402383Y0243058D01*
X0402239Y0242969D01*
X0402093Y0242884D01*
X0401945Y0242803D01*
X0401795Y0242725D01*
X0401643Y0242651D01*
X0401489Y0242580D01*
X0401334Y0242513D01*
X0401177Y0242451D01*
X0401018Y0242392D01*
X0400858Y0242337D01*
X0400697Y0242286D01*
X0400535Y0242239D01*
X0400371Y0242195D01*
X0400207Y0242156D01*
X0400041Y0242121D01*
X0399875Y0242090D01*
X0399708Y0242064D01*
X0399540Y0242041D01*
X0399372Y0242022D01*
X0399204Y0242008D01*
X0399035Y0241997D01*
X0398866Y0241991D01*
X0398697Y0241989D01*
X0398528Y0241991D01*
X0398359Y0241997D01*
X0398190Y0242008D01*
X0398022Y0242022D01*
X0397854Y0242041D01*
X0397686Y0242064D01*
X0397519Y0242090D01*
X0397353Y0242121D01*
X0397187Y0242156D01*
X0397023Y0242195D01*
X0396859Y0242239D01*
X0396697Y0242286D01*
X0396536Y0242337D01*
X0396376Y0242392D01*
X0396217Y0242451D01*
X0396060Y0242513D01*
X0395905Y0242580D01*
X0395751Y0242651D01*
X0395599Y0242725D01*
X0395449Y0242803D01*
X0395301Y0242884D01*
X0395155Y0242969D01*
X0395011Y0243058D01*
X0394869Y0243150D01*
X0394730Y0243246D01*
X0394593Y0243345D01*
X0394458Y0243447D01*
X0394326Y0243553D01*
X0394197Y0243662D01*
X0394070Y0243774D01*
X0393946Y0243889D01*
X0393825Y0244007D01*
X0393707Y0244128D01*
X0393592Y0244252D01*
X0393480Y0244379D01*
X0393371Y0244508D01*
X0393265Y0244640D01*
X0393163Y0244775D01*
X0393064Y0244912D01*
X0392968Y0245051D01*
X0392876Y0245193D01*
X0392787Y0245337D01*
X0392702Y0245483D01*
X0392621Y0245631D01*
X0392543Y0245781D01*
X0392469Y0245933D01*
X0392398Y0246087D01*
X0392331Y0246242D01*
X0392269Y0246399D01*
X0392210Y0246558D01*
X0392155Y0246718D01*
X0392104Y0246879D01*
X0392057Y0247041D01*
X0392013Y0247205D01*
X0391974Y0247369D01*
X0391939Y0247535D01*
X0391908Y0247701D01*
X0391882Y0247868D01*
X0391859Y0248036D01*
X0391840Y0248204D01*
X0391826Y0248372D01*
X0391815Y0248541D01*
X0391809Y0248710D01*
X0391807Y0248879D01*
X0391807Y0028879D02*
X0391809Y0029048D01*
X0391815Y0029217D01*
X0391826Y0029386D01*
X0391840Y0029554D01*
X0391859Y0029722D01*
X0391882Y0029890D01*
X0391908Y0030057D01*
X0391939Y0030223D01*
X0391974Y0030389D01*
X0392013Y0030553D01*
X0392057Y0030717D01*
X0392104Y0030879D01*
X0392155Y0031040D01*
X0392210Y0031200D01*
X0392269Y0031359D01*
X0392331Y0031516D01*
X0392398Y0031671D01*
X0392469Y0031825D01*
X0392543Y0031977D01*
X0392621Y0032127D01*
X0392702Y0032275D01*
X0392787Y0032421D01*
X0392876Y0032565D01*
X0392968Y0032707D01*
X0393064Y0032846D01*
X0393163Y0032983D01*
X0393265Y0033118D01*
X0393371Y0033250D01*
X0393480Y0033379D01*
X0393592Y0033506D01*
X0393707Y0033630D01*
X0393825Y0033751D01*
X0393946Y0033869D01*
X0394070Y0033984D01*
X0394197Y0034096D01*
X0394326Y0034205D01*
X0394458Y0034311D01*
X0394593Y0034413D01*
X0394730Y0034512D01*
X0394869Y0034608D01*
X0395011Y0034700D01*
X0395155Y0034789D01*
X0395301Y0034874D01*
X0395449Y0034955D01*
X0395599Y0035033D01*
X0395751Y0035107D01*
X0395905Y0035178D01*
X0396060Y0035245D01*
X0396217Y0035307D01*
X0396376Y0035366D01*
X0396536Y0035421D01*
X0396697Y0035472D01*
X0396859Y0035519D01*
X0397023Y0035563D01*
X0397187Y0035602D01*
X0397353Y0035637D01*
X0397519Y0035668D01*
X0397686Y0035694D01*
X0397854Y0035717D01*
X0398022Y0035736D01*
X0398190Y0035750D01*
X0398359Y0035761D01*
X0398528Y0035767D01*
X0398697Y0035769D01*
X0398866Y0035767D01*
X0399035Y0035761D01*
X0399204Y0035750D01*
X0399372Y0035736D01*
X0399540Y0035717D01*
X0399708Y0035694D01*
X0399875Y0035668D01*
X0400041Y0035637D01*
X0400207Y0035602D01*
X0400371Y0035563D01*
X0400535Y0035519D01*
X0400697Y0035472D01*
X0400858Y0035421D01*
X0401018Y0035366D01*
X0401177Y0035307D01*
X0401334Y0035245D01*
X0401489Y0035178D01*
X0401643Y0035107D01*
X0401795Y0035033D01*
X0401945Y0034955D01*
X0402093Y0034874D01*
X0402239Y0034789D01*
X0402383Y0034700D01*
X0402525Y0034608D01*
X0402664Y0034512D01*
X0402801Y0034413D01*
X0402936Y0034311D01*
X0403068Y0034205D01*
X0403197Y0034096D01*
X0403324Y0033984D01*
X0403448Y0033869D01*
X0403569Y0033751D01*
X0403687Y0033630D01*
X0403802Y0033506D01*
X0403914Y0033379D01*
X0404023Y0033250D01*
X0404129Y0033118D01*
X0404231Y0032983D01*
X0404330Y0032846D01*
X0404426Y0032707D01*
X0404518Y0032565D01*
X0404607Y0032421D01*
X0404692Y0032275D01*
X0404773Y0032127D01*
X0404851Y0031977D01*
X0404925Y0031825D01*
X0404996Y0031671D01*
X0405063Y0031516D01*
X0405125Y0031359D01*
X0405184Y0031200D01*
X0405239Y0031040D01*
X0405290Y0030879D01*
X0405337Y0030717D01*
X0405381Y0030553D01*
X0405420Y0030389D01*
X0405455Y0030223D01*
X0405486Y0030057D01*
X0405512Y0029890D01*
X0405535Y0029722D01*
X0405554Y0029554D01*
X0405568Y0029386D01*
X0405579Y0029217D01*
X0405585Y0029048D01*
X0405587Y0028879D01*
X0405585Y0028710D01*
X0405579Y0028541D01*
X0405568Y0028372D01*
X0405554Y0028204D01*
X0405535Y0028036D01*
X0405512Y0027868D01*
X0405486Y0027701D01*
X0405455Y0027535D01*
X0405420Y0027369D01*
X0405381Y0027205D01*
X0405337Y0027041D01*
X0405290Y0026879D01*
X0405239Y0026718D01*
X0405184Y0026558D01*
X0405125Y0026399D01*
X0405063Y0026242D01*
X0404996Y0026087D01*
X0404925Y0025933D01*
X0404851Y0025781D01*
X0404773Y0025631D01*
X0404692Y0025483D01*
X0404607Y0025337D01*
X0404518Y0025193D01*
X0404426Y0025051D01*
X0404330Y0024912D01*
X0404231Y0024775D01*
X0404129Y0024640D01*
X0404023Y0024508D01*
X0403914Y0024379D01*
X0403802Y0024252D01*
X0403687Y0024128D01*
X0403569Y0024007D01*
X0403448Y0023889D01*
X0403324Y0023774D01*
X0403197Y0023662D01*
X0403068Y0023553D01*
X0402936Y0023447D01*
X0402801Y0023345D01*
X0402664Y0023246D01*
X0402525Y0023150D01*
X0402383Y0023058D01*
X0402239Y0022969D01*
X0402093Y0022884D01*
X0401945Y0022803D01*
X0401795Y0022725D01*
X0401643Y0022651D01*
X0401489Y0022580D01*
X0401334Y0022513D01*
X0401177Y0022451D01*
X0401018Y0022392D01*
X0400858Y0022337D01*
X0400697Y0022286D01*
X0400535Y0022239D01*
X0400371Y0022195D01*
X0400207Y0022156D01*
X0400041Y0022121D01*
X0399875Y0022090D01*
X0399708Y0022064D01*
X0399540Y0022041D01*
X0399372Y0022022D01*
X0399204Y0022008D01*
X0399035Y0021997D01*
X0398866Y0021991D01*
X0398697Y0021989D01*
X0398528Y0021991D01*
X0398359Y0021997D01*
X0398190Y0022008D01*
X0398022Y0022022D01*
X0397854Y0022041D01*
X0397686Y0022064D01*
X0397519Y0022090D01*
X0397353Y0022121D01*
X0397187Y0022156D01*
X0397023Y0022195D01*
X0396859Y0022239D01*
X0396697Y0022286D01*
X0396536Y0022337D01*
X0396376Y0022392D01*
X0396217Y0022451D01*
X0396060Y0022513D01*
X0395905Y0022580D01*
X0395751Y0022651D01*
X0395599Y0022725D01*
X0395449Y0022803D01*
X0395301Y0022884D01*
X0395155Y0022969D01*
X0395011Y0023058D01*
X0394869Y0023150D01*
X0394730Y0023246D01*
X0394593Y0023345D01*
X0394458Y0023447D01*
X0394326Y0023553D01*
X0394197Y0023662D01*
X0394070Y0023774D01*
X0393946Y0023889D01*
X0393825Y0024007D01*
X0393707Y0024128D01*
X0393592Y0024252D01*
X0393480Y0024379D01*
X0393371Y0024508D01*
X0393265Y0024640D01*
X0393163Y0024775D01*
X0393064Y0024912D01*
X0392968Y0025051D01*
X0392876Y0025193D01*
X0392787Y0025337D01*
X0392702Y0025483D01*
X0392621Y0025631D01*
X0392543Y0025781D01*
X0392469Y0025933D01*
X0392398Y0026087D01*
X0392331Y0026242D01*
X0392269Y0026399D01*
X0392210Y0026558D01*
X0392155Y0026718D01*
X0392104Y0026879D01*
X0392057Y0027041D01*
X0392013Y0027205D01*
X0391974Y0027369D01*
X0391939Y0027535D01*
X0391908Y0027701D01*
X0391882Y0027868D01*
X0391859Y0028036D01*
X0391840Y0028204D01*
X0391826Y0028372D01*
X0391815Y0028541D01*
X0391809Y0028710D01*
X0391807Y0028879D01*
D11*
X0160331Y0051379D03*
X0152063Y0051379D03*
X0152063Y0068879D03*
X0160331Y0068879D03*
X0160331Y0113879D03*
X0152063Y0113879D03*
X0152063Y0131379D03*
X0160331Y0131379D03*
X0160331Y0188879D03*
X0152063Y0188879D03*
X0152063Y0206379D03*
X0160331Y0206379D03*
X0092831Y0196379D03*
X0084563Y0196379D03*
D12*
X0301197Y0204903D03*
X0301197Y0182856D03*
X0301197Y0132403D03*
X0301197Y0110356D03*
X0301197Y0057403D03*
X0301197Y0035356D03*
D13*
X0158697Y0233879D03*
X0283614Y0243801D03*
D14*
X0283614Y0233801D03*
X0158697Y0243879D03*
D15*
X0390172Y0211379D02*
X0397222Y0211379D01*
X0397222Y0191379D02*
X0390172Y0191379D01*
X0390251Y0138564D02*
X0397301Y0138564D01*
X0397301Y0118879D02*
X0390251Y0118879D01*
X0390251Y0099194D02*
X0397301Y0099194D01*
D16*
X0058697Y0196479D03*
X0048697Y0206379D03*
X0058697Y0216279D03*
D17*
X0111078Y0201369D03*
X0111078Y0197629D03*
X0111078Y0193889D03*
X0121315Y0193889D03*
X0121315Y0197629D03*
X0121315Y0201369D03*
X0121315Y0126369D03*
X0121315Y0122629D03*
X0121315Y0118889D03*
X0111078Y0118889D03*
X0111078Y0122629D03*
X0111078Y0126369D03*
X0111078Y0063869D03*
X0111078Y0060129D03*
X0111078Y0056389D03*
X0121315Y0056389D03*
X0121315Y0060129D03*
X0121315Y0063869D03*
D18*
X0330173Y0051379D03*
X0330173Y0046379D03*
X0330173Y0041379D03*
X0330173Y0036379D03*
X0352220Y0036379D03*
X0352220Y0041379D03*
X0352220Y0046379D03*
X0352220Y0051379D03*
X0352220Y0111379D03*
X0352220Y0116379D03*
X0352220Y0121379D03*
X0352220Y0126379D03*
X0330173Y0126379D03*
X0330173Y0121379D03*
X0330173Y0116379D03*
X0330173Y0111379D03*
X0330173Y0186379D03*
X0330173Y0191379D03*
X0330173Y0196379D03*
X0330173Y0201379D03*
X0352220Y0201379D03*
X0352220Y0196379D03*
X0352220Y0191379D03*
X0352220Y0186379D03*
D19*
X0331197Y0156379D03*
X0331197Y0081379D03*
X0331197Y0231379D03*
D20*
X0351197Y0231379D03*
X0351197Y0156379D03*
X0351197Y0081379D03*
D21*
X0222594Y0229903D03*
X0222594Y0247856D03*
D22*
X0193854Y0238879D03*
D23*
X0121197Y0213879D03*
X0111197Y0213879D03*
X0058697Y0233879D03*
X0058697Y0243879D03*
X0058697Y0171379D03*
X0058697Y0161379D03*
X0058697Y0151379D03*
X0058697Y0141379D03*
X0058697Y0131379D03*
X0058697Y0103879D03*
X0058697Y0093879D03*
X0058697Y0083879D03*
X0058697Y0073879D03*
X0058697Y0063879D03*
X0058697Y0053879D03*
X0111197Y0033879D03*
X0121197Y0033879D03*
X0141197Y0033879D03*
X0151197Y0033879D03*
X0121197Y0076379D03*
X0111197Y0076379D03*
X0111197Y0096379D03*
X0121197Y0096379D03*
X0121197Y0138879D03*
X0111197Y0138879D03*
X0111197Y0171379D03*
X0121197Y0171379D03*
X0144947Y0173879D03*
X0171197Y0156379D03*
X0181197Y0156379D03*
X0191197Y0156379D03*
X0201197Y0156379D03*
X0183697Y0087629D03*
X0308697Y0223879D03*
X0308697Y0243879D03*
D24*
X0252437Y0242629D03*
X0244957Y0242629D03*
X0232437Y0207629D03*
X0224957Y0207629D03*
X0244957Y0200129D03*
X0252437Y0200129D03*
X0252437Y0187629D03*
X0244957Y0187629D03*
X0232437Y0183879D03*
X0224957Y0183879D03*
X0224957Y0173879D03*
X0232437Y0173879D03*
X0199937Y0193879D03*
X0192457Y0193879D03*
X0179937Y0193879D03*
X0172457Y0193879D03*
X0172457Y0176379D03*
X0179937Y0176379D03*
X0141187Y0188879D03*
X0133707Y0188879D03*
X0119937Y0183879D03*
X0112457Y0183879D03*
X0092437Y0181379D03*
X0084957Y0181379D03*
X0084957Y0168879D03*
X0092437Y0168879D03*
X0092437Y0156379D03*
X0084957Y0156379D03*
X0084957Y0143879D03*
X0092437Y0143879D03*
X0092437Y0131379D03*
X0084957Y0131379D03*
X0084957Y0118879D03*
X0092437Y0118879D03*
X0078687Y0108879D03*
X0071207Y0108879D03*
X0092457Y0101379D03*
X0099937Y0101379D03*
X0112457Y0108879D03*
X0119937Y0108879D03*
X0133707Y0113879D03*
X0141187Y0113879D03*
X0141187Y0131379D03*
X0133707Y0131379D03*
X0172457Y0136379D03*
X0179937Y0136379D03*
X0179937Y0118879D03*
X0172457Y0118879D03*
X0192457Y0118879D03*
X0199937Y0118879D03*
X0224957Y0111379D03*
X0232437Y0111379D03*
X0244957Y0115129D03*
X0252437Y0115129D03*
X0252437Y0127629D03*
X0244957Y0127629D03*
X0232437Y0135129D03*
X0224957Y0135129D03*
X0224957Y0101379D03*
X0232437Y0101379D03*
X0278707Y0115129D03*
X0286187Y0115129D03*
X0286187Y0127629D03*
X0278707Y0127629D03*
X0278707Y0187629D03*
X0286187Y0187629D03*
X0286187Y0200129D03*
X0278707Y0200129D03*
X0179937Y0211379D03*
X0172457Y0211379D03*
X0141187Y0206379D03*
X0133707Y0206379D03*
X0092437Y0208879D03*
X0084957Y0208879D03*
X0084957Y0221379D03*
X0092437Y0221379D03*
X0092437Y0233879D03*
X0084957Y0233879D03*
X0084957Y0243879D03*
X0092437Y0243879D03*
X0172457Y0101379D03*
X0179937Y0101379D03*
X0179937Y0073879D03*
X0172457Y0073879D03*
X0172457Y0056379D03*
X0179937Y0056379D03*
X0192457Y0056379D03*
X0199937Y0056379D03*
X0224957Y0060129D03*
X0232437Y0060129D03*
X0244957Y0052629D03*
X0252437Y0052629D03*
X0252437Y0040129D03*
X0244957Y0040129D03*
X0232437Y0036379D03*
X0224957Y0036379D03*
X0224957Y0026379D03*
X0232437Y0026379D03*
X0278707Y0040129D03*
X0286187Y0040129D03*
X0286187Y0052629D03*
X0278707Y0052629D03*
X0179937Y0038879D03*
X0172457Y0038879D03*
X0141187Y0051379D03*
X0133707Y0051379D03*
X0119937Y0046379D03*
X0112457Y0046379D03*
X0099937Y0046379D03*
X0092457Y0046379D03*
X0133707Y0068879D03*
X0141187Y0068879D03*
X0099937Y0081379D03*
X0092457Y0081379D03*
X0078687Y0088879D03*
X0071207Y0088879D03*
D25*
X0099947Y0071369D03*
X0099947Y0063889D03*
X0213697Y0050119D03*
X0213697Y0042639D03*
X0264947Y0042639D03*
X0264947Y0050119D03*
X0318697Y0032619D03*
X0318697Y0025139D03*
X0318697Y0100139D03*
X0318697Y0107619D03*
X0264947Y0117639D03*
X0264947Y0125119D03*
X0263697Y0150139D03*
X0263697Y0157619D03*
X0251197Y0157619D03*
X0251197Y0150139D03*
X0277447Y0150139D03*
X0277447Y0157619D03*
X0318697Y0175139D03*
X0318697Y0182619D03*
X0264947Y0190139D03*
X0264947Y0197619D03*
X0262447Y0235139D03*
X0262447Y0242619D03*
X0234947Y0242619D03*
X0234947Y0235139D03*
X0213697Y0197619D03*
X0213697Y0190139D03*
X0221197Y0157619D03*
X0221197Y0150139D03*
X0213697Y0125119D03*
X0213697Y0117639D03*
X0136197Y0235139D03*
X0136197Y0242619D03*
X0123697Y0242619D03*
X0123697Y0235139D03*
X0111197Y0235139D03*
X0111197Y0242619D03*
X0074947Y0242619D03*
X0074947Y0235139D03*
D26*
X0192457Y0207049D03*
X0199937Y0207049D03*
X0196197Y0215710D03*
X0199937Y0180710D03*
X0192457Y0180710D03*
X0196197Y0172049D03*
X0196197Y0140710D03*
X0199937Y0132049D03*
X0192457Y0132049D03*
X0192457Y0105710D03*
X0199937Y0105710D03*
X0196197Y0097049D03*
X0196197Y0078210D03*
X0199937Y0069549D03*
X0192457Y0069549D03*
X0192457Y0043210D03*
X0199937Y0043210D03*
X0196197Y0034549D03*
D27*
X0225147Y0043829D03*
X0225147Y0051429D03*
X0234747Y0051429D03*
X0234747Y0047629D03*
X0234747Y0043829D03*
X0234747Y0118204D03*
X0234747Y0122004D03*
X0234747Y0125804D03*
X0225147Y0125804D03*
X0225147Y0118204D03*
X0231397Y0150079D03*
X0231397Y0157679D03*
X0240997Y0157679D03*
X0240997Y0153879D03*
X0240997Y0150079D03*
X0234747Y0191329D03*
X0234747Y0195129D03*
X0234747Y0198929D03*
X0225147Y0198929D03*
X0225147Y0191329D03*
D28*
X0224697Y0191379D01*
X0221194Y0191379D01*
X0220391Y0189981D01*
X0219697Y0190379D01*
X0219594Y0191173D01*
X0221194Y0191379D01*
X0220197Y0191379D01*
X0219697Y0190379D01*
X0219554Y0191166D01*
X0217968Y0190879D01*
X0219156Y0189790D01*
X0219697Y0190379D01*
X0220237Y0189790D01*
X0219697Y0190379D02*
X0219839Y0191166D01*
X0219697Y0190879D02*
X0219697Y0190379D01*
X0219697Y0190879D02*
X0217968Y0190879D01*
X0214197Y0190879D01*
X0213697Y0190379D01*
X0213697Y0190139D01*
X0213197Y0189879D01*
X0205970Y0182652D01*
X0205455Y0181124D01*
X0204697Y0181379D01*
X0204442Y0182137D01*
X0205970Y0182652D01*
X0204697Y0181379D01*
X0208955Y0193124D02*
X0208197Y0193379D01*
X0207942Y0194137D01*
X0209470Y0194652D01*
X0208955Y0193124D01*
X0208197Y0193379D02*
X0209470Y0194652D01*
X0212197Y0197379D01*
X0213197Y0197379D01*
X0213697Y0197619D01*
X0215197Y0197379D01*
X0217197Y0195379D01*
X0234697Y0195379D01*
X0234747Y0195129D01*
X0214697Y0197379D02*
X0213697Y0197379D01*
X0213697Y0197619D01*
X0200197Y0193879D02*
X0199937Y0193879D01*
X0200197Y0193879D02*
X0200197Y0202379D01*
X0197997Y0202379D01*
X0196552Y0201663D01*
X0196197Y0202379D01*
X0196552Y0201663D01*
X0197997Y0202379D01*
X0196552Y0203096D01*
X0196197Y0202379D01*
X0196552Y0201663D01*
X0196552Y0201663D01*
X0196552Y0201663D01*
X0197997Y0202379D01*
X0197997Y0202379D01*
X0196552Y0201663D01*
X0196552Y0201663D01*
X0196552Y0201663D01*
X0197997Y0202379D01*
X0197997Y0202379D01*
X0197997Y0202379D01*
X0196552Y0203096D01*
X0196552Y0203096D01*
X0197997Y0202379D01*
X0197997Y0202379D01*
X0196552Y0203096D01*
X0196552Y0203096D01*
X0196552Y0203096D01*
X0196552Y0203096D01*
X0196197Y0202379D01*
X0197997Y0202379D01*
X0196552Y0203096D01*
X0196552Y0203096D01*
X0196552Y0201663D02*
X0196552Y0201663D01*
X0200197Y0202379D02*
X0200197Y0206879D01*
X0199937Y0207049D01*
X0163697Y0238379D02*
X0161196Y0235878D01*
X0159197Y0233879D01*
X0158697Y0233879D01*
X0157697Y0234879D01*
X0155657Y0234879D01*
X0136197Y0234879D01*
X0136197Y0235139D01*
X0135697Y0234879D01*
X0125697Y0224879D01*
X0097197Y0224879D01*
X0097197Y0201379D01*
X0092697Y0196879D01*
X0092831Y0196379D01*
X0092697Y0196379D01*
X0088197Y0191879D01*
X0063197Y0191879D01*
X0063197Y0191379D01*
X0058697Y0186879D01*
X0058697Y0175379D01*
X0058697Y0171379D01*
X0058697Y0175379D02*
X0058697Y0175379D01*
X0063197Y0191879D02*
X0060909Y0194167D01*
X0058433Y0194497D01*
X0058697Y0196479D01*
X0060689Y0196655D01*
X0060909Y0194167D01*
X0058697Y0196379D01*
X0058697Y0196479D01*
X0092437Y0208879D02*
X0092697Y0208879D01*
X0092697Y0221379D01*
X0092437Y0221379D01*
X0092197Y0221879D01*
X0089697Y0224379D01*
X0089697Y0224879D01*
X0085697Y0228879D01*
X0081697Y0228879D01*
X0080197Y0230379D01*
X0080197Y0242879D01*
X0075207Y0242879D01*
X0075176Y0242877D01*
X0075145Y0242871D01*
X0075115Y0242862D01*
X0075086Y0242849D01*
X0075059Y0242833D01*
X0075035Y0242814D01*
X0075012Y0242791D01*
X0074993Y0242767D01*
X0074977Y0242740D01*
X0074964Y0242711D01*
X0074955Y0242681D01*
X0074949Y0242650D01*
X0074947Y0242619D01*
X0074945Y0242687D01*
X0074940Y0242755D01*
X0074930Y0242823D01*
X0074918Y0242890D01*
X0074901Y0242956D01*
X0074881Y0243021D01*
X0074858Y0243085D01*
X0074831Y0243148D01*
X0074800Y0243209D01*
X0074767Y0243269D01*
X0074730Y0243326D01*
X0074690Y0243382D01*
X0074647Y0243435D01*
X0074602Y0243486D01*
X0074554Y0243534D01*
X0074503Y0243579D01*
X0074450Y0243622D01*
X0074394Y0243662D01*
X0074337Y0243699D01*
X0074277Y0243732D01*
X0074216Y0243763D01*
X0074153Y0243790D01*
X0074089Y0243813D01*
X0074024Y0243833D01*
X0073958Y0243850D01*
X0073891Y0243862D01*
X0073823Y0243872D01*
X0073755Y0243877D01*
X0073687Y0243879D01*
X0062697Y0243879D01*
X0062697Y0243879D01*
X0058697Y0243879D01*
X0059957Y0235139D02*
X0058697Y0233879D01*
X0059957Y0235139D02*
X0062493Y0235139D01*
X0074947Y0235139D01*
X0084957Y0233879D02*
X0085197Y0233879D01*
X0085197Y0232879D01*
X0091697Y0226379D01*
X0095697Y0226379D01*
X0097197Y0224879D01*
X0092437Y0233879D02*
X0110197Y0233879D01*
X0111197Y0234879D01*
X0111197Y0235139D01*
X0111697Y0235379D01*
X0123697Y0235379D01*
X0123697Y0235139D01*
X0124197Y0235379D01*
X0128397Y0235379D01*
X0129841Y0236096D01*
X0130197Y0235379D01*
X0129841Y0236096D01*
X0129841Y0236096D01*
X0128397Y0235379D01*
X0129841Y0234663D01*
X0130197Y0235379D01*
X0129841Y0234663D01*
X0128397Y0235379D01*
X0129841Y0234663D01*
X0129841Y0234663D01*
X0129841Y0234663D01*
X0130197Y0235379D01*
X0129841Y0234663D01*
X0128397Y0235379D01*
X0128397Y0235379D01*
X0129841Y0234663D01*
X0129841Y0234663D01*
X0129841Y0234663D01*
X0128397Y0235379D01*
X0129841Y0236096D01*
X0129841Y0236096D01*
X0128397Y0235379D01*
X0129841Y0234663D01*
X0128397Y0235379D01*
X0128397Y0235379D01*
X0128397Y0235379D01*
X0128397Y0235379D01*
X0129841Y0236096D01*
X0129841Y0236096D01*
X0129841Y0236096D01*
X0130197Y0235379D02*
X0128397Y0235379D01*
X0128397Y0235379D01*
X0129841Y0234663D02*
X0129841Y0234663D01*
X0129841Y0234663D01*
X0129841Y0234663D01*
X0129841Y0234663D01*
X0129841Y0242163D02*
X0128397Y0242879D01*
X0129841Y0243596D01*
X0130197Y0242879D01*
X0129841Y0243596D01*
X0129841Y0243596D01*
X0128397Y0242879D01*
X0129841Y0242163D01*
X0130197Y0242879D01*
X0129841Y0242163D01*
X0128397Y0242879D01*
X0129841Y0242163D01*
X0129841Y0242163D01*
X0129841Y0242163D01*
X0130197Y0242879D01*
X0129841Y0242163D01*
X0128397Y0242879D01*
X0128397Y0242879D01*
X0129841Y0242163D01*
X0129841Y0242163D01*
X0129841Y0242163D01*
X0128397Y0242879D01*
X0129841Y0243596D01*
X0129841Y0243596D01*
X0128397Y0242879D01*
X0128397Y0242879D01*
X0129841Y0242163D01*
X0129841Y0242163D01*
X0129841Y0242163D01*
X0129841Y0242163D01*
X0129841Y0242163D01*
X0130197Y0242879D02*
X0128397Y0242879D01*
X0128397Y0242879D01*
X0128397Y0242879D01*
X0129841Y0243596D01*
X0129841Y0243596D01*
X0129841Y0243596D01*
X0128397Y0242879D02*
X0128397Y0242879D01*
X0124197Y0242879D01*
X0123697Y0242619D01*
X0123697Y0242879D01*
X0111197Y0242879D01*
X0111197Y0242619D01*
X0110697Y0242879D01*
X0109697Y0243879D01*
X0092437Y0243879D01*
X0089197Y0248879D02*
X0084957Y0244639D01*
X0084957Y0243879D01*
X0084697Y0243879D01*
X0083697Y0242879D01*
X0080197Y0242879D01*
X0089197Y0248879D02*
X0129697Y0248879D01*
X0135697Y0242879D01*
X0136197Y0242619D01*
X0136197Y0242879D01*
X0155657Y0242879D01*
X0157697Y0242879D01*
X0158697Y0243879D01*
X0159197Y0243879D01*
X0161196Y0245878D01*
X0166697Y0251379D01*
X0207197Y0251379D01*
X0210697Y0247879D01*
X0222197Y0247879D01*
X0222594Y0247856D01*
X0234947Y0242619D02*
X0235697Y0242379D01*
X0197697Y0242379D01*
X0194197Y0238879D01*
X0193854Y0238879D01*
X0193697Y0238379D01*
X0163697Y0238379D01*
X0128697Y0202379D02*
X0127939Y0202635D01*
X0127424Y0201106D01*
X0128952Y0201621D01*
X0128697Y0202379D01*
X0127424Y0201106D01*
X0124197Y0197879D01*
X0121697Y0197879D01*
X0121315Y0197629D01*
X0121197Y0197379D01*
X0118697Y0197379D01*
X0116697Y0195379D01*
X0116697Y0187879D01*
X0119697Y0184879D01*
X0119697Y0183879D01*
X0119937Y0183879D01*
X0112697Y0183879D02*
X0112697Y0188079D01*
X0112697Y0188079D01*
X0112697Y0188079D01*
X0111980Y0189524D01*
X0112697Y0189879D01*
X0113413Y0189524D01*
X0112697Y0188079D01*
X0113413Y0189524D01*
X0113413Y0189524D01*
X0113413Y0189524D01*
X0113413Y0189524D01*
X0112697Y0188079D01*
X0111980Y0189524D01*
X0112697Y0188079D01*
X0112697Y0188079D01*
X0113413Y0189524D01*
X0112697Y0189879D01*
X0111980Y0189524D01*
X0111980Y0189524D01*
X0111980Y0189524D01*
X0111980Y0189524D01*
X0111980Y0189524D01*
X0112697Y0189879D01*
X0112697Y0188079D01*
X0112697Y0188079D01*
X0111980Y0189524D01*
X0111980Y0189524D01*
X0112697Y0188079D01*
X0113413Y0189524D01*
X0113413Y0189524D01*
X0113413Y0189524D01*
X0112697Y0183879D02*
X0112457Y0183879D01*
X0111078Y0197629D02*
X0110697Y0197879D01*
X0108197Y0197879D01*
X0104197Y0201879D01*
X0104197Y0209579D01*
X0104197Y0209579D01*
X0104197Y0209579D01*
X0103480Y0211024D01*
X0104197Y0211379D01*
X0104913Y0211024D01*
X0104197Y0209579D01*
X0104913Y0211024D01*
X0104913Y0211024D01*
X0104913Y0211024D01*
X0104913Y0211024D01*
X0104197Y0209579D01*
X0103480Y0211024D01*
X0104197Y0209579D01*
X0104197Y0209579D01*
X0104913Y0211024D01*
X0104197Y0211379D01*
X0103480Y0211024D01*
X0103480Y0211024D01*
X0103480Y0211024D01*
X0103480Y0211024D01*
X0103480Y0211024D01*
X0104197Y0211379D01*
X0104197Y0209579D01*
X0104197Y0209579D01*
X0103480Y0211024D01*
X0103480Y0211024D01*
X0104197Y0209579D01*
X0104913Y0211024D01*
X0104913Y0211024D01*
X0104913Y0211024D01*
X0092697Y0168879D02*
X0092437Y0168879D01*
X0093197Y0166879D01*
X0107697Y0166879D01*
X0108697Y0165879D01*
X0206397Y0165879D01*
X0207841Y0166596D01*
X0208197Y0165879D01*
X0207841Y0166596D01*
X0207841Y0166596D01*
X0206397Y0165879D01*
X0207841Y0165163D01*
X0208197Y0165879D01*
X0207841Y0165163D01*
X0206397Y0165879D01*
X0207841Y0165163D01*
X0207841Y0165163D01*
X0207841Y0165163D01*
X0208197Y0165879D01*
X0207841Y0165163D01*
X0206397Y0165879D01*
X0206397Y0165879D01*
X0207841Y0165163D01*
X0207841Y0165163D01*
X0207841Y0165163D01*
X0206397Y0165879D01*
X0207841Y0166596D01*
X0207841Y0166596D01*
X0206397Y0165879D01*
X0207841Y0165163D01*
X0206397Y0165879D01*
X0206397Y0165879D01*
X0206397Y0165879D01*
X0206397Y0165879D01*
X0207841Y0166596D01*
X0207841Y0166596D01*
X0207841Y0166596D01*
X0208197Y0165879D02*
X0206397Y0165879D01*
X0206397Y0165879D01*
X0207841Y0165163D02*
X0207841Y0165163D01*
X0207841Y0165163D01*
X0207841Y0165163D01*
X0207841Y0165163D01*
X0209052Y0158596D02*
X0209052Y0158596D01*
X0208697Y0157879D01*
X0209052Y0157163D01*
X0208697Y0157879D01*
X0209052Y0157163D01*
X0210497Y0157879D01*
X0209052Y0157163D01*
X0209052Y0157163D01*
X0209052Y0157163D01*
X0210497Y0157879D01*
X0209052Y0158596D01*
X0210497Y0157879D01*
X0210497Y0157879D01*
X0209052Y0157163D01*
X0209052Y0157163D01*
X0209052Y0157163D01*
X0210497Y0157879D01*
X0210497Y0157879D01*
X0210497Y0157879D01*
X0209052Y0158596D01*
X0209052Y0158596D01*
X0209052Y0158596D01*
X0209052Y0158596D01*
X0210497Y0157879D01*
X0210497Y0157879D01*
X0220697Y0157879D01*
X0221197Y0157619D01*
X0221197Y0157879D01*
X0221697Y0150879D02*
X0221197Y0150379D01*
X0221197Y0150139D01*
X0221697Y0150379D01*
X0231197Y0150379D01*
X0231397Y0150079D01*
X0228497Y0146879D02*
X0227052Y0147596D01*
X0226697Y0146879D01*
X0227052Y0146163D01*
X0226697Y0146879D01*
X0227052Y0146163D01*
X0227052Y0146163D01*
X0227052Y0146163D01*
X0228497Y0146879D01*
X0227052Y0147596D01*
X0227052Y0147596D01*
X0227052Y0147596D01*
X0227052Y0147596D01*
X0227052Y0147596D01*
X0226697Y0146879D01*
X0228497Y0146879D01*
X0227052Y0146163D01*
X0227052Y0146163D01*
X0227052Y0146163D01*
X0227052Y0146163D01*
X0228497Y0146879D01*
X0228497Y0146879D01*
X0227052Y0146163D01*
X0227052Y0147596D02*
X0228497Y0146879D01*
X0228497Y0146879D01*
X0227052Y0147596D01*
X0227052Y0147596D01*
X0228497Y0146879D01*
X0228497Y0146879D01*
X0228497Y0146879D01*
X0234697Y0146879D01*
X0235697Y0147879D01*
X0235697Y0151379D01*
X0237697Y0153379D01*
X0240697Y0153379D01*
X0240997Y0153879D01*
X0246197Y0153879D01*
X0249697Y0157379D01*
X0251197Y0157619D01*
X0251697Y0157879D01*
X0263697Y0157879D01*
X0263697Y0157619D01*
X0251197Y0157619D02*
X0251197Y0157379D01*
X0250197Y0157379D01*
X0228497Y0146879D02*
X0227052Y0147596D01*
X0221197Y0150139D02*
X0220697Y0150379D01*
X0207197Y0150379D01*
X0204025Y0153551D01*
X0201197Y0156379D01*
X0208697Y0157879D02*
X0209052Y0158596D01*
X0210497Y0157879D01*
X0208697Y0157879D01*
X0209052Y0157163D02*
X0209052Y0157163D01*
X0209052Y0158596D02*
X0209052Y0158596D01*
X0199937Y0132049D02*
X0200197Y0131879D01*
X0200197Y0118879D01*
X0199937Y0118879D01*
X0199697Y0118379D01*
X0199697Y0113179D01*
X0200413Y0111735D01*
X0199697Y0111379D01*
X0198980Y0111735D01*
X0198980Y0111735D01*
X0199697Y0113179D01*
X0198980Y0111735D01*
X0198980Y0111735D01*
X0199697Y0113179D01*
X0199697Y0113179D01*
X0200413Y0111735D01*
X0199697Y0113179D01*
X0199697Y0113179D01*
X0198980Y0111735D01*
X0198980Y0111735D01*
X0199697Y0113179D01*
X0199697Y0111379D01*
X0200413Y0111735D01*
X0199697Y0113179D01*
X0198980Y0111735D01*
X0199697Y0111379D01*
X0198980Y0111735D01*
X0198980Y0111735D01*
X0198980Y0111735D01*
X0199697Y0111379D01*
X0200413Y0111735D02*
X0200413Y0111735D01*
X0199697Y0113179D01*
X0199697Y0113179D01*
X0198980Y0111735D01*
X0198980Y0111735D01*
X0199697Y0113179D01*
X0199697Y0113179D01*
X0199697Y0113179D01*
X0200413Y0111735D02*
X0200413Y0111735D01*
X0200413Y0111735D01*
X0200413Y0111735D01*
X0198980Y0111735D02*
X0198980Y0111735D01*
X0198980Y0111735D01*
X0208052Y0117163D02*
X0207697Y0117879D01*
X0208052Y0118596D01*
X0209497Y0117879D01*
X0208052Y0117163D01*
X0207697Y0117879D01*
X0208052Y0117163D01*
X0209497Y0117879D01*
X0209497Y0117879D01*
X0208052Y0117163D01*
X0208052Y0117163D01*
X0208052Y0117163D01*
X0209497Y0117879D01*
X0209497Y0117879D01*
X0209497Y0117879D01*
X0208052Y0117163D01*
X0208052Y0117163D01*
X0208052Y0117163D01*
X0208052Y0117163D01*
X0207697Y0117879D02*
X0208052Y0118596D01*
X0208052Y0118596D01*
X0209497Y0117879D01*
X0208052Y0118596D01*
X0208052Y0118596D01*
X0208052Y0118596D01*
X0208052Y0118596D01*
X0209497Y0117879D01*
X0209497Y0117879D01*
X0213197Y0117879D01*
X0213697Y0117639D01*
X0214697Y0118379D01*
X0224697Y0118379D01*
X0225147Y0118204D01*
X0220926Y0122379D02*
X0219339Y0122666D01*
X0219197Y0121879D01*
X0219737Y0121290D01*
X0220926Y0122379D01*
X0234697Y0122379D01*
X0234747Y0122004D01*
X0220926Y0122379D02*
X0220197Y0122379D01*
X0219197Y0121879D01*
X0218956Y0122642D01*
X0219197Y0121879D01*
X0218735Y0121226D01*
X0217419Y0122158D01*
X0218956Y0122642D01*
X0217419Y0122158D01*
X0217418Y0122158D01*
X0218735Y0121226D01*
X0219197Y0121879D01*
X0219596Y0122572D01*
X0219197Y0121879D01*
X0218403Y0121778D01*
X0218199Y0123377D01*
X0219596Y0122572D01*
X0219596Y0122572D01*
X0218199Y0123377D01*
X0218403Y0121778D01*
X0218403Y0121778D01*
X0219197Y0121879D01*
X0219339Y0121092D01*
X0219197Y0121379D02*
X0219197Y0121879D01*
X0219737Y0122469D01*
X0219197Y0121379D02*
X0218197Y0121379D01*
X0217418Y0122158D01*
X0214697Y0124879D01*
X0213697Y0124879D01*
X0213697Y0125119D01*
X0218199Y0123377D02*
X0218199Y0123377D01*
X0214197Y0118379D02*
X0213697Y0117879D01*
X0213697Y0117639D01*
X0209497Y0117879D02*
X0208052Y0118596D01*
X0208052Y0118596D01*
X0207697Y0117879D02*
X0209497Y0117879D01*
X0214697Y0075879D02*
X0213980Y0075524D01*
X0214697Y0074079D01*
X0214697Y0074079D01*
X0214697Y0074079D01*
X0214697Y0050379D01*
X0213697Y0050119D01*
X0212197Y0042879D02*
X0205470Y0049606D01*
X0203942Y0050121D01*
X0204197Y0050879D01*
X0204955Y0051135D01*
X0205470Y0049606D01*
X0204197Y0050879D01*
X0199697Y0054379D02*
X0197470Y0052152D01*
X0196955Y0050624D01*
X0196197Y0050879D01*
X0195942Y0051637D01*
X0197470Y0052152D01*
X0196197Y0050879D01*
X0199697Y0054379D02*
X0199697Y0055879D01*
X0199937Y0056379D01*
X0200197Y0056379D01*
X0200197Y0069379D01*
X0199937Y0069549D01*
X0213980Y0075524D02*
X0213980Y0075524D01*
X0214697Y0075879D01*
X0215413Y0075524D01*
X0214697Y0074079D01*
X0213980Y0075524D01*
X0213980Y0075524D01*
X0213980Y0075524D01*
X0213980Y0075524D01*
X0214697Y0075879D01*
X0215413Y0075524D01*
X0215413Y0075524D01*
X0215413Y0075524D01*
X0215413Y0075524D01*
X0214697Y0074079D01*
X0213980Y0075524D01*
X0213980Y0075524D01*
X0214697Y0074079D01*
X0215413Y0075524D01*
X0214697Y0074079D01*
X0214697Y0074079D01*
X0214697Y0074079D01*
X0214697Y0075879D01*
X0215413Y0075524D02*
X0214697Y0074079D01*
X0213980Y0075524D01*
X0215413Y0075524D02*
X0215413Y0075524D01*
X0215413Y0075524D01*
X0229552Y0048596D02*
X0229552Y0048596D01*
X0229197Y0047879D01*
X0229552Y0047163D01*
X0229197Y0047879D01*
X0229552Y0047163D01*
X0229552Y0047163D01*
X0229552Y0047163D01*
X0230997Y0047879D01*
X0229552Y0048596D01*
X0229552Y0048596D01*
X0229552Y0048596D01*
X0229552Y0048596D01*
X0230997Y0047879D01*
X0229552Y0047163D01*
X0229552Y0047163D01*
X0229552Y0047163D01*
X0229552Y0047163D01*
X0230997Y0047879D01*
X0230997Y0047879D01*
X0229552Y0047163D01*
X0229197Y0047879D02*
X0229552Y0048596D01*
X0230997Y0047879D01*
X0230997Y0047879D01*
X0229552Y0048596D01*
X0229552Y0048596D01*
X0230997Y0047879D01*
X0230997Y0047879D01*
X0230997Y0047879D01*
X0234697Y0047879D01*
X0234747Y0047629D01*
X0230997Y0047879D02*
X0229552Y0048596D01*
X0229197Y0047879D02*
X0230997Y0047879D01*
X0225147Y0043829D02*
X0224697Y0043379D01*
X0214697Y0043379D01*
X0214197Y0042879D01*
X0213697Y0042639D01*
X0213197Y0042879D01*
X0212197Y0042879D01*
X0141197Y0033879D02*
X0138368Y0031051D01*
X0135697Y0028379D01*
X0108697Y0028379D01*
X0105697Y0031379D01*
X0105697Y0036379D01*
X0112197Y0042879D01*
X0112197Y0046379D01*
X0112457Y0046379D01*
X0099937Y0046379D01*
X0116697Y0050379D02*
X0116697Y0057879D01*
X0118697Y0059879D01*
X0121197Y0059879D01*
X0121315Y0060129D01*
X0121697Y0060379D01*
X0124197Y0060379D01*
X0125424Y0061606D01*
X0125939Y0063135D01*
X0126697Y0062879D01*
X0126952Y0062121D01*
X0125424Y0061606D01*
X0126697Y0062879D01*
X0116452Y0061621D02*
X0116197Y0062379D01*
X0115439Y0062635D01*
X0114924Y0061106D01*
X0116452Y0061621D01*
X0116197Y0062379D02*
X0114924Y0061106D01*
X0114197Y0060379D01*
X0111197Y0060379D01*
X0111078Y0060129D01*
X0116697Y0050379D02*
X0119697Y0047379D01*
X0119697Y0046379D01*
X0119937Y0046379D01*
X0100197Y0071379D02*
X0099947Y0071369D01*
X0100197Y0071379D02*
X0100197Y0081379D01*
X0099937Y0081379D01*
X0100697Y0079379D01*
X0103397Y0079379D01*
X0104841Y0080096D01*
X0105197Y0079379D01*
X0104841Y0080096D01*
X0104841Y0080096D01*
X0103397Y0079379D01*
X0104841Y0078663D01*
X0105197Y0079379D01*
X0104841Y0078663D01*
X0103397Y0079379D01*
X0104841Y0078663D01*
X0104841Y0078663D01*
X0104841Y0078663D01*
X0105197Y0079379D01*
X0104841Y0078663D01*
X0103397Y0079379D01*
X0103397Y0079379D01*
X0104841Y0078663D01*
X0104841Y0078663D01*
X0104841Y0078663D01*
X0103397Y0079379D01*
X0104841Y0080096D01*
X0104841Y0080096D01*
X0103397Y0079379D01*
X0104841Y0078663D01*
X0103397Y0079379D01*
X0103397Y0079379D01*
X0103397Y0079379D01*
X0103397Y0079379D01*
X0104841Y0080096D01*
X0104841Y0080096D01*
X0104841Y0080096D01*
X0105197Y0079379D02*
X0103397Y0079379D01*
X0103397Y0079379D01*
X0104841Y0078663D02*
X0104841Y0078663D01*
X0104841Y0078663D01*
X0104841Y0078663D01*
X0104841Y0078663D01*
X0090322Y0091004D02*
X0086220Y0095106D01*
X0084692Y0095621D01*
X0084947Y0096379D01*
X0085705Y0096635D01*
X0086220Y0095106D01*
X0086008Y0095319D01*
X0084740Y0095710D01*
X0084947Y0096379D01*
X0085616Y0096586D01*
X0086008Y0095319D01*
X0084947Y0096379D01*
X0090322Y0091004D02*
X0088197Y0088879D01*
X0078687Y0088879D01*
X0090322Y0091004D02*
X0099697Y0100379D01*
X0099697Y0101379D01*
X0099937Y0101379D01*
X0100197Y0101879D01*
X0100197Y0113879D01*
X0104699Y0118381D01*
X0104699Y0118381D01*
X0106096Y0119186D01*
X0105697Y0119879D01*
X0104903Y0119981D01*
X0104699Y0118381D01*
X0105697Y0119379D01*
X0105697Y0119879D01*
X0104903Y0119981D01*
X0104699Y0118381D01*
X0106096Y0119186D01*
X0106096Y0119186D01*
X0106455Y0119624D02*
X0105697Y0119879D01*
X0105442Y0120637D01*
X0106970Y0121152D01*
X0106455Y0119624D01*
X0105697Y0119879D02*
X0106970Y0121152D01*
X0108197Y0122379D01*
X0110697Y0122379D01*
X0111078Y0122629D01*
X0104903Y0119981D02*
X0104903Y0119981D01*
X0097197Y0127879D02*
X0097197Y0139379D01*
X0092697Y0143879D01*
X0092437Y0143879D01*
X0092697Y0144379D01*
X0097197Y0148879D01*
X0097197Y0159879D01*
X0092697Y0164379D01*
X0092697Y0168879D01*
X0097197Y0127879D02*
X0092697Y0123379D01*
X0092697Y0118879D01*
X0092437Y0118879D01*
X0078697Y0108879D02*
X0078697Y0104429D01*
X0079413Y0102985D01*
X0078697Y0102629D01*
X0077980Y0102985D01*
X0078697Y0102629D01*
X0079413Y0102985D01*
X0078697Y0104429D01*
X0077980Y0102985D01*
X0078697Y0104429D01*
X0078697Y0104429D01*
X0079413Y0102985D01*
X0078697Y0104429D01*
X0078697Y0104429D01*
X0078697Y0104129D01*
X0079316Y0102956D01*
X0078697Y0102629D01*
X0077980Y0102985D01*
X0077980Y0102985D01*
X0078697Y0104429D01*
X0077980Y0102985D01*
X0077980Y0102985D01*
X0077980Y0102985D01*
X0077980Y0102985D01*
X0078697Y0104429D01*
X0079413Y0102985D01*
X0079413Y0102985D01*
X0079413Y0102985D01*
X0078697Y0104429D01*
X0078697Y0104429D01*
X0078697Y0104429D01*
X0079413Y0102985D01*
X0079413Y0102985D01*
X0079413Y0102985D01*
X0079316Y0102956D02*
X0078697Y0104129D01*
X0078078Y0102956D01*
X0078697Y0102629D01*
X0077980Y0102985D01*
X0078697Y0104429D01*
X0078697Y0104429D01*
X0077980Y0102985D01*
X0077980Y0102985D01*
X0078697Y0102629D01*
X0079316Y0102956D01*
X0078697Y0104129D01*
X0078697Y0104129D01*
X0078697Y0102629D01*
X0078078Y0102956D01*
X0078697Y0104129D01*
X0079316Y0102956D01*
X0078697Y0104129D01*
X0078078Y0102956D01*
X0078078Y0102956D01*
X0078697Y0102629D01*
X0079316Y0102956D02*
X0079316Y0102956D01*
X0078078Y0102956D02*
X0078697Y0104129D01*
X0078697Y0104129D01*
X0078697Y0104129D01*
X0078078Y0102956D01*
X0078078Y0102956D01*
X0077980Y0102985D02*
X0077980Y0102985D01*
X0077980Y0102985D01*
X0078697Y0104129D02*
X0078697Y0104129D01*
X0111480Y0103235D02*
X0112197Y0102879D01*
X0112913Y0103235D01*
X0112197Y0104679D01*
X0112913Y0103235D01*
X0112197Y0102879D01*
X0111480Y0103235D01*
X0111480Y0103235D01*
X0112197Y0104679D01*
X0111480Y0103235D01*
X0111480Y0103235D01*
X0112197Y0104679D01*
X0112197Y0104679D01*
X0112913Y0103235D01*
X0112197Y0104679D01*
X0112197Y0104679D01*
X0111480Y0103235D01*
X0111480Y0103235D01*
X0112197Y0104679D01*
X0112197Y0102879D01*
X0111480Y0103235D01*
X0111480Y0103235D01*
X0112197Y0104679D01*
X0112913Y0103235D01*
X0112913Y0103235D01*
X0112913Y0103235D01*
X0112913Y0103235D01*
X0112913Y0103235D01*
X0112197Y0102879D02*
X0111480Y0103235D01*
X0111480Y0103235D01*
X0111480Y0103235D01*
X0112197Y0104679D01*
X0112197Y0104679D01*
X0111480Y0103235D01*
X0111480Y0103235D01*
X0111480Y0103235D01*
X0112197Y0104679D02*
X0112197Y0104679D01*
X0112197Y0104679D01*
X0112197Y0108879D01*
X0112457Y0108879D01*
X0116697Y0112879D02*
X0119697Y0109879D01*
X0119697Y0108879D01*
X0119937Y0108879D01*
X0119697Y0108379D01*
X0122924Y0105152D01*
X0124452Y0104637D01*
X0124197Y0103879D01*
X0123439Y0103624D01*
X0122924Y0105152D01*
X0124197Y0103879D01*
X0116697Y0112879D02*
X0116697Y0120379D01*
X0118697Y0122379D01*
X0121197Y0122379D01*
X0121315Y0122629D01*
X0234947Y0242619D02*
X0236197Y0242879D01*
X0244957Y0242879D01*
X0244957Y0242629D01*
D29*
X0211197Y0211379D03*
X0196197Y0202379D03*
X0208197Y0193379D03*
X0219697Y0190379D03*
X0204697Y0181379D03*
X0208197Y0165879D03*
X0208697Y0157879D03*
X0227697Y0153879D03*
X0226697Y0146879D03*
X0227697Y0168379D03*
X0191697Y0141879D03*
X0179697Y0141879D03*
X0160197Y0138579D03*
X0160297Y0120429D03*
X0124197Y0103879D03*
X0112197Y0102879D03*
X0105697Y0119879D03*
X0090197Y0125879D03*
X0078697Y0102629D03*
X0084947Y0096379D03*
X0087197Y0100879D03*
X0105197Y0079379D03*
X0116197Y0062379D03*
X0126697Y0062879D03*
X0160197Y0045879D03*
X0196197Y0050879D03*
X0204197Y0050879D03*
X0220197Y0049879D03*
X0229197Y0047879D03*
X0237197Y0031629D03*
X0214697Y0075879D03*
X0237197Y0106379D03*
X0219197Y0121879D03*
X0207697Y0117879D03*
X0199697Y0111379D03*
X0098697Y0163379D03*
X0090197Y0161879D03*
X0112697Y0189879D03*
X0128697Y0202379D03*
X0104197Y0211379D03*
X0130197Y0235379D03*
X0130197Y0242879D03*
X0160197Y0193879D03*
X0320197Y0196379D03*
D30*
X0322447Y0191379D02*
X0318697Y0187629D01*
X0318697Y0182619D01*
X0318697Y0182879D01*
X0322447Y0191379D02*
X0330173Y0191379D01*
X0336197Y0191379D01*
X0338697Y0193879D01*
X0338697Y0208879D01*
X0331197Y0216379D01*
X0331197Y0227379D01*
X0331197Y0231379D01*
X0328368Y0228551D01*
X0323697Y0223879D01*
X0311846Y0223879D01*
X0310681Y0222359D01*
X0308697Y0223879D01*
X0310681Y0225400D01*
X0311846Y0223879D01*
X0308697Y0223879D01*
X0306712Y0225400D01*
X0305547Y0223879D01*
X0306712Y0222359D01*
X0308697Y0223879D01*
X0305547Y0223879D01*
X0293536Y0223879D01*
X0285877Y0231538D01*
X0283361Y0231867D01*
X0283614Y0233801D01*
X0285548Y0234054D01*
X0285877Y0231538D01*
X0283614Y0233801D01*
X0283181Y0235702D01*
X0280707Y0235139D01*
X0281888Y0232893D01*
X0283614Y0233801D01*
X0282276Y0235139D01*
X0280707Y0235139D01*
X0262447Y0235139D01*
X0262447Y0231379D01*
X0258697Y0228879D01*
X0238697Y0228879D01*
X0234947Y0231379D01*
X0234947Y0235139D01*
X0227457Y0235139D01*
X0222697Y0230379D01*
X0222697Y0230005D01*
X0222594Y0229903D01*
X0241100Y0233279D02*
X0241100Y0236750D01*
X0241761Y0236476D01*
X0248152Y0236476D01*
X0249328Y0236964D01*
X0249841Y0237476D01*
X0252357Y0237476D01*
X0252357Y0242550D01*
X0252517Y0242550D01*
X0252517Y0242709D01*
X0257196Y0242709D01*
X0257196Y0245872D01*
X0257046Y0246431D01*
X0256756Y0246933D01*
X0256347Y0247342D01*
X0255845Y0247632D01*
X0255286Y0247782D01*
X0252517Y0247782D01*
X0252517Y0242709D01*
X0252357Y0242709D01*
X0252357Y0247782D01*
X0249841Y0247782D01*
X0249328Y0248295D01*
X0248152Y0248782D01*
X0241761Y0248782D01*
X0240585Y0248295D01*
X0239947Y0247657D01*
X0239712Y0247891D01*
X0238536Y0248378D01*
X0237447Y0248378D01*
X0237447Y0256179D01*
X0388951Y0256179D01*
X0387431Y0253546D01*
X0386607Y0250471D01*
X0386607Y0247288D01*
X0387431Y0244213D01*
X0389023Y0241456D01*
X0391274Y0239205D01*
X0394030Y0237613D01*
X0397105Y0236789D01*
X0400288Y0236789D01*
X0403363Y0237613D01*
X0405997Y0239134D01*
X0405997Y0038625D01*
X0403363Y0040145D01*
X0400288Y0040969D01*
X0397105Y0040969D01*
X0394030Y0040145D01*
X0391274Y0038553D01*
X0389023Y0036303D01*
X0387431Y0033546D01*
X0386607Y0030471D01*
X0386607Y0027288D01*
X0387431Y0024213D01*
X0388951Y0021579D01*
X0335021Y0021579D01*
X0335189Y0021649D01*
X0342439Y0028899D01*
X0343677Y0030137D01*
X0344347Y0031754D01*
X0344347Y0073504D01*
X0343677Y0075122D01*
X0339686Y0079113D01*
X0339695Y0079226D01*
X0339556Y0079651D01*
X0339422Y0081379D01*
X0339459Y0081852D01*
X0339556Y0083107D01*
X0339695Y0083532D01*
X0339686Y0083646D01*
X0339927Y0083887D01*
X0340597Y0085504D01*
X0340597Y0114754D01*
X0339927Y0116372D01*
X0337427Y0118872D01*
X0336189Y0120109D01*
X0335735Y0120297D01*
X0335735Y0123197D01*
X0335453Y0123879D01*
X0335735Y0124562D01*
X0335735Y0128197D01*
X0335248Y0129373D01*
X0334348Y0130273D01*
X0333172Y0130760D01*
X0331094Y0130760D01*
X0331048Y0130779D01*
X0316345Y0130779D01*
X0314728Y0130109D01*
X0301718Y0117099D01*
X0300700Y0117099D01*
X0300177Y0117622D01*
X0298939Y0118859D01*
X0297322Y0119529D01*
X0293697Y0119529D01*
X0293697Y0127012D01*
X0294048Y0126809D01*
X0294608Y0126660D01*
X0300625Y0126660D01*
X0300625Y0131831D01*
X0301769Y0131831D01*
X0301769Y0132975D01*
X0300625Y0132975D01*
X0300625Y0138146D01*
X0294608Y0138146D01*
X0294048Y0137996D01*
X0293697Y0137793D01*
X0293697Y0161679D01*
X0309933Y0161679D01*
X0311293Y0162243D01*
X0318430Y0169380D01*
X0322286Y0169380D01*
X0323462Y0169867D01*
X0324362Y0170767D01*
X0324740Y0171679D01*
X0325933Y0171679D01*
X0327293Y0172243D01*
X0332043Y0176993D01*
X0333084Y0178033D01*
X0333647Y0179393D01*
X0333647Y0182195D01*
X0334297Y0182464D01*
X0334297Y0165702D01*
X0333464Y0164868D01*
X0333350Y0164877D01*
X0332925Y0164739D01*
X0331670Y0164641D01*
X0330878Y0164579D01*
X0329566Y0164579D01*
X0326552Y0163331D01*
X0324245Y0161024D01*
X0322997Y0158010D01*
X0322997Y0154748D01*
X0324245Y0151734D01*
X0326552Y0149428D01*
X0329566Y0148179D01*
X0332828Y0148179D01*
X0335842Y0149428D01*
X0338148Y0151734D01*
X0339397Y0154748D01*
X0339397Y0156060D01*
X0339459Y0156852D01*
X0339459Y0156852D01*
X0339556Y0158107D01*
X0339695Y0158532D01*
X0339686Y0158646D01*
X0341189Y0160149D01*
X0342427Y0161387D01*
X0343097Y0163004D01*
X0343097Y0209754D01*
X0342427Y0211372D01*
X0335597Y0218202D01*
X0335597Y0223774D01*
X0335683Y0223848D01*
X0335886Y0224246D01*
X0337221Y0225807D01*
X0338148Y0226734D01*
X0339397Y0229748D01*
X0339397Y0233010D01*
X0338148Y0236024D01*
X0335842Y0238331D01*
X0333069Y0239479D01*
X0359374Y0239479D01*
X0384235Y0214619D01*
X0383447Y0212717D01*
X0383447Y0210042D01*
X0384471Y0207570D01*
X0386362Y0205678D01*
X0388834Y0204654D01*
X0398560Y0204654D01*
X0401031Y0205678D01*
X0402923Y0207570D01*
X0403947Y0210042D01*
X0403947Y0212717D01*
X0402923Y0215189D01*
X0401031Y0217080D01*
X0398560Y0218104D01*
X0393194Y0218104D01*
X0364927Y0246372D01*
X0363689Y0247609D01*
X0362072Y0248279D01*
X0314055Y0248279D01*
X0313897Y0248437D01*
X0313641Y0248771D01*
X0313456Y0248878D01*
X0312605Y0249729D01*
X0310069Y0250779D01*
X0307324Y0250779D01*
X0304788Y0249729D01*
X0302847Y0247788D01*
X0301797Y0245252D01*
X0301797Y0242507D01*
X0302847Y0239971D01*
X0304788Y0238030D01*
X0307324Y0236979D01*
X0310069Y0236979D01*
X0312605Y0238030D01*
X0313456Y0238881D01*
X0313641Y0238988D01*
X0313897Y0239322D01*
X0314055Y0239479D01*
X0329324Y0239479D01*
X0326552Y0238331D01*
X0324245Y0236024D01*
X0322997Y0233010D01*
X0322997Y0231699D01*
X0322837Y0229651D01*
X0322699Y0229226D01*
X0322708Y0229113D01*
X0321874Y0228279D01*
X0314055Y0228279D01*
X0313897Y0228437D01*
X0313641Y0228771D01*
X0313456Y0228878D01*
X0312605Y0229729D01*
X0310069Y0230779D01*
X0307324Y0230779D01*
X0304788Y0229729D01*
X0303937Y0228878D01*
X0303752Y0228771D01*
X0303496Y0228437D01*
X0303339Y0228279D01*
X0295358Y0228279D01*
X0290046Y0233592D01*
X0289987Y0234040D01*
X0289964Y0234215D01*
X0289964Y0235064D01*
X0289802Y0235456D01*
X0289797Y0235493D01*
X0289760Y0235556D01*
X0288997Y0237398D01*
X0287211Y0239184D01*
X0286753Y0239374D01*
X0288964Y0241585D01*
X0288964Y0243801D01*
X0288964Y0246017D01*
X0285830Y0249151D01*
X0283614Y0249151D01*
X0281398Y0249151D01*
X0278264Y0246017D01*
X0278264Y0243801D01*
X0283614Y0243801D01*
X0283614Y0249151D01*
X0283614Y0243801D01*
X0283614Y0243801D01*
X0283614Y0243801D01*
X0281939Y0244799D01*
X0280640Y0242619D01*
X0283081Y0241925D01*
X0283614Y0243801D01*
X0282433Y0242619D01*
X0280640Y0242619D01*
X0262447Y0242619D01*
X0261197Y0242629D01*
X0252437Y0242629D01*
X0252517Y0242550D02*
X0252517Y0237476D01*
X0255286Y0237476D01*
X0255845Y0237626D01*
X0256294Y0237886D01*
X0256294Y0233279D01*
X0241100Y0233279D01*
X0241100Y0234644D02*
X0256294Y0234644D01*
X0256294Y0237042D02*
X0249407Y0237042D01*
X0252357Y0239441D02*
X0252517Y0239441D01*
X0252517Y0241839D02*
X0252357Y0241839D01*
X0252517Y0242550D02*
X0257196Y0242550D01*
X0257196Y0239926D01*
X0257294Y0240024D01*
X0257294Y0242540D01*
X0262367Y0242540D01*
X0262367Y0242699D01*
X0257294Y0242699D01*
X0257294Y0245468D01*
X0257444Y0246028D01*
X0257734Y0246529D01*
X0258143Y0246939D01*
X0258645Y0247229D01*
X0259204Y0247378D01*
X0262367Y0247378D01*
X0262367Y0242699D01*
X0262526Y0242699D01*
X0262526Y0247378D01*
X0265689Y0247378D01*
X0266249Y0247229D01*
X0266750Y0246939D01*
X0267160Y0246529D01*
X0267450Y0246028D01*
X0267600Y0245468D01*
X0267600Y0242699D01*
X0262526Y0242699D01*
X0262526Y0242540D01*
X0267600Y0242540D01*
X0267600Y0240024D01*
X0268084Y0239539D01*
X0280213Y0239539D01*
X0280292Y0239557D01*
X0278264Y0241585D01*
X0278264Y0243801D01*
X0283614Y0243801D01*
X0288964Y0243801D01*
X0283614Y0243801D01*
X0283614Y0243801D01*
X0283614Y0244238D02*
X0283614Y0244238D01*
X0283614Y0246636D02*
X0283614Y0246636D01*
X0283614Y0249035D02*
X0283614Y0249035D01*
X0281282Y0249035D02*
X0237447Y0249035D01*
X0237447Y0251433D02*
X0386865Y0251433D01*
X0386607Y0249035D02*
X0313299Y0249035D01*
X0313641Y0248771D02*
X0313641Y0248771D01*
X0313641Y0248771D01*
X0310681Y0245400D02*
X0308697Y0243879D01*
X0310681Y0242359D01*
X0311846Y0243879D01*
X0310681Y0245400D01*
X0311846Y0243879D02*
X0308697Y0243879D01*
X0311846Y0243879D02*
X0361197Y0243879D01*
X0393697Y0211379D01*
X0401215Y0205862D02*
X0405997Y0205862D01*
X0405997Y0208260D02*
X0403209Y0208260D01*
X0403947Y0210659D02*
X0405997Y0210659D01*
X0405997Y0213057D02*
X0403806Y0213057D01*
X0402656Y0215456D02*
X0405997Y0215456D01*
X0405997Y0217854D02*
X0399163Y0217854D01*
X0405997Y0220253D02*
X0391046Y0220253D01*
X0388647Y0222651D02*
X0405997Y0222651D01*
X0405997Y0225050D02*
X0386249Y0225050D01*
X0383850Y0227448D02*
X0405997Y0227448D01*
X0405997Y0229847D02*
X0381452Y0229847D01*
X0379053Y0232245D02*
X0405997Y0232245D01*
X0405997Y0234644D02*
X0376655Y0234644D01*
X0374256Y0237042D02*
X0396162Y0237042D01*
X0401232Y0237042D02*
X0405997Y0237042D01*
X0391038Y0239441D02*
X0371858Y0239441D01*
X0369459Y0241839D02*
X0388801Y0241839D01*
X0387424Y0244238D02*
X0367061Y0244238D01*
X0364662Y0246636D02*
X0386782Y0246636D01*
X0387596Y0253832D02*
X0237447Y0253832D01*
X0252357Y0246636D02*
X0252517Y0246636D01*
X0252517Y0244238D02*
X0252357Y0244238D01*
X0256928Y0246636D02*
X0257841Y0246636D01*
X0257294Y0244238D02*
X0257196Y0244238D01*
X0257196Y0241839D02*
X0257294Y0241839D01*
X0261697Y0243379D02*
X0262119Y0243801D01*
X0262367Y0244238D02*
X0262526Y0244238D01*
X0262526Y0246636D02*
X0262367Y0246636D01*
X0267053Y0246636D02*
X0278883Y0246636D01*
X0278264Y0244238D02*
X0267600Y0244238D01*
X0267600Y0241839D02*
X0278264Y0241839D01*
X0286820Y0239441D02*
X0303377Y0239441D01*
X0302073Y0241839D02*
X0288964Y0241839D01*
X0288964Y0244238D02*
X0301797Y0244238D01*
X0302370Y0246636D02*
X0288345Y0246636D01*
X0285946Y0249035D02*
X0304094Y0249035D01*
X0314016Y0239441D02*
X0329232Y0239441D01*
X0333162Y0239441D02*
X0359413Y0239441D01*
X0361811Y0237042D02*
X0355716Y0237042D01*
X0354179Y0238579D02*
X0351197Y0238579D01*
X0351197Y0231379D01*
X0351197Y0224179D01*
X0354179Y0224179D01*
X0358397Y0228397D01*
X0358397Y0231379D01*
X0351197Y0231379D01*
X0351197Y0231379D01*
X0351197Y0231379D01*
X0351197Y0224179D01*
X0348215Y0224179D01*
X0343997Y0228397D01*
X0343997Y0231379D01*
X0351197Y0231379D01*
X0358397Y0231379D01*
X0358397Y0234362D01*
X0354179Y0238579D01*
X0351197Y0238579D02*
X0348215Y0238579D01*
X0343997Y0234362D01*
X0343997Y0231379D01*
X0351197Y0231379D01*
X0351197Y0231379D01*
X0351197Y0231379D01*
X0351197Y0238579D01*
X0351197Y0237042D02*
X0351197Y0237042D01*
X0351197Y0234644D02*
X0351197Y0234644D01*
X0351197Y0232245D02*
X0351197Y0232245D01*
X0351197Y0229847D02*
X0351197Y0229847D01*
X0351197Y0227448D02*
X0351197Y0227448D01*
X0351197Y0225050D02*
X0351197Y0225050D01*
X0355050Y0225050D02*
X0373804Y0225050D01*
X0371405Y0227448D02*
X0357448Y0227448D01*
X0358397Y0229847D02*
X0369007Y0229847D01*
X0366608Y0232245D02*
X0358397Y0232245D01*
X0358115Y0234644D02*
X0364210Y0234644D01*
X0376202Y0222651D02*
X0335597Y0222651D01*
X0335597Y0220253D02*
X0378601Y0220253D01*
X0380999Y0217854D02*
X0335944Y0217854D01*
X0338343Y0215456D02*
X0383398Y0215456D01*
X0383588Y0213057D02*
X0340741Y0213057D01*
X0342722Y0210659D02*
X0383447Y0210659D01*
X0384185Y0208260D02*
X0343097Y0208260D01*
X0343097Y0205862D02*
X0348421Y0205862D01*
X0347819Y0205612D02*
X0349039Y0206118D01*
X0349048Y0206127D01*
X0351107Y0206979D01*
X0353334Y0206979D01*
X0355393Y0206127D01*
X0355402Y0206118D01*
X0356622Y0205612D01*
X0357635Y0204600D01*
X0358183Y0203276D01*
X0358183Y0199482D01*
X0357933Y0198879D01*
X0358183Y0198276D01*
X0358183Y0194482D01*
X0357933Y0193879D01*
X0358183Y0193276D01*
X0358183Y0189482D01*
X0357933Y0188879D01*
X0358183Y0188276D01*
X0358183Y0184482D01*
X0357820Y0183608D01*
X0357820Y0182439D01*
X0394570Y0145689D01*
X0398718Y0145689D01*
X0401337Y0144605D01*
X0403341Y0142600D01*
X0404426Y0139982D01*
X0404426Y0137147D01*
X0403341Y0134528D01*
X0401337Y0132524D01*
X0398718Y0131439D01*
X0388833Y0131439D01*
X0386215Y0132524D01*
X0384210Y0134528D01*
X0383126Y0137147D01*
X0383126Y0139982D01*
X0383510Y0140910D01*
X0347473Y0176947D01*
X0346620Y0179005D01*
X0346620Y0183608D01*
X0346258Y0184482D01*
X0346258Y0188276D01*
X0346508Y0188879D01*
X0346258Y0189482D01*
X0346258Y0193276D01*
X0346508Y0193879D01*
X0346258Y0194482D01*
X0346258Y0198276D01*
X0346508Y0198879D01*
X0346258Y0199482D01*
X0346258Y0203276D01*
X0346806Y0204600D01*
X0347819Y0205612D01*
X0346336Y0203463D02*
X0343097Y0203463D01*
X0343097Y0201065D02*
X0346258Y0201065D01*
X0346420Y0198666D02*
X0343097Y0198666D01*
X0343097Y0196268D02*
X0346258Y0196268D01*
X0346504Y0193869D02*
X0343097Y0193869D01*
X0343097Y0191471D02*
X0346258Y0191471D01*
X0346428Y0189072D02*
X0343097Y0189072D01*
X0343097Y0186674D02*
X0346258Y0186674D01*
X0346344Y0184275D02*
X0343097Y0184275D01*
X0343097Y0181877D02*
X0346620Y0181877D01*
X0346620Y0179478D02*
X0343097Y0179478D01*
X0343097Y0177079D02*
X0347418Y0177079D01*
X0349739Y0174681D02*
X0343097Y0174681D01*
X0343097Y0172282D02*
X0352138Y0172282D01*
X0354536Y0169884D02*
X0343097Y0169884D01*
X0343097Y0167485D02*
X0356935Y0167485D01*
X0359333Y0165087D02*
X0343097Y0165087D01*
X0342966Y0162688D02*
X0347324Y0162688D01*
X0348215Y0163579D02*
X0343997Y0159362D01*
X0343997Y0156379D01*
X0343997Y0153397D01*
X0348215Y0149179D01*
X0351197Y0149179D01*
X0354179Y0149179D01*
X0358397Y0153397D01*
X0358397Y0156379D01*
X0351197Y0156379D01*
X0351197Y0149179D01*
X0351197Y0156379D01*
X0351197Y0156379D01*
X0351197Y0156379D01*
X0348368Y0153551D01*
X0343697Y0148879D01*
X0343697Y0106379D01*
X0351197Y0098879D01*
X0351197Y0085379D01*
X0351197Y0081379D01*
X0351197Y0074179D01*
X0354179Y0074179D01*
X0358397Y0078397D01*
X0358397Y0081379D01*
X0351197Y0081379D01*
X0351197Y0081379D01*
X0351197Y0081379D01*
X0351197Y0074179D01*
X0348215Y0074179D01*
X0343997Y0078397D01*
X0343997Y0081379D01*
X0351197Y0081379D01*
X0358397Y0081379D01*
X0358397Y0084362D01*
X0354179Y0088579D01*
X0351197Y0088579D01*
X0351197Y0081379D01*
X0351197Y0081379D01*
X0351197Y0081379D01*
X0343997Y0081379D01*
X0343997Y0084362D01*
X0348215Y0088579D01*
X0351197Y0088579D01*
X0351197Y0081379D01*
X0351197Y0081139D02*
X0351197Y0081139D01*
X0351197Y0078741D02*
X0351197Y0078741D01*
X0351197Y0076342D02*
X0351197Y0076342D01*
X0356342Y0076342D02*
X0363240Y0076342D01*
X0360842Y0073944D02*
X0344165Y0073944D01*
X0344347Y0071545D02*
X0358443Y0071545D01*
X0356045Y0069146D02*
X0344347Y0069146D01*
X0344347Y0066748D02*
X0353646Y0066748D01*
X0351247Y0064349D02*
X0344347Y0064349D01*
X0344347Y0061951D02*
X0348849Y0061951D01*
X0349048Y0062150D02*
X0347473Y0060575D01*
X0346620Y0058517D01*
X0346620Y0054151D01*
X0346258Y0053276D01*
X0346258Y0049482D01*
X0346508Y0048879D01*
X0346258Y0048276D01*
X0346258Y0044482D01*
X0346508Y0043879D01*
X0346258Y0043276D01*
X0346258Y0039482D01*
X0346508Y0038879D01*
X0346258Y0038276D01*
X0346258Y0034482D01*
X0346806Y0033159D01*
X0347819Y0032146D01*
X0349039Y0031641D01*
X0349048Y0031632D01*
X0351107Y0030779D01*
X0353334Y0030779D01*
X0355393Y0031632D01*
X0355402Y0031641D01*
X0356622Y0032146D01*
X0357635Y0033159D01*
X0358183Y0034482D01*
X0358183Y0038276D01*
X0357933Y0038879D01*
X0358183Y0039482D01*
X0358183Y0043276D01*
X0357933Y0043879D01*
X0358183Y0044482D01*
X0358183Y0048276D01*
X0357933Y0048879D01*
X0358183Y0049482D01*
X0358183Y0053276D01*
X0357820Y0054151D01*
X0357820Y0055083D01*
X0394806Y0092069D01*
X0398718Y0092069D01*
X0401337Y0093154D01*
X0403341Y0095158D01*
X0404426Y0097777D01*
X0404426Y0100611D01*
X0403341Y0103230D01*
X0401337Y0105234D01*
X0398718Y0106319D01*
X0388833Y0106319D01*
X0386215Y0105234D01*
X0384210Y0103230D01*
X0383126Y0100611D01*
X0383126Y0097777D01*
X0383579Y0096681D01*
X0349048Y0062150D01*
X0347049Y0059552D02*
X0344347Y0059552D01*
X0344347Y0057154D02*
X0346620Y0057154D01*
X0346620Y0054755D02*
X0344347Y0054755D01*
X0344347Y0052357D02*
X0346258Y0052357D01*
X0346258Y0049958D02*
X0344347Y0049958D01*
X0344347Y0047560D02*
X0346258Y0047560D01*
X0346258Y0045161D02*
X0344347Y0045161D01*
X0344347Y0042763D02*
X0346258Y0042763D01*
X0346258Y0040364D02*
X0344347Y0040364D01*
X0344347Y0037966D02*
X0346258Y0037966D01*
X0346258Y0035567D02*
X0344347Y0035567D01*
X0344347Y0033169D02*
X0346802Y0033169D01*
X0343939Y0030770D02*
X0386687Y0030770D01*
X0386607Y0028372D02*
X0341912Y0028372D01*
X0339513Y0025973D02*
X0386959Y0025973D01*
X0387799Y0023575D02*
X0337115Y0023575D01*
X0332697Y0025379D02*
X0339947Y0032629D01*
X0339947Y0043879D01*
X0339947Y0072629D01*
X0334025Y0078551D01*
X0331197Y0081379D01*
X0334025Y0084208D01*
X0336197Y0086379D01*
X0336197Y0113879D01*
X0333697Y0116379D01*
X0330173Y0116379D01*
X0322447Y0116379D01*
X0318697Y0112629D01*
X0318697Y0107619D01*
X0301197Y0110356D02*
X0301197Y0104379D01*
X0301785Y0101499D01*
X0301197Y0101379D01*
X0300609Y0101499D01*
X0301197Y0104379D01*
X0300609Y0101499D01*
X0301197Y0104379D01*
X0301197Y0104379D01*
X0301197Y0101379D01*
X0301785Y0101499D01*
X0301197Y0104379D01*
X0301785Y0101499D01*
X0301197Y0104379D01*
X0301197Y0104379D01*
X0300609Y0101499D01*
X0300609Y0101499D01*
X0301197Y0101379D01*
X0301785Y0101499D02*
X0301197Y0104379D01*
X0300609Y0101499D01*
X0301197Y0104379D01*
X0301785Y0101499D01*
X0301785Y0101499D01*
X0301197Y0110356D02*
X0301197Y0110379D01*
X0296447Y0115129D01*
X0286187Y0115129D01*
X0293697Y0121914D02*
X0306532Y0121914D01*
X0304134Y0119515D02*
X0297356Y0119515D01*
X0300682Y0117117D02*
X0301735Y0117117D01*
X0301197Y0110356D02*
X0317220Y0126379D01*
X0330173Y0126379D01*
X0335735Y0126711D02*
X0346258Y0126711D01*
X0346258Y0128276D02*
X0346258Y0124482D01*
X0346508Y0123879D01*
X0346258Y0123276D01*
X0346258Y0119482D01*
X0346508Y0118879D01*
X0346258Y0118276D01*
X0346258Y0114482D01*
X0346508Y0113879D01*
X0346258Y0113276D01*
X0346258Y0109482D01*
X0346806Y0108159D01*
X0347819Y0107146D01*
X0348999Y0106657D01*
X0349025Y0106632D01*
X0351083Y0105779D01*
X0353334Y0105779D01*
X0355393Y0106632D01*
X0355402Y0106641D01*
X0356622Y0107146D01*
X0357635Y0108159D01*
X0358183Y0109482D01*
X0358183Y0113276D01*
X0358181Y0113279D01*
X0385774Y0113279D01*
X0386215Y0112839D01*
X0388833Y0111754D01*
X0398718Y0111754D01*
X0401337Y0112839D01*
X0403341Y0114843D01*
X0404426Y0117462D01*
X0404426Y0120296D01*
X0403341Y0122915D01*
X0401337Y0124920D01*
X0398718Y0126004D01*
X0388833Y0126004D01*
X0386215Y0124920D01*
X0385774Y0124479D01*
X0358181Y0124479D01*
X0358183Y0124482D01*
X0358183Y0128276D01*
X0357635Y0129600D01*
X0356622Y0130612D01*
X0355402Y0131118D01*
X0355393Y0131127D01*
X0353334Y0131979D01*
X0351107Y0131979D01*
X0349048Y0131127D01*
X0349039Y0131118D01*
X0347819Y0130612D01*
X0346806Y0129600D01*
X0346258Y0128276D01*
X0346603Y0129109D02*
X0335357Y0129109D01*
X0327697Y0132879D02*
X0343697Y0148879D01*
X0346698Y0150696D02*
X0337110Y0150696D01*
X0338712Y0153094D02*
X0344299Y0153094D01*
X0343997Y0155493D02*
X0339397Y0155493D01*
X0339540Y0157891D02*
X0343997Y0157891D01*
X0343997Y0156379D02*
X0351197Y0156379D01*
X0358397Y0156379D01*
X0358397Y0159362D01*
X0354179Y0163579D01*
X0351197Y0163579D01*
X0351197Y0156379D01*
X0343997Y0156379D01*
X0344925Y0160290D02*
X0341330Y0160290D01*
X0338697Y0163879D02*
X0338697Y0193879D01*
X0330173Y0201379D02*
X0316197Y0201379D01*
X0306197Y0191379D01*
X0306197Y0181379D01*
X0303697Y0181379D01*
X0303697Y0182856D01*
X0301197Y0182856D01*
X0296673Y0187379D01*
X0286197Y0187379D01*
X0286197Y0187629D01*
X0286187Y0187629D01*
X0296866Y0194380D02*
X0297197Y0193879D01*
X0297697Y0193548D01*
X0299318Y0196001D01*
X0296866Y0194380D01*
X0297197Y0193879D02*
X0299318Y0196001D01*
X0301197Y0197879D01*
X0301197Y0204903D01*
X0290961Y0204903D01*
X0286187Y0200129D01*
X0259594Y0197229D02*
X0259594Y0194583D01*
X0259886Y0193879D01*
X0259594Y0193176D01*
X0259594Y0190779D01*
X0257396Y0190779D01*
X0257396Y0191059D01*
X0257031Y0191941D01*
X0256356Y0192617D01*
X0255473Y0192982D01*
X0249401Y0192982D01*
X0248697Y0192690D01*
X0247993Y0192982D01*
X0243195Y0192982D01*
X0242840Y0193338D01*
X0241774Y0193779D01*
X0239447Y0193779D01*
X0239447Y0195129D01*
X0234747Y0195129D01*
X0234747Y0195129D01*
X0239447Y0195129D01*
X0239447Y0196519D01*
X0239390Y0196731D01*
X0239647Y0197352D01*
X0239647Y0197479D01*
X0239998Y0197479D01*
X0239998Y0196699D01*
X0240363Y0195817D01*
X0241038Y0195142D01*
X0241920Y0194776D01*
X0247993Y0194776D01*
X0248697Y0195068D01*
X0249401Y0194776D01*
X0255473Y0194776D01*
X0256356Y0195142D01*
X0257031Y0195817D01*
X0257396Y0196699D01*
X0257396Y0197229D01*
X0259594Y0197229D01*
X0259594Y0196268D02*
X0257217Y0196268D01*
X0259881Y0193869D02*
X0239447Y0193869D01*
X0239447Y0196268D02*
X0240176Y0196268D01*
X0234747Y0195129D02*
X0234747Y0195129D01*
X0230047Y0195129D01*
X0230047Y0193740D01*
X0230104Y0193527D01*
X0230005Y0193289D01*
X0229923Y0193206D01*
X0229681Y0193789D01*
X0229006Y0194464D01*
X0228124Y0194829D01*
X0222169Y0194829D01*
X0221287Y0194464D01*
X0221233Y0194409D01*
X0221194Y0194404D01*
X0220986Y0194431D01*
X0220795Y0194379D01*
X0220303Y0194379D01*
X0219814Y0194414D01*
X0219710Y0194379D01*
X0219600Y0194379D01*
X0219147Y0194192D01*
X0219110Y0194179D01*
X0218941Y0194179D01*
X0218709Y0194083D01*
X0218664Y0194077D01*
X0218638Y0194104D01*
X0218700Y0194211D01*
X0218850Y0194771D01*
X0218850Y0197540D01*
X0213776Y0197540D01*
X0213776Y0195098D01*
X0213617Y0195098D01*
X0213617Y0197540D01*
X0208544Y0197540D01*
X0208544Y0194771D01*
X0208694Y0194211D01*
X0208756Y0194104D01*
X0208709Y0194058D01*
X0208344Y0193176D01*
X0208344Y0189269D01*
X0204346Y0185271D01*
X0204074Y0185179D01*
X0203941Y0185179D01*
X0203690Y0185075D01*
X0203265Y0185500D01*
X0202447Y0185839D01*
X0202447Y0188526D01*
X0202973Y0188526D01*
X0203856Y0188892D01*
X0204531Y0189567D01*
X0204896Y0190449D01*
X0204896Y0197309D01*
X0204531Y0198191D01*
X0203856Y0198867D01*
X0203197Y0199139D01*
X0203197Y0202230D01*
X0203265Y0202258D01*
X0203940Y0202933D01*
X0204305Y0203815D01*
X0204305Y0210282D01*
X0203940Y0211164D01*
X0203265Y0211839D01*
X0202447Y0212178D01*
X0202447Y0212479D01*
X0205996Y0212479D01*
X0207324Y0211151D01*
X0207397Y0210879D01*
X0207397Y0210623D01*
X0207591Y0210155D01*
X0207670Y0209859D01*
X0207676Y0209839D01*
X0207776Y0209707D01*
X0207975Y0209227D01*
X0209044Y0208158D01*
X0210441Y0207579D01*
X0211953Y0207579D01*
X0213349Y0208158D01*
X0214418Y0209227D01*
X0214997Y0210623D01*
X0214997Y0211978D01*
X0219998Y0206977D01*
X0219998Y0204199D01*
X0220363Y0203317D01*
X0221038Y0202642D01*
X0221860Y0202301D01*
X0221287Y0202064D01*
X0220612Y0201389D01*
X0220247Y0200507D01*
X0220247Y0197352D01*
X0220612Y0196470D01*
X0221287Y0195795D01*
X0222169Y0195429D01*
X0228124Y0195429D01*
X0229006Y0195795D01*
X0229681Y0196470D01*
X0229947Y0197110D01*
X0230104Y0196731D01*
X0230047Y0196519D01*
X0230047Y0195129D01*
X0234747Y0195129D01*
X0230047Y0196268D02*
X0229479Y0196268D01*
X0229601Y0193869D02*
X0230047Y0193869D01*
X0220814Y0196268D02*
X0218850Y0196268D01*
X0218850Y0197699D02*
X0213776Y0197699D01*
X0213617Y0197699D01*
X0213617Y0197540D01*
X0213776Y0197540D01*
X0213776Y0197699D01*
X0213776Y0202378D01*
X0216939Y0202378D01*
X0217499Y0202229D01*
X0218000Y0201939D01*
X0218410Y0201529D01*
X0218700Y0201028D01*
X0218850Y0200468D01*
X0218850Y0197699D01*
X0218850Y0198666D02*
X0220247Y0198666D01*
X0220478Y0201065D02*
X0218678Y0201065D01*
X0220302Y0203463D02*
X0204160Y0203463D01*
X0204305Y0205862D02*
X0219998Y0205862D01*
X0218715Y0208260D02*
X0213452Y0208260D01*
X0214997Y0210659D02*
X0216316Y0210659D01*
X0208942Y0208260D02*
X0204305Y0208260D01*
X0204149Y0210659D02*
X0207397Y0210659D01*
X0209895Y0202229D02*
X0209393Y0201939D01*
X0208984Y0201529D01*
X0208694Y0201028D01*
X0208544Y0200468D01*
X0208544Y0197699D01*
X0213617Y0197699D01*
X0213617Y0202378D01*
X0210454Y0202378D01*
X0209895Y0202229D01*
X0208715Y0201065D02*
X0203197Y0201065D01*
X0204056Y0198666D02*
X0208544Y0198666D01*
X0208544Y0196268D02*
X0204896Y0196268D01*
X0204896Y0193869D02*
X0208631Y0193869D01*
X0208344Y0191471D02*
X0204896Y0191471D01*
X0204036Y0189072D02*
X0208147Y0189072D01*
X0205749Y0186674D02*
X0202447Y0186674D01*
X0213617Y0196268D02*
X0213776Y0196268D01*
X0213776Y0198666D02*
X0213617Y0198666D01*
X0213617Y0201065D02*
X0213776Y0201065D01*
X0197447Y0201065D02*
X0191483Y0201065D01*
X0192311Y0201893D02*
X0194903Y0201893D01*
X0195785Y0202258D01*
X0196338Y0202812D01*
X0196618Y0202532D01*
X0197119Y0202243D01*
X0197447Y0202155D01*
X0197447Y0199032D01*
X0197088Y0199032D01*
X0196529Y0198882D01*
X0196422Y0198820D01*
X0196375Y0198867D01*
X0195493Y0199232D01*
X0189651Y0199232D01*
X0192311Y0201893D01*
X0197447Y0223279D02*
X0108120Y0223279D01*
X0107054Y0222838D01*
X0106238Y0222022D01*
X0098238Y0214022D01*
X0097797Y0212956D01*
X0097797Y0198080D01*
X0097393Y0197676D01*
X0097393Y0199031D01*
X0097243Y0199591D01*
X0096953Y0200092D01*
X0096544Y0200502D01*
X0096042Y0200791D01*
X0095483Y0200941D01*
X0092831Y0200941D01*
X0092831Y0196379D01*
X0092831Y0196379D01*
X0089325Y0196379D01*
X0089325Y0196379D01*
X0092831Y0196379D01*
X0092831Y0196379D01*
X0092831Y0200941D01*
X0090179Y0200941D01*
X0089619Y0200791D01*
X0089118Y0200502D01*
X0088838Y0200222D01*
X0088285Y0200776D01*
X0087597Y0201061D01*
X0087597Y0203526D01*
X0087993Y0203526D01*
X0088697Y0203818D01*
X0089401Y0203526D01*
X0095473Y0203526D01*
X0096356Y0203892D01*
X0097031Y0204567D01*
X0097396Y0205449D01*
X0097396Y0212309D01*
X0097031Y0213191D01*
X0096356Y0213867D01*
X0095697Y0214139D01*
X0095697Y0216119D01*
X0096356Y0216392D01*
X0097031Y0217067D01*
X0097396Y0217949D01*
X0097396Y0224809D01*
X0097031Y0225691D01*
X0096356Y0226367D01*
X0095473Y0226732D01*
X0092087Y0226732D01*
X0090292Y0228526D01*
X0095473Y0228526D01*
X0096356Y0228892D01*
X0097031Y0229567D01*
X0097396Y0230449D01*
X0097396Y0230879D01*
X0106551Y0230879D01*
X0106885Y0230545D01*
X0107767Y0230180D01*
X0114627Y0230180D01*
X0115509Y0230545D01*
X0116184Y0231221D01*
X0116550Y0232103D01*
X0116550Y0232379D01*
X0118344Y0232379D01*
X0118344Y0232103D01*
X0118709Y0231221D01*
X0119385Y0230545D01*
X0120267Y0230180D01*
X0127127Y0230180D01*
X0128009Y0230545D01*
X0128684Y0231221D01*
X0128913Y0231774D01*
X0129042Y0231710D01*
X0129042Y0231710D01*
X0129042Y0231710D01*
X0129043Y0231710D01*
X0129142Y0231703D01*
X0129441Y0231579D01*
X0130953Y0231579D01*
X0131218Y0231689D01*
X0131484Y0231229D01*
X0131893Y0230820D01*
X0132395Y0230530D01*
X0132954Y0230380D01*
X0136117Y0230380D01*
X0136117Y0235059D01*
X0136276Y0235059D01*
X0136276Y0230380D01*
X0139439Y0230380D01*
X0139999Y0230530D01*
X0140500Y0230820D01*
X0140910Y0231229D01*
X0141200Y0231731D01*
X0141350Y0232290D01*
X0141350Y0235060D01*
X0136276Y0235060D01*
X0136276Y0235219D01*
X0141350Y0235219D01*
X0141350Y0237988D01*
X0141200Y0238547D01*
X0141138Y0238654D01*
X0141184Y0238701D01*
X0141550Y0239583D01*
X0141550Y0239879D01*
X0153611Y0239879D01*
X0153790Y0239719D01*
X0154021Y0239638D01*
X0154223Y0239500D01*
X0154690Y0239403D01*
X0156145Y0238893D01*
X0153347Y0236095D01*
X0153347Y0233879D01*
X0153347Y0231663D01*
X0156481Y0228529D01*
X0158697Y0228529D01*
X0160913Y0228529D01*
X0164047Y0231663D01*
X0164047Y0233879D01*
X0158697Y0233879D01*
X0158697Y0228529D01*
X0158697Y0233879D01*
X0158697Y0233879D01*
X0158697Y0233879D01*
X0160591Y0233414D01*
X0161196Y0235878D01*
X0158659Y0235829D01*
X0158697Y0233879D01*
X0158051Y0235719D01*
X0155657Y0234879D01*
X0157085Y0232782D01*
X0158697Y0233879D01*
X0164047Y0233879D01*
X0164047Y0236095D01*
X0161224Y0238919D01*
X0161841Y0239174D01*
X0163402Y0240735D01*
X0163806Y0241710D01*
X0163916Y0241860D01*
X0163986Y0242145D01*
X0164247Y0242775D01*
X0164247Y0243208D01*
X0164635Y0244788D01*
X0164809Y0245232D01*
X0164809Y0245248D01*
X0167939Y0248379D01*
X0179450Y0248379D01*
X0179450Y0240079D01*
X0192654Y0240079D01*
X0192654Y0237679D01*
X0179450Y0237679D01*
X0179450Y0227960D01*
X0179600Y0227400D01*
X0179889Y0226898D01*
X0180299Y0226489D01*
X0180800Y0226199D01*
X0181360Y0226049D01*
X0192654Y0226049D01*
X0192654Y0237679D01*
X0195054Y0237679D01*
X0195054Y0226049D01*
X0197447Y0226049D01*
X0197447Y0223279D01*
X0197447Y0225050D02*
X0097297Y0225050D01*
X0097396Y0222651D02*
X0106868Y0222651D01*
X0104469Y0220253D02*
X0097396Y0220253D01*
X0097357Y0217854D02*
X0102071Y0217854D01*
X0099672Y0215456D02*
X0095697Y0215456D01*
X0097086Y0213057D02*
X0097839Y0213057D01*
X0097797Y0210659D02*
X0097396Y0210659D01*
X0097396Y0208260D02*
X0097797Y0208260D01*
X0097797Y0205862D02*
X0097396Y0205862D01*
X0097797Y0203463D02*
X0087597Y0203463D01*
X0087597Y0201065D02*
X0097797Y0201065D01*
X0097797Y0198666D02*
X0097393Y0198666D01*
X0092831Y0198666D02*
X0092831Y0198666D01*
X0091533Y0191817D02*
X0090179Y0191817D01*
X0089619Y0191967D01*
X0089118Y0192257D01*
X0088838Y0192536D01*
X0088285Y0191982D01*
X0087403Y0191617D01*
X0081723Y0191617D01*
X0080841Y0191982D01*
X0080166Y0192658D01*
X0079801Y0193540D01*
X0079801Y0199219D01*
X0080166Y0200101D01*
X0080841Y0200776D01*
X0081723Y0201141D01*
X0081797Y0201141D01*
X0081797Y0203578D01*
X0081038Y0203892D01*
X0080363Y0204567D01*
X0079998Y0205449D01*
X0079998Y0212309D01*
X0080363Y0213191D01*
X0081038Y0213867D01*
X0081920Y0214232D01*
X0087993Y0214232D01*
X0088697Y0213940D01*
X0089401Y0214232D01*
X0089697Y0214232D01*
X0089697Y0216026D01*
X0089401Y0216026D01*
X0088697Y0216318D01*
X0087993Y0216026D01*
X0081920Y0216026D01*
X0081038Y0216392D01*
X0080363Y0217067D01*
X0079998Y0217949D01*
X0079998Y0218479D01*
X0064898Y0218479D01*
X0064246Y0217827D01*
X0064215Y0217550D01*
X0064106Y0217349D01*
X0063714Y0215749D01*
X0063714Y0215749D01*
X0063697Y0215677D01*
X0063697Y0214208D01*
X0060768Y0211279D01*
X0056626Y0211279D01*
X0053697Y0214208D01*
X0053697Y0218350D01*
X0056626Y0221279D01*
X0057982Y0221279D01*
X0059527Y0221730D01*
X0059722Y0221849D01*
X0060127Y0221911D01*
X0062054Y0223838D01*
X0063120Y0224279D01*
X0079998Y0224279D01*
X0079998Y0224809D01*
X0080363Y0225691D01*
X0080712Y0226040D01*
X0079997Y0226336D01*
X0078497Y0227836D01*
X0077654Y0228680D01*
X0077197Y0229782D01*
X0077197Y0230380D01*
X0075026Y0230380D01*
X0075026Y0235059D01*
X0074867Y0235059D01*
X0074867Y0230380D01*
X0071704Y0230380D01*
X0071145Y0230530D01*
X0070643Y0230820D01*
X0070234Y0231229D01*
X0069944Y0231731D01*
X0069794Y0232290D01*
X0069794Y0235060D01*
X0074867Y0235060D01*
X0074867Y0235219D01*
X0069794Y0235219D01*
X0069794Y0237988D01*
X0069944Y0238547D01*
X0070006Y0238654D01*
X0069959Y0238701D01*
X0069594Y0239583D01*
X0069594Y0240879D01*
X0064788Y0240879D01*
X0064736Y0240827D01*
X0064547Y0240749D01*
X0064340Y0240583D01*
X0063068Y0239565D01*
X0063068Y0239565D01*
X0062772Y0239328D01*
X0062755Y0239311D01*
X0062510Y0239028D01*
X0062435Y0238990D01*
X0062152Y0238708D01*
X0062112Y0238691D01*
X0062540Y0238379D01*
X0063197Y0237723D01*
X0063743Y0236972D01*
X0064165Y0236144D01*
X0064452Y0235261D01*
X0064597Y0234344D01*
X0064597Y0233879D01*
X0058697Y0233879D01*
X0058697Y0227979D01*
X0059161Y0227979D01*
X0060078Y0228125D01*
X0060962Y0228411D01*
X0061789Y0228833D01*
X0062540Y0229379D01*
X0063197Y0230036D01*
X0063743Y0230787D01*
X0064165Y0231614D01*
X0064452Y0232498D01*
X0064597Y0233415D01*
X0064597Y0233879D01*
X0058697Y0233879D01*
X0058697Y0233879D01*
X0058697Y0233879D01*
X0058697Y0227979D01*
X0058233Y0227979D01*
X0057315Y0228125D01*
X0056432Y0228411D01*
X0055605Y0228833D01*
X0054853Y0229379D01*
X0054197Y0230036D01*
X0053651Y0230787D01*
X0053229Y0231614D01*
X0052942Y0232498D01*
X0052797Y0233415D01*
X0052797Y0233879D01*
X0058697Y0233879D01*
X0060794Y0232519D01*
X0062493Y0235139D01*
X0059565Y0236224D01*
X0058697Y0233879D01*
X0058697Y0233879D01*
X0052797Y0233879D01*
X0052797Y0234344D01*
X0052942Y0235261D01*
X0053229Y0236144D01*
X0053651Y0236972D01*
X0054197Y0237723D01*
X0054853Y0238379D01*
X0055282Y0238691D01*
X0055241Y0238708D01*
X0053526Y0240424D01*
X0052597Y0242666D01*
X0052597Y0245093D01*
X0053526Y0247335D01*
X0055241Y0249051D01*
X0057483Y0249979D01*
X0059910Y0249979D01*
X0062152Y0249051D01*
X0062772Y0248431D01*
X0064547Y0247009D01*
X0064736Y0246931D01*
X0064788Y0246879D01*
X0070301Y0246879D01*
X0070635Y0247213D01*
X0071517Y0247578D01*
X0078377Y0247578D01*
X0079259Y0247213D01*
X0079934Y0246538D01*
X0079998Y0246385D01*
X0079998Y0247309D01*
X0080363Y0248191D01*
X0081038Y0248867D01*
X0081920Y0249232D01*
X0085307Y0249232D01*
X0087497Y0251423D01*
X0088600Y0251879D01*
X0130294Y0251879D01*
X0131396Y0251423D01*
X0135240Y0247578D01*
X0139627Y0247578D01*
X0140509Y0247213D01*
X0141184Y0246538D01*
X0141457Y0245879D01*
X0153344Y0245879D01*
X0153706Y0246410D01*
X0153706Y0246410D01*
X0153788Y0246531D01*
X0153992Y0247023D01*
X0154403Y0247434D01*
X0154512Y0247594D01*
X0154660Y0247692D01*
X0155553Y0248584D01*
X0157593Y0249429D01*
X0158643Y0249429D01*
X0160541Y0249466D01*
X0164997Y0253923D01*
X0166100Y0254379D01*
X0197447Y0254379D01*
X0197447Y0256179D01*
X0043442Y0256179D01*
X0044963Y0253546D01*
X0045787Y0250471D01*
X0045787Y0247288D01*
X0044963Y0244213D01*
X0043371Y0241456D01*
X0041120Y0239205D01*
X0038363Y0237613D01*
X0035288Y0236789D01*
X0032105Y0236789D01*
X0029030Y0237613D01*
X0026397Y0239134D01*
X0026397Y0038625D01*
X0029030Y0040145D01*
X0032105Y0040969D01*
X0035288Y0040969D01*
X0038363Y0040145D01*
X0041120Y0038553D01*
X0043371Y0036303D01*
X0044963Y0033546D01*
X0045787Y0030471D01*
X0045787Y0027288D01*
X0044963Y0024213D01*
X0043442Y0021579D01*
X0197447Y0021579D01*
X0197447Y0029393D01*
X0193751Y0029393D01*
X0192869Y0029758D01*
X0192194Y0030433D01*
X0191828Y0031315D01*
X0191828Y0035979D01*
X0184896Y0035979D01*
X0184896Y0035449D01*
X0184531Y0034567D01*
X0183856Y0033892D01*
X0182973Y0033526D01*
X0176901Y0033526D01*
X0176197Y0033818D01*
X0175493Y0033526D01*
X0169420Y0033526D01*
X0168538Y0033892D01*
X0167863Y0034567D01*
X0167498Y0035449D01*
X0167498Y0039979D01*
X0135120Y0039979D01*
X0134054Y0040421D01*
X0132947Y0041528D01*
X0127396Y0035977D01*
X0127321Y0034284D01*
X0127297Y0033744D01*
X0127297Y0032666D01*
X0126368Y0030424D01*
X0124652Y0028708D01*
X0122410Y0027779D01*
X0119983Y0027779D01*
X0117741Y0028708D01*
X0116197Y0030253D01*
X0114652Y0028708D01*
X0112410Y0027779D01*
X0109983Y0027779D01*
X0107741Y0028708D01*
X0106026Y0030424D01*
X0105097Y0032666D01*
X0105097Y0035093D01*
X0106026Y0037335D01*
X0107741Y0039051D01*
X0109983Y0039979D01*
X0112410Y0039979D01*
X0114652Y0039051D01*
X0116197Y0037506D01*
X0117741Y0039051D01*
X0119983Y0039979D01*
X0121061Y0039979D01*
X0121602Y0040003D01*
X0123295Y0040079D01*
X0129698Y0046482D01*
X0129113Y0047067D01*
X0128748Y0047949D01*
X0128748Y0052227D01*
X0127496Y0053479D01*
X0125244Y0053479D01*
X0125037Y0053272D01*
X0124155Y0052906D01*
X0119697Y0052906D01*
X0119697Y0051732D01*
X0122973Y0051732D01*
X0123856Y0051367D01*
X0124531Y0050691D01*
X0124896Y0049809D01*
X0124896Y0042949D01*
X0124531Y0042067D01*
X0123856Y0041392D01*
X0122973Y0041026D01*
X0116901Y0041026D01*
X0116018Y0041392D01*
X0115972Y0041438D01*
X0115865Y0041376D01*
X0115305Y0041226D01*
X0112536Y0041226D01*
X0112536Y0046300D01*
X0112377Y0046300D01*
X0107698Y0046300D01*
X0107698Y0043137D01*
X0107848Y0042577D01*
X0108137Y0042076D01*
X0108547Y0041666D01*
X0109048Y0041376D01*
X0109608Y0041226D01*
X0112377Y0041226D01*
X0112377Y0046300D01*
X0112377Y0046459D01*
X0112377Y0051532D01*
X0109608Y0051532D01*
X0109048Y0051382D01*
X0108547Y0051092D01*
X0108137Y0050683D01*
X0107848Y0050181D01*
X0107698Y0049622D01*
X0107698Y0046459D01*
X0112377Y0046459D01*
X0112536Y0046459D01*
X0112536Y0051532D01*
X0113697Y0051532D01*
X0113697Y0052906D01*
X0108239Y0052906D01*
X0107357Y0053272D01*
X0107149Y0053479D01*
X0095357Y0053479D01*
X0095357Y0051732D01*
X0095493Y0051732D01*
X0096375Y0051367D01*
X0096422Y0051320D01*
X0096529Y0051382D01*
X0097088Y0051532D01*
X0099857Y0051532D01*
X0099857Y0046459D01*
X0100017Y0046459D01*
X0104696Y0046459D01*
X0104696Y0049622D01*
X0104546Y0050181D01*
X0104256Y0050683D01*
X0103847Y0051092D01*
X0103345Y0051382D01*
X0102786Y0051532D01*
X0100017Y0051532D01*
X0100017Y0046459D01*
X0100017Y0046300D01*
X0104696Y0046300D01*
X0104696Y0043137D01*
X0104546Y0042577D01*
X0104256Y0042076D01*
X0103847Y0041666D01*
X0103345Y0041376D01*
X0102786Y0041226D01*
X0100017Y0041226D01*
X0100017Y0046300D01*
X0099857Y0046300D01*
X0099857Y0041226D01*
X0097088Y0041226D01*
X0096529Y0041376D01*
X0096422Y0041438D01*
X0096375Y0041392D01*
X0095493Y0041026D01*
X0089420Y0041026D01*
X0088538Y0041392D01*
X0087863Y0042067D01*
X0087498Y0042949D01*
X0087498Y0049809D01*
X0087863Y0050691D01*
X0088538Y0051367D01*
X0089420Y0051732D01*
X0089557Y0051732D01*
X0089557Y0052668D01*
X0088746Y0053479D01*
X0064808Y0053479D01*
X0064797Y0053406D01*
X0064797Y0052666D01*
X0063868Y0050424D01*
X0062152Y0048708D01*
X0059910Y0047779D01*
X0057483Y0047779D01*
X0055241Y0048708D01*
X0053526Y0050424D01*
X0052597Y0052666D01*
X0052597Y0055093D01*
X0053526Y0057335D01*
X0055070Y0058879D01*
X0053526Y0060424D01*
X0052597Y0062666D01*
X0052597Y0065093D01*
X0053526Y0067335D01*
X0055070Y0068879D01*
X0053526Y0070424D01*
X0052597Y0072666D01*
X0052597Y0075093D01*
X0053526Y0077335D01*
X0055070Y0078879D01*
X0053526Y0080424D01*
X0052597Y0082666D01*
X0052597Y0085093D01*
X0053526Y0087335D01*
X0055070Y0088879D01*
X0053526Y0090424D01*
X0052597Y0092666D01*
X0052597Y0095093D01*
X0053526Y0097335D01*
X0055070Y0098879D01*
X0053526Y0100424D01*
X0052597Y0102666D01*
X0052597Y0105093D01*
X0053526Y0107335D01*
X0055241Y0109051D01*
X0057483Y0109979D01*
X0058561Y0109979D01*
X0059102Y0110003D01*
X0060795Y0110079D01*
X0062054Y0111338D01*
X0063120Y0111779D01*
X0066248Y0111779D01*
X0066248Y0112309D01*
X0066613Y0113191D01*
X0067288Y0113867D01*
X0068170Y0114232D01*
X0074243Y0114232D01*
X0075125Y0113867D01*
X0075172Y0113820D01*
X0075279Y0113882D01*
X0075838Y0114032D01*
X0078607Y0114032D01*
X0078607Y0108959D01*
X0078767Y0108959D01*
X0083446Y0108959D01*
X0083446Y0112122D01*
X0083296Y0112681D01*
X0083006Y0113183D01*
X0082663Y0113526D01*
X0083697Y0113526D01*
X0083697Y0111379D01*
X0089096Y0111379D01*
X0083446Y0105730D01*
X0083446Y0108800D01*
X0078767Y0108800D01*
X0078767Y0108959D01*
X0078767Y0114032D01*
X0080898Y0114032D01*
X0080363Y0114567D01*
X0079998Y0115449D01*
X0079998Y0122309D01*
X0080363Y0123191D01*
X0081038Y0123867D01*
X0081920Y0124232D01*
X0082297Y0124232D01*
X0082297Y0126026D01*
X0081920Y0126026D01*
X0081038Y0126392D01*
X0080363Y0127067D01*
X0079998Y0127949D01*
X0079998Y0128479D01*
X0064580Y0128479D01*
X0064551Y0128467D01*
X0064323Y0128259D01*
X0063313Y0127335D01*
X0063313Y0127335D01*
X0062914Y0126970D01*
X0062152Y0126208D01*
X0059910Y0125279D01*
X0057483Y0125279D01*
X0055241Y0126208D01*
X0053526Y0127924D01*
X0052597Y0130166D01*
X0052597Y0132593D01*
X0053526Y0134835D01*
X0055070Y0136379D01*
X0053526Y0137924D01*
X0052597Y0140166D01*
X0052597Y0142593D01*
X0053526Y0144835D01*
X0055070Y0146379D01*
X0053526Y0147924D01*
X0052597Y0150166D01*
X0052597Y0152593D01*
X0053526Y0154835D01*
X0055070Y0156379D01*
X0053526Y0157924D01*
X0052597Y0160166D01*
X0052597Y0161243D01*
X0052498Y0163477D01*
X0046238Y0169737D01*
X0045797Y0170802D01*
X0045797Y0201296D01*
X0045727Y0201465D01*
X0045588Y0201646D01*
X0045529Y0201867D01*
X0044696Y0203309D01*
X0043697Y0204308D01*
X0043697Y0208450D01*
X0046626Y0211379D01*
X0050768Y0211379D01*
X0053697Y0208450D01*
X0053697Y0204308D01*
X0052698Y0203309D01*
X0051865Y0201867D01*
X0051806Y0201646D01*
X0051667Y0201465D01*
X0051597Y0201296D01*
X0051597Y0172580D01*
X0052797Y0171380D01*
X0052797Y0171844D01*
X0052942Y0172761D01*
X0053229Y0173644D01*
X0053651Y0174472D01*
X0054197Y0175223D01*
X0054853Y0175879D01*
X0055605Y0176425D01*
X0056432Y0176847D01*
X0057315Y0177134D01*
X0058233Y0177279D01*
X0058697Y0177279D01*
X0058697Y0171379D01*
X0058697Y0171379D01*
X0064597Y0171379D01*
X0064597Y0170915D01*
X0064452Y0169998D01*
X0064165Y0169114D01*
X0063743Y0168287D01*
X0063197Y0167536D01*
X0062540Y0166879D01*
X0062112Y0166567D01*
X0062152Y0166551D01*
X0063868Y0164835D01*
X0064797Y0162593D01*
X0064797Y0161580D01*
X0074554Y0171338D01*
X0075620Y0171779D01*
X0079998Y0171779D01*
X0079998Y0172309D01*
X0080363Y0173191D01*
X0081038Y0173867D01*
X0081920Y0174232D01*
X0082297Y0174232D01*
X0082297Y0176026D01*
X0081920Y0176026D01*
X0081038Y0176392D01*
X0080363Y0177067D01*
X0079998Y0177949D01*
X0079998Y0184809D01*
X0080363Y0185691D01*
X0081038Y0186367D01*
X0081920Y0186732D01*
X0087993Y0186732D01*
X0088697Y0186440D01*
X0089401Y0186732D01*
X0089797Y0186732D01*
X0089797Y0189456D01*
X0090238Y0190522D01*
X0091533Y0191817D01*
X0091187Y0191471D02*
X0051597Y0191471D01*
X0051597Y0193869D02*
X0054519Y0193869D01*
X0053897Y0194491D02*
X0056709Y0191679D01*
X0058697Y0191679D01*
X0060685Y0191679D01*
X0063497Y0194491D01*
X0063497Y0196479D01*
X0058697Y0196479D01*
X0058697Y0191679D01*
X0058697Y0196479D01*
X0058697Y0196479D01*
X0058697Y0196479D01*
X0063497Y0196479D01*
X0063497Y0198467D01*
X0060685Y0201279D01*
X0058697Y0201279D01*
X0058697Y0196479D01*
X0053897Y0196479D01*
X0053897Y0194491D01*
X0053897Y0196268D02*
X0051597Y0196268D01*
X0053897Y0196479D02*
X0058697Y0196479D01*
X0058697Y0196479D01*
X0058697Y0196479D01*
X0058697Y0201279D01*
X0056709Y0201279D01*
X0053897Y0198467D01*
X0053897Y0196479D01*
X0054095Y0198666D02*
X0051597Y0198666D01*
X0051597Y0201065D02*
X0056494Y0201065D01*
X0058697Y0201065D02*
X0058697Y0201065D01*
X0060900Y0201065D02*
X0081538Y0201065D01*
X0081797Y0203463D02*
X0052852Y0203463D01*
X0053697Y0205862D02*
X0079998Y0205862D01*
X0079998Y0208260D02*
X0053697Y0208260D01*
X0051488Y0210659D02*
X0079998Y0210659D01*
X0080307Y0213057D02*
X0062546Y0213057D01*
X0063697Y0215456D02*
X0089697Y0215456D01*
X0080037Y0217854D02*
X0064273Y0217854D01*
X0060868Y0222651D02*
X0026397Y0222651D01*
X0026397Y0220253D02*
X0055599Y0220253D01*
X0053697Y0217854D02*
X0026397Y0217854D01*
X0026397Y0215456D02*
X0053697Y0215456D01*
X0054848Y0213057D02*
X0026397Y0213057D01*
X0026397Y0210659D02*
X0045905Y0210659D01*
X0043697Y0208260D02*
X0026397Y0208260D01*
X0026397Y0205862D02*
X0043697Y0205862D01*
X0044542Y0203463D02*
X0026397Y0203463D01*
X0026397Y0201065D02*
X0045797Y0201065D01*
X0045797Y0198666D02*
X0026397Y0198666D01*
X0026397Y0196268D02*
X0045797Y0196268D01*
X0045797Y0193869D02*
X0026397Y0193869D01*
X0026397Y0191471D02*
X0045797Y0191471D01*
X0045797Y0189072D02*
X0026397Y0189072D01*
X0026397Y0186674D02*
X0045797Y0186674D01*
X0045797Y0184275D02*
X0026397Y0184275D01*
X0026397Y0181877D02*
X0045797Y0181877D01*
X0045797Y0179478D02*
X0026397Y0179478D01*
X0026397Y0177079D02*
X0045797Y0177079D01*
X0045797Y0174681D02*
X0026397Y0174681D01*
X0026397Y0172282D02*
X0045797Y0172282D01*
X0046177Y0169884D02*
X0026397Y0169884D01*
X0026397Y0167485D02*
X0048489Y0167485D01*
X0050888Y0165087D02*
X0026397Y0165087D01*
X0026397Y0162688D02*
X0052533Y0162688D01*
X0052597Y0160290D02*
X0026397Y0160290D01*
X0026397Y0157891D02*
X0053558Y0157891D01*
X0054184Y0155493D02*
X0026397Y0155493D01*
X0026397Y0153094D02*
X0052805Y0153094D01*
X0052597Y0150696D02*
X0026397Y0150696D01*
X0026397Y0148297D02*
X0053371Y0148297D01*
X0054590Y0145899D02*
X0026397Y0145899D01*
X0026397Y0143500D02*
X0052973Y0143500D01*
X0052597Y0141102D02*
X0026397Y0141102D01*
X0026397Y0138703D02*
X0053203Y0138703D01*
X0054996Y0136305D02*
X0026397Y0136305D01*
X0026397Y0133906D02*
X0053141Y0133906D01*
X0052597Y0131508D02*
X0026397Y0131508D01*
X0026397Y0129109D02*
X0053034Y0129109D01*
X0054739Y0126711D02*
X0026397Y0126711D01*
X0026397Y0124312D02*
X0082297Y0124312D01*
X0080719Y0126711D02*
X0062655Y0126711D01*
X0079998Y0121914D02*
X0026397Y0121914D01*
X0026397Y0119515D02*
X0079998Y0119515D01*
X0079998Y0117117D02*
X0026397Y0117117D01*
X0026397Y0114718D02*
X0080300Y0114718D01*
X0078767Y0112320D02*
X0078607Y0112320D01*
X0078607Y0109921D02*
X0078767Y0109921D01*
X0078767Y0108800D02*
X0078767Y0103726D01*
X0081443Y0103726D01*
X0071948Y0094232D01*
X0068170Y0094232D01*
X0067288Y0093867D01*
X0066613Y0093191D01*
X0066248Y0092309D01*
X0066248Y0088531D01*
X0064528Y0086812D01*
X0064265Y0087052D01*
X0062914Y0088289D01*
X0062324Y0088879D01*
X0063868Y0090424D01*
X0064797Y0092666D01*
X0064797Y0095093D01*
X0063868Y0097335D01*
X0062324Y0098879D01*
X0063868Y0100424D01*
X0064797Y0102666D01*
X0064797Y0103744D01*
X0064821Y0104284D01*
X0064896Y0105977D01*
X0064898Y0105979D01*
X0066248Y0105979D01*
X0066248Y0105449D01*
X0066613Y0104567D01*
X0067288Y0103892D01*
X0068170Y0103526D01*
X0074243Y0103526D01*
X0075125Y0103892D01*
X0075172Y0103938D01*
X0075279Y0103876D01*
X0075838Y0103726D01*
X0078607Y0103726D01*
X0078607Y0108800D01*
X0078767Y0108800D01*
X0078767Y0107523D02*
X0078607Y0107523D01*
X0078607Y0105124D02*
X0078767Y0105124D01*
X0080442Y0102726D02*
X0064797Y0102726D01*
X0064858Y0105124D02*
X0066382Y0105124D01*
X0063771Y0100327D02*
X0078044Y0100327D01*
X0075645Y0097929D02*
X0063274Y0097929D01*
X0064616Y0095530D02*
X0073247Y0095530D01*
X0066588Y0093132D02*
X0064797Y0093132D01*
X0063996Y0090733D02*
X0066248Y0090733D01*
X0066051Y0088335D02*
X0062868Y0088335D01*
X0066274Y0080979D02*
X0067340Y0081421D01*
X0069445Y0083526D01*
X0074243Y0083526D01*
X0075125Y0083892D01*
X0075172Y0083938D01*
X0075279Y0083876D01*
X0075838Y0083726D01*
X0078607Y0083726D01*
X0078607Y0088800D01*
X0078767Y0088800D01*
X0078767Y0088959D01*
X0083446Y0088959D01*
X0083446Y0092122D01*
X0083296Y0092681D01*
X0083006Y0093183D01*
X0082597Y0093592D01*
X0082095Y0093882D01*
X0081536Y0094032D01*
X0079951Y0094032D01*
X0084310Y0098392D01*
X0085044Y0097658D01*
X0086441Y0097079D01*
X0087858Y0097079D01*
X0087863Y0097067D01*
X0088538Y0096392D01*
X0089420Y0096026D01*
X0095493Y0096026D01*
X0096375Y0096392D01*
X0096422Y0096438D01*
X0096529Y0096376D01*
X0097088Y0096226D01*
X0099857Y0096226D01*
X0099857Y0101300D01*
X0097416Y0101300D01*
X0097416Y0101459D01*
X0099857Y0101459D01*
X0099857Y0101300D01*
X0100017Y0101300D01*
X0100017Y0101459D01*
X0104696Y0101459D01*
X0104696Y0104622D01*
X0104546Y0105181D01*
X0104256Y0105683D01*
X0103847Y0106092D01*
X0103345Y0106382D01*
X0102786Y0106532D01*
X0100017Y0106532D01*
X0100017Y0101459D01*
X0099857Y0101459D01*
X0099857Y0106532D01*
X0097088Y0106532D01*
X0096529Y0106382D01*
X0096422Y0106320D01*
X0096375Y0106367D01*
X0095493Y0106732D01*
X0092651Y0106732D01*
X0097298Y0111379D01*
X0105297Y0111379D01*
X0105297Y0100858D01*
X0105259Y0100802D01*
X0105137Y0100704D01*
X0104883Y0100245D01*
X0104696Y0099968D01*
X0104696Y0101300D01*
X0100017Y0101300D01*
X0100017Y0096226D01*
X0101443Y0096226D01*
X0091948Y0086732D01*
X0089420Y0086732D01*
X0088538Y0086367D01*
X0087863Y0085691D01*
X0087498Y0084809D01*
X0087498Y0082281D01*
X0081996Y0076779D01*
X0064580Y0076779D01*
X0064551Y0076792D01*
X0064265Y0077052D01*
X0062914Y0078289D01*
X0062324Y0078879D01*
X0062914Y0079470D01*
X0063313Y0079835D01*
X0064323Y0080759D01*
X0064551Y0080967D01*
X0064580Y0080979D01*
X0066274Y0080979D01*
X0066659Y0081139D02*
X0086355Y0081139D01*
X0087498Y0083538D02*
X0074270Y0083538D01*
X0078767Y0083726D02*
X0081536Y0083726D01*
X0082095Y0083876D01*
X0082597Y0084166D01*
X0083006Y0084576D01*
X0083296Y0085077D01*
X0083446Y0085637D01*
X0083446Y0088800D01*
X0078767Y0088800D01*
X0078767Y0083726D01*
X0078767Y0085936D02*
X0078607Y0085936D01*
X0078607Y0088335D02*
X0078767Y0088335D01*
X0083446Y0088335D02*
X0093551Y0088335D01*
X0095949Y0090733D02*
X0083446Y0090733D01*
X0083036Y0093132D02*
X0098348Y0093132D01*
X0100747Y0095530D02*
X0081449Y0095530D01*
X0083847Y0097929D02*
X0084773Y0097929D01*
X0085239Y0107523D02*
X0083446Y0107523D01*
X0083446Y0109921D02*
X0087638Y0109921D01*
X0083697Y0112320D02*
X0083393Y0112320D01*
X0093441Y0107523D02*
X0105297Y0107523D01*
X0105297Y0109921D02*
X0095840Y0109921D01*
X0099857Y0105124D02*
X0100017Y0105124D01*
X0100017Y0102726D02*
X0099857Y0102726D01*
X0099857Y0100327D02*
X0100017Y0100327D01*
X0100017Y0097929D02*
X0099857Y0097929D01*
X0104696Y0100327D02*
X0104928Y0100327D01*
X0104696Y0102726D02*
X0105297Y0102726D01*
X0105297Y0105124D02*
X0104561Y0105124D01*
X0111097Y0103726D02*
X0112377Y0103726D01*
X0112377Y0108800D01*
X0111097Y0108800D01*
X0111097Y0108959D01*
X0112377Y0108959D01*
X0112377Y0108800D01*
X0112536Y0108800D01*
X0112536Y0103726D01*
X0115305Y0103726D01*
X0115865Y0103876D01*
X0115972Y0103938D01*
X0116018Y0103892D01*
X0116901Y0103526D01*
X0120306Y0103526D01*
X0120397Y0103257D01*
X0120397Y0103123D01*
X0120637Y0102544D01*
X0120659Y0102479D01*
X0119983Y0102479D01*
X0117741Y0101551D01*
X0116197Y0100006D01*
X0114652Y0101551D01*
X0112410Y0102479D01*
X0111332Y0102479D01*
X0111097Y0102490D01*
X0111097Y0103726D01*
X0111097Y0102726D02*
X0120562Y0102726D01*
X0116518Y0100327D02*
X0115876Y0100327D01*
X0112536Y0105124D02*
X0112377Y0105124D01*
X0112377Y0107523D02*
X0112536Y0107523D01*
X0127396Y0098477D02*
X0135398Y0106479D01*
X0168810Y0106479D01*
X0168538Y0106367D01*
X0167863Y0105691D01*
X0167498Y0104809D01*
X0167498Y0097949D01*
X0167863Y0097067D01*
X0168538Y0096392D01*
X0169420Y0096026D01*
X0175493Y0096026D01*
X0176197Y0096318D01*
X0176901Y0096026D01*
X0182973Y0096026D01*
X0183856Y0096392D01*
X0184531Y0097067D01*
X0184896Y0097949D01*
X0184896Y0098479D01*
X0191828Y0098479D01*
X0191828Y0093815D01*
X0192194Y0092933D01*
X0192869Y0092258D01*
X0193751Y0091893D01*
X0197447Y0091893D01*
X0197447Y0083366D01*
X0193751Y0083366D01*
X0192869Y0083000D01*
X0192194Y0082325D01*
X0191828Y0081443D01*
X0191828Y0077612D01*
X0190996Y0076779D01*
X0184896Y0076779D01*
X0184896Y0077309D01*
X0184531Y0078191D01*
X0183856Y0078867D01*
X0182973Y0079232D01*
X0176901Y0079232D01*
X0176197Y0078940D01*
X0175493Y0079232D01*
X0169420Y0079232D01*
X0168538Y0078867D01*
X0167863Y0078191D01*
X0167498Y0077309D01*
X0167498Y0076779D01*
X0137620Y0076779D01*
X0136554Y0076338D01*
X0134448Y0074232D01*
X0130670Y0074232D01*
X0129788Y0073867D01*
X0129113Y0073191D01*
X0128748Y0072309D01*
X0128748Y0071779D01*
X0125256Y0071779D01*
X0125606Y0072162D01*
X0126368Y0072924D01*
X0127297Y0075166D01*
X0127297Y0077593D01*
X0126368Y0079835D01*
X0124652Y0081551D01*
X0122410Y0082479D01*
X0119983Y0082479D01*
X0117741Y0081551D01*
X0116197Y0080006D01*
X0114652Y0081551D01*
X0112410Y0082479D01*
X0109983Y0082479D01*
X0107741Y0081551D01*
X0106026Y0079835D01*
X0105097Y0077593D01*
X0105097Y0075166D01*
X0106026Y0072924D01*
X0106787Y0072162D01*
X0107807Y0071048D01*
X0108285Y0070526D01*
X0108297Y0070496D01*
X0108297Y0067352D01*
X0108239Y0067352D01*
X0107357Y0066987D01*
X0107149Y0066779D01*
X0105300Y0066779D01*
X0105300Y0066926D01*
X0104934Y0067808D01*
X0104888Y0067854D01*
X0104950Y0067961D01*
X0105100Y0068521D01*
X0105100Y0071290D01*
X0100026Y0071290D01*
X0100026Y0071449D01*
X0099867Y0071449D01*
X0099867Y0071290D01*
X0094794Y0071290D01*
X0094794Y0068521D01*
X0094944Y0067961D01*
X0095006Y0067854D01*
X0094959Y0067808D01*
X0094594Y0066926D01*
X0094594Y0066779D01*
X0064580Y0066779D01*
X0064551Y0066792D01*
X0064265Y0067052D01*
X0062914Y0068289D01*
X0062324Y0068879D01*
X0062914Y0069470D01*
X0063313Y0069835D01*
X0064323Y0070759D01*
X0064551Y0070967D01*
X0064580Y0070979D01*
X0083774Y0070979D01*
X0084840Y0071421D01*
X0089445Y0076026D01*
X0095493Y0076026D01*
X0096375Y0076392D01*
X0096422Y0076438D01*
X0096529Y0076376D01*
X0097088Y0076226D01*
X0099857Y0076226D01*
X0099857Y0081300D01*
X0100017Y0081300D01*
X0100017Y0081459D01*
X0104696Y0081459D01*
X0104696Y0084622D01*
X0104546Y0085181D01*
X0104256Y0085683D01*
X0103847Y0086092D01*
X0103345Y0086382D01*
X0102786Y0086532D01*
X0100017Y0086532D01*
X0100017Y0081459D01*
X0099857Y0081459D01*
X0099857Y0086439D01*
X0106184Y0092765D01*
X0107741Y0091208D01*
X0109983Y0090279D01*
X0112410Y0090279D01*
X0114652Y0091208D01*
X0116197Y0092753D01*
X0117741Y0091208D01*
X0119983Y0090279D01*
X0122410Y0090279D01*
X0124652Y0091208D01*
X0126368Y0092924D01*
X0127297Y0095166D01*
X0127297Y0096244D01*
X0127321Y0096784D01*
X0127321Y0096784D01*
X0127396Y0098477D01*
X0127372Y0097929D02*
X0167506Y0097929D01*
X0167498Y0100327D02*
X0129246Y0100327D01*
X0131644Y0102726D02*
X0167498Y0102726D01*
X0167628Y0105124D02*
X0134043Y0105124D01*
X0127297Y0095530D02*
X0191828Y0095530D01*
X0191828Y0097929D02*
X0184888Y0097929D01*
X0184161Y0093529D02*
X0183697Y0093529D01*
X0183697Y0087629D01*
X0183697Y0081729D01*
X0184161Y0081729D01*
X0185078Y0081875D01*
X0185962Y0082161D01*
X0186789Y0082583D01*
X0187540Y0083129D01*
X0188197Y0083786D01*
X0188743Y0084537D01*
X0189165Y0085364D01*
X0189452Y0086248D01*
X0189597Y0087165D01*
X0189597Y0087629D01*
X0183697Y0087629D01*
X0183697Y0087629D01*
X0183697Y0087629D01*
X0183697Y0081729D01*
X0183233Y0081729D01*
X0182315Y0081875D01*
X0181432Y0082161D01*
X0180605Y0082583D01*
X0179853Y0083129D01*
X0179197Y0083786D01*
X0178651Y0084537D01*
X0178229Y0085364D01*
X0177942Y0086248D01*
X0177797Y0087165D01*
X0177797Y0087629D01*
X0183697Y0087629D01*
X0189597Y0087629D01*
X0189597Y0088094D01*
X0189452Y0089011D01*
X0189165Y0089894D01*
X0188743Y0090722D01*
X0188197Y0091473D01*
X0187540Y0092129D01*
X0186789Y0092675D01*
X0185962Y0093097D01*
X0185078Y0093384D01*
X0184161Y0093529D01*
X0183697Y0093529D02*
X0183233Y0093529D01*
X0182315Y0093384D01*
X0181432Y0093097D01*
X0180605Y0092675D01*
X0179853Y0092129D01*
X0179197Y0091473D01*
X0178651Y0090722D01*
X0178229Y0089894D01*
X0177942Y0089011D01*
X0177797Y0088094D01*
X0177797Y0087629D01*
X0183697Y0087629D01*
X0183697Y0087629D01*
X0183697Y0087629D01*
X0183697Y0093529D01*
X0183697Y0093132D02*
X0183697Y0093132D01*
X0185855Y0093132D02*
X0192112Y0093132D01*
X0188735Y0090733D02*
X0197447Y0090733D01*
X0197447Y0088335D02*
X0189559Y0088335D01*
X0189350Y0085936D02*
X0197447Y0085936D01*
X0197447Y0083538D02*
X0187949Y0083538D01*
X0183697Y0083538D02*
X0183697Y0083538D01*
X0183697Y0085936D02*
X0183697Y0085936D01*
X0183697Y0088335D02*
X0183697Y0088335D01*
X0183697Y0090733D02*
X0183697Y0090733D01*
X0181539Y0093132D02*
X0126454Y0093132D01*
X0123506Y0090733D02*
X0178659Y0090733D01*
X0177835Y0088335D02*
X0101753Y0088335D01*
X0100017Y0085936D02*
X0099857Y0085936D01*
X0099857Y0083538D02*
X0100017Y0083538D01*
X0100017Y0081300D02*
X0104696Y0081300D01*
X0104696Y0078137D01*
X0104546Y0077577D01*
X0104256Y0077076D01*
X0103847Y0076666D01*
X0103345Y0076376D01*
X0102786Y0076226D01*
X0100017Y0076226D01*
X0100017Y0081300D01*
X0100017Y0081139D02*
X0099857Y0081139D01*
X0099857Y0078741D02*
X0100017Y0078741D01*
X0100017Y0076342D02*
X0099857Y0076342D01*
X0099867Y0076128D02*
X0096704Y0076128D01*
X0096145Y0075979D01*
X0095643Y0075689D01*
X0095234Y0075279D01*
X0094944Y0074778D01*
X0094794Y0074218D01*
X0094794Y0071449D01*
X0099867Y0071449D01*
X0099867Y0076128D01*
X0100026Y0076128D02*
X0100026Y0071449D01*
X0105100Y0071449D01*
X0105100Y0074218D01*
X0104950Y0074778D01*
X0104660Y0075279D01*
X0104250Y0075689D01*
X0103749Y0075979D01*
X0103189Y0076128D01*
X0100026Y0076128D01*
X0100026Y0073944D02*
X0099867Y0073944D01*
X0099867Y0071545D02*
X0100026Y0071545D01*
X0105100Y0071545D02*
X0107352Y0071545D01*
X0108297Y0069146D02*
X0105100Y0069146D01*
X0105100Y0073944D02*
X0105603Y0073944D01*
X0105097Y0076342D02*
X0103217Y0076342D01*
X0104696Y0078741D02*
X0105572Y0078741D01*
X0104696Y0081139D02*
X0107330Y0081139D01*
X0104696Y0083538D02*
X0179445Y0083538D01*
X0178043Y0085936D02*
X0104003Y0085936D01*
X0104152Y0090733D02*
X0108888Y0090733D01*
X0113506Y0090733D02*
X0118888Y0090733D01*
X0117330Y0081139D02*
X0115064Y0081139D01*
X0116197Y0072753D02*
X0116787Y0072162D01*
X0117807Y0071048D01*
X0118285Y0070526D01*
X0118297Y0070496D01*
X0118297Y0067278D01*
X0117594Y0066987D01*
X0116919Y0066312D01*
X0116553Y0065429D01*
X0116553Y0062309D01*
X0116650Y0062075D01*
X0115641Y0061066D01*
X0115641Y0061502D01*
X0115588Y0061699D01*
X0115841Y0062309D01*
X0115841Y0065429D01*
X0115475Y0066312D01*
X0114800Y0066987D01*
X0114097Y0067278D01*
X0114097Y0070496D01*
X0114109Y0070526D01*
X0114336Y0070774D01*
X0115606Y0072162D01*
X0116197Y0072753D01*
X0115042Y0071545D02*
X0117352Y0071545D01*
X0118297Y0069146D02*
X0114097Y0069146D01*
X0115039Y0066748D02*
X0117355Y0066748D01*
X0116553Y0064349D02*
X0115841Y0064349D01*
X0115692Y0061951D02*
X0116526Y0061951D01*
X0111078Y0060129D02*
X0111078Y0060129D01*
X0106516Y0060129D01*
X0106516Y0059279D01*
X0104220Y0059279D01*
X0104259Y0059295D01*
X0104934Y0059971D01*
X0105300Y0060853D01*
X0105300Y0060979D01*
X0106516Y0060979D01*
X0106516Y0060129D01*
X0111078Y0060129D01*
X0106516Y0059552D02*
X0104516Y0059552D01*
X0095357Y0052357D02*
X0113697Y0052357D01*
X0112536Y0049958D02*
X0112377Y0049958D01*
X0112377Y0047560D02*
X0112536Y0047560D01*
X0112536Y0045161D02*
X0112377Y0045161D01*
X0112377Y0042763D02*
X0112536Y0042763D01*
X0115737Y0037966D02*
X0116657Y0037966D01*
X0123581Y0040364D02*
X0037545Y0040364D01*
X0041708Y0037966D02*
X0106657Y0037966D01*
X0105293Y0035567D02*
X0043796Y0035567D01*
X0045064Y0033169D02*
X0105097Y0033169D01*
X0105882Y0030770D02*
X0045706Y0030770D01*
X0045787Y0028372D02*
X0108553Y0028372D01*
X0113841Y0028372D02*
X0118553Y0028372D01*
X0123841Y0028372D02*
X0139054Y0028372D01*
X0138932Y0028411D02*
X0139815Y0028125D01*
X0140733Y0027979D01*
X0141197Y0027979D01*
X0141661Y0027979D01*
X0142578Y0028125D01*
X0143462Y0028411D01*
X0144289Y0028833D01*
X0145040Y0029379D01*
X0145697Y0030036D01*
X0146009Y0030464D01*
X0146026Y0030424D01*
X0147741Y0028708D01*
X0149983Y0027779D01*
X0152410Y0027779D01*
X0154652Y0028708D01*
X0156368Y0030424D01*
X0157297Y0032666D01*
X0157297Y0035093D01*
X0156368Y0037335D01*
X0154652Y0039051D01*
X0152410Y0039979D01*
X0149983Y0039979D01*
X0147741Y0039051D01*
X0146026Y0037335D01*
X0146009Y0037294D01*
X0145697Y0037723D01*
X0145040Y0038379D01*
X0144289Y0038925D01*
X0143462Y0039347D01*
X0142578Y0039634D01*
X0141661Y0039779D01*
X0141197Y0039779D01*
X0141197Y0033879D01*
X0141197Y0027979D01*
X0141197Y0033879D01*
X0141197Y0033879D01*
X0138712Y0034154D01*
X0138368Y0031051D01*
X0141472Y0031394D01*
X0141197Y0033879D01*
X0135297Y0033879D01*
X0135297Y0033415D01*
X0135442Y0032498D01*
X0135729Y0031614D01*
X0136151Y0030787D01*
X0136697Y0030036D01*
X0137353Y0029379D01*
X0138105Y0028833D01*
X0138932Y0028411D01*
X0141197Y0028372D02*
X0141197Y0028372D01*
X0143339Y0028372D02*
X0148553Y0028372D01*
X0141197Y0030770D02*
X0141197Y0030770D01*
X0141197Y0033169D02*
X0141197Y0033169D01*
X0141197Y0033879D02*
X0141197Y0033879D01*
X0141197Y0033879D01*
X0135297Y0033879D01*
X0135297Y0034344D01*
X0135442Y0035261D01*
X0135729Y0036144D01*
X0136151Y0036972D01*
X0136697Y0037723D01*
X0137353Y0038379D01*
X0138105Y0038925D01*
X0138932Y0039347D01*
X0139815Y0039634D01*
X0140733Y0039779D01*
X0141197Y0039779D01*
X0141197Y0033879D01*
X0141197Y0035567D02*
X0141197Y0035567D01*
X0141197Y0037966D02*
X0141197Y0037966D01*
X0145454Y0037966D02*
X0146657Y0037966D01*
X0155737Y0037966D02*
X0167498Y0037966D01*
X0167498Y0035567D02*
X0157100Y0035567D01*
X0157297Y0033169D02*
X0191828Y0033169D01*
X0191828Y0035567D02*
X0184896Y0035567D01*
X0192054Y0030770D02*
X0156512Y0030770D01*
X0153841Y0028372D02*
X0197447Y0028372D01*
X0197447Y0025973D02*
X0045434Y0025973D01*
X0044594Y0023575D02*
X0197447Y0023575D01*
X0196197Y0047588D02*
X0195785Y0048000D01*
X0195597Y0048078D01*
X0195597Y0051069D01*
X0196375Y0051392D01*
X0196422Y0051438D01*
X0196529Y0051376D01*
X0197088Y0051226D01*
X0197447Y0051226D01*
X0197447Y0048348D01*
X0196609Y0048000D01*
X0196197Y0047588D01*
X0195597Y0049958D02*
X0197447Y0049958D01*
X0204896Y0054679D02*
X0204896Y0059809D01*
X0204531Y0060691D01*
X0203856Y0061367D01*
X0203197Y0061639D01*
X0203197Y0064730D01*
X0203265Y0064758D01*
X0203940Y0065433D01*
X0204305Y0066315D01*
X0204305Y0072782D01*
X0203940Y0073664D01*
X0203265Y0074339D01*
X0202971Y0074461D01*
X0202946Y0076479D01*
X0288697Y0076479D01*
X0288697Y0061228D01*
X0288468Y0061133D01*
X0287230Y0059895D01*
X0286117Y0058782D01*
X0282991Y0058782D01*
X0281815Y0058295D01*
X0281502Y0057982D01*
X0275670Y0057982D01*
X0274788Y0057617D01*
X0274113Y0056941D01*
X0273748Y0056059D01*
X0273748Y0055279D01*
X0266620Y0055279D01*
X0266135Y0055078D01*
X0264089Y0055078D01*
X0264080Y0055088D01*
X0263014Y0055529D01*
X0257396Y0055529D01*
X0257396Y0056059D01*
X0257031Y0056941D01*
X0256356Y0057617D01*
X0255473Y0057982D01*
X0249401Y0057982D01*
X0248697Y0057690D01*
X0247993Y0057982D01*
X0241920Y0057982D01*
X0241038Y0057617D01*
X0240363Y0056941D01*
X0239998Y0056059D01*
X0239998Y0055779D01*
X0237597Y0055779D01*
X0237597Y0058446D01*
X0237396Y0058931D01*
X0237396Y0063559D01*
X0237031Y0064441D01*
X0236356Y0065117D01*
X0235473Y0065482D01*
X0229401Y0065482D01*
X0228697Y0065190D01*
X0227993Y0065482D01*
X0221920Y0065482D01*
X0221038Y0065117D01*
X0220363Y0064441D01*
X0219998Y0063559D01*
X0219998Y0056699D01*
X0220363Y0055817D01*
X0221038Y0055142D01*
X0221860Y0054801D01*
X0221287Y0054564D01*
X0220920Y0054196D01*
X0220054Y0053838D01*
X0219968Y0053752D01*
X0219697Y0053679D01*
X0219441Y0053679D01*
X0218973Y0053485D01*
X0218729Y0053420D01*
X0218700Y0053528D01*
X0218410Y0054029D01*
X0218000Y0054439D01*
X0217499Y0054729D01*
X0216939Y0054878D01*
X0213776Y0054878D01*
X0213776Y0050199D01*
X0213617Y0050199D01*
X0213617Y0054878D01*
X0210454Y0054878D01*
X0209895Y0054729D01*
X0209393Y0054439D01*
X0208984Y0054029D01*
X0208694Y0053528D01*
X0208544Y0052968D01*
X0208544Y0050775D01*
X0208088Y0051230D01*
X0207997Y0051502D01*
X0207997Y0051635D01*
X0207757Y0052214D01*
X0207608Y0052658D01*
X0207542Y0052732D01*
X0207418Y0053032D01*
X0206349Y0054101D01*
X0204953Y0054679D01*
X0204896Y0054679D01*
X0204896Y0054755D02*
X0209995Y0054755D01*
X0208544Y0052357D02*
X0207709Y0052357D01*
X0207608Y0052658D02*
X0207608Y0052658D01*
X0207608Y0052658D01*
X0204896Y0057154D02*
X0219998Y0057154D01*
X0219998Y0059552D02*
X0204896Y0059552D01*
X0203197Y0061951D02*
X0219998Y0061951D01*
X0220325Y0064349D02*
X0203197Y0064349D01*
X0204305Y0066748D02*
X0288697Y0066748D01*
X0288697Y0069146D02*
X0204305Y0069146D01*
X0204305Y0071545D02*
X0288697Y0071545D01*
X0288697Y0073944D02*
X0203661Y0073944D01*
X0202947Y0076342D02*
X0288697Y0076342D01*
X0300609Y0070759D02*
X0301197Y0067879D01*
X0300609Y0070759D01*
X0301197Y0070879D01*
X0300609Y0070759D01*
X0301197Y0067879D01*
X0301785Y0070759D01*
X0301197Y0070879D01*
X0301785Y0070759D01*
X0301197Y0067879D01*
X0301197Y0067879D01*
X0301197Y0057403D01*
X0290961Y0057403D01*
X0286187Y0052629D01*
X0286888Y0059552D02*
X0237396Y0059552D01*
X0237396Y0061951D02*
X0288697Y0061951D01*
X0288697Y0064349D02*
X0237069Y0064349D01*
X0237597Y0057154D02*
X0240575Y0057154D01*
X0239998Y0049979D02*
X0239998Y0049199D01*
X0240363Y0048317D01*
X0241038Y0047642D01*
X0241920Y0047276D01*
X0247993Y0047276D01*
X0248697Y0047568D01*
X0249401Y0047276D01*
X0255473Y0047276D01*
X0256356Y0047642D01*
X0257031Y0048317D01*
X0257396Y0049199D01*
X0257396Y0049729D01*
X0259594Y0049729D01*
X0259594Y0047083D01*
X0259886Y0046379D01*
X0259594Y0045676D01*
X0259594Y0043279D01*
X0257396Y0043279D01*
X0257396Y0043559D01*
X0257031Y0044441D01*
X0256356Y0045117D01*
X0255473Y0045482D01*
X0249401Y0045482D01*
X0248697Y0045190D01*
X0247993Y0045482D01*
X0243195Y0045482D01*
X0242840Y0045838D01*
X0241774Y0046279D01*
X0239447Y0046279D01*
X0239447Y0047629D01*
X0234747Y0047629D01*
X0234747Y0047629D01*
X0239447Y0047629D01*
X0239447Y0049019D01*
X0239390Y0049231D01*
X0239647Y0049852D01*
X0239647Y0049979D01*
X0239998Y0049979D01*
X0239998Y0049958D02*
X0239647Y0049958D01*
X0239447Y0047560D02*
X0241236Y0047560D01*
X0248677Y0047560D02*
X0248716Y0047560D01*
X0256158Y0047560D02*
X0259594Y0047560D01*
X0259594Y0045161D02*
X0256247Y0045161D01*
X0256818Y0057154D02*
X0274325Y0057154D01*
X0287230Y0059895D02*
X0287230Y0059895D01*
X0301197Y0067879D02*
X0301785Y0070759D01*
X0301785Y0070759D01*
X0301197Y0067879D01*
X0301197Y0067879D01*
X0300609Y0070759D01*
X0300609Y0070759D01*
X0301197Y0070879D02*
X0301197Y0067879D01*
X0317220Y0051379D02*
X0301197Y0035356D01*
X0296673Y0039879D01*
X0286187Y0039879D01*
X0286187Y0040129D01*
X0317220Y0051379D02*
X0330173Y0051379D01*
X0339947Y0043879D02*
X0337447Y0041379D01*
X0330173Y0041379D01*
X0332697Y0025379D02*
X0318697Y0025379D01*
X0318697Y0025139D01*
X0357639Y0033169D02*
X0387330Y0033169D01*
X0388598Y0035567D02*
X0358183Y0035567D01*
X0358183Y0037966D02*
X0390686Y0037966D01*
X0394849Y0040364D02*
X0358183Y0040364D01*
X0358183Y0042763D02*
X0405997Y0042763D01*
X0405997Y0045161D02*
X0358183Y0045161D01*
X0358183Y0047560D02*
X0405997Y0047560D01*
X0405997Y0049958D02*
X0358183Y0049958D01*
X0358183Y0052357D02*
X0405997Y0052357D01*
X0405997Y0054755D02*
X0357820Y0054755D01*
X0359891Y0057154D02*
X0405997Y0057154D01*
X0405997Y0059552D02*
X0362290Y0059552D01*
X0364688Y0061951D02*
X0405997Y0061951D01*
X0405997Y0064349D02*
X0367087Y0064349D01*
X0369485Y0066748D02*
X0405997Y0066748D01*
X0405997Y0069146D02*
X0371884Y0069146D01*
X0374282Y0071545D02*
X0405997Y0071545D01*
X0405997Y0073944D02*
X0376681Y0073944D01*
X0379079Y0076342D02*
X0405997Y0076342D01*
X0405997Y0078741D02*
X0381478Y0078741D01*
X0383876Y0081139D02*
X0405997Y0081139D01*
X0405997Y0083538D02*
X0386275Y0083538D01*
X0388673Y0085936D02*
X0405997Y0085936D01*
X0405997Y0088335D02*
X0391072Y0088335D01*
X0393470Y0090733D02*
X0405997Y0090733D01*
X0405997Y0093132D02*
X0401283Y0093132D01*
X0403495Y0095530D02*
X0405997Y0095530D01*
X0405997Y0097929D02*
X0404426Y0097929D01*
X0404426Y0100327D02*
X0405997Y0100327D01*
X0405997Y0102726D02*
X0403550Y0102726D01*
X0401447Y0105124D02*
X0405997Y0105124D01*
X0405997Y0107523D02*
X0356998Y0107523D01*
X0358183Y0109921D02*
X0405997Y0109921D01*
X0405997Y0112320D02*
X0400083Y0112320D01*
X0403216Y0114718D02*
X0405997Y0114718D01*
X0405997Y0117117D02*
X0404283Y0117117D01*
X0404426Y0119515D02*
X0405997Y0119515D01*
X0405997Y0121914D02*
X0403756Y0121914D01*
X0401944Y0124312D02*
X0405997Y0124312D01*
X0405997Y0126711D02*
X0358183Y0126711D01*
X0357838Y0129109D02*
X0405997Y0129109D01*
X0405997Y0131508D02*
X0398883Y0131508D01*
X0402719Y0133906D02*
X0405997Y0133906D01*
X0405997Y0136305D02*
X0404077Y0136305D01*
X0404426Y0138703D02*
X0405997Y0138703D01*
X0405997Y0141102D02*
X0403962Y0141102D01*
X0402441Y0143500D02*
X0405997Y0143500D01*
X0405997Y0145899D02*
X0394361Y0145899D01*
X0391962Y0148297D02*
X0405997Y0148297D01*
X0405997Y0150696D02*
X0389564Y0150696D01*
X0387165Y0153094D02*
X0405997Y0153094D01*
X0405997Y0155493D02*
X0384767Y0155493D01*
X0382368Y0157891D02*
X0405997Y0157891D01*
X0405997Y0160290D02*
X0379970Y0160290D01*
X0377571Y0162688D02*
X0405997Y0162688D01*
X0405997Y0165087D02*
X0375173Y0165087D01*
X0372774Y0167485D02*
X0405997Y0167485D01*
X0405997Y0169884D02*
X0370375Y0169884D01*
X0367977Y0172282D02*
X0405997Y0172282D01*
X0405997Y0174681D02*
X0365578Y0174681D01*
X0363180Y0177079D02*
X0405997Y0177079D01*
X0405997Y0179478D02*
X0360781Y0179478D01*
X0358383Y0181877D02*
X0405997Y0181877D01*
X0405997Y0184275D02*
X0358097Y0184275D01*
X0358183Y0186674D02*
X0386909Y0186674D01*
X0387171Y0186483D02*
X0387974Y0186074D01*
X0388831Y0185795D01*
X0389721Y0185654D01*
X0393697Y0185654D01*
X0397672Y0185654D01*
X0398562Y0185795D01*
X0399419Y0186074D01*
X0400222Y0186483D01*
X0400951Y0187012D01*
X0401589Y0187650D01*
X0402118Y0188379D01*
X0402527Y0189182D01*
X0402806Y0190039D01*
X0402947Y0190929D01*
X0402947Y0191379D01*
X0393697Y0191379D01*
X0393697Y0185654D01*
X0393697Y0191379D01*
X0393697Y0191379D01*
X0393697Y0191379D01*
X0402947Y0191379D01*
X0402947Y0191830D01*
X0402806Y0192720D01*
X0402527Y0193577D01*
X0402118Y0194380D01*
X0401589Y0195109D01*
X0400951Y0195746D01*
X0400222Y0196276D01*
X0399419Y0196685D01*
X0398562Y0196963D01*
X0397672Y0197104D01*
X0393697Y0197104D01*
X0393697Y0191379D01*
X0384447Y0191379D01*
X0384447Y0190929D01*
X0384588Y0190039D01*
X0384866Y0189182D01*
X0385275Y0188379D01*
X0385805Y0187650D01*
X0386442Y0187012D01*
X0387171Y0186483D01*
X0384922Y0189072D02*
X0358013Y0189072D01*
X0358183Y0191471D02*
X0384447Y0191471D01*
X0384447Y0191379D02*
X0393697Y0191379D01*
X0393697Y0191379D01*
X0393697Y0191379D01*
X0393697Y0197104D01*
X0389721Y0197104D01*
X0388831Y0196963D01*
X0387974Y0196685D01*
X0387171Y0196276D01*
X0386442Y0195746D01*
X0385805Y0195109D01*
X0385275Y0194380D01*
X0384866Y0193577D01*
X0384588Y0192720D01*
X0384447Y0191830D01*
X0384447Y0191379D01*
X0385015Y0193869D02*
X0357937Y0193869D01*
X0358183Y0196268D02*
X0387160Y0196268D01*
X0393697Y0196268D02*
X0393697Y0196268D01*
X0393697Y0193869D02*
X0393697Y0193869D01*
X0393697Y0191471D02*
X0393697Y0191471D01*
X0393697Y0189072D02*
X0393697Y0189072D01*
X0393697Y0186674D02*
X0393697Y0186674D01*
X0400485Y0186674D02*
X0405997Y0186674D01*
X0405997Y0189072D02*
X0402472Y0189072D01*
X0402947Y0191471D02*
X0405997Y0191471D01*
X0405997Y0193869D02*
X0402379Y0193869D01*
X0400234Y0196268D02*
X0405997Y0196268D01*
X0405997Y0198666D02*
X0358021Y0198666D01*
X0358183Y0201065D02*
X0405997Y0201065D01*
X0405997Y0203463D02*
X0358105Y0203463D01*
X0356020Y0205862D02*
X0386179Y0205862D01*
X0347344Y0225050D02*
X0336573Y0225050D01*
X0338444Y0227448D02*
X0344946Y0227448D01*
X0343997Y0229847D02*
X0339397Y0229847D01*
X0339397Y0232245D02*
X0343997Y0232245D01*
X0344279Y0234644D02*
X0338720Y0234644D01*
X0337130Y0237042D02*
X0346678Y0237042D01*
X0325263Y0237042D02*
X0310222Y0237042D01*
X0307172Y0237042D02*
X0289145Y0237042D01*
X0289964Y0234644D02*
X0323673Y0234644D01*
X0322997Y0232245D02*
X0291392Y0232245D01*
X0293791Y0229847D02*
X0305073Y0229847D01*
X0303752Y0228771D02*
X0303752Y0228771D01*
X0303752Y0228771D01*
X0312321Y0229847D02*
X0322852Y0229847D01*
X0313641Y0228771D02*
X0313641Y0228771D01*
X0313641Y0228771D01*
X0313641Y0238988D02*
X0313641Y0238988D01*
X0313641Y0238988D01*
X0259594Y0191471D02*
X0257226Y0191471D01*
X0221696Y0165279D02*
X0196620Y0165279D01*
X0195554Y0164838D01*
X0193295Y0162579D01*
X0191177Y0162484D01*
X0191061Y0162479D01*
X0189983Y0162479D01*
X0187741Y0161551D01*
X0186197Y0160006D01*
X0184652Y0161551D01*
X0182410Y0162479D01*
X0179983Y0162479D01*
X0177741Y0161551D01*
X0176980Y0160789D01*
X0176197Y0160073D01*
X0175414Y0160788D01*
X0174652Y0161551D01*
X0172410Y0162479D01*
X0169983Y0162479D01*
X0167741Y0161551D01*
X0166026Y0159835D01*
X0165533Y0158645D01*
X0158340Y0165838D01*
X0157274Y0166279D01*
X0124724Y0166279D01*
X0126368Y0167924D01*
X0127297Y0170166D01*
X0127297Y0171244D01*
X0127321Y0171784D01*
X0127396Y0173477D01*
X0134048Y0180129D01*
X0167630Y0180129D01*
X0167498Y0179809D01*
X0167498Y0172949D01*
X0167863Y0172067D01*
X0168538Y0171392D01*
X0169420Y0171026D01*
X0175493Y0171026D01*
X0176197Y0171318D01*
X0176901Y0171026D01*
X0182973Y0171026D01*
X0183856Y0171392D01*
X0184531Y0172067D01*
X0184896Y0172949D01*
X0184896Y0173479D01*
X0191828Y0173479D01*
X0191828Y0168815D01*
X0192194Y0167933D01*
X0192869Y0167258D01*
X0193751Y0166893D01*
X0198643Y0166893D01*
X0199525Y0167258D01*
X0200200Y0167933D01*
X0200565Y0168815D01*
X0200565Y0168979D01*
X0217996Y0168979D01*
X0221696Y0165279D01*
X0219489Y0167485D02*
X0199752Y0167485D01*
X0196156Y0165087D02*
X0159090Y0165087D01*
X0161489Y0162688D02*
X0193405Y0162688D01*
X0192641Y0167485D02*
X0125930Y0167485D01*
X0127180Y0169884D02*
X0140315Y0169884D01*
X0139776Y0170424D02*
X0141491Y0168708D01*
X0143733Y0167779D01*
X0146160Y0167779D01*
X0148402Y0168708D01*
X0150118Y0170424D01*
X0151047Y0172666D01*
X0151047Y0175093D01*
X0150118Y0177335D01*
X0148402Y0179051D01*
X0146160Y0179979D01*
X0143733Y0179979D01*
X0141491Y0179051D01*
X0139776Y0177335D01*
X0138847Y0175093D01*
X0138847Y0172666D01*
X0139776Y0170424D01*
X0139006Y0172282D02*
X0127343Y0172282D01*
X0128600Y0174681D02*
X0138847Y0174681D01*
X0139670Y0177079D02*
X0130998Y0177079D01*
X0133397Y0179478D02*
X0142523Y0179478D01*
X0147370Y0179478D02*
X0167498Y0179478D01*
X0167498Y0177079D02*
X0150224Y0177079D01*
X0151047Y0174681D02*
X0167498Y0174681D01*
X0167774Y0172282D02*
X0150888Y0172282D01*
X0149578Y0169884D02*
X0191828Y0169884D01*
X0191828Y0172282D02*
X0184620Y0172282D01*
X0185913Y0160290D02*
X0186481Y0160290D01*
X0176434Y0160290D02*
X0175959Y0160290D01*
X0166481Y0160290D02*
X0163887Y0160290D01*
X0158083Y0157891D02*
X0097396Y0157891D01*
X0097941Y0159579D02*
X0099453Y0159579D01*
X0099933Y0159778D01*
X0100097Y0159800D01*
X0100097Y0159800D01*
X0100097Y0159800D01*
X0100097Y0159800D01*
X0100097Y0159800D01*
X0100207Y0159863D01*
X0100381Y0159964D01*
X0100849Y0160158D01*
X0101030Y0160338D01*
X0101274Y0160479D01*
X0155496Y0160479D01*
X0170738Y0145237D01*
X0171554Y0144421D01*
X0172620Y0143979D01*
X0176454Y0143979D01*
X0175897Y0142635D01*
X0175897Y0141565D01*
X0175493Y0141732D01*
X0169420Y0141732D01*
X0168538Y0141367D01*
X0167863Y0140691D01*
X0167498Y0139809D01*
X0167498Y0135781D01*
X0165093Y0133376D01*
X0165093Y0134219D01*
X0164728Y0135101D01*
X0164052Y0135776D01*
X0163231Y0136116D01*
X0163231Y0136122D01*
X0163340Y0136348D01*
X0163418Y0136427D01*
X0163666Y0137026D01*
X0163870Y0137449D01*
X0163875Y0137529D01*
X0163997Y0137823D01*
X0163997Y0139335D01*
X0163418Y0140732D01*
X0162349Y0141801D01*
X0160953Y0142379D01*
X0159441Y0142379D01*
X0158044Y0141801D01*
X0156975Y0140732D01*
X0156397Y0139335D01*
X0156397Y0137823D01*
X0156690Y0137115D01*
X0156732Y0136916D01*
X0156836Y0136763D01*
X0156975Y0136427D01*
X0157257Y0136145D01*
X0157311Y0136067D01*
X0156609Y0135776D01*
X0156197Y0135364D01*
X0155785Y0135776D01*
X0154903Y0136141D01*
X0149223Y0136141D01*
X0148341Y0135776D01*
X0147666Y0135101D01*
X0147326Y0134279D01*
X0146146Y0134279D01*
X0146146Y0134809D01*
X0145781Y0135691D01*
X0145106Y0136367D01*
X0144223Y0136732D01*
X0138151Y0136732D01*
X0137447Y0136440D01*
X0136743Y0136732D01*
X0130670Y0136732D01*
X0129788Y0136367D01*
X0129113Y0135691D01*
X0128748Y0134809D01*
X0128748Y0134279D01*
X0125256Y0134279D01*
X0125606Y0134662D01*
X0126368Y0135424D01*
X0127297Y0137666D01*
X0127297Y0140093D01*
X0126368Y0142335D01*
X0124652Y0144051D01*
X0122410Y0144979D01*
X0119983Y0144979D01*
X0117741Y0144051D01*
X0116197Y0142506D01*
X0114652Y0144051D01*
X0112410Y0144979D01*
X0109983Y0144979D01*
X0107741Y0144051D01*
X0106026Y0142335D01*
X0105097Y0140093D01*
X0105097Y0137666D01*
X0106026Y0135424D01*
X0106787Y0134662D01*
X0107807Y0133548D01*
X0107818Y0133535D01*
X0108285Y0133026D01*
X0108297Y0132996D01*
X0108297Y0129852D01*
X0108239Y0129852D01*
X0107357Y0129487D01*
X0106682Y0128812D01*
X0106668Y0128779D01*
X0106620Y0128779D01*
X0105554Y0128338D01*
X0104738Y0127522D01*
X0099738Y0122522D01*
X0099385Y0121668D01*
X0097196Y0119480D01*
X0097196Y0122122D01*
X0097046Y0122681D01*
X0096756Y0123183D01*
X0096347Y0123592D01*
X0095845Y0123882D01*
X0095286Y0124032D01*
X0093545Y0124032D01*
X0093617Y0124207D01*
X0093718Y0124339D01*
X0093803Y0124655D01*
X0093997Y0125123D01*
X0093997Y0125379D01*
X0094070Y0125651D01*
X0094445Y0126026D01*
X0095473Y0126026D01*
X0096356Y0126392D01*
X0097031Y0127067D01*
X0097396Y0127949D01*
X0097396Y0134809D01*
X0097031Y0135691D01*
X0096356Y0136367D01*
X0095473Y0136732D01*
X0089401Y0136732D01*
X0088697Y0136440D01*
X0087993Y0136732D01*
X0087846Y0136732D01*
X0087881Y0138526D01*
X0087993Y0138526D01*
X0088875Y0138892D01*
X0088922Y0138938D01*
X0089029Y0138876D01*
X0089588Y0138726D01*
X0092357Y0138726D01*
X0092357Y0143800D01*
X0092517Y0143800D01*
X0092517Y0143959D01*
X0097196Y0143959D01*
X0097196Y0147122D01*
X0097046Y0147681D01*
X0096756Y0148183D01*
X0096347Y0148592D01*
X0095845Y0148882D01*
X0095286Y0149032D01*
X0092517Y0149032D01*
X0092517Y0143959D01*
X0092357Y0143959D01*
X0092357Y0149032D01*
X0089588Y0149032D01*
X0089029Y0148882D01*
X0088922Y0148820D01*
X0088875Y0148867D01*
X0088097Y0149189D01*
X0088097Y0149529D01*
X0088127Y0151082D01*
X0088697Y0151318D01*
X0089401Y0151026D01*
X0095473Y0151026D01*
X0096356Y0151392D01*
X0097031Y0152067D01*
X0097396Y0152949D01*
X0097396Y0159805D01*
X0097941Y0159579D01*
X0100982Y0160290D02*
X0155685Y0160290D01*
X0160482Y0155493D02*
X0097396Y0155493D01*
X0097396Y0153094D02*
X0162880Y0153094D01*
X0165279Y0150696D02*
X0088120Y0150696D01*
X0092357Y0148297D02*
X0092517Y0148297D01*
X0092517Y0145899D02*
X0092357Y0145899D01*
X0092517Y0143800D02*
X0097196Y0143800D01*
X0097196Y0140637D01*
X0097046Y0140077D01*
X0096756Y0139576D01*
X0096347Y0139166D01*
X0095845Y0138876D01*
X0095286Y0138726D01*
X0092517Y0138726D01*
X0092517Y0143800D01*
X0092517Y0143500D02*
X0092357Y0143500D01*
X0092357Y0141102D02*
X0092517Y0141102D01*
X0097196Y0141102D02*
X0105515Y0141102D01*
X0105097Y0138703D02*
X0088420Y0138703D01*
X0096417Y0136305D02*
X0105661Y0136305D01*
X0107479Y0133906D02*
X0097396Y0133906D01*
X0097396Y0131508D02*
X0108297Y0131508D01*
X0106979Y0129109D02*
X0097396Y0129109D01*
X0096674Y0126711D02*
X0103927Y0126711D01*
X0101529Y0124312D02*
X0093698Y0124312D01*
X0097196Y0121914D02*
X0099486Y0121914D01*
X0097232Y0119515D02*
X0097196Y0119515D01*
X0096675Y0118959D02*
X0092517Y0118959D01*
X0092517Y0118800D01*
X0096516Y0118800D01*
X0096675Y0118959D01*
X0126733Y0136305D02*
X0129726Y0136305D01*
X0127297Y0138703D02*
X0156397Y0138703D01*
X0157097Y0136305D02*
X0145167Y0136305D01*
X0157345Y0141102D02*
X0126879Y0141102D01*
X0125202Y0143500D02*
X0176255Y0143500D01*
X0170076Y0145899D02*
X0097196Y0145899D01*
X0097196Y0143500D02*
X0107191Y0143500D01*
X0115202Y0143500D02*
X0117191Y0143500D01*
X0096642Y0148297D02*
X0167677Y0148297D01*
X0168273Y0141102D02*
X0163048Y0141102D01*
X0163997Y0138703D02*
X0167498Y0138703D01*
X0167498Y0136305D02*
X0163319Y0136305D01*
X0165093Y0133906D02*
X0165623Y0133906D01*
X0200565Y0142951D02*
X0200565Y0143943D01*
X0200550Y0143979D01*
X0210496Y0143979D01*
X0219998Y0134477D01*
X0219998Y0131699D01*
X0220363Y0130817D01*
X0221038Y0130142D01*
X0221920Y0129776D01*
X0222297Y0129776D01*
X0222297Y0129304D01*
X0222169Y0129304D01*
X0221287Y0128939D01*
X0220612Y0128264D01*
X0220247Y0127382D01*
X0220247Y0124227D01*
X0220612Y0123345D01*
X0221287Y0122670D01*
X0222169Y0122304D01*
X0228124Y0122304D01*
X0229006Y0122670D01*
X0229681Y0123345D01*
X0229947Y0123985D01*
X0230104Y0123606D01*
X0230047Y0123394D01*
X0230047Y0122004D01*
X0230047Y0120615D01*
X0230064Y0120549D01*
X0229778Y0120430D01*
X0229681Y0120664D01*
X0229006Y0121339D01*
X0228124Y0121704D01*
X0222169Y0121704D01*
X0221385Y0121379D01*
X0218758Y0121379D01*
X0218684Y0121558D01*
X0218638Y0121604D01*
X0218700Y0121711D01*
X0218850Y0122271D01*
X0218850Y0125040D01*
X0213776Y0125040D01*
X0213776Y0122598D01*
X0213617Y0122598D01*
X0213617Y0125040D01*
X0208544Y0125040D01*
X0208544Y0122271D01*
X0208694Y0121711D01*
X0208756Y0121604D01*
X0208720Y0121568D01*
X0208453Y0121679D01*
X0207097Y0121679D01*
X0207097Y0135956D01*
X0206655Y0137022D01*
X0201655Y0142022D01*
X0200840Y0142838D01*
X0200565Y0142951D01*
X0200565Y0143500D02*
X0210975Y0143500D01*
X0213373Y0141102D02*
X0202575Y0141102D01*
X0204974Y0138703D02*
X0215772Y0138703D01*
X0218170Y0136305D02*
X0206952Y0136305D01*
X0207097Y0133906D02*
X0219998Y0133906D01*
X0220077Y0131508D02*
X0207097Y0131508D01*
X0207097Y0129109D02*
X0209064Y0129109D01*
X0208984Y0129029D02*
X0208694Y0128528D01*
X0208544Y0127968D01*
X0208544Y0125199D01*
X0213617Y0125199D01*
X0213617Y0125040D01*
X0213776Y0125040D01*
X0213776Y0125199D01*
X0213617Y0125199D01*
X0213617Y0129878D01*
X0210454Y0129878D01*
X0209895Y0129729D01*
X0209393Y0129439D01*
X0208984Y0129029D01*
X0208544Y0126711D02*
X0207097Y0126711D01*
X0207097Y0124312D02*
X0208544Y0124312D01*
X0208640Y0121914D02*
X0207097Y0121914D01*
X0213617Y0124312D02*
X0213776Y0124312D01*
X0213776Y0125199D02*
X0218850Y0125199D01*
X0218850Y0127968D01*
X0218700Y0128528D01*
X0218410Y0129029D01*
X0218000Y0129439D01*
X0217499Y0129729D01*
X0216939Y0129878D01*
X0213776Y0129878D01*
X0213776Y0125199D01*
X0213776Y0126711D02*
X0213617Y0126711D01*
X0213617Y0129109D02*
X0213776Y0129109D01*
X0218330Y0129109D02*
X0221699Y0129109D01*
X0220247Y0126711D02*
X0218850Y0126711D01*
X0218850Y0124312D02*
X0220247Y0124312D01*
X0218754Y0121914D02*
X0230047Y0121914D01*
X0230047Y0122004D02*
X0234747Y0122004D01*
X0234747Y0122004D01*
X0239447Y0122004D01*
X0239447Y0120779D01*
X0242274Y0120779D01*
X0242991Y0120482D01*
X0247993Y0120482D01*
X0248697Y0120190D01*
X0249401Y0120482D01*
X0255473Y0120482D01*
X0256356Y0120117D01*
X0257031Y0119441D01*
X0257396Y0118559D01*
X0257396Y0118279D01*
X0259594Y0118279D01*
X0259594Y0120676D01*
X0259886Y0121379D01*
X0259594Y0122083D01*
X0259594Y0124729D01*
X0257396Y0124729D01*
X0257396Y0124199D01*
X0257031Y0123317D01*
X0256356Y0122642D01*
X0255473Y0122276D01*
X0249401Y0122276D01*
X0248697Y0122568D01*
X0247993Y0122276D01*
X0241920Y0122276D01*
X0241038Y0122642D01*
X0240363Y0123317D01*
X0239998Y0124199D01*
X0239998Y0124979D01*
X0239647Y0124979D01*
X0239647Y0124227D01*
X0239390Y0123606D01*
X0239447Y0123394D01*
X0239447Y0122004D01*
X0234747Y0122004D01*
X0234747Y0122004D01*
X0230047Y0122004D01*
X0239447Y0121914D02*
X0259664Y0121914D01*
X0259594Y0124312D02*
X0257396Y0124312D01*
X0256957Y0119515D02*
X0259594Y0119515D01*
X0257396Y0130529D02*
X0257396Y0131059D01*
X0257031Y0131941D01*
X0256356Y0132617D01*
X0255473Y0132982D01*
X0249401Y0132982D01*
X0248697Y0132690D01*
X0247993Y0132982D01*
X0241920Y0132982D01*
X0241038Y0132617D01*
X0240363Y0131941D01*
X0239998Y0131059D01*
X0239998Y0130779D01*
X0237597Y0130779D01*
X0237597Y0133446D01*
X0237396Y0133931D01*
X0237396Y0138559D01*
X0237031Y0139441D01*
X0236356Y0140117D01*
X0235473Y0140482D01*
X0229401Y0140482D01*
X0228697Y0140190D01*
X0227993Y0140482D01*
X0222195Y0140482D01*
X0217307Y0145371D01*
X0217767Y0145180D01*
X0224627Y0145180D01*
X0225509Y0145545D01*
X0226184Y0146221D01*
X0226550Y0147103D01*
X0226550Y0147379D01*
X0227103Y0147379D01*
X0227537Y0146945D01*
X0228419Y0146579D01*
X0234374Y0146579D01*
X0235256Y0146945D01*
X0235931Y0147620D01*
X0236197Y0148260D01*
X0236462Y0147620D01*
X0237137Y0146945D01*
X0238019Y0146579D01*
X0243974Y0146579D01*
X0244856Y0146945D01*
X0245391Y0147479D01*
X0245844Y0147479D01*
X0245844Y0147103D01*
X0246209Y0146221D01*
X0246885Y0145545D01*
X0247767Y0145180D01*
X0254627Y0145180D01*
X0255509Y0145545D01*
X0256184Y0146221D01*
X0256550Y0147103D01*
X0256550Y0147479D01*
X0258344Y0147479D01*
X0258344Y0147103D01*
X0258709Y0146221D01*
X0259385Y0145545D01*
X0260267Y0145180D01*
X0267127Y0145180D01*
X0268009Y0145545D01*
X0268684Y0146221D01*
X0269050Y0147103D01*
X0269050Y0147479D01*
X0272094Y0147479D01*
X0272094Y0147103D01*
X0272459Y0146221D01*
X0273135Y0145545D01*
X0274017Y0145180D01*
X0280877Y0145180D01*
X0281759Y0145545D01*
X0282434Y0146221D01*
X0282800Y0147103D01*
X0282800Y0153176D01*
X0282508Y0153879D01*
X0282800Y0154583D01*
X0282800Y0160656D01*
X0282434Y0161538D01*
X0281759Y0162213D01*
X0281116Y0162479D01*
X0288697Y0162479D01*
X0288697Y0136228D01*
X0288468Y0136133D01*
X0287230Y0134895D01*
X0286117Y0133782D01*
X0282991Y0133782D01*
X0281815Y0133295D01*
X0281502Y0132982D01*
X0275670Y0132982D01*
X0274788Y0132617D01*
X0274113Y0131941D01*
X0273748Y0131059D01*
X0273748Y0130279D01*
X0266620Y0130279D01*
X0266135Y0130078D01*
X0264089Y0130078D01*
X0264080Y0130088D01*
X0263014Y0130529D01*
X0257396Y0130529D01*
X0257210Y0131508D02*
X0273933Y0131508D01*
X0286242Y0133906D02*
X0237406Y0133906D01*
X0237396Y0136305D02*
X0288697Y0136305D01*
X0288697Y0138703D02*
X0237336Y0138703D01*
X0237597Y0131508D02*
X0240183Y0131508D01*
X0239998Y0124312D02*
X0239647Y0124312D01*
X0221575Y0141102D02*
X0288697Y0141102D01*
X0288697Y0143500D02*
X0219177Y0143500D01*
X0225863Y0145899D02*
X0246531Y0145899D01*
X0245887Y0153279D02*
X0245697Y0153279D01*
X0245697Y0153879D01*
X0240997Y0153879D01*
X0240997Y0153879D01*
X0245697Y0153879D01*
X0245697Y0155269D01*
X0245640Y0155481D01*
X0245897Y0156102D01*
X0245897Y0159257D01*
X0245805Y0159479D01*
X0246044Y0159479D01*
X0246044Y0157699D01*
X0251117Y0157699D01*
X0251117Y0157540D01*
X0246044Y0157540D01*
X0246044Y0154771D01*
X0246194Y0154211D01*
X0246256Y0154104D01*
X0246209Y0154058D01*
X0245887Y0153279D01*
X0246044Y0155493D02*
X0245645Y0155493D01*
X0245897Y0157891D02*
X0246044Y0157891D01*
X0251117Y0157540D02*
X0251117Y0155098D01*
X0251276Y0155098D01*
X0251276Y0157540D01*
X0251117Y0157540D01*
X0251276Y0157540D02*
X0251276Y0157699D01*
X0256350Y0157699D01*
X0256350Y0159479D01*
X0258544Y0159479D01*
X0258544Y0157699D01*
X0263617Y0157699D01*
X0263617Y0157540D01*
X0258544Y0157540D01*
X0258544Y0154771D01*
X0258694Y0154211D01*
X0258756Y0154104D01*
X0258709Y0154058D01*
X0258387Y0153279D01*
X0256507Y0153279D01*
X0256184Y0154058D01*
X0256138Y0154104D01*
X0256200Y0154211D01*
X0256350Y0154771D01*
X0256350Y0157540D01*
X0251276Y0157540D01*
X0251276Y0155493D02*
X0251117Y0155493D01*
X0256350Y0155493D02*
X0258544Y0155493D01*
X0258544Y0157891D02*
X0256350Y0157891D01*
X0263617Y0157891D02*
X0263776Y0157891D01*
X0263776Y0157699D02*
X0263776Y0159479D01*
X0263617Y0159479D01*
X0263617Y0157699D01*
X0263776Y0157699D01*
X0268363Y0145899D02*
X0272781Y0145899D01*
X0282113Y0145899D02*
X0288697Y0145899D01*
X0288697Y0148297D02*
X0282800Y0148297D01*
X0282800Y0150696D02*
X0288697Y0150696D01*
X0288697Y0153094D02*
X0282800Y0153094D01*
X0282800Y0155493D02*
X0288697Y0155493D01*
X0288697Y0157891D02*
X0282800Y0157891D01*
X0282800Y0160290D02*
X0288697Y0160290D01*
X0293697Y0160290D02*
X0323941Y0160290D01*
X0322997Y0157891D02*
X0293697Y0157891D01*
X0293697Y0155493D02*
X0322997Y0155493D01*
X0323682Y0153094D02*
X0293697Y0153094D01*
X0293697Y0150696D02*
X0325284Y0150696D01*
X0329281Y0148297D02*
X0293697Y0148297D01*
X0293697Y0145899D02*
X0378521Y0145899D01*
X0376123Y0148297D02*
X0333113Y0148297D01*
X0331197Y0156379D02*
X0334025Y0159208D01*
X0338697Y0163879D01*
X0333682Y0165087D02*
X0314137Y0165087D01*
X0311739Y0162688D02*
X0325909Y0162688D01*
X0331670Y0164641D02*
X0331670Y0164641D01*
X0334297Y0167485D02*
X0316536Y0167485D01*
X0323479Y0169884D02*
X0334297Y0169884D01*
X0334297Y0172282D02*
X0327333Y0172282D01*
X0329731Y0174681D02*
X0334297Y0174681D01*
X0334297Y0177079D02*
X0332130Y0177079D01*
X0333647Y0179478D02*
X0334297Y0179478D01*
X0334297Y0181877D02*
X0333647Y0181877D01*
X0348215Y0163579D02*
X0351197Y0163579D01*
X0351197Y0156379D01*
X0351197Y0156379D01*
X0351197Y0156379D01*
X0351197Y0155493D02*
X0351197Y0155493D01*
X0351197Y0157891D02*
X0351197Y0157891D01*
X0351197Y0160290D02*
X0351197Y0160290D01*
X0351197Y0162688D02*
X0351197Y0162688D01*
X0355070Y0162688D02*
X0361732Y0162688D01*
X0364130Y0160290D02*
X0357468Y0160290D01*
X0358397Y0157891D02*
X0366529Y0157891D01*
X0368927Y0155493D02*
X0358397Y0155493D01*
X0358094Y0153094D02*
X0371326Y0153094D01*
X0373724Y0150696D02*
X0355696Y0150696D01*
X0351197Y0150696D02*
X0351197Y0150696D01*
X0351197Y0153094D02*
X0351197Y0153094D01*
X0349968Y0131508D02*
X0309696Y0131508D01*
X0309696Y0131831D02*
X0301769Y0131831D01*
X0301769Y0126660D01*
X0307786Y0126660D01*
X0308345Y0126809D01*
X0308847Y0127099D01*
X0309256Y0127509D01*
X0309546Y0128010D01*
X0309696Y0128570D01*
X0309696Y0131831D01*
X0309696Y0132975D02*
X0309696Y0136236D01*
X0309546Y0136795D01*
X0309256Y0137297D01*
X0308847Y0137707D01*
X0308345Y0137996D01*
X0307786Y0138146D01*
X0301769Y0138146D01*
X0301769Y0132975D01*
X0309696Y0132975D01*
X0309696Y0133906D02*
X0384832Y0133906D01*
X0383474Y0136305D02*
X0309678Y0136305D01*
X0309696Y0129109D02*
X0313728Y0129109D01*
X0311329Y0126711D02*
X0307977Y0126711D01*
X0308931Y0124312D02*
X0293697Y0124312D01*
X0293697Y0126711D02*
X0294417Y0126711D01*
X0300625Y0126711D02*
X0301769Y0126711D01*
X0301769Y0129109D02*
X0300625Y0129109D01*
X0300625Y0131508D02*
X0301769Y0131508D01*
X0301197Y0132403D02*
X0290961Y0132403D01*
X0286187Y0127629D01*
X0300625Y0133906D02*
X0301769Y0133906D01*
X0301697Y0132879D02*
X0327697Y0132879D01*
X0335632Y0124312D02*
X0346329Y0124312D01*
X0346258Y0121914D02*
X0335735Y0121914D01*
X0336783Y0119515D02*
X0346258Y0119515D01*
X0346258Y0117117D02*
X0339182Y0117117D01*
X0340597Y0114718D02*
X0346258Y0114718D01*
X0346258Y0112320D02*
X0340597Y0112320D01*
X0340597Y0109921D02*
X0346258Y0109921D01*
X0347443Y0107523D02*
X0340597Y0107523D01*
X0340597Y0105124D02*
X0386104Y0105124D01*
X0384001Y0102726D02*
X0340597Y0102726D01*
X0340597Y0100327D02*
X0383126Y0100327D01*
X0383126Y0097929D02*
X0340597Y0097929D01*
X0340597Y0095530D02*
X0382428Y0095530D01*
X0380030Y0093132D02*
X0340597Y0093132D01*
X0340597Y0090733D02*
X0377631Y0090733D01*
X0375233Y0088335D02*
X0354424Y0088335D01*
X0351197Y0088335D02*
X0351197Y0088335D01*
X0351197Y0085936D02*
X0351197Y0085936D01*
X0351197Y0083538D02*
X0351197Y0083538D01*
X0345571Y0085936D02*
X0340597Y0085936D01*
X0340597Y0088335D02*
X0347970Y0088335D01*
X0343997Y0083538D02*
X0339695Y0083538D01*
X0339440Y0081139D02*
X0343997Y0081139D01*
X0343997Y0078741D02*
X0340058Y0078741D01*
X0342457Y0076342D02*
X0346052Y0076342D01*
X0358397Y0078741D02*
X0365639Y0078741D01*
X0368037Y0081139D02*
X0358397Y0081139D01*
X0358397Y0083538D02*
X0370436Y0083538D01*
X0372834Y0085936D02*
X0356822Y0085936D01*
X0358183Y0112320D02*
X0387468Y0112320D01*
X0388668Y0131508D02*
X0354473Y0131508D01*
X0380920Y0143500D02*
X0293697Y0143500D01*
X0293697Y0141102D02*
X0383318Y0141102D01*
X0383126Y0138703D02*
X0293697Y0138703D01*
X0300625Y0136305D02*
X0301769Y0136305D01*
X0259031Y0145899D02*
X0255863Y0145899D01*
X0240997Y0153879D02*
X0236297Y0153879D01*
X0236297Y0152490D01*
X0236354Y0152277D01*
X0236197Y0151898D01*
X0235931Y0152539D01*
X0235256Y0153214D01*
X0234374Y0153579D01*
X0231550Y0153579D01*
X0231570Y0153651D01*
X0232098Y0154179D01*
X0234374Y0154179D01*
X0235256Y0154545D01*
X0235691Y0154979D01*
X0236297Y0154979D01*
X0236297Y0153879D01*
X0240997Y0153879D01*
X0240997Y0153879D01*
X0236297Y0153094D02*
X0235376Y0153094D01*
X0226497Y0157495D02*
X0226473Y0157485D01*
X0226350Y0157452D01*
X0226350Y0157540D01*
X0221276Y0157540D01*
X0221276Y0157699D01*
X0221276Y0159479D01*
X0221117Y0159479D01*
X0221117Y0157699D01*
X0221117Y0157540D01*
X0216044Y0157540D01*
X0216044Y0154771D01*
X0216194Y0154211D01*
X0216256Y0154104D01*
X0216209Y0154058D01*
X0215928Y0153379D01*
X0208439Y0153379D01*
X0207572Y0154247D01*
X0207569Y0154256D01*
X0207297Y0156716D01*
X0207297Y0157593D01*
X0206515Y0159479D01*
X0216044Y0159479D01*
X0216044Y0157699D01*
X0221117Y0157699D01*
X0221276Y0157699D01*
X0226350Y0157699D01*
X0226350Y0159479D01*
X0226589Y0159479D01*
X0226497Y0159257D01*
X0226497Y0157495D01*
X0226497Y0157891D02*
X0226350Y0157891D01*
X0221276Y0157891D02*
X0221117Y0157891D01*
X0216044Y0157891D02*
X0207173Y0157891D01*
X0207432Y0155493D02*
X0216044Y0155493D01*
X0204025Y0153551D02*
X0200922Y0153894D01*
X0201197Y0156379D01*
X0203682Y0156654D01*
X0204025Y0153551D01*
X0112536Y0185129D02*
X0112377Y0185129D01*
X0112377Y0189032D01*
X0111451Y0189032D01*
X0112825Y0190406D01*
X0113697Y0190406D01*
X0113697Y0189032D01*
X0112536Y0189032D01*
X0112536Y0185129D01*
X0112536Y0186674D02*
X0112377Y0186674D01*
X0111491Y0189072D02*
X0113697Y0189072D01*
X0106383Y0192167D02*
X0105738Y0191522D01*
X0105297Y0190456D01*
X0105297Y0185129D01*
X0097264Y0185129D01*
X0097031Y0185691D01*
X0096356Y0186367D01*
X0095597Y0186681D01*
X0095597Y0187678D01*
X0102340Y0194421D01*
X0103155Y0195237D01*
X0103597Y0196302D01*
X0103597Y0211178D01*
X0105097Y0212678D01*
X0105097Y0212666D01*
X0106026Y0210424D01*
X0106787Y0209662D01*
X0107807Y0208548D01*
X0107818Y0208535D01*
X0108285Y0208026D01*
X0108297Y0207996D01*
X0108297Y0204852D01*
X0108239Y0204852D01*
X0107357Y0204487D01*
X0106682Y0203812D01*
X0106316Y0202929D01*
X0106316Y0199809D01*
X0106569Y0199199D01*
X0106516Y0199002D01*
X0106516Y0197629D01*
X0106516Y0196257D01*
X0106569Y0196060D01*
X0106316Y0195449D01*
X0106316Y0192329D01*
X0106383Y0192167D01*
X0105717Y0191471D02*
X0099389Y0191471D01*
X0101788Y0193869D02*
X0106316Y0193869D01*
X0106516Y0196268D02*
X0103582Y0196268D01*
X0103597Y0198666D02*
X0106516Y0198666D01*
X0106516Y0197629D02*
X0111078Y0197629D01*
X0106516Y0197629D01*
X0106316Y0201065D02*
X0103597Y0201065D01*
X0103597Y0203463D02*
X0106537Y0203463D01*
X0108297Y0205862D02*
X0103597Y0205862D01*
X0103597Y0208260D02*
X0108070Y0208260D01*
X0105928Y0210659D02*
X0103597Y0210659D01*
X0111078Y0197629D02*
X0111078Y0197629D01*
X0105297Y0189072D02*
X0096991Y0189072D01*
X0095615Y0186674D02*
X0105297Y0186674D01*
X0105297Y0180129D02*
X0097396Y0180129D01*
X0097396Y0177949D01*
X0097031Y0177067D01*
X0096356Y0176392D01*
X0095473Y0176026D01*
X0089401Y0176026D01*
X0088697Y0176318D01*
X0088622Y0176287D01*
X0088576Y0173990D01*
X0088875Y0173867D01*
X0088922Y0173820D01*
X0089029Y0173882D01*
X0089588Y0174032D01*
X0092357Y0174032D01*
X0092357Y0168959D01*
X0092517Y0168959D01*
X0097196Y0168959D01*
X0097196Y0172122D01*
X0097046Y0172681D01*
X0096756Y0173183D01*
X0096347Y0173592D01*
X0095845Y0173882D01*
X0095286Y0174032D01*
X0092517Y0174032D01*
X0092517Y0168959D01*
X0092517Y0168800D01*
X0097196Y0168800D01*
X0097196Y0166871D01*
X0097941Y0167179D01*
X0099453Y0167179D01*
X0099933Y0166980D01*
X0100097Y0166959D01*
X0100097Y0166959D01*
X0100097Y0166959D01*
X0100309Y0166836D01*
X0100381Y0166795D01*
X0100849Y0166601D01*
X0101030Y0166420D01*
X0101274Y0166279D01*
X0107670Y0166279D01*
X0106026Y0167924D01*
X0105097Y0170166D01*
X0105097Y0171243D01*
X0104995Y0173537D01*
X0104942Y0173683D01*
X0104965Y0174208D01*
X0104942Y0174732D01*
X0104995Y0174879D01*
X0105002Y0175034D01*
X0105224Y0175510D01*
X0105297Y0175710D01*
X0105297Y0180129D01*
X0105297Y0179478D02*
X0097396Y0179478D01*
X0097036Y0177079D02*
X0105297Y0177079D01*
X0104944Y0174681D02*
X0088590Y0174681D01*
X0092357Y0172282D02*
X0092517Y0172282D01*
X0092517Y0169884D02*
X0092357Y0169884D01*
X0097196Y0169884D02*
X0105214Y0169884D01*
X0105051Y0172282D02*
X0097153Y0172282D01*
X0097196Y0167485D02*
X0106464Y0167485D01*
X0082297Y0174681D02*
X0063591Y0174681D01*
X0063743Y0174472D02*
X0063197Y0175223D01*
X0062540Y0175879D01*
X0061789Y0176425D01*
X0060962Y0176847D01*
X0060078Y0177134D01*
X0059161Y0177279D01*
X0058697Y0177279D01*
X0058697Y0171379D01*
X0060648Y0172942D01*
X0058697Y0175379D01*
X0060648Y0172942D01*
X0058697Y0175379D01*
X0056745Y0172942D01*
X0058697Y0171379D01*
X0060648Y0172942D01*
X0060648Y0172942D01*
X0058697Y0171379D01*
X0056745Y0172942D01*
X0058697Y0175379D01*
X0060648Y0172942D01*
X0060648Y0172942D01*
X0058697Y0175379D01*
X0058697Y0175379D01*
X0056745Y0172942D01*
X0056745Y0172942D01*
X0058697Y0175379D01*
X0056745Y0172942D01*
X0058697Y0171379D01*
X0060648Y0172942D01*
X0060648Y0172942D01*
X0058697Y0172282D02*
X0058697Y0172282D01*
X0058697Y0171379D02*
X0058697Y0171379D01*
X0056745Y0172942D01*
X0058697Y0175379D01*
X0058697Y0175379D01*
X0056745Y0172942D01*
X0056745Y0172942D01*
X0056745Y0172942D01*
X0058697Y0175379D01*
X0058697Y0175379D01*
X0058697Y0174681D02*
X0058697Y0174681D01*
X0058697Y0177079D02*
X0058697Y0177079D01*
X0060246Y0177079D02*
X0080358Y0177079D01*
X0079998Y0179478D02*
X0051597Y0179478D01*
X0051597Y0177079D02*
X0057148Y0177079D01*
X0053803Y0174681D02*
X0051597Y0174681D01*
X0051895Y0172282D02*
X0052866Y0172282D01*
X0056745Y0172942D02*
X0056745Y0172942D01*
X0058697Y0171379D02*
X0064597Y0171379D01*
X0064597Y0171844D01*
X0064452Y0172761D01*
X0064165Y0173644D01*
X0063743Y0174472D01*
X0064527Y0172282D02*
X0079998Y0172282D01*
X0073100Y0169884D02*
X0064415Y0169884D01*
X0063147Y0167485D02*
X0070702Y0167485D01*
X0068303Y0165087D02*
X0063616Y0165087D01*
X0064757Y0162688D02*
X0065905Y0162688D01*
X0079998Y0181877D02*
X0051597Y0181877D01*
X0051597Y0184275D02*
X0079998Y0184275D01*
X0081779Y0186674D02*
X0051597Y0186674D01*
X0051597Y0189072D02*
X0089797Y0189072D01*
X0089259Y0186674D02*
X0088134Y0186674D01*
X0079801Y0193869D02*
X0062875Y0193869D01*
X0063497Y0196268D02*
X0079801Y0196268D01*
X0079801Y0198666D02*
X0063298Y0198666D01*
X0058697Y0198666D02*
X0058697Y0198666D01*
X0058697Y0196268D02*
X0058697Y0196268D01*
X0058697Y0193869D02*
X0058697Y0193869D01*
X0080097Y0225050D02*
X0026397Y0225050D01*
X0026397Y0227448D02*
X0078885Y0227448D01*
X0077197Y0229847D02*
X0063008Y0229847D01*
X0064370Y0232245D02*
X0069806Y0232245D01*
X0069794Y0234644D02*
X0064549Y0234644D01*
X0063692Y0237042D02*
X0069794Y0237042D01*
X0069653Y0239441D02*
X0062913Y0239441D01*
X0060259Y0241928D02*
X0058697Y0243879D01*
X0060259Y0241928D01*
X0062697Y0243879D01*
X0060259Y0241928D01*
X0060259Y0241928D01*
X0058697Y0243879D01*
X0060259Y0245831D01*
X0058697Y0243879D01*
X0060259Y0245831D01*
X0060259Y0245831D01*
X0060259Y0245831D01*
X0062697Y0243879D01*
X0060259Y0245831D01*
X0060259Y0245831D01*
X0062697Y0243879D01*
X0060259Y0241928D01*
X0062697Y0243879D01*
X0062697Y0243879D01*
X0060259Y0241928D01*
X0060259Y0241928D01*
X0060259Y0241928D01*
X0062697Y0243879D01*
X0062697Y0243879D01*
X0060259Y0241928D01*
X0058697Y0243879D01*
X0060259Y0245831D01*
X0062697Y0243879D01*
X0060259Y0245831D01*
X0060259Y0245831D01*
X0062697Y0243879D01*
X0062697Y0243879D01*
X0060259Y0245831D01*
X0062168Y0249035D02*
X0081444Y0249035D01*
X0079998Y0246636D02*
X0079836Y0246636D01*
X0087524Y0251433D02*
X0045529Y0251433D01*
X0045787Y0249035D02*
X0055226Y0249035D01*
X0053236Y0246636D02*
X0045612Y0246636D01*
X0044969Y0244238D02*
X0052597Y0244238D01*
X0052939Y0241839D02*
X0043592Y0241839D01*
X0041356Y0239441D02*
X0054509Y0239441D01*
X0053702Y0237042D02*
X0036232Y0237042D01*
X0031162Y0237042D02*
X0026397Y0237042D01*
X0026397Y0234644D02*
X0052844Y0234644D01*
X0053024Y0232245D02*
X0026397Y0232245D01*
X0026397Y0229847D02*
X0054385Y0229847D01*
X0058697Y0229847D02*
X0058697Y0229847D01*
X0058697Y0232245D02*
X0058697Y0232245D01*
X0060259Y0241928D02*
X0060259Y0241928D01*
X0074867Y0234644D02*
X0075026Y0234644D01*
X0075026Y0232245D02*
X0074867Y0232245D01*
X0085036Y0233800D02*
X0087478Y0233800D01*
X0087478Y0233959D01*
X0085036Y0233959D01*
X0085036Y0233800D01*
X0091370Y0227448D02*
X0179587Y0227448D01*
X0179450Y0229847D02*
X0162230Y0229847D01*
X0164047Y0232245D02*
X0179450Y0232245D01*
X0179450Y0234644D02*
X0164047Y0234644D01*
X0163100Y0237042D02*
X0179450Y0237042D01*
X0179450Y0241839D02*
X0163901Y0241839D01*
X0164500Y0244238D02*
X0179450Y0244238D01*
X0179450Y0246636D02*
X0166197Y0246636D01*
X0161196Y0245878D02*
X0160591Y0243414D01*
X0158697Y0243879D01*
X0158659Y0245829D01*
X0161196Y0245878D01*
X0158697Y0243879D02*
X0157085Y0244977D01*
X0155657Y0242879D01*
X0158051Y0242039D01*
X0158697Y0243879D01*
X0156641Y0249035D02*
X0133784Y0249035D01*
X0131370Y0251433D02*
X0162508Y0251433D01*
X0164907Y0253832D02*
X0044798Y0253832D01*
X0097147Y0229847D02*
X0155163Y0229847D01*
X0153347Y0232245D02*
X0141338Y0232245D01*
X0141350Y0234644D02*
X0153347Y0234644D01*
X0153347Y0233879D02*
X0158697Y0233879D01*
X0153347Y0233879D01*
X0154294Y0237042D02*
X0141350Y0237042D01*
X0141491Y0239441D02*
X0154510Y0239441D01*
X0158697Y0233879D02*
X0158697Y0233879D01*
X0158697Y0232245D02*
X0158697Y0232245D01*
X0158697Y0229847D02*
X0158697Y0229847D01*
X0162107Y0239441D02*
X0192654Y0239441D01*
X0192654Y0237042D02*
X0195054Y0237042D01*
X0195054Y0234644D02*
X0192654Y0234644D01*
X0192654Y0232245D02*
X0195054Y0232245D01*
X0195054Y0229847D02*
X0192654Y0229847D01*
X0192654Y0227448D02*
X0195054Y0227448D01*
X0153832Y0246636D02*
X0141086Y0246636D01*
X0136276Y0234644D02*
X0136117Y0234644D01*
X0136117Y0232245D02*
X0136276Y0232245D01*
X0129043Y0231710D02*
X0129043Y0231710D01*
X0118344Y0232245D02*
X0116550Y0232245D01*
X0066252Y0112320D02*
X0026397Y0112320D01*
X0026397Y0109921D02*
X0057343Y0109921D01*
X0053714Y0107523D02*
X0026397Y0107523D01*
X0026397Y0105124D02*
X0052610Y0105124D01*
X0052597Y0102726D02*
X0026397Y0102726D01*
X0026397Y0100327D02*
X0053622Y0100327D01*
X0054120Y0097929D02*
X0026397Y0097929D01*
X0026397Y0095530D02*
X0052778Y0095530D01*
X0052597Y0093132D02*
X0026397Y0093132D01*
X0026397Y0090733D02*
X0053397Y0090733D01*
X0054525Y0088335D02*
X0026397Y0088335D01*
X0026397Y0085936D02*
X0052946Y0085936D01*
X0052597Y0083538D02*
X0026397Y0083538D01*
X0026397Y0081139D02*
X0053229Y0081139D01*
X0054931Y0078741D02*
X0026397Y0078741D01*
X0026397Y0076342D02*
X0053114Y0076342D01*
X0052597Y0073944D02*
X0026397Y0073944D01*
X0026397Y0071545D02*
X0053061Y0071545D01*
X0054803Y0069146D02*
X0026397Y0069146D01*
X0026397Y0066748D02*
X0053283Y0066748D01*
X0052597Y0064349D02*
X0026397Y0064349D01*
X0026397Y0061951D02*
X0052893Y0061951D01*
X0054397Y0059552D02*
X0026397Y0059552D01*
X0026397Y0057154D02*
X0053451Y0057154D01*
X0052597Y0054755D02*
X0026397Y0054755D01*
X0026397Y0052357D02*
X0052725Y0052357D01*
X0053991Y0049958D02*
X0026397Y0049958D01*
X0026397Y0047560D02*
X0087498Y0047560D01*
X0087498Y0045161D02*
X0026397Y0045161D01*
X0026397Y0042763D02*
X0087575Y0042763D01*
X0087559Y0049958D02*
X0063403Y0049958D01*
X0064669Y0052357D02*
X0089557Y0052357D01*
X0099857Y0049958D02*
X0100017Y0049958D01*
X0100017Y0047560D02*
X0099857Y0047560D01*
X0099857Y0045161D02*
X0100017Y0045161D01*
X0100017Y0042763D02*
X0099857Y0042763D01*
X0104596Y0042763D02*
X0107798Y0042763D01*
X0107698Y0045161D02*
X0104696Y0045161D01*
X0104696Y0047560D02*
X0107698Y0047560D01*
X0107788Y0049958D02*
X0104606Y0049958D01*
X0119697Y0052357D02*
X0128618Y0052357D01*
X0128748Y0049958D02*
X0124834Y0049958D01*
X0124896Y0047560D02*
X0128909Y0047560D01*
X0128378Y0045161D02*
X0124896Y0045161D01*
X0124819Y0042763D02*
X0125979Y0042763D01*
X0129385Y0037966D02*
X0136940Y0037966D01*
X0135542Y0035567D02*
X0127378Y0035567D01*
X0127297Y0033169D02*
X0135336Y0033169D01*
X0136163Y0030770D02*
X0126512Y0030770D01*
X0131783Y0040364D02*
X0134190Y0040364D01*
X0094794Y0069146D02*
X0062591Y0069146D01*
X0063313Y0069835D02*
X0063313Y0069835D01*
X0062462Y0078741D02*
X0083957Y0078741D01*
X0087362Y0073944D02*
X0094794Y0073944D01*
X0094794Y0071545D02*
X0084964Y0071545D01*
X0096255Y0076342D02*
X0096657Y0076342D01*
X0088108Y0085936D02*
X0083446Y0085936D01*
X0063313Y0079835D02*
X0063313Y0079835D01*
X0029849Y0040364D02*
X0026397Y0040364D01*
X0126791Y0073944D02*
X0129974Y0073944D01*
X0127297Y0076342D02*
X0136564Y0076342D01*
X0126821Y0078741D02*
X0168412Y0078741D01*
X0183982Y0078741D02*
X0191828Y0078741D01*
X0191828Y0081139D02*
X0125064Y0081139D01*
X0213617Y0054755D02*
X0213776Y0054755D01*
X0213776Y0052357D02*
X0213617Y0052357D01*
X0217398Y0054755D02*
X0221750Y0054755D01*
X0223502Y0047929D02*
X0228124Y0047929D01*
X0229006Y0048295D01*
X0229681Y0048970D01*
X0229947Y0049610D01*
X0230104Y0049231D01*
X0230047Y0049019D01*
X0230047Y0047629D01*
X0230047Y0046240D01*
X0230104Y0046027D01*
X0230005Y0045789D01*
X0229923Y0045706D01*
X0229681Y0046289D01*
X0229006Y0046964D01*
X0228124Y0047329D01*
X0223021Y0047329D01*
X0223418Y0047727D01*
X0223502Y0047929D01*
X0223251Y0047560D02*
X0230047Y0047560D01*
X0230047Y0047629D02*
X0234747Y0047629D01*
X0234747Y0047629D01*
X0230047Y0047629D01*
X0402545Y0040364D02*
X0405997Y0040364D01*
D31*
X0383697Y0045129D03*
X0362447Y0048879D03*
X0348697Y0066379D03*
X0381197Y0066379D03*
X0397447Y0066379D03*
X0364947Y0100129D03*
X0363697Y0133879D03*
X0346197Y0142629D03*
X0316197Y0145129D03*
X0307447Y0155129D03*
X0279947Y0138879D03*
X0253697Y0138879D03*
X0249947Y0067629D03*
X0281197Y0067629D03*
X0212447Y0067629D03*
X0153697Y0096379D03*
X0142447Y0083879D03*
X0078697Y0046379D03*
X0059947Y0033879D03*
X0051197Y0120129D03*
X0348697Y0216379D03*
X0358697Y0210129D03*
X0377447Y0170129D03*
X0389947Y0170129D03*
X0397447Y0153879D03*
D32*
X0329947Y0180129D02*
X0329947Y0186153D01*
X0330173Y0186379D01*
X0329697Y0186379D01*
X0329947Y0180129D02*
X0325197Y0175379D01*
X0318697Y0175379D01*
X0318697Y0175139D01*
X0318697Y0174879D01*
X0309197Y0165379D01*
X0225697Y0165379D01*
X0219197Y0171879D01*
X0196197Y0171879D01*
X0196197Y0172049D01*
X0195697Y0176379D02*
X0179937Y0176379D01*
X0172697Y0176379D02*
X0172457Y0176379D01*
X0172697Y0176379D02*
X0172697Y0184379D01*
X0133197Y0184379D01*
X0133197Y0188879D01*
X0133707Y0188879D01*
X0133697Y0188879D01*
X0128697Y0193879D01*
X0121697Y0193879D01*
X0121315Y0193889D01*
X0121315Y0201369D02*
X0121197Y0201379D01*
X0121197Y0206379D01*
X0133197Y0206379D01*
X0138197Y0211379D01*
X0172457Y0211379D01*
X0179937Y0211379D02*
X0192197Y0211379D01*
X0196197Y0215379D01*
X0207197Y0215379D01*
X0209924Y0212652D01*
X0211430Y0212249D01*
X0211197Y0211379D01*
X0210328Y0211146D01*
X0209924Y0212652D01*
X0210136Y0212440D01*
X0211374Y0212159D01*
X0211197Y0211379D01*
X0210417Y0211202D01*
X0210136Y0212440D01*
X0211197Y0211379D01*
X0210697Y0220379D02*
X0224697Y0206379D01*
X0224957Y0207629D01*
X0225197Y0206379D01*
X0225197Y0199379D01*
X0225147Y0198929D01*
X0234697Y0199379D02*
X0234747Y0198929D01*
X0234697Y0199379D02*
X0234697Y0200379D01*
X0234697Y0205369D01*
X0232437Y0207629D01*
X0232697Y0206379D01*
X0234697Y0200379D02*
X0244197Y0200379D01*
X0244957Y0200129D01*
X0244697Y0200379D01*
X0252437Y0200129D02*
X0262437Y0200129D01*
X0264947Y0197619D01*
X0265197Y0197879D01*
X0267197Y0199879D01*
X0278697Y0199879D01*
X0278707Y0200129D01*
X0278697Y0187879D02*
X0267197Y0187879D01*
X0265197Y0189879D01*
X0264947Y0190139D01*
X0264697Y0189879D01*
X0262697Y0187879D01*
X0252697Y0187879D01*
X0252437Y0187629D01*
X0244957Y0187629D02*
X0244197Y0187879D01*
X0241197Y0190879D01*
X0235197Y0190879D01*
X0234747Y0191329D01*
X0234697Y0190879D01*
X0231697Y0190879D01*
X0224697Y0183879D01*
X0224957Y0183879D01*
X0225197Y0183879D01*
X0225197Y0173879D01*
X0224957Y0173879D01*
X0227464Y0169249D02*
X0227697Y0168379D01*
X0228566Y0168146D01*
X0228970Y0169652D01*
X0227464Y0169249D01*
X0227697Y0168379D02*
X0228970Y0169652D01*
X0232197Y0172879D01*
X0232197Y0173879D01*
X0232437Y0173879D01*
X0232697Y0173879D01*
X0232697Y0183879D01*
X0232437Y0183879D01*
X0244697Y0187879D02*
X0244957Y0187629D01*
X0278697Y0187879D02*
X0278707Y0187629D01*
X0267197Y0162379D02*
X0197197Y0162379D01*
X0194025Y0159208D01*
X0191197Y0156379D01*
X0181197Y0156379D02*
X0177197Y0156379D01*
X0177197Y0156379D01*
X0175197Y0156379D01*
X0175197Y0156379D01*
X0171197Y0156379D01*
X0173197Y0146879D02*
X0211697Y0146879D01*
X0224697Y0133879D01*
X0224957Y0135129D01*
X0225197Y0133879D01*
X0225197Y0125879D01*
X0225147Y0125804D01*
X0234697Y0125879D02*
X0234747Y0125804D01*
X0234697Y0125879D02*
X0234697Y0127879D01*
X0234697Y0132869D01*
X0232437Y0135129D01*
X0232697Y0133879D01*
X0234697Y0127879D02*
X0244197Y0127879D01*
X0244957Y0127629D01*
X0244697Y0127879D01*
X0252437Y0127629D02*
X0262437Y0127629D01*
X0264947Y0125119D01*
X0265197Y0125379D01*
X0267197Y0127379D01*
X0278697Y0127379D01*
X0278707Y0127629D01*
X0278697Y0115379D02*
X0267197Y0115379D01*
X0265197Y0117379D01*
X0264947Y0117639D01*
X0264697Y0117379D01*
X0262697Y0115379D01*
X0252697Y0115379D01*
X0252437Y0115129D01*
X0244957Y0115129D02*
X0244197Y0115379D01*
X0241697Y0117879D01*
X0235197Y0117879D01*
X0234747Y0118204D01*
X0234697Y0117879D01*
X0231197Y0117879D01*
X0224697Y0111379D01*
X0224957Y0111379D01*
X0225197Y0111379D01*
X0225197Y0101379D01*
X0224957Y0101379D01*
X0232437Y0101379D02*
X0232697Y0101379D01*
X0232697Y0106379D01*
X0235397Y0106379D01*
X0236747Y0107159D01*
X0237197Y0106379D01*
X0236747Y0105600D01*
X0235397Y0106379D01*
X0236747Y0105600D01*
X0237197Y0106379D01*
X0236747Y0107159D01*
X0235397Y0106379D01*
X0236747Y0105600D01*
X0235397Y0106379D01*
X0236747Y0105600D01*
X0236747Y0105600D01*
X0235397Y0106379D01*
X0235397Y0106379D01*
X0236747Y0107159D01*
X0237197Y0106379D01*
X0236747Y0105600D01*
X0236747Y0105600D01*
X0235397Y0106379D01*
X0235397Y0106379D01*
X0235397Y0106379D01*
X0236747Y0107159D01*
X0236747Y0107159D01*
X0236747Y0107159D01*
X0236747Y0107159D01*
X0235397Y0106379D01*
X0236747Y0107159D01*
X0236747Y0107159D01*
X0235397Y0106379D01*
X0235397Y0106379D01*
X0235397Y0106379D01*
X0237197Y0106379D01*
X0232697Y0106379D02*
X0232697Y0111379D01*
X0232437Y0111379D01*
X0244697Y0115379D02*
X0244957Y0115129D01*
X0218089Y0096879D02*
X0204197Y0110772D01*
X0204197Y0135379D01*
X0199197Y0140379D01*
X0196197Y0140379D01*
X0196197Y0140710D01*
X0196197Y0140879D01*
X0195197Y0141879D01*
X0193497Y0141879D01*
X0192147Y0141100D01*
X0191697Y0141879D01*
X0192147Y0141100D01*
X0193497Y0141879D01*
X0192147Y0142659D01*
X0191697Y0141879D01*
X0192147Y0141100D01*
X0192147Y0141100D01*
X0193497Y0141879D01*
X0192147Y0141100D01*
X0192147Y0141100D01*
X0191697Y0141879D02*
X0192147Y0142659D01*
X0192147Y0142659D01*
X0193497Y0141879D01*
X0193497Y0141879D01*
X0193497Y0141879D01*
X0193497Y0141879D01*
X0193497Y0141879D01*
X0192147Y0142659D01*
X0191697Y0141879D01*
X0193497Y0141879D01*
X0192147Y0142659D02*
X0192147Y0142659D01*
X0180476Y0141429D02*
X0179697Y0141879D01*
X0178917Y0141429D01*
X0179697Y0140079D01*
X0179697Y0140079D01*
X0179697Y0140079D01*
X0180476Y0141429D01*
X0179697Y0141879D01*
X0178917Y0141429D01*
X0179697Y0140079D01*
X0179697Y0136379D01*
X0179937Y0136379D01*
X0179697Y0140079D02*
X0179697Y0140079D01*
X0180476Y0141429D01*
X0179697Y0140079D01*
X0180476Y0141429D01*
X0180476Y0141429D01*
X0180476Y0141429D01*
X0179697Y0140079D01*
X0179697Y0140079D01*
X0179697Y0141879D01*
X0180476Y0141429D01*
X0180476Y0141429D01*
X0179697Y0140079D01*
X0178917Y0141429D01*
X0178917Y0141429D01*
X0179697Y0140079D01*
X0180476Y0141429D01*
X0180476Y0141429D01*
X0179697Y0141879D02*
X0178917Y0141429D01*
X0179697Y0140079D01*
X0178917Y0141429D01*
X0178917Y0141429D01*
X0173197Y0146879D02*
X0156697Y0163379D01*
X0100497Y0163379D01*
X0099147Y0162600D01*
X0098697Y0163379D01*
X0099147Y0162600D01*
X0100497Y0163379D01*
X0099147Y0164159D01*
X0098697Y0163379D01*
X0099147Y0162600D01*
X0099147Y0162600D01*
X0100497Y0163379D01*
X0099147Y0162600D01*
X0099147Y0162600D01*
X0098697Y0163379D02*
X0099147Y0164159D01*
X0099147Y0164159D01*
X0100497Y0163379D01*
X0100497Y0163379D01*
X0100497Y0163379D01*
X0100497Y0163379D01*
X0100497Y0163379D01*
X0099147Y0164159D01*
X0098697Y0163379D01*
X0100497Y0163379D01*
X0099147Y0164159D02*
X0099147Y0164159D01*
X0092197Y0159879D02*
X0091470Y0160606D01*
X0089964Y0161010D01*
X0090197Y0161879D01*
X0091066Y0162112D01*
X0091470Y0160606D01*
X0090197Y0161879D01*
X0092197Y0159879D02*
X0092197Y0156379D01*
X0092437Y0156379D01*
X0085197Y0156379D02*
X0084957Y0156379D01*
X0085197Y0156379D02*
X0085197Y0143879D01*
X0084957Y0143879D01*
X0061819Y0143879D01*
X0061197Y0143879D01*
X0058697Y0141379D01*
X0058697Y0131379D02*
X0062697Y0131379D01*
X0084957Y0131379D01*
X0085197Y0131379D01*
X0085197Y0118879D01*
X0084957Y0118879D01*
X0090197Y0125879D02*
X0091066Y0125646D01*
X0091470Y0127152D01*
X0089964Y0126749D01*
X0090197Y0125879D01*
X0091470Y0127152D01*
X0092197Y0127879D01*
X0092197Y0131379D01*
X0092437Y0131379D01*
X0102197Y0120879D02*
X0107197Y0125879D01*
X0110697Y0125879D01*
X0111078Y0126369D01*
X0111197Y0126379D01*
X0111197Y0134879D01*
X0111197Y0134879D01*
X0111197Y0138879D01*
X0121197Y0138879D02*
X0121197Y0134879D01*
X0121197Y0131379D01*
X0133197Y0131379D01*
X0137697Y0126879D01*
X0162697Y0126879D01*
X0172197Y0136379D01*
X0172457Y0136379D01*
X0161008Y0138188D02*
X0160197Y0138579D01*
X0159453Y0138073D01*
X0160331Y0136784D01*
X0161008Y0138188D01*
X0160331Y0138445D02*
X0160197Y0138579D01*
X0160331Y0138445D02*
X0160331Y0136784D01*
X0160331Y0131379D01*
X0152063Y0131379D02*
X0141187Y0131379D01*
X0133707Y0131379D02*
X0133697Y0131379D01*
X0133707Y0131379D02*
X0133197Y0131379D01*
X0121197Y0131379D02*
X0121197Y0126379D01*
X0121315Y0126369D01*
X0121315Y0118889D02*
X0121697Y0118879D01*
X0128697Y0118879D01*
X0133697Y0113879D01*
X0133707Y0113879D01*
X0133197Y0113879D01*
X0133197Y0109379D01*
X0172697Y0109379D01*
X0172697Y0101379D01*
X0172457Y0101379D01*
X0179937Y0101379D02*
X0195697Y0101379D01*
X0199697Y0105379D01*
X0199937Y0105710D01*
X0192697Y0105879D02*
X0192457Y0105710D01*
X0192697Y0105879D02*
X0192697Y0118879D01*
X0192457Y0118879D01*
X0192197Y0130879D02*
X0180197Y0118879D01*
X0179937Y0118879D01*
X0172697Y0118879D02*
X0172457Y0118879D01*
X0172697Y0118879D02*
X0172697Y0109379D01*
X0160697Y0113879D02*
X0160331Y0113879D01*
X0160331Y0118630D01*
X0159526Y0119965D01*
X0160297Y0120429D01*
X0161085Y0119994D01*
X0160331Y0118630D01*
X0160331Y0120395D01*
X0160297Y0120429D01*
X0152063Y0113879D02*
X0141187Y0113879D01*
X0133197Y0109379D02*
X0133197Y0108379D01*
X0124025Y0099208D01*
X0121197Y0096379D01*
X0111197Y0096379D02*
X0108447Y0099129D01*
X0107785Y0098468D01*
X0091447Y0082129D01*
X0092197Y0081379D01*
X0092457Y0081379D01*
X0091447Y0082129D02*
X0083197Y0073879D01*
X0062697Y0073879D01*
X0062697Y0073879D01*
X0058697Y0073879D01*
X0058697Y0063879D02*
X0062697Y0063879D01*
X0062697Y0063879D01*
X0100197Y0063879D01*
X0099947Y0063889D01*
X0100197Y0063879D02*
X0110697Y0063879D01*
X0111078Y0063869D01*
X0111197Y0063879D01*
X0111197Y0072379D01*
X0111197Y0072379D01*
X0111197Y0076379D01*
X0121197Y0076379D02*
X0121197Y0072379D01*
X0121197Y0068879D01*
X0133197Y0068879D01*
X0138197Y0073879D01*
X0172457Y0073879D01*
X0179937Y0073879D02*
X0192197Y0073879D01*
X0196197Y0077879D01*
X0196197Y0078210D01*
X0196197Y0078379D01*
X0197197Y0079379D01*
X0313447Y0079379D01*
X0335947Y0056879D01*
X0335947Y0048953D01*
X0333373Y0046379D01*
X0330173Y0046379D01*
X0331197Y0046379D01*
X0330173Y0036379D02*
X0322197Y0036379D01*
X0318697Y0032879D01*
X0318697Y0032619D01*
X0318687Y0032629D01*
X0313697Y0032629D01*
X0311197Y0030129D01*
X0311197Y0025129D01*
X0307947Y0021879D01*
X0221697Y0021879D01*
X0209197Y0034379D01*
X0196197Y0034379D01*
X0196197Y0034549D01*
X0195697Y0038879D02*
X0179937Y0038879D01*
X0172697Y0038879D02*
X0172457Y0038879D01*
X0172697Y0038879D02*
X0172697Y0042879D01*
X0135697Y0042879D01*
X0132947Y0045629D01*
X0133197Y0045879D01*
X0133197Y0051379D01*
X0133707Y0051379D01*
X0133697Y0051379D01*
X0128697Y0056379D01*
X0121697Y0056379D01*
X0121315Y0056389D01*
X0121315Y0063869D02*
X0121197Y0063879D01*
X0121197Y0068879D01*
X0121197Y0072379D02*
X0121197Y0072379D01*
X0133197Y0068879D02*
X0133707Y0068879D01*
X0133697Y0068879D01*
X0141187Y0068879D02*
X0152063Y0068879D01*
X0160197Y0068879D02*
X0160331Y0068879D01*
X0160197Y0068879D02*
X0160197Y0051379D01*
X0160331Y0051379D01*
X0160197Y0051379D02*
X0160197Y0047679D01*
X0160976Y0046329D01*
X0160197Y0045879D01*
X0160976Y0046329D01*
X0160197Y0047679D01*
X0159417Y0046329D01*
X0160197Y0045879D01*
X0160976Y0046329D01*
X0160976Y0046329D01*
X0160976Y0046329D01*
X0160976Y0046329D01*
X0160197Y0047679D01*
X0160976Y0046329D01*
X0160976Y0046329D01*
X0160197Y0047679D01*
X0160197Y0047679D01*
X0160197Y0047679D01*
X0160197Y0045879D01*
X0159417Y0046329D01*
X0160197Y0047679D01*
X0159417Y0046329D01*
X0159417Y0046329D01*
X0160197Y0047679D01*
X0159417Y0046329D01*
X0159417Y0046329D01*
X0160197Y0045879D01*
X0159417Y0046329D02*
X0160197Y0047679D01*
X0160197Y0047679D01*
X0160197Y0047679D01*
X0159417Y0046329D01*
X0160197Y0047679D02*
X0160197Y0047679D01*
X0152063Y0051379D02*
X0141187Y0051379D01*
X0132947Y0045629D02*
X0124025Y0036708D01*
X0121197Y0033879D01*
X0092457Y0046379D02*
X0092457Y0053869D01*
X0089947Y0056379D01*
X0110697Y0056379D01*
X0111078Y0056389D01*
X0089947Y0056379D02*
X0061819Y0056379D01*
X0061197Y0056379D01*
X0058697Y0053879D01*
X0058697Y0083879D02*
X0062697Y0083879D01*
X0062697Y0083879D01*
X0065697Y0083879D01*
X0070947Y0089129D01*
X0071197Y0088879D01*
X0071207Y0088879D01*
X0070947Y0089129D02*
X0102197Y0120379D01*
X0102197Y0120879D01*
X0110697Y0118879D02*
X0110697Y0115379D01*
X0108197Y0112879D01*
X0108197Y0099379D01*
X0108368Y0099208D01*
X0108447Y0099129D01*
X0092457Y0101379D02*
X0088926Y0101379D01*
X0087846Y0100255D01*
X0087197Y0100879D01*
X0087413Y0101753D01*
X0088926Y0101379D01*
X0087697Y0101379D01*
X0087197Y0100879D01*
X0071207Y0108879D02*
X0063697Y0108879D01*
X0061525Y0106708D01*
X0058697Y0103879D01*
X0062697Y0131379D02*
X0062697Y0131379D01*
X0058697Y0151379D02*
X0061525Y0154208D01*
X0076197Y0168879D01*
X0084957Y0168879D01*
X0085197Y0168879D01*
X0085197Y0181379D01*
X0084957Y0181379D01*
X0092437Y0181379D02*
X0092697Y0181379D01*
X0092697Y0188879D01*
X0100697Y0196879D01*
X0100697Y0212379D01*
X0108697Y0220379D01*
X0210697Y0220379D01*
X0196197Y0215710D02*
X0196197Y0215379D01*
X0192457Y0207049D02*
X0192197Y0206879D01*
X0192197Y0205879D01*
X0180197Y0193879D01*
X0179937Y0193879D01*
X0172697Y0193879D02*
X0172457Y0193879D01*
X0172697Y0193879D02*
X0172697Y0184379D01*
X0160331Y0188879D02*
X0160197Y0188879D01*
X0160197Y0192079D01*
X0160197Y0192079D01*
X0160197Y0192079D01*
X0160976Y0193429D01*
X0160197Y0193879D01*
X0159417Y0193429D01*
X0160197Y0192079D01*
X0159417Y0193429D01*
X0160197Y0193879D01*
X0160976Y0193429D01*
X0160197Y0192079D01*
X0160976Y0193429D01*
X0160976Y0193429D01*
X0160197Y0192079D01*
X0160197Y0192079D01*
X0160197Y0192079D01*
X0160976Y0193429D01*
X0160976Y0193429D01*
X0160976Y0193429D01*
X0160197Y0192079D01*
X0160197Y0193879D01*
X0160976Y0193429D01*
X0160976Y0193429D01*
X0160197Y0192079D01*
X0159417Y0193429D01*
X0159417Y0193429D01*
X0160197Y0192079D01*
X0159417Y0193429D01*
X0160197Y0193879D01*
X0160976Y0194329D01*
X0160197Y0193879D01*
X0159417Y0194329D01*
X0160197Y0195679D01*
X0160976Y0194329D01*
X0160197Y0195679D01*
X0159417Y0194329D01*
X0160197Y0195679D01*
X0160976Y0194329D01*
X0160197Y0193879D01*
X0159417Y0194329D01*
X0159417Y0194329D01*
X0160197Y0195679D01*
X0160197Y0195679D01*
X0160197Y0195679D01*
X0160197Y0193879D01*
X0159417Y0194329D01*
X0160197Y0195679D01*
X0160976Y0194329D01*
X0160976Y0194329D01*
X0160976Y0194329D01*
X0160976Y0194329D01*
X0160976Y0194329D01*
X0160197Y0195679D01*
X0160197Y0195679D01*
X0159417Y0194329D01*
X0159417Y0194329D01*
X0160197Y0195679D01*
X0160197Y0195679D01*
X0160197Y0195679D01*
X0160197Y0206379D01*
X0160331Y0206379D01*
X0152063Y0206379D02*
X0141187Y0206379D01*
X0133707Y0206379D02*
X0133697Y0206379D01*
X0133707Y0206379D02*
X0133197Y0206379D01*
X0121197Y0206379D02*
X0121197Y0209879D01*
X0121197Y0209879D01*
X0121197Y0213879D01*
X0111197Y0213879D02*
X0111197Y0209879D01*
X0111197Y0201379D01*
X0111078Y0201369D01*
X0111078Y0193889D02*
X0110697Y0193879D01*
X0110697Y0192379D01*
X0108197Y0189879D01*
X0108197Y0174379D01*
X0108368Y0174208D01*
X0111197Y0171379D01*
X0121197Y0171379D02*
X0124025Y0174208D01*
X0133197Y0183379D01*
X0133197Y0184379D01*
X0141187Y0188879D02*
X0152063Y0188879D01*
X0159417Y0193429D02*
X0159417Y0193429D01*
X0160197Y0192079D01*
X0192457Y0193879D02*
X0192697Y0193879D01*
X0192697Y0180879D01*
X0192457Y0180710D01*
X0195697Y0176379D02*
X0199697Y0180379D01*
X0199937Y0180710D01*
X0228970Y0155152D02*
X0231197Y0157379D01*
X0231397Y0157679D01*
X0231697Y0157879D01*
X0240697Y0157879D01*
X0240997Y0157679D01*
X0241197Y0150379D02*
X0240997Y0150079D01*
X0241197Y0150379D02*
X0250697Y0150379D01*
X0251197Y0150139D01*
X0251197Y0150379D01*
X0263697Y0150379D01*
X0263697Y0150139D01*
X0263697Y0150379D02*
X0277197Y0150379D01*
X0277447Y0150139D01*
X0277447Y0157619D02*
X0277197Y0157879D01*
X0271697Y0157879D01*
X0267197Y0162379D01*
X0251197Y0150379D02*
X0250697Y0150879D01*
X0228970Y0155152D02*
X0228566Y0153646D01*
X0227697Y0153879D01*
X0227464Y0154749D01*
X0228970Y0155152D01*
X0227697Y0153879D01*
X0192457Y0132049D02*
X0192197Y0131879D01*
X0192197Y0130879D01*
X0196197Y0097049D02*
X0198366Y0094879D01*
X0313697Y0094879D01*
X0318697Y0099879D01*
X0318697Y0100139D01*
X0318697Y0100379D01*
X0325197Y0100379D01*
X0329947Y0105129D01*
X0329947Y0111153D01*
X0330173Y0111379D01*
X0329697Y0111379D01*
X0330173Y0121379D02*
X0320323Y0121379D01*
X0311822Y0112878D01*
X0311822Y0101379D01*
X0307322Y0096879D01*
X0218089Y0096879D01*
X0196197Y0096879D02*
X0196197Y0097049D01*
X0192457Y0069549D02*
X0192197Y0069379D01*
X0192197Y0068379D01*
X0180197Y0056379D01*
X0179937Y0056379D01*
X0172697Y0056379D02*
X0172457Y0056379D01*
X0172697Y0056379D02*
X0172697Y0042879D01*
X0192457Y0043210D02*
X0192697Y0043379D01*
X0192697Y0056379D01*
X0192457Y0056379D01*
X0199937Y0043210D02*
X0199697Y0042879D01*
X0195697Y0038879D01*
X0220197Y0049879D02*
X0221066Y0049646D01*
X0221470Y0051152D01*
X0219964Y0050749D01*
X0220197Y0049879D01*
X0221470Y0051152D01*
X0221697Y0051379D01*
X0224697Y0051379D01*
X0225147Y0051429D01*
X0225197Y0051879D01*
X0225197Y0058879D01*
X0224957Y0060129D01*
X0232437Y0060129D02*
X0234697Y0057869D01*
X0234697Y0052879D01*
X0244197Y0052879D01*
X0244957Y0052629D01*
X0244697Y0052879D01*
X0252437Y0052629D02*
X0262437Y0052629D01*
X0264947Y0050119D01*
X0265197Y0050379D01*
X0267197Y0052379D01*
X0278697Y0052379D01*
X0278707Y0052629D01*
X0267197Y0040379D02*
X0265197Y0042379D01*
X0264947Y0042639D01*
X0264697Y0042379D01*
X0262697Y0040379D01*
X0252697Y0040379D01*
X0252437Y0040129D01*
X0244957Y0040129D02*
X0244197Y0040379D01*
X0241197Y0043379D01*
X0235197Y0043379D01*
X0234747Y0043829D01*
X0234697Y0043379D01*
X0231697Y0043379D01*
X0224697Y0036379D01*
X0224957Y0036379D01*
X0225197Y0036379D01*
X0225197Y0026379D01*
X0224957Y0026379D01*
X0232437Y0026379D02*
X0232697Y0026379D01*
X0232697Y0031629D01*
X0235397Y0031629D01*
X0236747Y0032409D01*
X0237197Y0031629D01*
X0236747Y0030850D01*
X0235397Y0031629D01*
X0236747Y0030850D01*
X0237197Y0031629D01*
X0236747Y0032409D01*
X0235397Y0031629D01*
X0236747Y0030850D01*
X0236747Y0030850D01*
X0235397Y0031629D01*
X0235397Y0031629D01*
X0236747Y0030850D01*
X0235397Y0031629D01*
X0236747Y0032409D01*
X0236747Y0032409D01*
X0237197Y0031629D01*
X0236747Y0030850D01*
X0236747Y0030850D01*
X0235397Y0031629D01*
X0235397Y0031629D01*
X0235397Y0031629D01*
X0236747Y0032409D01*
X0236747Y0032409D01*
X0235397Y0031629D01*
X0236747Y0032409D01*
X0236747Y0032409D01*
X0236747Y0032409D01*
X0235397Y0031629D01*
X0235397Y0031629D01*
X0236747Y0032409D01*
X0237197Y0031629D02*
X0235397Y0031629D01*
X0235397Y0031629D01*
X0232697Y0031629D02*
X0232697Y0036379D01*
X0232437Y0036379D01*
X0244697Y0040379D02*
X0244957Y0040129D01*
X0234747Y0051429D02*
X0234697Y0051879D01*
X0234697Y0052879D01*
X0232697Y0058879D02*
X0232437Y0060129D01*
X0267197Y0040379D02*
X0278697Y0040379D01*
X0278707Y0040129D01*
X0318697Y0033379D02*
X0318697Y0032619D01*
X0278707Y0115129D02*
X0278697Y0115379D01*
X0320647Y0195600D02*
X0320197Y0196379D01*
X0320647Y0197159D01*
X0321997Y0196379D01*
X0320647Y0195600D01*
X0320197Y0196379D01*
X0320647Y0195600D01*
X0321997Y0196379D01*
X0320647Y0195600D01*
X0320647Y0195600D01*
X0321997Y0196379D01*
X0321997Y0196379D01*
X0321997Y0196379D01*
X0321997Y0196379D01*
X0321997Y0196379D01*
X0330173Y0196379D01*
X0321997Y0196379D02*
X0320647Y0197159D01*
X0320197Y0196379D01*
X0320647Y0197159D01*
X0320647Y0197159D01*
X0321997Y0196379D01*
X0320197Y0196379D01*
X0320647Y0195600D02*
X0320647Y0195600D01*
X0320647Y0197159D02*
X0320647Y0197159D01*
X0121197Y0134879D02*
X0121197Y0134879D01*
X0111078Y0118889D02*
X0110697Y0118879D01*
X0058697Y0161379D02*
X0055868Y0164208D01*
X0048697Y0171379D01*
X0048697Y0203179D01*
X0048697Y0206379D01*
X0058697Y0216279D02*
X0058697Y0216379D01*
X0060909Y0218591D01*
X0063697Y0221379D01*
X0084957Y0221379D01*
X0084957Y0208879D02*
X0084697Y0208879D01*
X0084697Y0196379D01*
X0084563Y0196379D01*
X0111197Y0209879D02*
X0111197Y0209879D01*
D33*
X0111197Y0209879D01*
X0113189Y0212057D01*
X0111197Y0213879D01*
X0109205Y0212057D01*
X0111197Y0209879D01*
X0109205Y0212057D01*
X0111197Y0213879D01*
X0113189Y0212057D01*
X0111197Y0209879D01*
X0111197Y0209879D01*
X0113189Y0212057D01*
X0113189Y0212057D01*
X0111197Y0209879D01*
X0111197Y0209879D01*
X0113189Y0212057D01*
X0111197Y0213879D01*
X0109205Y0212057D01*
X0109205Y0212057D01*
X0111197Y0209879D01*
X0113189Y0212057D01*
X0111197Y0209879D01*
X0109205Y0212057D01*
X0111197Y0213879D01*
X0113189Y0212057D02*
X0113189Y0212057D01*
X0111197Y0209879D02*
X0109205Y0212057D01*
X0111197Y0209879D01*
X0119205Y0212057D02*
X0121197Y0213879D01*
X0119205Y0212057D01*
X0121197Y0209879D01*
X0121197Y0209879D01*
X0123189Y0212057D01*
X0121197Y0213879D01*
X0123189Y0212057D01*
X0121197Y0209879D01*
X0119205Y0212057D01*
X0119205Y0212057D01*
X0121197Y0209879D01*
X0121197Y0209879D01*
X0123189Y0212057D01*
X0123189Y0212057D01*
X0121197Y0209879D01*
X0121197Y0209879D01*
X0123189Y0212057D01*
X0121197Y0213879D01*
X0119205Y0212057D01*
X0121197Y0213879D01*
X0123189Y0212057D02*
X0121197Y0209879D01*
X0123189Y0212057D01*
X0123189Y0212057D01*
X0121197Y0209879D02*
X0119205Y0212057D01*
X0121197Y0209879D01*
X0119205Y0212057D01*
X0121077Y0174077D02*
X0124025Y0174208D01*
X0123894Y0171259D01*
X0121197Y0171379D01*
X0121077Y0174077D01*
X0111317Y0174077D02*
X0111197Y0171379D01*
X0108500Y0171259D01*
X0108368Y0174208D01*
X0111317Y0174077D01*
X0111197Y0138879D02*
X0109205Y0137057D01*
X0111197Y0134879D01*
X0111197Y0134879D01*
X0113189Y0137057D01*
X0111197Y0138879D01*
X0113189Y0137057D01*
X0111197Y0134879D01*
X0109205Y0137057D01*
X0111197Y0138879D01*
X0109205Y0137057D01*
X0109205Y0137057D01*
X0111197Y0134879D01*
X0111197Y0134879D01*
X0113189Y0137057D01*
X0113189Y0137057D01*
X0111197Y0134879D01*
X0111197Y0134879D01*
X0113189Y0137057D01*
X0111197Y0138879D01*
X0109205Y0137057D01*
X0111197Y0134879D01*
X0113189Y0137057D01*
X0111197Y0134879D01*
X0109205Y0137057D01*
X0111197Y0134879D01*
X0113189Y0137057D02*
X0113189Y0137057D01*
X0119205Y0137057D02*
X0121197Y0138879D01*
X0119205Y0137057D01*
X0121197Y0134879D01*
X0121197Y0134879D01*
X0123189Y0137057D01*
X0121197Y0138879D01*
X0123189Y0137057D01*
X0121197Y0134879D01*
X0119205Y0137057D01*
X0119205Y0137057D01*
X0121197Y0134879D01*
X0121197Y0134879D01*
X0123189Y0137057D01*
X0123189Y0137057D01*
X0121197Y0134879D01*
X0121197Y0134879D01*
X0123189Y0137057D01*
X0121197Y0138879D01*
X0119205Y0137057D01*
X0121197Y0138879D01*
X0123189Y0137057D02*
X0121197Y0134879D01*
X0123189Y0137057D01*
X0123189Y0137057D01*
X0121197Y0134879D02*
X0119205Y0137057D01*
X0121197Y0134879D01*
X0119205Y0137057D01*
X0121077Y0099077D02*
X0121197Y0096379D01*
X0123894Y0096259D01*
X0124025Y0099208D01*
X0121077Y0099077D01*
X0111317Y0099077D02*
X0111197Y0096379D01*
X0110683Y0099030D01*
X0107785Y0098468D01*
X0108602Y0095632D01*
X0111197Y0096379D01*
X0108500Y0096259D01*
X0108368Y0099208D01*
X0111317Y0099077D01*
X0111197Y0076379D02*
X0109205Y0074557D01*
X0111197Y0072379D01*
X0111197Y0072379D01*
X0113189Y0074557D01*
X0111197Y0076379D01*
X0113189Y0074557D01*
X0111197Y0072379D01*
X0109205Y0074557D01*
X0111197Y0076379D01*
X0109205Y0074557D01*
X0109205Y0074557D01*
X0111197Y0072379D01*
X0111197Y0072379D01*
X0113189Y0074557D01*
X0113189Y0074557D01*
X0111197Y0072379D01*
X0111197Y0072379D01*
X0113189Y0074557D01*
X0111197Y0076379D01*
X0109205Y0074557D01*
X0111197Y0072379D01*
X0113189Y0074557D01*
X0111197Y0072379D01*
X0109205Y0074557D01*
X0111197Y0072379D01*
X0113189Y0074557D02*
X0113189Y0074557D01*
X0119205Y0074557D02*
X0121197Y0076379D01*
X0119205Y0074557D01*
X0121197Y0072379D01*
X0121197Y0072379D01*
X0123189Y0074557D01*
X0121197Y0076379D01*
X0123189Y0074557D01*
X0121197Y0072379D01*
X0119205Y0074557D01*
X0119205Y0074557D01*
X0121197Y0072379D01*
X0121197Y0072379D01*
X0123189Y0074557D01*
X0123189Y0074557D01*
X0121197Y0072379D01*
X0121197Y0072379D01*
X0123189Y0074557D01*
X0121197Y0076379D01*
X0119205Y0074557D01*
X0121197Y0076379D01*
X0123189Y0074557D02*
X0121197Y0072379D01*
X0123189Y0074557D01*
X0123189Y0074557D01*
X0121197Y0072379D02*
X0119205Y0074557D01*
X0121197Y0072379D01*
X0119205Y0074557D01*
X0121077Y0036577D02*
X0121197Y0033879D01*
X0123894Y0033759D01*
X0124025Y0036708D01*
X0121077Y0036577D01*
X0062697Y0063879D02*
X0060519Y0061887D01*
X0058697Y0063879D01*
X0060519Y0061887D01*
X0060519Y0061887D01*
X0062697Y0063879D01*
X0060519Y0065871D01*
X0058697Y0063879D01*
X0060519Y0065871D01*
X0062697Y0063879D01*
X0060519Y0061887D01*
X0058697Y0063879D01*
X0060519Y0065871D01*
X0060519Y0065871D01*
X0062697Y0063879D01*
X0062697Y0063879D01*
X0060519Y0065871D01*
X0060519Y0065871D01*
X0062697Y0063879D01*
X0060519Y0061887D01*
X0062697Y0063879D01*
X0062697Y0063879D01*
X0060519Y0065871D01*
X0062697Y0063879D01*
X0062697Y0063879D01*
X0060519Y0061887D01*
X0058697Y0063879D01*
X0060519Y0071887D02*
X0058697Y0073879D01*
X0060519Y0071887D01*
X0060519Y0071887D01*
X0062697Y0073879D01*
X0060519Y0071887D01*
X0058697Y0073879D01*
X0060519Y0075871D01*
X0058697Y0073879D01*
X0060519Y0075871D01*
X0062697Y0073879D01*
X0060519Y0075871D01*
X0060519Y0075871D01*
X0062697Y0073879D01*
X0060519Y0071887D01*
X0062697Y0073879D01*
X0062697Y0073879D01*
X0060519Y0075871D01*
X0060519Y0075871D01*
X0062697Y0073879D01*
X0060519Y0071887D01*
X0062697Y0073879D01*
X0062697Y0073879D01*
X0060519Y0075871D01*
X0062697Y0073879D01*
X0062697Y0073879D01*
X0060519Y0071887D02*
X0058697Y0073879D01*
X0060519Y0081887D02*
X0058697Y0083879D01*
X0060519Y0081887D01*
X0060519Y0081887D01*
X0062697Y0083879D01*
X0060519Y0081887D01*
X0058697Y0083879D01*
X0060519Y0085871D01*
X0058697Y0083879D01*
X0060519Y0085871D01*
X0062697Y0083879D01*
X0060519Y0085871D01*
X0060519Y0085871D01*
X0062697Y0083879D01*
X0060519Y0081887D01*
X0062697Y0083879D01*
X0062697Y0083879D01*
X0060519Y0085871D01*
X0060519Y0085871D01*
X0062697Y0083879D01*
X0060519Y0081887D01*
X0062697Y0083879D01*
X0062697Y0083879D01*
X0060519Y0085871D01*
X0062697Y0083879D01*
X0062697Y0083879D01*
X0060519Y0081887D02*
X0058697Y0083879D01*
X0058697Y0103879D02*
X0061394Y0103759D01*
X0061525Y0106708D01*
X0058577Y0106577D01*
X0058697Y0103879D01*
X0060519Y0129387D02*
X0058697Y0131379D01*
X0060519Y0129387D01*
X0060519Y0129387D01*
X0062697Y0131379D01*
X0060519Y0129387D01*
X0058697Y0131379D01*
X0060519Y0133371D01*
X0058697Y0131379D01*
X0060519Y0133371D01*
X0062697Y0131379D01*
X0060519Y0133371D01*
X0060519Y0133371D01*
X0062697Y0131379D01*
X0060519Y0129387D01*
X0062697Y0131379D01*
X0062697Y0131379D01*
X0060519Y0133371D01*
X0060519Y0133371D01*
X0062697Y0131379D01*
X0060519Y0129387D01*
X0062697Y0131379D01*
X0062697Y0131379D01*
X0060519Y0133371D01*
X0062697Y0131379D01*
X0062697Y0131379D01*
X0060519Y0129387D02*
X0058697Y0131379D01*
X0061365Y0140963D02*
X0058697Y0141379D01*
X0058874Y0144073D01*
X0061819Y0143879D01*
X0061365Y0140963D01*
X0061394Y0151259D02*
X0058697Y0151379D01*
X0058577Y0154077D01*
X0061525Y0154208D01*
X0061394Y0151259D01*
X0058697Y0161379D02*
X0056000Y0161259D01*
X0055868Y0164208D01*
X0058817Y0164077D01*
X0058697Y0161379D01*
X0048697Y0203179D02*
X0048697Y0203179D01*
X0050082Y0205579D01*
X0048697Y0206379D01*
X0047311Y0205579D01*
X0048697Y0203179D01*
X0048697Y0203179D01*
X0047311Y0205579D01*
X0048697Y0206379D01*
X0050082Y0205579D01*
X0048697Y0203179D01*
X0050082Y0205579D01*
X0050082Y0205579D01*
X0048697Y0206379D01*
X0047311Y0205579D01*
X0047311Y0205579D01*
X0048697Y0203179D01*
X0048697Y0203179D01*
X0050082Y0205579D01*
X0050082Y0205579D01*
X0050082Y0205579D01*
X0048697Y0206379D01*
X0047311Y0205579D01*
X0048697Y0203179D01*
X0048697Y0203179D01*
X0047311Y0205579D02*
X0047311Y0205579D01*
X0047311Y0205579D01*
X0047311Y0205579D01*
X0047311Y0205579D01*
X0047311Y0205579D01*
X0058697Y0216279D02*
X0060251Y0215899D01*
X0060909Y0218591D01*
X0058249Y0217815D01*
X0058697Y0216279D01*
X0171197Y0156379D02*
X0173019Y0154387D01*
X0171197Y0156379D01*
X0173019Y0158371D01*
X0171197Y0156379D01*
X0173019Y0154387D01*
X0173019Y0154387D01*
X0175197Y0156379D01*
X0173019Y0154387D01*
X0175197Y0156379D01*
X0173019Y0158371D01*
X0175197Y0156379D01*
X0173019Y0154387D01*
X0175197Y0156379D01*
X0175197Y0156379D01*
X0173019Y0158371D01*
X0171197Y0156379D01*
X0173019Y0154387D01*
X0175197Y0156379D01*
X0173019Y0158371D01*
X0173019Y0158371D01*
X0173019Y0158371D01*
X0175197Y0156379D01*
X0175197Y0156379D01*
X0173019Y0158371D01*
X0175197Y0156379D01*
X0175197Y0156379D01*
X0177197Y0156379D02*
X0177197Y0156379D01*
X0179374Y0158371D01*
X0181197Y0156379D01*
X0179374Y0158371D01*
X0179374Y0158371D01*
X0177197Y0156379D01*
X0179374Y0154387D01*
X0181197Y0156379D01*
X0179374Y0154387D01*
X0177197Y0156379D01*
X0179374Y0154387D01*
X0181197Y0156379D01*
X0179374Y0154387D01*
X0177197Y0156379D01*
X0177197Y0156379D01*
X0179374Y0158371D01*
X0177197Y0156379D01*
X0179374Y0154387D01*
X0177197Y0156379D01*
X0177197Y0156379D01*
X0179374Y0158371D01*
X0179374Y0158371D01*
X0181197Y0156379D01*
X0179374Y0154387D02*
X0179374Y0154387D01*
X0177197Y0156379D02*
X0179374Y0158371D01*
X0191077Y0159077D02*
X0191197Y0156379D01*
X0193894Y0156259D01*
X0194025Y0159208D01*
X0191077Y0159077D01*
X0061819Y0056379D02*
X0061365Y0053463D01*
X0058697Y0053879D01*
X0058874Y0056573D01*
X0061819Y0056379D01*
D34*
X0352220Y0057403D02*
X0352220Y0046379D01*
X0352220Y0041379D01*
X0352220Y0036379D01*
X0352220Y0057403D02*
X0393697Y0098879D01*
X0393776Y0099194D01*
X0393776Y0118879D02*
X0352197Y0118879D01*
X0352220Y0118903D01*
X0352220Y0126379D01*
X0352197Y0118879D02*
X0352197Y0116379D01*
X0352220Y0116379D01*
X0352197Y0116379D02*
X0352197Y0111379D01*
X0352220Y0111379D01*
X0393776Y0138564D02*
X0352220Y0180119D01*
X0352220Y0186379D01*
X0352220Y0191379D01*
X0352220Y0201379D01*
D35*
X0297197Y0193879D03*
X0301197Y0101379D03*
X0301197Y0070879D03*
D36*
X0330995Y0078787D02*
X0331197Y0081379D01*
X0333789Y0081581D01*
X0334025Y0078551D01*
X0330995Y0078787D01*
X0331197Y0081379D02*
X0333789Y0081177D01*
X0334025Y0084208D01*
X0330995Y0083971D01*
X0331197Y0081379D01*
X0349221Y0083069D02*
X0351197Y0081379D01*
X0353173Y0083069D01*
X0351197Y0085379D01*
X0349221Y0083069D01*
X0348368Y0153551D02*
X0348605Y0156581D01*
X0351197Y0156379D01*
X0351399Y0153787D01*
X0348368Y0153551D01*
X0333789Y0156177D02*
X0331197Y0156379D01*
X0330995Y0158971D01*
X0334025Y0159208D01*
X0333789Y0156177D01*
X0331197Y0227379D02*
X0329221Y0229689D01*
X0331197Y0231379D01*
X0333173Y0229689D01*
X0331197Y0227379D01*
X0331399Y0228787D02*
X0331197Y0231379D01*
X0328605Y0231581D01*
X0328368Y0228551D01*
X0331399Y0228787D01*
M02*
