G75*
%MOIN*%
%OFA0B0*%
%FSLAX25Y25*%
%IPPOS*%
%LPD*%
%AMOC8*
5,1,8,0,0,1.08239X$1,22.5*
%
%ADD10C,0.00000*%
%ADD11OC8,0.06300*%
%ADD12C,0.06300*%
%ADD13C,0.07050*%
%ADD14OC8,0.05200*%
%ADD15C,0.10000*%
%ADD16OC8,0.10000*%
%ADD17C,0.07400*%
%ADD18C,0.01200*%
%ADD19C,0.02800*%
%ADD20C,0.02400*%
%ADD21C,0.04000*%
%ADD22C,0.01000*%
%ADD23C,0.02000*%
%ADD24C,0.03600*%
%ADD25C,0.04800*%
D10*
X0031197Y0016379D02*
X0401197Y0016379D01*
X0401439Y0016382D01*
X0401680Y0016391D01*
X0401921Y0016405D01*
X0402162Y0016426D01*
X0402402Y0016452D01*
X0402642Y0016484D01*
X0402881Y0016522D01*
X0403118Y0016565D01*
X0403355Y0016615D01*
X0403590Y0016670D01*
X0403824Y0016730D01*
X0404056Y0016797D01*
X0404287Y0016868D01*
X0404516Y0016946D01*
X0404743Y0017029D01*
X0404968Y0017117D01*
X0405191Y0017211D01*
X0405411Y0017310D01*
X0405629Y0017415D01*
X0405844Y0017524D01*
X0406057Y0017639D01*
X0406267Y0017759D01*
X0406473Y0017884D01*
X0406677Y0018014D01*
X0406878Y0018149D01*
X0407075Y0018289D01*
X0407269Y0018433D01*
X0407459Y0018582D01*
X0407645Y0018736D01*
X0407828Y0018894D01*
X0408007Y0019056D01*
X0408182Y0019223D01*
X0408353Y0019394D01*
X0408520Y0019569D01*
X0408682Y0019748D01*
X0408840Y0019931D01*
X0408994Y0020117D01*
X0409143Y0020307D01*
X0409287Y0020501D01*
X0409427Y0020698D01*
X0409562Y0020899D01*
X0409692Y0021103D01*
X0409817Y0021309D01*
X0409937Y0021519D01*
X0410052Y0021732D01*
X0410161Y0021947D01*
X0410266Y0022165D01*
X0410365Y0022385D01*
X0410459Y0022608D01*
X0410547Y0022833D01*
X0410630Y0023060D01*
X0410708Y0023289D01*
X0410779Y0023520D01*
X0410846Y0023752D01*
X0410906Y0023986D01*
X0410961Y0024221D01*
X0411011Y0024458D01*
X0411054Y0024695D01*
X0411092Y0024934D01*
X0411124Y0025174D01*
X0411150Y0025414D01*
X0411171Y0025655D01*
X0411185Y0025896D01*
X0411194Y0026137D01*
X0411197Y0026379D01*
X0411197Y0253879D01*
X0411164Y0254090D01*
X0411127Y0254300D01*
X0411084Y0254510D01*
X0411036Y0254718D01*
X0410983Y0254925D01*
X0410925Y0255130D01*
X0410862Y0255334D01*
X0410794Y0255537D01*
X0410721Y0255738D01*
X0410644Y0255937D01*
X0410561Y0256134D01*
X0410474Y0256329D01*
X0410383Y0256522D01*
X0410286Y0256712D01*
X0410185Y0256901D01*
X0410080Y0257086D01*
X0409970Y0257270D01*
X0409856Y0257450D01*
X0409737Y0257628D01*
X0409614Y0257802D01*
X0409487Y0257974D01*
X0409356Y0258142D01*
X0409220Y0258308D01*
X0409081Y0258470D01*
X0408938Y0258628D01*
X0408791Y0258784D01*
X0408641Y0258935D01*
X0408487Y0259083D01*
X0408329Y0259227D01*
X0408168Y0259367D01*
X0408003Y0259503D01*
X0407835Y0259636D01*
X0407665Y0259764D01*
X0407491Y0259888D01*
X0407314Y0260008D01*
X0407134Y0260123D01*
X0406952Y0260234D01*
X0406767Y0260341D01*
X0406579Y0260443D01*
X0406389Y0260540D01*
X0406197Y0260633D01*
X0406002Y0260722D01*
X0405805Y0260805D01*
X0405607Y0260884D01*
X0405407Y0260958D01*
X0405204Y0261027D01*
X0405001Y0261091D01*
X0404795Y0261150D01*
X0404589Y0261205D01*
X0404381Y0261254D01*
X0404172Y0261298D01*
X0403962Y0261337D01*
X0403751Y0261371D01*
X0403540Y0261400D01*
X0403327Y0261424D01*
X0403115Y0261443D01*
X0402901Y0261456D01*
X0402688Y0261465D01*
X0402474Y0261468D01*
X0402261Y0261466D01*
X0402047Y0261459D01*
X0401834Y0261447D01*
X0401621Y0261429D01*
X0401409Y0261407D01*
X0401197Y0261379D01*
X0031197Y0261379D01*
X0030955Y0261376D01*
X0030714Y0261367D01*
X0030473Y0261353D01*
X0030232Y0261332D01*
X0029992Y0261306D01*
X0029752Y0261274D01*
X0029513Y0261236D01*
X0029276Y0261193D01*
X0029039Y0261143D01*
X0028804Y0261088D01*
X0028570Y0261028D01*
X0028338Y0260961D01*
X0028107Y0260890D01*
X0027878Y0260812D01*
X0027651Y0260729D01*
X0027426Y0260641D01*
X0027203Y0260547D01*
X0026983Y0260448D01*
X0026765Y0260343D01*
X0026550Y0260234D01*
X0026337Y0260119D01*
X0026127Y0259999D01*
X0025921Y0259874D01*
X0025717Y0259744D01*
X0025516Y0259609D01*
X0025319Y0259469D01*
X0025125Y0259325D01*
X0024935Y0259176D01*
X0024749Y0259022D01*
X0024566Y0258864D01*
X0024387Y0258702D01*
X0024212Y0258535D01*
X0024041Y0258364D01*
X0023874Y0258189D01*
X0023712Y0258010D01*
X0023554Y0257827D01*
X0023400Y0257641D01*
X0023251Y0257451D01*
X0023107Y0257257D01*
X0022967Y0257060D01*
X0022832Y0256859D01*
X0022702Y0256655D01*
X0022577Y0256449D01*
X0022457Y0256239D01*
X0022342Y0256026D01*
X0022233Y0255811D01*
X0022128Y0255593D01*
X0022029Y0255373D01*
X0021935Y0255150D01*
X0021847Y0254925D01*
X0021764Y0254698D01*
X0021686Y0254469D01*
X0021615Y0254238D01*
X0021548Y0254006D01*
X0021488Y0253772D01*
X0021433Y0253537D01*
X0021383Y0253300D01*
X0021340Y0253063D01*
X0021302Y0252824D01*
X0021270Y0252584D01*
X0021244Y0252344D01*
X0021223Y0252103D01*
X0021209Y0251862D01*
X0021200Y0251621D01*
X0021197Y0251379D01*
X0021197Y0028879D01*
X0021170Y0028603D01*
X0021149Y0028325D01*
X0021136Y0028048D01*
X0021129Y0027770D01*
X0021129Y0027492D01*
X0021136Y0027215D01*
X0021149Y0026937D01*
X0021170Y0026660D01*
X0021197Y0026384D01*
X0021231Y0026108D01*
X0021271Y0025833D01*
X0021319Y0025560D01*
X0021373Y0025287D01*
X0021434Y0025016D01*
X0021501Y0024746D01*
X0021575Y0024479D01*
X0021656Y0024213D01*
X0021743Y0023949D01*
X0021836Y0023687D01*
X0021936Y0023428D01*
X0022043Y0023172D01*
X0022155Y0022918D01*
X0022274Y0022666D01*
X0022399Y0022418D01*
X0022530Y0022173D01*
X0022666Y0021932D01*
X0022809Y0021693D01*
X0022958Y0021458D01*
X0023112Y0021227D01*
X0023272Y0021000D01*
X0023437Y0020777D01*
X0023608Y0020558D01*
X0023785Y0020343D01*
X0023966Y0020133D01*
X0024152Y0019927D01*
X0024344Y0019726D01*
X0024540Y0019529D01*
X0024742Y0019338D01*
X0024947Y0019151D01*
X0025158Y0018970D01*
X0025372Y0018793D01*
X0025591Y0018622D01*
X0025814Y0018457D01*
X0026042Y0018297D01*
X0026272Y0018142D01*
X0026507Y0017994D01*
X0026745Y0017851D01*
X0026987Y0017714D01*
X0027232Y0017583D01*
X0027480Y0017458D01*
X0027731Y0017339D01*
X0027985Y0017226D01*
X0028242Y0017120D01*
X0028501Y0017020D01*
X0028763Y0016926D01*
X0029026Y0016839D01*
X0029292Y0016759D01*
X0029560Y0016684D01*
X0029829Y0016617D01*
X0030100Y0016556D01*
X0030373Y0016502D01*
X0030647Y0016454D01*
X0030921Y0016413D01*
X0031197Y0016379D01*
X0026807Y0028879D02*
X0026809Y0029048D01*
X0026815Y0029217D01*
X0026826Y0029386D01*
X0026840Y0029554D01*
X0026859Y0029722D01*
X0026882Y0029890D01*
X0026908Y0030057D01*
X0026939Y0030223D01*
X0026974Y0030389D01*
X0027013Y0030553D01*
X0027057Y0030717D01*
X0027104Y0030879D01*
X0027155Y0031040D01*
X0027210Y0031200D01*
X0027269Y0031359D01*
X0027331Y0031516D01*
X0027398Y0031671D01*
X0027469Y0031825D01*
X0027543Y0031977D01*
X0027621Y0032127D01*
X0027702Y0032275D01*
X0027787Y0032421D01*
X0027876Y0032565D01*
X0027968Y0032707D01*
X0028064Y0032846D01*
X0028163Y0032983D01*
X0028265Y0033118D01*
X0028371Y0033250D01*
X0028480Y0033379D01*
X0028592Y0033506D01*
X0028707Y0033630D01*
X0028825Y0033751D01*
X0028946Y0033869D01*
X0029070Y0033984D01*
X0029197Y0034096D01*
X0029326Y0034205D01*
X0029458Y0034311D01*
X0029593Y0034413D01*
X0029730Y0034512D01*
X0029869Y0034608D01*
X0030011Y0034700D01*
X0030155Y0034789D01*
X0030301Y0034874D01*
X0030449Y0034955D01*
X0030599Y0035033D01*
X0030751Y0035107D01*
X0030905Y0035178D01*
X0031060Y0035245D01*
X0031217Y0035307D01*
X0031376Y0035366D01*
X0031536Y0035421D01*
X0031697Y0035472D01*
X0031859Y0035519D01*
X0032023Y0035563D01*
X0032187Y0035602D01*
X0032353Y0035637D01*
X0032519Y0035668D01*
X0032686Y0035694D01*
X0032854Y0035717D01*
X0033022Y0035736D01*
X0033190Y0035750D01*
X0033359Y0035761D01*
X0033528Y0035767D01*
X0033697Y0035769D01*
X0033866Y0035767D01*
X0034035Y0035761D01*
X0034204Y0035750D01*
X0034372Y0035736D01*
X0034540Y0035717D01*
X0034708Y0035694D01*
X0034875Y0035668D01*
X0035041Y0035637D01*
X0035207Y0035602D01*
X0035371Y0035563D01*
X0035535Y0035519D01*
X0035697Y0035472D01*
X0035858Y0035421D01*
X0036018Y0035366D01*
X0036177Y0035307D01*
X0036334Y0035245D01*
X0036489Y0035178D01*
X0036643Y0035107D01*
X0036795Y0035033D01*
X0036945Y0034955D01*
X0037093Y0034874D01*
X0037239Y0034789D01*
X0037383Y0034700D01*
X0037525Y0034608D01*
X0037664Y0034512D01*
X0037801Y0034413D01*
X0037936Y0034311D01*
X0038068Y0034205D01*
X0038197Y0034096D01*
X0038324Y0033984D01*
X0038448Y0033869D01*
X0038569Y0033751D01*
X0038687Y0033630D01*
X0038802Y0033506D01*
X0038914Y0033379D01*
X0039023Y0033250D01*
X0039129Y0033118D01*
X0039231Y0032983D01*
X0039330Y0032846D01*
X0039426Y0032707D01*
X0039518Y0032565D01*
X0039607Y0032421D01*
X0039692Y0032275D01*
X0039773Y0032127D01*
X0039851Y0031977D01*
X0039925Y0031825D01*
X0039996Y0031671D01*
X0040063Y0031516D01*
X0040125Y0031359D01*
X0040184Y0031200D01*
X0040239Y0031040D01*
X0040290Y0030879D01*
X0040337Y0030717D01*
X0040381Y0030553D01*
X0040420Y0030389D01*
X0040455Y0030223D01*
X0040486Y0030057D01*
X0040512Y0029890D01*
X0040535Y0029722D01*
X0040554Y0029554D01*
X0040568Y0029386D01*
X0040579Y0029217D01*
X0040585Y0029048D01*
X0040587Y0028879D01*
X0040585Y0028710D01*
X0040579Y0028541D01*
X0040568Y0028372D01*
X0040554Y0028204D01*
X0040535Y0028036D01*
X0040512Y0027868D01*
X0040486Y0027701D01*
X0040455Y0027535D01*
X0040420Y0027369D01*
X0040381Y0027205D01*
X0040337Y0027041D01*
X0040290Y0026879D01*
X0040239Y0026718D01*
X0040184Y0026558D01*
X0040125Y0026399D01*
X0040063Y0026242D01*
X0039996Y0026087D01*
X0039925Y0025933D01*
X0039851Y0025781D01*
X0039773Y0025631D01*
X0039692Y0025483D01*
X0039607Y0025337D01*
X0039518Y0025193D01*
X0039426Y0025051D01*
X0039330Y0024912D01*
X0039231Y0024775D01*
X0039129Y0024640D01*
X0039023Y0024508D01*
X0038914Y0024379D01*
X0038802Y0024252D01*
X0038687Y0024128D01*
X0038569Y0024007D01*
X0038448Y0023889D01*
X0038324Y0023774D01*
X0038197Y0023662D01*
X0038068Y0023553D01*
X0037936Y0023447D01*
X0037801Y0023345D01*
X0037664Y0023246D01*
X0037525Y0023150D01*
X0037383Y0023058D01*
X0037239Y0022969D01*
X0037093Y0022884D01*
X0036945Y0022803D01*
X0036795Y0022725D01*
X0036643Y0022651D01*
X0036489Y0022580D01*
X0036334Y0022513D01*
X0036177Y0022451D01*
X0036018Y0022392D01*
X0035858Y0022337D01*
X0035697Y0022286D01*
X0035535Y0022239D01*
X0035371Y0022195D01*
X0035207Y0022156D01*
X0035041Y0022121D01*
X0034875Y0022090D01*
X0034708Y0022064D01*
X0034540Y0022041D01*
X0034372Y0022022D01*
X0034204Y0022008D01*
X0034035Y0021997D01*
X0033866Y0021991D01*
X0033697Y0021989D01*
X0033528Y0021991D01*
X0033359Y0021997D01*
X0033190Y0022008D01*
X0033022Y0022022D01*
X0032854Y0022041D01*
X0032686Y0022064D01*
X0032519Y0022090D01*
X0032353Y0022121D01*
X0032187Y0022156D01*
X0032023Y0022195D01*
X0031859Y0022239D01*
X0031697Y0022286D01*
X0031536Y0022337D01*
X0031376Y0022392D01*
X0031217Y0022451D01*
X0031060Y0022513D01*
X0030905Y0022580D01*
X0030751Y0022651D01*
X0030599Y0022725D01*
X0030449Y0022803D01*
X0030301Y0022884D01*
X0030155Y0022969D01*
X0030011Y0023058D01*
X0029869Y0023150D01*
X0029730Y0023246D01*
X0029593Y0023345D01*
X0029458Y0023447D01*
X0029326Y0023553D01*
X0029197Y0023662D01*
X0029070Y0023774D01*
X0028946Y0023889D01*
X0028825Y0024007D01*
X0028707Y0024128D01*
X0028592Y0024252D01*
X0028480Y0024379D01*
X0028371Y0024508D01*
X0028265Y0024640D01*
X0028163Y0024775D01*
X0028064Y0024912D01*
X0027968Y0025051D01*
X0027876Y0025193D01*
X0027787Y0025337D01*
X0027702Y0025483D01*
X0027621Y0025631D01*
X0027543Y0025781D01*
X0027469Y0025933D01*
X0027398Y0026087D01*
X0027331Y0026242D01*
X0027269Y0026399D01*
X0027210Y0026558D01*
X0027155Y0026718D01*
X0027104Y0026879D01*
X0027057Y0027041D01*
X0027013Y0027205D01*
X0026974Y0027369D01*
X0026939Y0027535D01*
X0026908Y0027701D01*
X0026882Y0027868D01*
X0026859Y0028036D01*
X0026840Y0028204D01*
X0026826Y0028372D01*
X0026815Y0028541D01*
X0026809Y0028710D01*
X0026807Y0028879D01*
X0026807Y0248879D02*
X0026809Y0249048D01*
X0026815Y0249217D01*
X0026826Y0249386D01*
X0026840Y0249554D01*
X0026859Y0249722D01*
X0026882Y0249890D01*
X0026908Y0250057D01*
X0026939Y0250223D01*
X0026974Y0250389D01*
X0027013Y0250553D01*
X0027057Y0250717D01*
X0027104Y0250879D01*
X0027155Y0251040D01*
X0027210Y0251200D01*
X0027269Y0251359D01*
X0027331Y0251516D01*
X0027398Y0251671D01*
X0027469Y0251825D01*
X0027543Y0251977D01*
X0027621Y0252127D01*
X0027702Y0252275D01*
X0027787Y0252421D01*
X0027876Y0252565D01*
X0027968Y0252707D01*
X0028064Y0252846D01*
X0028163Y0252983D01*
X0028265Y0253118D01*
X0028371Y0253250D01*
X0028480Y0253379D01*
X0028592Y0253506D01*
X0028707Y0253630D01*
X0028825Y0253751D01*
X0028946Y0253869D01*
X0029070Y0253984D01*
X0029197Y0254096D01*
X0029326Y0254205D01*
X0029458Y0254311D01*
X0029593Y0254413D01*
X0029730Y0254512D01*
X0029869Y0254608D01*
X0030011Y0254700D01*
X0030155Y0254789D01*
X0030301Y0254874D01*
X0030449Y0254955D01*
X0030599Y0255033D01*
X0030751Y0255107D01*
X0030905Y0255178D01*
X0031060Y0255245D01*
X0031217Y0255307D01*
X0031376Y0255366D01*
X0031536Y0255421D01*
X0031697Y0255472D01*
X0031859Y0255519D01*
X0032023Y0255563D01*
X0032187Y0255602D01*
X0032353Y0255637D01*
X0032519Y0255668D01*
X0032686Y0255694D01*
X0032854Y0255717D01*
X0033022Y0255736D01*
X0033190Y0255750D01*
X0033359Y0255761D01*
X0033528Y0255767D01*
X0033697Y0255769D01*
X0033866Y0255767D01*
X0034035Y0255761D01*
X0034204Y0255750D01*
X0034372Y0255736D01*
X0034540Y0255717D01*
X0034708Y0255694D01*
X0034875Y0255668D01*
X0035041Y0255637D01*
X0035207Y0255602D01*
X0035371Y0255563D01*
X0035535Y0255519D01*
X0035697Y0255472D01*
X0035858Y0255421D01*
X0036018Y0255366D01*
X0036177Y0255307D01*
X0036334Y0255245D01*
X0036489Y0255178D01*
X0036643Y0255107D01*
X0036795Y0255033D01*
X0036945Y0254955D01*
X0037093Y0254874D01*
X0037239Y0254789D01*
X0037383Y0254700D01*
X0037525Y0254608D01*
X0037664Y0254512D01*
X0037801Y0254413D01*
X0037936Y0254311D01*
X0038068Y0254205D01*
X0038197Y0254096D01*
X0038324Y0253984D01*
X0038448Y0253869D01*
X0038569Y0253751D01*
X0038687Y0253630D01*
X0038802Y0253506D01*
X0038914Y0253379D01*
X0039023Y0253250D01*
X0039129Y0253118D01*
X0039231Y0252983D01*
X0039330Y0252846D01*
X0039426Y0252707D01*
X0039518Y0252565D01*
X0039607Y0252421D01*
X0039692Y0252275D01*
X0039773Y0252127D01*
X0039851Y0251977D01*
X0039925Y0251825D01*
X0039996Y0251671D01*
X0040063Y0251516D01*
X0040125Y0251359D01*
X0040184Y0251200D01*
X0040239Y0251040D01*
X0040290Y0250879D01*
X0040337Y0250717D01*
X0040381Y0250553D01*
X0040420Y0250389D01*
X0040455Y0250223D01*
X0040486Y0250057D01*
X0040512Y0249890D01*
X0040535Y0249722D01*
X0040554Y0249554D01*
X0040568Y0249386D01*
X0040579Y0249217D01*
X0040585Y0249048D01*
X0040587Y0248879D01*
X0040585Y0248710D01*
X0040579Y0248541D01*
X0040568Y0248372D01*
X0040554Y0248204D01*
X0040535Y0248036D01*
X0040512Y0247868D01*
X0040486Y0247701D01*
X0040455Y0247535D01*
X0040420Y0247369D01*
X0040381Y0247205D01*
X0040337Y0247041D01*
X0040290Y0246879D01*
X0040239Y0246718D01*
X0040184Y0246558D01*
X0040125Y0246399D01*
X0040063Y0246242D01*
X0039996Y0246087D01*
X0039925Y0245933D01*
X0039851Y0245781D01*
X0039773Y0245631D01*
X0039692Y0245483D01*
X0039607Y0245337D01*
X0039518Y0245193D01*
X0039426Y0245051D01*
X0039330Y0244912D01*
X0039231Y0244775D01*
X0039129Y0244640D01*
X0039023Y0244508D01*
X0038914Y0244379D01*
X0038802Y0244252D01*
X0038687Y0244128D01*
X0038569Y0244007D01*
X0038448Y0243889D01*
X0038324Y0243774D01*
X0038197Y0243662D01*
X0038068Y0243553D01*
X0037936Y0243447D01*
X0037801Y0243345D01*
X0037664Y0243246D01*
X0037525Y0243150D01*
X0037383Y0243058D01*
X0037239Y0242969D01*
X0037093Y0242884D01*
X0036945Y0242803D01*
X0036795Y0242725D01*
X0036643Y0242651D01*
X0036489Y0242580D01*
X0036334Y0242513D01*
X0036177Y0242451D01*
X0036018Y0242392D01*
X0035858Y0242337D01*
X0035697Y0242286D01*
X0035535Y0242239D01*
X0035371Y0242195D01*
X0035207Y0242156D01*
X0035041Y0242121D01*
X0034875Y0242090D01*
X0034708Y0242064D01*
X0034540Y0242041D01*
X0034372Y0242022D01*
X0034204Y0242008D01*
X0034035Y0241997D01*
X0033866Y0241991D01*
X0033697Y0241989D01*
X0033528Y0241991D01*
X0033359Y0241997D01*
X0033190Y0242008D01*
X0033022Y0242022D01*
X0032854Y0242041D01*
X0032686Y0242064D01*
X0032519Y0242090D01*
X0032353Y0242121D01*
X0032187Y0242156D01*
X0032023Y0242195D01*
X0031859Y0242239D01*
X0031697Y0242286D01*
X0031536Y0242337D01*
X0031376Y0242392D01*
X0031217Y0242451D01*
X0031060Y0242513D01*
X0030905Y0242580D01*
X0030751Y0242651D01*
X0030599Y0242725D01*
X0030449Y0242803D01*
X0030301Y0242884D01*
X0030155Y0242969D01*
X0030011Y0243058D01*
X0029869Y0243150D01*
X0029730Y0243246D01*
X0029593Y0243345D01*
X0029458Y0243447D01*
X0029326Y0243553D01*
X0029197Y0243662D01*
X0029070Y0243774D01*
X0028946Y0243889D01*
X0028825Y0244007D01*
X0028707Y0244128D01*
X0028592Y0244252D01*
X0028480Y0244379D01*
X0028371Y0244508D01*
X0028265Y0244640D01*
X0028163Y0244775D01*
X0028064Y0244912D01*
X0027968Y0245051D01*
X0027876Y0245193D01*
X0027787Y0245337D01*
X0027702Y0245483D01*
X0027621Y0245631D01*
X0027543Y0245781D01*
X0027469Y0245933D01*
X0027398Y0246087D01*
X0027331Y0246242D01*
X0027269Y0246399D01*
X0027210Y0246558D01*
X0027155Y0246718D01*
X0027104Y0246879D01*
X0027057Y0247041D01*
X0027013Y0247205D01*
X0026974Y0247369D01*
X0026939Y0247535D01*
X0026908Y0247701D01*
X0026882Y0247868D01*
X0026859Y0248036D01*
X0026840Y0248204D01*
X0026826Y0248372D01*
X0026815Y0248541D01*
X0026809Y0248710D01*
X0026807Y0248879D01*
X0391807Y0248879D02*
X0391809Y0249048D01*
X0391815Y0249217D01*
X0391826Y0249386D01*
X0391840Y0249554D01*
X0391859Y0249722D01*
X0391882Y0249890D01*
X0391908Y0250057D01*
X0391939Y0250223D01*
X0391974Y0250389D01*
X0392013Y0250553D01*
X0392057Y0250717D01*
X0392104Y0250879D01*
X0392155Y0251040D01*
X0392210Y0251200D01*
X0392269Y0251359D01*
X0392331Y0251516D01*
X0392398Y0251671D01*
X0392469Y0251825D01*
X0392543Y0251977D01*
X0392621Y0252127D01*
X0392702Y0252275D01*
X0392787Y0252421D01*
X0392876Y0252565D01*
X0392968Y0252707D01*
X0393064Y0252846D01*
X0393163Y0252983D01*
X0393265Y0253118D01*
X0393371Y0253250D01*
X0393480Y0253379D01*
X0393592Y0253506D01*
X0393707Y0253630D01*
X0393825Y0253751D01*
X0393946Y0253869D01*
X0394070Y0253984D01*
X0394197Y0254096D01*
X0394326Y0254205D01*
X0394458Y0254311D01*
X0394593Y0254413D01*
X0394730Y0254512D01*
X0394869Y0254608D01*
X0395011Y0254700D01*
X0395155Y0254789D01*
X0395301Y0254874D01*
X0395449Y0254955D01*
X0395599Y0255033D01*
X0395751Y0255107D01*
X0395905Y0255178D01*
X0396060Y0255245D01*
X0396217Y0255307D01*
X0396376Y0255366D01*
X0396536Y0255421D01*
X0396697Y0255472D01*
X0396859Y0255519D01*
X0397023Y0255563D01*
X0397187Y0255602D01*
X0397353Y0255637D01*
X0397519Y0255668D01*
X0397686Y0255694D01*
X0397854Y0255717D01*
X0398022Y0255736D01*
X0398190Y0255750D01*
X0398359Y0255761D01*
X0398528Y0255767D01*
X0398697Y0255769D01*
X0398866Y0255767D01*
X0399035Y0255761D01*
X0399204Y0255750D01*
X0399372Y0255736D01*
X0399540Y0255717D01*
X0399708Y0255694D01*
X0399875Y0255668D01*
X0400041Y0255637D01*
X0400207Y0255602D01*
X0400371Y0255563D01*
X0400535Y0255519D01*
X0400697Y0255472D01*
X0400858Y0255421D01*
X0401018Y0255366D01*
X0401177Y0255307D01*
X0401334Y0255245D01*
X0401489Y0255178D01*
X0401643Y0255107D01*
X0401795Y0255033D01*
X0401945Y0254955D01*
X0402093Y0254874D01*
X0402239Y0254789D01*
X0402383Y0254700D01*
X0402525Y0254608D01*
X0402664Y0254512D01*
X0402801Y0254413D01*
X0402936Y0254311D01*
X0403068Y0254205D01*
X0403197Y0254096D01*
X0403324Y0253984D01*
X0403448Y0253869D01*
X0403569Y0253751D01*
X0403687Y0253630D01*
X0403802Y0253506D01*
X0403914Y0253379D01*
X0404023Y0253250D01*
X0404129Y0253118D01*
X0404231Y0252983D01*
X0404330Y0252846D01*
X0404426Y0252707D01*
X0404518Y0252565D01*
X0404607Y0252421D01*
X0404692Y0252275D01*
X0404773Y0252127D01*
X0404851Y0251977D01*
X0404925Y0251825D01*
X0404996Y0251671D01*
X0405063Y0251516D01*
X0405125Y0251359D01*
X0405184Y0251200D01*
X0405239Y0251040D01*
X0405290Y0250879D01*
X0405337Y0250717D01*
X0405381Y0250553D01*
X0405420Y0250389D01*
X0405455Y0250223D01*
X0405486Y0250057D01*
X0405512Y0249890D01*
X0405535Y0249722D01*
X0405554Y0249554D01*
X0405568Y0249386D01*
X0405579Y0249217D01*
X0405585Y0249048D01*
X0405587Y0248879D01*
X0405585Y0248710D01*
X0405579Y0248541D01*
X0405568Y0248372D01*
X0405554Y0248204D01*
X0405535Y0248036D01*
X0405512Y0247868D01*
X0405486Y0247701D01*
X0405455Y0247535D01*
X0405420Y0247369D01*
X0405381Y0247205D01*
X0405337Y0247041D01*
X0405290Y0246879D01*
X0405239Y0246718D01*
X0405184Y0246558D01*
X0405125Y0246399D01*
X0405063Y0246242D01*
X0404996Y0246087D01*
X0404925Y0245933D01*
X0404851Y0245781D01*
X0404773Y0245631D01*
X0404692Y0245483D01*
X0404607Y0245337D01*
X0404518Y0245193D01*
X0404426Y0245051D01*
X0404330Y0244912D01*
X0404231Y0244775D01*
X0404129Y0244640D01*
X0404023Y0244508D01*
X0403914Y0244379D01*
X0403802Y0244252D01*
X0403687Y0244128D01*
X0403569Y0244007D01*
X0403448Y0243889D01*
X0403324Y0243774D01*
X0403197Y0243662D01*
X0403068Y0243553D01*
X0402936Y0243447D01*
X0402801Y0243345D01*
X0402664Y0243246D01*
X0402525Y0243150D01*
X0402383Y0243058D01*
X0402239Y0242969D01*
X0402093Y0242884D01*
X0401945Y0242803D01*
X0401795Y0242725D01*
X0401643Y0242651D01*
X0401489Y0242580D01*
X0401334Y0242513D01*
X0401177Y0242451D01*
X0401018Y0242392D01*
X0400858Y0242337D01*
X0400697Y0242286D01*
X0400535Y0242239D01*
X0400371Y0242195D01*
X0400207Y0242156D01*
X0400041Y0242121D01*
X0399875Y0242090D01*
X0399708Y0242064D01*
X0399540Y0242041D01*
X0399372Y0242022D01*
X0399204Y0242008D01*
X0399035Y0241997D01*
X0398866Y0241991D01*
X0398697Y0241989D01*
X0398528Y0241991D01*
X0398359Y0241997D01*
X0398190Y0242008D01*
X0398022Y0242022D01*
X0397854Y0242041D01*
X0397686Y0242064D01*
X0397519Y0242090D01*
X0397353Y0242121D01*
X0397187Y0242156D01*
X0397023Y0242195D01*
X0396859Y0242239D01*
X0396697Y0242286D01*
X0396536Y0242337D01*
X0396376Y0242392D01*
X0396217Y0242451D01*
X0396060Y0242513D01*
X0395905Y0242580D01*
X0395751Y0242651D01*
X0395599Y0242725D01*
X0395449Y0242803D01*
X0395301Y0242884D01*
X0395155Y0242969D01*
X0395011Y0243058D01*
X0394869Y0243150D01*
X0394730Y0243246D01*
X0394593Y0243345D01*
X0394458Y0243447D01*
X0394326Y0243553D01*
X0394197Y0243662D01*
X0394070Y0243774D01*
X0393946Y0243889D01*
X0393825Y0244007D01*
X0393707Y0244128D01*
X0393592Y0244252D01*
X0393480Y0244379D01*
X0393371Y0244508D01*
X0393265Y0244640D01*
X0393163Y0244775D01*
X0393064Y0244912D01*
X0392968Y0245051D01*
X0392876Y0245193D01*
X0392787Y0245337D01*
X0392702Y0245483D01*
X0392621Y0245631D01*
X0392543Y0245781D01*
X0392469Y0245933D01*
X0392398Y0246087D01*
X0392331Y0246242D01*
X0392269Y0246399D01*
X0392210Y0246558D01*
X0392155Y0246718D01*
X0392104Y0246879D01*
X0392057Y0247041D01*
X0392013Y0247205D01*
X0391974Y0247369D01*
X0391939Y0247535D01*
X0391908Y0247701D01*
X0391882Y0247868D01*
X0391859Y0248036D01*
X0391840Y0248204D01*
X0391826Y0248372D01*
X0391815Y0248541D01*
X0391809Y0248710D01*
X0391807Y0248879D01*
X0391807Y0028879D02*
X0391809Y0029048D01*
X0391815Y0029217D01*
X0391826Y0029386D01*
X0391840Y0029554D01*
X0391859Y0029722D01*
X0391882Y0029890D01*
X0391908Y0030057D01*
X0391939Y0030223D01*
X0391974Y0030389D01*
X0392013Y0030553D01*
X0392057Y0030717D01*
X0392104Y0030879D01*
X0392155Y0031040D01*
X0392210Y0031200D01*
X0392269Y0031359D01*
X0392331Y0031516D01*
X0392398Y0031671D01*
X0392469Y0031825D01*
X0392543Y0031977D01*
X0392621Y0032127D01*
X0392702Y0032275D01*
X0392787Y0032421D01*
X0392876Y0032565D01*
X0392968Y0032707D01*
X0393064Y0032846D01*
X0393163Y0032983D01*
X0393265Y0033118D01*
X0393371Y0033250D01*
X0393480Y0033379D01*
X0393592Y0033506D01*
X0393707Y0033630D01*
X0393825Y0033751D01*
X0393946Y0033869D01*
X0394070Y0033984D01*
X0394197Y0034096D01*
X0394326Y0034205D01*
X0394458Y0034311D01*
X0394593Y0034413D01*
X0394730Y0034512D01*
X0394869Y0034608D01*
X0395011Y0034700D01*
X0395155Y0034789D01*
X0395301Y0034874D01*
X0395449Y0034955D01*
X0395599Y0035033D01*
X0395751Y0035107D01*
X0395905Y0035178D01*
X0396060Y0035245D01*
X0396217Y0035307D01*
X0396376Y0035366D01*
X0396536Y0035421D01*
X0396697Y0035472D01*
X0396859Y0035519D01*
X0397023Y0035563D01*
X0397187Y0035602D01*
X0397353Y0035637D01*
X0397519Y0035668D01*
X0397686Y0035694D01*
X0397854Y0035717D01*
X0398022Y0035736D01*
X0398190Y0035750D01*
X0398359Y0035761D01*
X0398528Y0035767D01*
X0398697Y0035769D01*
X0398866Y0035767D01*
X0399035Y0035761D01*
X0399204Y0035750D01*
X0399372Y0035736D01*
X0399540Y0035717D01*
X0399708Y0035694D01*
X0399875Y0035668D01*
X0400041Y0035637D01*
X0400207Y0035602D01*
X0400371Y0035563D01*
X0400535Y0035519D01*
X0400697Y0035472D01*
X0400858Y0035421D01*
X0401018Y0035366D01*
X0401177Y0035307D01*
X0401334Y0035245D01*
X0401489Y0035178D01*
X0401643Y0035107D01*
X0401795Y0035033D01*
X0401945Y0034955D01*
X0402093Y0034874D01*
X0402239Y0034789D01*
X0402383Y0034700D01*
X0402525Y0034608D01*
X0402664Y0034512D01*
X0402801Y0034413D01*
X0402936Y0034311D01*
X0403068Y0034205D01*
X0403197Y0034096D01*
X0403324Y0033984D01*
X0403448Y0033869D01*
X0403569Y0033751D01*
X0403687Y0033630D01*
X0403802Y0033506D01*
X0403914Y0033379D01*
X0404023Y0033250D01*
X0404129Y0033118D01*
X0404231Y0032983D01*
X0404330Y0032846D01*
X0404426Y0032707D01*
X0404518Y0032565D01*
X0404607Y0032421D01*
X0404692Y0032275D01*
X0404773Y0032127D01*
X0404851Y0031977D01*
X0404925Y0031825D01*
X0404996Y0031671D01*
X0405063Y0031516D01*
X0405125Y0031359D01*
X0405184Y0031200D01*
X0405239Y0031040D01*
X0405290Y0030879D01*
X0405337Y0030717D01*
X0405381Y0030553D01*
X0405420Y0030389D01*
X0405455Y0030223D01*
X0405486Y0030057D01*
X0405512Y0029890D01*
X0405535Y0029722D01*
X0405554Y0029554D01*
X0405568Y0029386D01*
X0405579Y0029217D01*
X0405585Y0029048D01*
X0405587Y0028879D01*
X0405585Y0028710D01*
X0405579Y0028541D01*
X0405568Y0028372D01*
X0405554Y0028204D01*
X0405535Y0028036D01*
X0405512Y0027868D01*
X0405486Y0027701D01*
X0405455Y0027535D01*
X0405420Y0027369D01*
X0405381Y0027205D01*
X0405337Y0027041D01*
X0405290Y0026879D01*
X0405239Y0026718D01*
X0405184Y0026558D01*
X0405125Y0026399D01*
X0405063Y0026242D01*
X0404996Y0026087D01*
X0404925Y0025933D01*
X0404851Y0025781D01*
X0404773Y0025631D01*
X0404692Y0025483D01*
X0404607Y0025337D01*
X0404518Y0025193D01*
X0404426Y0025051D01*
X0404330Y0024912D01*
X0404231Y0024775D01*
X0404129Y0024640D01*
X0404023Y0024508D01*
X0403914Y0024379D01*
X0403802Y0024252D01*
X0403687Y0024128D01*
X0403569Y0024007D01*
X0403448Y0023889D01*
X0403324Y0023774D01*
X0403197Y0023662D01*
X0403068Y0023553D01*
X0402936Y0023447D01*
X0402801Y0023345D01*
X0402664Y0023246D01*
X0402525Y0023150D01*
X0402383Y0023058D01*
X0402239Y0022969D01*
X0402093Y0022884D01*
X0401945Y0022803D01*
X0401795Y0022725D01*
X0401643Y0022651D01*
X0401489Y0022580D01*
X0401334Y0022513D01*
X0401177Y0022451D01*
X0401018Y0022392D01*
X0400858Y0022337D01*
X0400697Y0022286D01*
X0400535Y0022239D01*
X0400371Y0022195D01*
X0400207Y0022156D01*
X0400041Y0022121D01*
X0399875Y0022090D01*
X0399708Y0022064D01*
X0399540Y0022041D01*
X0399372Y0022022D01*
X0399204Y0022008D01*
X0399035Y0021997D01*
X0398866Y0021991D01*
X0398697Y0021989D01*
X0398528Y0021991D01*
X0398359Y0021997D01*
X0398190Y0022008D01*
X0398022Y0022022D01*
X0397854Y0022041D01*
X0397686Y0022064D01*
X0397519Y0022090D01*
X0397353Y0022121D01*
X0397187Y0022156D01*
X0397023Y0022195D01*
X0396859Y0022239D01*
X0396697Y0022286D01*
X0396536Y0022337D01*
X0396376Y0022392D01*
X0396217Y0022451D01*
X0396060Y0022513D01*
X0395905Y0022580D01*
X0395751Y0022651D01*
X0395599Y0022725D01*
X0395449Y0022803D01*
X0395301Y0022884D01*
X0395155Y0022969D01*
X0395011Y0023058D01*
X0394869Y0023150D01*
X0394730Y0023246D01*
X0394593Y0023345D01*
X0394458Y0023447D01*
X0394326Y0023553D01*
X0394197Y0023662D01*
X0394070Y0023774D01*
X0393946Y0023889D01*
X0393825Y0024007D01*
X0393707Y0024128D01*
X0393592Y0024252D01*
X0393480Y0024379D01*
X0393371Y0024508D01*
X0393265Y0024640D01*
X0393163Y0024775D01*
X0393064Y0024912D01*
X0392968Y0025051D01*
X0392876Y0025193D01*
X0392787Y0025337D01*
X0392702Y0025483D01*
X0392621Y0025631D01*
X0392543Y0025781D01*
X0392469Y0025933D01*
X0392398Y0026087D01*
X0392331Y0026242D01*
X0392269Y0026399D01*
X0392210Y0026558D01*
X0392155Y0026718D01*
X0392104Y0026879D01*
X0392057Y0027041D01*
X0392013Y0027205D01*
X0391974Y0027369D01*
X0391939Y0027535D01*
X0391908Y0027701D01*
X0391882Y0027868D01*
X0391859Y0028036D01*
X0391840Y0028204D01*
X0391826Y0028372D01*
X0391815Y0028541D01*
X0391809Y0028710D01*
X0391807Y0028879D01*
D11*
X0158697Y0233879D03*
X0283614Y0243801D03*
D12*
X0283614Y0233801D03*
X0158697Y0243879D03*
D13*
X0390172Y0211379D02*
X0397222Y0211379D01*
X0397222Y0191379D02*
X0390172Y0191379D01*
X0390251Y0138564D02*
X0397301Y0138564D01*
X0397301Y0118879D02*
X0390251Y0118879D01*
X0390251Y0099194D02*
X0397301Y0099194D01*
D14*
X0058697Y0196479D03*
X0048697Y0206379D03*
X0058697Y0216279D03*
D15*
X0331197Y0231379D03*
X0331197Y0156379D03*
X0331197Y0081379D03*
D16*
X0351197Y0081379D03*
X0351197Y0156379D03*
X0351197Y0231379D03*
D17*
X0308697Y0223879D03*
X0308697Y0243879D03*
X0201197Y0156379D03*
X0191197Y0156379D03*
X0181197Y0156379D03*
X0171197Y0156379D03*
X0144947Y0173879D03*
X0121197Y0171379D03*
X0111197Y0171379D03*
X0111197Y0138879D03*
X0121197Y0138879D03*
X0121197Y0096379D03*
X0111197Y0096379D03*
X0111197Y0076379D03*
X0121197Y0076379D03*
X0121197Y0033879D03*
X0111197Y0033879D03*
X0141197Y0033879D03*
X0151197Y0033879D03*
X0183697Y0087629D03*
X0058697Y0083879D03*
X0058697Y0073879D03*
X0058697Y0063879D03*
X0058697Y0053879D03*
X0058697Y0093879D03*
X0058697Y0103879D03*
X0058697Y0131379D03*
X0058697Y0141379D03*
X0058697Y0151379D03*
X0058697Y0161379D03*
X0058697Y0171379D03*
X0111197Y0213879D03*
X0121197Y0213879D03*
X0058697Y0233879D03*
X0058697Y0243879D03*
D18*
X0058697Y0233879D02*
X0058697Y0229879D01*
X0058697Y0229879D01*
X0058697Y0226379D01*
X0073197Y0211879D01*
X0073197Y0211379D01*
X0060751Y0198933D01*
X0060696Y0196436D01*
X0058697Y0196479D01*
X0058302Y0198440D01*
X0060751Y0198933D01*
X0058697Y0196879D01*
X0058697Y0196479D01*
X0073197Y0211379D02*
X0102397Y0211379D01*
X0103841Y0212096D01*
X0104197Y0211379D01*
X0104913Y0211735D01*
X0104197Y0213179D01*
X0104913Y0211735D01*
X0104197Y0211379D01*
X0103480Y0211735D01*
X0103480Y0211735D01*
X0104197Y0213179D01*
X0103480Y0211735D01*
X0103480Y0211735D01*
X0104197Y0213179D01*
X0104197Y0213179D01*
X0104913Y0211735D01*
X0104197Y0213179D01*
X0104197Y0213179D01*
X0103480Y0211735D01*
X0103480Y0211735D01*
X0104197Y0213179D01*
X0104197Y0211379D01*
X0103480Y0211735D01*
X0103480Y0211735D01*
X0104197Y0213179D01*
X0104913Y0211735D01*
X0104913Y0211735D01*
X0104913Y0211735D01*
X0104913Y0211735D01*
X0104913Y0211735D01*
X0104197Y0211379D02*
X0103480Y0211735D01*
X0103480Y0211735D01*
X0104197Y0211379D01*
X0103841Y0212096D01*
X0103841Y0212096D01*
X0102397Y0211379D01*
X0103841Y0210663D01*
X0104197Y0211379D01*
X0103841Y0210663D01*
X0102397Y0211379D01*
X0103841Y0210663D01*
X0103841Y0210663D01*
X0103841Y0210663D01*
X0104197Y0211379D01*
X0103841Y0210663D01*
X0102397Y0211379D01*
X0102397Y0211379D01*
X0103841Y0210663D01*
X0103841Y0210663D01*
X0103841Y0210663D01*
X0102397Y0211379D01*
X0103841Y0212096D01*
X0103841Y0212096D01*
X0102397Y0211379D01*
X0103841Y0210663D01*
X0102397Y0211379D01*
X0102397Y0211379D01*
X0102397Y0211379D01*
X0102397Y0211379D01*
X0103841Y0212096D01*
X0103841Y0212096D01*
X0103841Y0212096D01*
X0103480Y0211735D02*
X0104197Y0213179D01*
X0104197Y0213179D01*
X0103480Y0211735D01*
X0103480Y0211735D01*
X0103480Y0211735D01*
X0103480Y0211735D01*
X0104197Y0211379D02*
X0102397Y0211379D01*
X0102397Y0211379D01*
X0103841Y0210663D02*
X0103841Y0210663D01*
X0103841Y0210663D01*
X0103841Y0210663D01*
X0103841Y0210663D01*
X0104197Y0213179D02*
X0104197Y0213179D01*
X0104197Y0213179D01*
X0104197Y0214879D01*
X0108697Y0219379D01*
X0123697Y0219379D01*
X0126697Y0216379D01*
X0126697Y0211379D01*
X0112697Y0197379D01*
X0112697Y0191679D01*
X0113413Y0190235D01*
X0112697Y0189879D01*
X0111980Y0190235D01*
X0111980Y0190235D01*
X0112697Y0191679D01*
X0111980Y0190235D01*
X0111980Y0190235D01*
X0112697Y0191679D01*
X0112697Y0191679D01*
X0113413Y0190235D01*
X0112697Y0191679D01*
X0112697Y0191679D01*
X0111980Y0190235D01*
X0111980Y0190235D01*
X0112697Y0191679D01*
X0112697Y0189879D01*
X0113413Y0190235D01*
X0112697Y0191679D01*
X0111980Y0190235D01*
X0112697Y0189879D01*
X0111980Y0190235D01*
X0111980Y0190235D01*
X0111980Y0190235D01*
X0112697Y0189879D01*
X0113413Y0190235D02*
X0113413Y0190235D01*
X0112697Y0191679D01*
X0112697Y0191679D01*
X0111980Y0190235D01*
X0111980Y0190235D01*
X0112697Y0191679D01*
X0112697Y0191679D01*
X0112697Y0191679D01*
X0113413Y0190235D02*
X0113413Y0190235D01*
X0113413Y0190235D01*
X0113413Y0190235D01*
X0111980Y0190235D02*
X0111980Y0190235D01*
X0111980Y0190235D01*
X0128697Y0200579D02*
X0128697Y0200579D01*
X0128697Y0200579D01*
X0128697Y0200579D01*
X0128697Y0173879D01*
X0140947Y0173879D01*
X0140947Y0173879D01*
X0144947Y0173879D01*
X0128697Y0173879D02*
X0128697Y0138379D01*
X0124197Y0133879D01*
X0124197Y0105679D01*
X0124913Y0104235D01*
X0124197Y0103879D01*
X0123480Y0104235D01*
X0123480Y0104235D01*
X0124197Y0105679D01*
X0123480Y0104235D01*
X0123480Y0104235D01*
X0124197Y0105679D01*
X0124197Y0105679D01*
X0124913Y0104235D01*
X0124197Y0105679D01*
X0124197Y0105679D01*
X0123480Y0104235D01*
X0123480Y0104235D01*
X0124197Y0105679D01*
X0124197Y0103879D01*
X0124913Y0104235D01*
X0124197Y0105679D01*
X0123480Y0104235D01*
X0124197Y0103879D01*
X0123480Y0104235D01*
X0123480Y0104235D01*
X0123480Y0104235D01*
X0124197Y0103879D01*
X0123942Y0103121D01*
X0125470Y0102606D01*
X0124955Y0104135D01*
X0124197Y0103879D01*
X0125470Y0102606D01*
X0126697Y0101379D01*
X0126697Y0064679D01*
X0127413Y0063235D01*
X0126697Y0062879D01*
X0125980Y0063235D01*
X0125980Y0063235D01*
X0126697Y0064679D01*
X0125980Y0063235D01*
X0125980Y0063235D01*
X0126697Y0064679D01*
X0126697Y0064679D01*
X0127413Y0063235D01*
X0126697Y0064679D01*
X0126697Y0064679D01*
X0125980Y0063235D01*
X0125980Y0063235D01*
X0126697Y0064679D01*
X0126697Y0062879D01*
X0127413Y0063235D01*
X0126697Y0064679D01*
X0125980Y0063235D01*
X0126697Y0062879D01*
X0125980Y0063235D01*
X0125980Y0063235D01*
X0125980Y0063235D01*
X0126697Y0062879D01*
X0127413Y0063235D02*
X0127413Y0063235D01*
X0126697Y0064679D01*
X0126697Y0064679D01*
X0125980Y0063235D01*
X0125980Y0063235D01*
X0126697Y0064679D01*
X0126697Y0064679D01*
X0126697Y0064679D01*
X0127413Y0063235D02*
X0127413Y0063235D01*
X0127413Y0063235D01*
X0127413Y0063235D01*
X0125980Y0063235D02*
X0125980Y0063235D01*
X0125980Y0063235D01*
X0116913Y0062024D02*
X0116197Y0060579D01*
X0116197Y0060579D01*
X0116197Y0060579D01*
X0116197Y0058879D01*
X0138368Y0036708D01*
X0141197Y0033879D01*
X0141697Y0033879D01*
X0144264Y0031312D01*
X0147197Y0028379D01*
X0153697Y0028379D01*
X0176197Y0050879D01*
X0194397Y0050879D01*
X0195841Y0051596D01*
X0196197Y0050879D01*
X0195841Y0051596D01*
X0195841Y0051596D01*
X0194397Y0050879D01*
X0195841Y0050163D01*
X0196197Y0050879D01*
X0195841Y0050163D01*
X0194397Y0050879D01*
X0195841Y0050163D01*
X0195841Y0050163D01*
X0195841Y0050163D01*
X0196197Y0050879D01*
X0195841Y0050163D01*
X0194397Y0050879D01*
X0194397Y0050879D01*
X0195841Y0050163D01*
X0195841Y0050163D01*
X0195841Y0050163D01*
X0194397Y0050879D01*
X0195841Y0051596D01*
X0195841Y0051596D01*
X0194397Y0050879D01*
X0195841Y0050163D01*
X0194397Y0050879D01*
X0194397Y0050879D01*
X0194397Y0050879D01*
X0194397Y0050879D01*
X0195841Y0051596D01*
X0195841Y0051596D01*
X0195841Y0051596D01*
X0195798Y0051572D02*
X0195798Y0051572D01*
X0196197Y0050879D01*
X0196990Y0050778D01*
X0197195Y0052377D01*
X0195798Y0051572D01*
X0197195Y0052377D01*
X0196990Y0050778D01*
X0196197Y0050879D01*
X0196197Y0051379D01*
X0197195Y0052377D01*
X0197195Y0052377D01*
X0199697Y0054879D01*
X0199697Y0087629D01*
X0187697Y0087629D01*
X0187697Y0087629D01*
X0183697Y0087629D01*
X0199697Y0087629D02*
X0199697Y0109579D01*
X0199697Y0109579D01*
X0199697Y0109579D01*
X0198980Y0111024D01*
X0199697Y0111379D01*
X0200413Y0111735D01*
X0199697Y0113179D01*
X0200413Y0111735D01*
X0199697Y0111379D01*
X0198980Y0111735D01*
X0198980Y0111735D01*
X0199697Y0113179D01*
X0198980Y0111735D01*
X0198980Y0111735D01*
X0199697Y0113179D01*
X0199697Y0113179D01*
X0200413Y0111735D01*
X0199697Y0113179D01*
X0199697Y0113179D01*
X0198980Y0111735D01*
X0198980Y0111735D01*
X0199697Y0113179D01*
X0199697Y0111379D01*
X0198980Y0111735D01*
X0198980Y0111735D01*
X0199697Y0113179D01*
X0200413Y0111735D01*
X0200413Y0111735D01*
X0200413Y0111735D01*
X0200413Y0111735D01*
X0200413Y0111735D01*
X0200413Y0111024D02*
X0199697Y0111379D01*
X0198980Y0111735D01*
X0198980Y0111735D01*
X0199697Y0111379D01*
X0198980Y0111024D01*
X0199697Y0109579D01*
X0200413Y0111024D01*
X0199697Y0109579D01*
X0198980Y0111024D01*
X0198980Y0111024D01*
X0198980Y0111024D01*
X0198980Y0111024D01*
X0198980Y0111024D01*
X0199697Y0111379D01*
X0200413Y0111024D01*
X0200413Y0111024D01*
X0200413Y0111024D01*
X0200413Y0111024D01*
X0199697Y0109579D01*
X0199697Y0109579D01*
X0200413Y0111024D01*
X0199697Y0109579D01*
X0199697Y0109579D01*
X0199697Y0111379D01*
X0200413Y0111024D02*
X0200413Y0111024D01*
X0200413Y0111024D01*
X0198980Y0111024D02*
X0199697Y0109579D01*
X0198980Y0111024D01*
X0198980Y0111024D01*
X0198980Y0111735D02*
X0198980Y0111735D01*
X0198980Y0111735D01*
X0199697Y0113179D01*
X0199697Y0113179D01*
X0198980Y0111735D01*
X0198980Y0111735D01*
X0199697Y0113179D02*
X0199697Y0113179D01*
X0199697Y0113179D01*
X0199697Y0116879D01*
X0165697Y0150879D01*
X0165697Y0177379D01*
X0190197Y0201879D01*
X0190197Y0202379D01*
X0160960Y0231616D01*
X0158697Y0233879D01*
X0153697Y0234879D02*
X0153697Y0238879D01*
X0156434Y0241616D01*
X0158697Y0243879D01*
X0161197Y0248879D02*
X0156197Y0248879D01*
X0142697Y0235379D01*
X0131997Y0235379D01*
X0130552Y0234663D01*
X0130197Y0235379D01*
X0130552Y0234663D01*
X0131997Y0235379D01*
X0130552Y0236096D01*
X0130197Y0235379D01*
X0130552Y0234663D01*
X0130552Y0234663D01*
X0130552Y0234663D01*
X0131997Y0235379D01*
X0131997Y0235379D01*
X0130552Y0234663D01*
X0130552Y0234663D01*
X0130552Y0234663D01*
X0131997Y0235379D01*
X0131997Y0235379D01*
X0131997Y0235379D01*
X0130552Y0236096D01*
X0130552Y0236096D01*
X0131997Y0235379D01*
X0131997Y0235379D01*
X0130552Y0236096D01*
X0130552Y0236096D01*
X0130552Y0236096D01*
X0130552Y0236096D01*
X0130197Y0235379D01*
X0131997Y0235379D01*
X0130552Y0236096D01*
X0130552Y0236096D01*
X0130552Y0234663D02*
X0130552Y0234663D01*
X0130552Y0242163D02*
X0130197Y0242879D01*
X0130552Y0243596D01*
X0131997Y0242879D01*
X0130552Y0242163D01*
X0130197Y0242879D01*
X0130552Y0242163D01*
X0131997Y0242879D01*
X0131997Y0242879D01*
X0130552Y0242163D01*
X0130552Y0242163D01*
X0130552Y0242163D01*
X0131997Y0242879D01*
X0131997Y0242879D01*
X0131997Y0242879D01*
X0130552Y0242163D01*
X0130552Y0242163D01*
X0130552Y0242163D01*
X0130552Y0242163D01*
X0130197Y0242879D02*
X0130552Y0243596D01*
X0130552Y0243596D01*
X0131997Y0242879D01*
X0130552Y0243596D01*
X0130552Y0243596D01*
X0130552Y0243596D01*
X0130552Y0243596D01*
X0131997Y0242879D01*
X0131997Y0242879D01*
X0146697Y0242879D01*
X0155197Y0251379D01*
X0162197Y0251379D01*
X0209697Y0203879D01*
X0209697Y0200379D01*
X0218424Y0191652D01*
X0219952Y0191137D01*
X0219697Y0190379D01*
X0218939Y0190124D01*
X0218424Y0191652D01*
X0219697Y0190379D01*
X0208913Y0193024D02*
X0208197Y0191579D01*
X0208197Y0191579D01*
X0208197Y0191579D01*
X0208197Y0167679D01*
X0208913Y0166235D01*
X0208197Y0165879D01*
X0207480Y0166235D01*
X0207480Y0166235D01*
X0208197Y0167679D01*
X0207480Y0166235D01*
X0207480Y0166235D01*
X0208197Y0167679D01*
X0208197Y0167679D01*
X0208913Y0166235D01*
X0208197Y0167679D01*
X0208197Y0167679D01*
X0207480Y0166235D01*
X0207480Y0166235D01*
X0208197Y0167679D01*
X0208197Y0165879D01*
X0208913Y0166235D01*
X0208197Y0167679D01*
X0207480Y0166235D01*
X0208197Y0165879D01*
X0207480Y0166235D01*
X0207480Y0166235D01*
X0207480Y0166235D01*
X0208197Y0165879D01*
X0207480Y0165524D01*
X0208197Y0164079D01*
X0208197Y0164079D01*
X0208197Y0164079D01*
X0208197Y0159608D01*
X0209287Y0158420D01*
X0208697Y0157879D01*
X0207910Y0158022D01*
X0208197Y0159608D01*
X0208197Y0157879D01*
X0208697Y0157879D01*
X0207910Y0157737D01*
X0208197Y0156150D01*
X0209287Y0157339D01*
X0208697Y0157879D01*
X0208197Y0157879D02*
X0208197Y0156150D01*
X0208197Y0146879D01*
X0224897Y0146879D01*
X0226341Y0147596D01*
X0226697Y0146879D01*
X0226341Y0147596D01*
X0226341Y0147596D01*
X0224897Y0146879D01*
X0226341Y0146163D01*
X0226697Y0146879D01*
X0226341Y0146163D01*
X0224897Y0146879D01*
X0226341Y0146163D01*
X0226697Y0146879D01*
X0226341Y0146163D01*
X0224897Y0146879D01*
X0226341Y0146163D01*
X0226341Y0146163D01*
X0226341Y0146163D01*
X0226697Y0146879D01*
X0224897Y0146879D01*
X0224897Y0146879D01*
X0226341Y0147596D01*
X0226341Y0147596D01*
X0224897Y0146879D01*
X0226341Y0146163D01*
X0226341Y0146163D01*
X0224897Y0146879D01*
X0224897Y0146879D01*
X0224897Y0146879D01*
X0226341Y0147596D01*
X0224897Y0146879D01*
X0224897Y0146879D01*
X0226341Y0147596D01*
X0226341Y0147596D01*
X0226341Y0147596D01*
X0226341Y0146163D02*
X0226341Y0146163D01*
X0226341Y0146163D01*
X0226341Y0146163D01*
X0226341Y0146163D01*
X0226341Y0146163D01*
X0224897Y0146879D02*
X0224897Y0146879D01*
X0208197Y0146879D02*
X0208197Y0133379D01*
X0218199Y0123377D01*
X0219596Y0122572D01*
X0219197Y0121879D01*
X0219596Y0122572D01*
X0219596Y0122572D01*
X0218199Y0123377D01*
X0218403Y0121778D01*
X0219197Y0121879D01*
X0218403Y0121778D01*
X0218199Y0123377D01*
X0218199Y0123377D01*
X0219197Y0122379D01*
X0219197Y0121879D01*
X0218439Y0122135D01*
X0217924Y0120606D01*
X0219452Y0121121D01*
X0219197Y0121879D01*
X0217924Y0120606D01*
X0214697Y0117379D01*
X0214697Y0077679D01*
X0215413Y0076235D01*
X0214697Y0075879D01*
X0214760Y0075082D01*
X0216367Y0075209D01*
X0215294Y0076412D01*
X0214697Y0075879D01*
X0213980Y0076235D01*
X0213980Y0076235D01*
X0214697Y0077679D01*
X0213980Y0076235D01*
X0213980Y0076235D01*
X0214697Y0077679D01*
X0214697Y0077679D01*
X0215413Y0076235D01*
X0214697Y0077679D01*
X0214697Y0077679D01*
X0213980Y0076235D01*
X0213980Y0076235D01*
X0214697Y0077679D01*
X0214697Y0075879D01*
X0215413Y0076235D01*
X0214697Y0077679D01*
X0213980Y0076235D01*
X0214697Y0075879D01*
X0213980Y0076235D01*
X0213980Y0076235D01*
X0213980Y0076235D01*
X0214697Y0075879D01*
X0215697Y0075879D01*
X0216367Y0075209D01*
X0229197Y0062379D01*
X0229197Y0049679D01*
X0229913Y0048235D01*
X0229197Y0047879D01*
X0228480Y0048235D01*
X0229197Y0047879D01*
X0229913Y0048235D01*
X0229197Y0049679D01*
X0228480Y0048235D01*
X0229197Y0049679D01*
X0229197Y0049679D01*
X0229913Y0048235D01*
X0229197Y0049679D01*
X0229197Y0049679D01*
X0229197Y0047879D01*
X0228480Y0048235D01*
X0228480Y0048235D01*
X0229197Y0049679D01*
X0228480Y0048235D01*
X0228480Y0048235D01*
X0228480Y0048235D01*
X0228480Y0048235D01*
X0229197Y0049679D01*
X0229913Y0048235D01*
X0229913Y0048235D01*
X0229913Y0048235D01*
X0229197Y0049679D01*
X0229197Y0049679D01*
X0229913Y0048235D01*
X0229913Y0048235D01*
X0229913Y0048235D01*
X0229197Y0047879D02*
X0228480Y0048235D01*
X0229197Y0049679D01*
X0229197Y0049679D01*
X0228480Y0048235D01*
X0228480Y0048235D01*
X0229197Y0047879D01*
X0228480Y0048235D02*
X0228480Y0048235D01*
X0228480Y0048235D01*
X0228480Y0048235D01*
X0229197Y0049679D02*
X0229197Y0049679D01*
X0204913Y0051235D02*
X0204913Y0051235D01*
X0204197Y0050879D01*
X0203480Y0051235D01*
X0203480Y0051235D01*
X0204197Y0052679D01*
X0204913Y0051235D01*
X0204197Y0052679D01*
X0203480Y0051235D01*
X0203480Y0051235D01*
X0204197Y0052679D01*
X0204197Y0052679D01*
X0204913Y0051235D01*
X0204197Y0050879D01*
X0203480Y0051235D01*
X0203480Y0051235D01*
X0204197Y0052679D01*
X0204197Y0052679D01*
X0203480Y0051235D01*
X0203480Y0051235D01*
X0204197Y0052679D01*
X0204197Y0050879D01*
X0203480Y0051235D01*
X0203480Y0051235D01*
X0204197Y0050879D01*
X0204913Y0051235D02*
X0204913Y0051235D01*
X0204197Y0052679D01*
X0204913Y0051235D01*
X0204913Y0051235D01*
X0204913Y0051235D01*
X0203480Y0051235D02*
X0203480Y0051235D01*
X0204197Y0052679D01*
X0204197Y0052679D01*
X0203480Y0051235D01*
X0203480Y0051235D01*
X0203480Y0051235D01*
X0204197Y0052679D02*
X0204197Y0052679D01*
X0204197Y0052679D01*
X0204197Y0117879D01*
X0205897Y0117879D01*
X0207341Y0118596D01*
X0207697Y0117879D01*
X0207341Y0118596D01*
X0207341Y0118596D01*
X0205897Y0117879D01*
X0207341Y0117163D01*
X0207697Y0117879D01*
X0207341Y0117163D01*
X0205897Y0117879D01*
X0207341Y0117163D01*
X0207341Y0117163D01*
X0207341Y0117163D01*
X0207697Y0117879D01*
X0207341Y0117163D01*
X0205897Y0117879D01*
X0205897Y0117879D01*
X0207341Y0117163D01*
X0207341Y0117163D01*
X0207341Y0117163D01*
X0205897Y0117879D01*
X0207341Y0118596D01*
X0207341Y0118596D01*
X0205897Y0117879D01*
X0207341Y0117163D01*
X0205897Y0117879D01*
X0205897Y0117879D01*
X0205897Y0117879D01*
X0205897Y0117879D01*
X0207341Y0118596D01*
X0207341Y0118596D01*
X0207341Y0118596D01*
X0207697Y0117879D02*
X0205897Y0117879D01*
X0205897Y0117879D01*
X0207341Y0117163D02*
X0207341Y0117163D01*
X0207341Y0117163D01*
X0207341Y0117163D01*
X0207341Y0117163D01*
X0204197Y0117879D02*
X0204197Y0153379D01*
X0204025Y0153551D01*
X0201197Y0156379D01*
X0201197Y0156879D01*
X0203764Y0159447D01*
X0204697Y0160379D01*
X0204697Y0179579D01*
X0204697Y0179579D01*
X0204697Y0179579D01*
X0203980Y0181024D01*
X0204697Y0181379D01*
X0205413Y0181024D01*
X0204697Y0179579D01*
X0205413Y0181024D01*
X0205413Y0181024D01*
X0205413Y0181024D01*
X0205413Y0181024D01*
X0204697Y0179579D01*
X0203980Y0181024D01*
X0204697Y0179579D01*
X0204697Y0179579D01*
X0205413Y0181024D01*
X0204697Y0181379D01*
X0203980Y0181024D01*
X0203980Y0181024D01*
X0203980Y0181024D01*
X0203980Y0181024D01*
X0203980Y0181024D01*
X0204697Y0181379D01*
X0204697Y0179579D01*
X0204697Y0179579D01*
X0203980Y0181024D01*
X0203980Y0181024D01*
X0204697Y0179579D01*
X0205413Y0181024D01*
X0205413Y0181024D01*
X0205413Y0181024D01*
X0208197Y0191579D02*
X0208197Y0191579D01*
X0207480Y0193024D01*
X0208197Y0193379D01*
X0208596Y0194072D01*
X0208197Y0193379D01*
X0207403Y0193278D01*
X0207199Y0194877D01*
X0208596Y0194072D01*
X0208596Y0194072D01*
X0207199Y0194877D01*
X0207403Y0193278D01*
X0207403Y0193278D01*
X0208197Y0193379D01*
X0208913Y0193024D01*
X0208197Y0191579D01*
X0207480Y0193024D01*
X0208197Y0191579D01*
X0208913Y0193024D01*
X0208913Y0193024D01*
X0208913Y0193024D01*
X0208913Y0193024D01*
X0208197Y0193379D01*
X0207480Y0193024D01*
X0207480Y0193024D01*
X0207480Y0193024D01*
X0207480Y0193024D01*
X0207480Y0193024D01*
X0208197Y0193379D01*
X0208197Y0193879D01*
X0207199Y0194877D01*
X0207199Y0194877D01*
X0207197Y0194879D01*
X0207197Y0202879D01*
X0161197Y0248879D01*
X0153697Y0234879D02*
X0128697Y0209879D01*
X0128697Y0204179D01*
X0129413Y0202735D01*
X0128697Y0202379D01*
X0127980Y0202024D01*
X0128697Y0200579D01*
X0127980Y0202024D01*
X0128697Y0202379D01*
X0129413Y0202024D01*
X0128697Y0200579D01*
X0129413Y0202024D01*
X0129413Y0202024D01*
X0129413Y0202024D01*
X0129413Y0202024D01*
X0128697Y0200579D01*
X0127980Y0202024D01*
X0127980Y0202024D01*
X0127980Y0202024D01*
X0127980Y0202024D01*
X0127980Y0202024D01*
X0128697Y0202379D01*
X0127980Y0202735D01*
X0127980Y0202735D01*
X0128697Y0204179D01*
X0127980Y0202735D01*
X0127980Y0202735D01*
X0128697Y0204179D01*
X0128697Y0204179D01*
X0129413Y0202735D01*
X0128697Y0204179D01*
X0128697Y0204179D01*
X0127980Y0202735D01*
X0127980Y0202735D01*
X0128697Y0204179D01*
X0128697Y0202379D01*
X0129413Y0202735D01*
X0128697Y0204179D01*
X0127980Y0202735D01*
X0128697Y0202379D01*
X0127980Y0202735D01*
X0127980Y0202735D01*
X0127980Y0202735D01*
X0128697Y0202379D01*
X0129413Y0202024D01*
X0128697Y0200579D01*
X0128697Y0200579D01*
X0128697Y0202379D01*
X0129413Y0202024D02*
X0128697Y0200579D01*
X0127980Y0202024D01*
X0127980Y0202024D01*
X0128697Y0200579D01*
X0129413Y0202024D02*
X0129413Y0202024D01*
X0129413Y0202024D01*
X0129413Y0202735D02*
X0129413Y0202735D01*
X0128697Y0204179D01*
X0128697Y0204179D01*
X0127980Y0202735D01*
X0127980Y0202735D01*
X0128697Y0204179D01*
X0128697Y0204179D01*
X0128697Y0204179D01*
X0129413Y0202735D02*
X0129413Y0202735D01*
X0129413Y0202735D01*
X0129413Y0202735D01*
X0127980Y0202735D02*
X0127980Y0202735D01*
X0127980Y0202735D01*
X0130197Y0242879D02*
X0131997Y0242879D01*
X0130552Y0243596D01*
X0130552Y0243596D01*
X0190197Y0202379D02*
X0194397Y0202379D01*
X0195841Y0203096D01*
X0196197Y0202379D01*
X0195841Y0203096D01*
X0195841Y0203096D01*
X0194397Y0202379D01*
X0195841Y0201663D01*
X0196197Y0202379D01*
X0195841Y0201663D01*
X0194397Y0202379D01*
X0195841Y0201663D01*
X0195841Y0201663D01*
X0195841Y0201663D01*
X0196197Y0202379D01*
X0195841Y0201663D01*
X0194397Y0202379D01*
X0194397Y0202379D01*
X0195841Y0201663D01*
X0195841Y0201663D01*
X0195841Y0201663D01*
X0194397Y0202379D01*
X0195841Y0203096D01*
X0195841Y0203096D01*
X0194397Y0202379D01*
X0195841Y0201663D01*
X0194397Y0202379D01*
X0194397Y0202379D01*
X0194397Y0202379D01*
X0194397Y0202379D01*
X0195841Y0203096D01*
X0195841Y0203096D01*
X0195841Y0203096D01*
X0196197Y0202379D02*
X0194397Y0202379D01*
X0194397Y0202379D01*
X0195841Y0201663D02*
X0195841Y0201663D01*
X0195841Y0201663D01*
X0195841Y0201663D01*
X0195841Y0201663D01*
X0207480Y0193024D02*
X0207480Y0193024D01*
X0208197Y0191579D01*
X0208913Y0193024D01*
X0208197Y0191579D01*
X0208197Y0191579D01*
X0208197Y0193379D01*
X0208913Y0193024D02*
X0208913Y0193024D01*
X0208913Y0193024D01*
X0207480Y0193024D02*
X0208197Y0191579D01*
X0208197Y0167679D02*
X0208197Y0167679D01*
X0208913Y0166235D01*
X0208913Y0166235D01*
X0208913Y0166235D01*
X0208913Y0166235D01*
X0208913Y0166235D01*
X0208913Y0165524D02*
X0208197Y0165879D01*
X0207480Y0165524D01*
X0208197Y0164079D01*
X0208913Y0165524D01*
X0208197Y0164079D01*
X0207480Y0165524D01*
X0207480Y0165524D01*
X0207480Y0165524D01*
X0207480Y0165524D01*
X0207480Y0165524D01*
X0208197Y0165879D01*
X0208913Y0165524D01*
X0208913Y0165524D01*
X0208913Y0165524D01*
X0208913Y0165524D01*
X0208197Y0164079D01*
X0208197Y0164079D01*
X0208913Y0165524D01*
X0208197Y0164079D01*
X0208197Y0164079D01*
X0208197Y0165879D01*
X0208913Y0165524D02*
X0208913Y0165524D01*
X0208913Y0165524D01*
X0207480Y0165524D02*
X0207480Y0165524D01*
X0208197Y0164079D01*
X0207480Y0165524D01*
X0207480Y0166235D02*
X0207480Y0166235D01*
X0207480Y0166235D01*
X0208197Y0167679D01*
X0207480Y0166235D01*
X0207480Y0166235D01*
X0208197Y0167679D02*
X0208197Y0167679D01*
X0208197Y0167679D01*
X0218403Y0121778D02*
X0218403Y0121778D01*
X0214697Y0077679D02*
X0214697Y0077679D01*
X0215413Y0076235D01*
X0215413Y0076235D01*
X0215413Y0076235D01*
X0215413Y0076235D01*
X0215413Y0076235D01*
X0213980Y0076235D02*
X0213980Y0076235D01*
X0214697Y0077679D01*
X0214697Y0077679D01*
X0213980Y0076235D01*
X0213980Y0076235D01*
X0213980Y0076235D01*
X0214697Y0077679D02*
X0214697Y0077679D01*
X0196197Y0050879D02*
X0194397Y0050879D01*
X0194397Y0050879D01*
X0195841Y0050163D02*
X0195841Y0050163D01*
X0195841Y0050163D01*
X0195841Y0050163D01*
X0195841Y0050163D01*
X0124913Y0104235D02*
X0124913Y0104235D01*
X0124913Y0104235D01*
X0124197Y0105679D01*
X0124197Y0105679D01*
X0123480Y0104235D01*
X0123480Y0104235D01*
X0124197Y0105679D01*
X0124197Y0105679D01*
X0124197Y0105679D01*
X0124913Y0104235D02*
X0124913Y0104235D01*
X0124913Y0104235D01*
X0123480Y0104235D02*
X0123480Y0104235D01*
X0123480Y0104235D01*
X0112197Y0102879D02*
X0111841Y0103596D01*
X0112197Y0102879D01*
X0111841Y0102163D01*
X0112197Y0102879D01*
X0111841Y0102163D01*
X0110397Y0102879D01*
X0111841Y0103596D01*
X0111841Y0103596D01*
X0110397Y0102879D01*
X0111841Y0102163D01*
X0111841Y0102163D01*
X0111841Y0102163D01*
X0110397Y0102879D01*
X0110397Y0102879D01*
X0111841Y0102163D01*
X0112197Y0102879D01*
X0110397Y0102879D01*
X0111841Y0103596D01*
X0111841Y0103596D01*
X0110397Y0102879D01*
X0111841Y0102163D01*
X0110397Y0102879D01*
X0111841Y0102163D01*
X0111841Y0102163D01*
X0111841Y0102163D01*
X0110397Y0102879D01*
X0110397Y0102879D01*
X0110397Y0102879D01*
X0110397Y0102879D01*
X0111841Y0103596D01*
X0111841Y0103596D01*
X0111841Y0103596D01*
X0111841Y0102163D02*
X0111841Y0102163D01*
X0111841Y0102163D01*
X0111841Y0102163D01*
X0111841Y0102163D01*
X0110397Y0102879D02*
X0110397Y0102879D01*
X0105697Y0102879D01*
X0105697Y0118079D01*
X0105697Y0118079D01*
X0105697Y0118079D01*
X0104980Y0119524D01*
X0105697Y0119879D01*
X0106413Y0119524D01*
X0105697Y0118079D01*
X0106413Y0119524D01*
X0106413Y0119524D01*
X0106413Y0119524D01*
X0106413Y0119524D01*
X0105697Y0118079D01*
X0104980Y0119524D01*
X0105697Y0118079D01*
X0105697Y0118079D01*
X0106413Y0119524D01*
X0105697Y0119879D01*
X0104980Y0119524D01*
X0104980Y0119524D01*
X0104980Y0119524D01*
X0104980Y0119524D01*
X0104980Y0119524D01*
X0105697Y0119879D01*
X0105697Y0118079D01*
X0105697Y0118079D01*
X0104980Y0119524D01*
X0104980Y0119524D01*
X0105697Y0118079D01*
X0106413Y0119524D01*
X0106413Y0119524D01*
X0106413Y0119524D01*
X0105697Y0102879D02*
X0105697Y0081108D01*
X0105984Y0079522D01*
X0105197Y0079379D01*
X0104607Y0079920D01*
X0105697Y0081108D01*
X0105697Y0079379D01*
X0105197Y0079379D01*
X0104607Y0078839D01*
X0105697Y0077650D01*
X0105984Y0079237D01*
X0105197Y0079379D01*
X0105697Y0079379D02*
X0105697Y0077650D01*
X0105697Y0073379D01*
X0115199Y0063877D01*
X0116596Y0063072D01*
X0116197Y0062379D01*
X0116596Y0063072D01*
X0116596Y0063072D01*
X0115199Y0063877D01*
X0115403Y0062278D01*
X0116197Y0062379D01*
X0115403Y0062278D01*
X0115199Y0063877D01*
X0115199Y0063877D01*
X0116197Y0062879D01*
X0116197Y0062379D01*
X0115480Y0062024D01*
X0116197Y0060579D01*
X0115480Y0062024D01*
X0116197Y0062379D01*
X0116913Y0062024D01*
X0116197Y0060579D01*
X0115480Y0062024D01*
X0115480Y0062024D01*
X0115480Y0062024D01*
X0115480Y0062024D01*
X0115480Y0062024D01*
X0116197Y0062379D01*
X0116913Y0062024D01*
X0116913Y0062024D01*
X0116913Y0062024D01*
X0116913Y0062024D01*
X0116197Y0060579D01*
X0116197Y0060579D01*
X0116913Y0062024D01*
X0116197Y0060579D01*
X0116197Y0060579D01*
X0116197Y0062379D01*
X0116913Y0062024D02*
X0116913Y0062024D01*
X0116913Y0062024D01*
X0115480Y0062024D02*
X0116197Y0060579D01*
X0115480Y0062024D01*
X0115480Y0062024D01*
X0115403Y0062278D02*
X0115403Y0062278D01*
X0084947Y0096379D02*
X0085202Y0097137D01*
X0083674Y0097652D01*
X0084189Y0096124D01*
X0084947Y0096379D01*
X0085154Y0097048D01*
X0083886Y0097440D01*
X0084278Y0096172D01*
X0084947Y0096379D01*
X0083886Y0097440D01*
X0083674Y0097652D01*
X0079970Y0101356D01*
X0078442Y0101871D01*
X0078697Y0102629D01*
X0079455Y0102885D01*
X0079970Y0101356D01*
X0079758Y0101569D01*
X0078490Y0101960D01*
X0078697Y0102629D01*
X0079366Y0102836D01*
X0079758Y0101569D01*
X0078697Y0102629D01*
D19*
X0078697Y0102629D03*
X0084947Y0096379D03*
X0087197Y0100879D03*
X0112197Y0102879D03*
X0124197Y0103879D03*
X0105697Y0119879D03*
X0090197Y0125879D03*
X0090197Y0161879D03*
X0098697Y0163379D03*
X0112697Y0189879D03*
X0128697Y0202379D03*
X0104197Y0211379D03*
X0130197Y0235379D03*
X0130197Y0242879D03*
X0196197Y0202379D03*
X0208197Y0193379D03*
X0219697Y0190379D03*
X0204697Y0181379D03*
X0208197Y0165879D03*
X0208697Y0157879D03*
X0227697Y0153879D03*
X0226697Y0146879D03*
X0227697Y0168379D03*
X0191697Y0141879D03*
X0179697Y0141879D03*
X0160197Y0138579D03*
X0160297Y0120429D03*
X0199697Y0111379D03*
X0207697Y0117879D03*
X0219197Y0121879D03*
X0237197Y0106379D03*
X0214697Y0075879D03*
X0220197Y0049879D03*
X0229197Y0047879D03*
X0237197Y0031629D03*
X0204197Y0050879D03*
X0196197Y0050879D03*
X0160197Y0045879D03*
X0126697Y0062879D03*
X0116197Y0062379D03*
X0105197Y0079379D03*
X0160197Y0193879D03*
X0211197Y0211379D03*
X0320197Y0196379D03*
D20*
X0324797Y0196268D02*
X0387160Y0196268D01*
X0387171Y0196276D02*
X0386442Y0195746D01*
X0385805Y0195109D01*
X0385275Y0194380D01*
X0384866Y0193577D01*
X0384588Y0192720D01*
X0384447Y0191830D01*
X0384447Y0191379D01*
X0384447Y0190929D01*
X0384588Y0190039D01*
X0384866Y0189182D01*
X0385275Y0188379D01*
X0385805Y0187650D01*
X0386442Y0187012D01*
X0387171Y0186483D01*
X0387974Y0186074D01*
X0388831Y0185795D01*
X0389721Y0185654D01*
X0393697Y0185654D01*
X0397672Y0185654D01*
X0398562Y0185795D01*
X0399419Y0186074D01*
X0400222Y0186483D01*
X0400951Y0187012D01*
X0401589Y0187650D01*
X0402118Y0188379D01*
X0402527Y0189182D01*
X0402806Y0190039D01*
X0402947Y0190929D01*
X0402947Y0191379D01*
X0393697Y0191379D01*
X0393697Y0185654D01*
X0393697Y0191379D01*
X0393697Y0191379D01*
X0393697Y0191379D01*
X0386197Y0191379D01*
X0351197Y0226379D01*
X0351197Y0227379D01*
X0351197Y0231379D01*
X0351197Y0224179D01*
X0354179Y0224179D01*
X0358397Y0228397D01*
X0358397Y0231379D01*
X0351197Y0231379D01*
X0351197Y0231379D01*
X0351197Y0231379D01*
X0351197Y0224179D01*
X0348215Y0224179D01*
X0343997Y0228397D01*
X0343997Y0231379D01*
X0351197Y0231379D01*
X0348368Y0234208D01*
X0331197Y0251379D01*
X0291192Y0251379D01*
X0285877Y0246064D01*
X0285548Y0243548D01*
X0283614Y0243801D01*
X0283361Y0245734D01*
X0285877Y0246064D01*
X0283614Y0243801D01*
X0278994Y0239441D02*
X0178378Y0239441D01*
X0175979Y0241839D02*
X0277264Y0241839D01*
X0277264Y0241171D02*
X0279634Y0238801D01*
X0278231Y0237398D01*
X0277264Y0235064D01*
X0277264Y0232538D01*
X0278231Y0230204D01*
X0280017Y0228418D01*
X0282351Y0227451D01*
X0284877Y0227451D01*
X0287211Y0228418D01*
X0288697Y0229903D01*
X0288697Y0214279D01*
X0213774Y0214279D01*
X0213637Y0214358D01*
X0213530Y0214420D01*
X0213349Y0214601D01*
X0212881Y0214795D01*
X0212597Y0214959D01*
X0212433Y0214980D01*
X0211953Y0215179D01*
X0210441Y0215179D01*
X0209044Y0214601D01*
X0207975Y0213532D01*
X0207397Y0212135D01*
X0207397Y0210623D01*
X0207539Y0210279D01*
X0163896Y0253923D01*
X0162794Y0254379D01*
X0154600Y0254379D01*
X0153497Y0253923D01*
X0152654Y0253079D01*
X0145454Y0245879D01*
X0132700Y0245879D01*
X0132444Y0246007D01*
X0132349Y0246101D01*
X0131770Y0246341D01*
X0131351Y0246548D01*
X0131252Y0246555D01*
X0130953Y0246679D01*
X0129441Y0246679D01*
X0128044Y0246101D01*
X0126975Y0245032D01*
X0126397Y0243635D01*
X0126397Y0242123D01*
X0126975Y0240727D01*
X0128044Y0239658D01*
X0129441Y0239079D01*
X0130953Y0239079D01*
X0131252Y0239203D01*
X0131351Y0239210D01*
X0131351Y0239210D01*
X0131351Y0239210D01*
X0131742Y0239404D01*
X0131770Y0239418D01*
X0132349Y0239658D01*
X0132444Y0239752D01*
X0132700Y0239879D01*
X0147294Y0239879D01*
X0148396Y0240336D01*
X0153220Y0245160D01*
X0153147Y0244983D01*
X0153147Y0244241D01*
X0152896Y0242321D01*
X0151154Y0240579D01*
X0150697Y0239476D01*
X0150697Y0236122D01*
X0129697Y0215122D01*
X0129697Y0215782D01*
X0129697Y0216976D01*
X0129240Y0218079D01*
X0126240Y0221079D01*
X0125396Y0221923D01*
X0124294Y0222379D01*
X0108100Y0222379D01*
X0106997Y0221923D01*
X0102497Y0217423D01*
X0101654Y0216579D01*
X0101197Y0215476D01*
X0101197Y0214379D01*
X0074939Y0214379D01*
X0074896Y0214423D01*
X0061697Y0227622D01*
X0061697Y0227788D01*
X0061749Y0227840D01*
X0061827Y0228029D01*
X0063236Y0229789D01*
X0063248Y0229804D01*
X0063868Y0230424D01*
X0064797Y0232666D01*
X0064797Y0235093D01*
X0063868Y0237335D01*
X0062324Y0238879D01*
X0063868Y0240424D01*
X0064797Y0242666D01*
X0064797Y0245093D01*
X0063868Y0247335D01*
X0062152Y0249051D01*
X0059910Y0249979D01*
X0057483Y0249979D01*
X0055241Y0249051D01*
X0053526Y0247335D01*
X0052597Y0245093D01*
X0052597Y0242666D01*
X0053526Y0240424D01*
X0055070Y0238879D01*
X0053526Y0237335D01*
X0052597Y0235093D01*
X0052597Y0232666D01*
X0053526Y0230424D01*
X0054145Y0229804D01*
X0054383Y0229508D01*
X0055567Y0228029D01*
X0055645Y0227840D01*
X0055697Y0227788D01*
X0055697Y0225782D01*
X0056154Y0224680D01*
X0056997Y0223836D01*
X0059554Y0221279D01*
X0056626Y0221279D01*
X0053697Y0218350D01*
X0053697Y0214208D01*
X0056626Y0211279D01*
X0060768Y0211279D01*
X0063697Y0214208D01*
X0063697Y0217137D01*
X0069204Y0211629D01*
X0059270Y0201695D01*
X0058198Y0201479D01*
X0056626Y0201479D01*
X0053697Y0198550D01*
X0053697Y0194408D01*
X0056626Y0191479D01*
X0060768Y0191479D01*
X0063697Y0194408D01*
X0063697Y0196425D01*
X0063724Y0197664D01*
X0074439Y0208379D01*
X0101596Y0208379D01*
X0084738Y0191522D01*
X0084297Y0190456D01*
X0084297Y0180129D01*
X0026397Y0180129D01*
X0026397Y0239134D01*
X0029030Y0237613D01*
X0032105Y0236789D01*
X0035288Y0236789D01*
X0038363Y0237613D01*
X0041120Y0239205D01*
X0043371Y0241456D01*
X0044963Y0244213D01*
X0045787Y0247288D01*
X0045787Y0250471D01*
X0044963Y0253546D01*
X0043442Y0256179D01*
X0288697Y0256179D01*
X0288697Y0255106D01*
X0283823Y0250232D01*
X0283200Y0250151D01*
X0280984Y0250151D01*
X0277264Y0246431D01*
X0277264Y0241171D01*
X0277264Y0244238D02*
X0173581Y0244238D01*
X0171182Y0246636D02*
X0277469Y0246636D01*
X0279868Y0249035D02*
X0168784Y0249035D01*
X0166385Y0251433D02*
X0285024Y0251433D01*
X0287423Y0253832D02*
X0163987Y0253832D01*
X0164174Y0245160D02*
X0206697Y0202637D01*
X0206697Y0199782D01*
X0207154Y0198680D01*
X0215805Y0190028D01*
X0215897Y0189757D01*
X0215897Y0189623D01*
X0216137Y0189044D01*
X0216286Y0188601D01*
X0216351Y0188526D01*
X0216475Y0188227D01*
X0217544Y0187158D01*
X0218941Y0186579D01*
X0220453Y0186579D01*
X0221849Y0187158D01*
X0222918Y0188227D01*
X0223497Y0189623D01*
X0223497Y0191135D01*
X0222918Y0192532D01*
X0221849Y0193601D01*
X0221550Y0193725D01*
X0221475Y0193790D01*
X0221032Y0193939D01*
X0220453Y0194179D01*
X0220320Y0194179D01*
X0220048Y0194271D01*
X0212697Y0201622D01*
X0212697Y0204476D01*
X0212240Y0205579D01*
X0211396Y0206423D01*
X0210097Y0207722D01*
X0210441Y0207579D01*
X0211953Y0207579D01*
X0212433Y0207778D01*
X0212597Y0207800D01*
X0212597Y0207800D01*
X0212597Y0207800D01*
X0212597Y0207800D01*
X0212597Y0207800D01*
X0212707Y0207863D01*
X0212881Y0207964D01*
X0213349Y0208158D01*
X0213530Y0208338D01*
X0213774Y0208479D01*
X0288697Y0208479D01*
X0288697Y0021579D01*
X0202447Y0021579D01*
X0202447Y0028028D01*
X0220425Y0046006D01*
X0220697Y0046079D01*
X0220953Y0046079D01*
X0221421Y0046273D01*
X0221737Y0046358D01*
X0221737Y0046358D01*
X0221738Y0046358D01*
X0221869Y0046459D01*
X0222349Y0046658D01*
X0223418Y0047727D01*
X0223997Y0049123D01*
X0223997Y0050635D01*
X0223418Y0052032D01*
X0222349Y0053101D01*
X0220953Y0053679D01*
X0219441Y0053679D01*
X0218044Y0053101D01*
X0216975Y0052032D01*
X0216776Y0051551D01*
X0216676Y0051420D01*
X0216676Y0051420D01*
X0216676Y0051420D01*
X0216591Y0051103D01*
X0216397Y0050635D01*
X0216397Y0050380D01*
X0216324Y0050108D01*
X0202447Y0036230D01*
X0202447Y0047491D01*
X0203441Y0047079D01*
X0204953Y0047079D01*
X0206349Y0047658D01*
X0207418Y0048727D01*
X0207997Y0050123D01*
X0207997Y0051635D01*
X0207873Y0051934D01*
X0207867Y0052016D01*
X0207866Y0052034D01*
X0207783Y0052200D01*
X0207658Y0052453D01*
X0207418Y0053032D01*
X0207324Y0053126D01*
X0207197Y0053383D01*
X0207197Y0114079D01*
X0208453Y0114079D01*
X0209849Y0114658D01*
X0210918Y0115727D01*
X0211497Y0117123D01*
X0211497Y0118635D01*
X0210918Y0120032D01*
X0209849Y0121101D01*
X0208453Y0121679D01*
X0207197Y0121679D01*
X0207197Y0151752D01*
X0207283Y0151860D01*
X0207372Y0152165D01*
X0207525Y0152443D01*
X0207569Y0152846D01*
X0207682Y0153235D01*
X0207647Y0153551D01*
X0207682Y0153866D01*
X0207569Y0154256D01*
X0207304Y0156650D01*
X0207354Y0158956D01*
X0207697Y0159782D01*
X0207697Y0178876D01*
X0207824Y0179133D01*
X0207918Y0179227D01*
X0208158Y0179806D01*
X0208273Y0180037D01*
X0208366Y0180225D01*
X0208373Y0180324D01*
X0208497Y0180623D01*
X0208497Y0182135D01*
X0207918Y0183532D01*
X0206849Y0184601D01*
X0205453Y0185179D01*
X0203941Y0185179D01*
X0202544Y0184601D01*
X0201475Y0183532D01*
X0200897Y0182135D01*
X0200897Y0180623D01*
X0201021Y0180324D01*
X0201028Y0180225D01*
X0201028Y0180225D01*
X0201028Y0180225D01*
X0201049Y0180182D01*
X0201075Y0180129D01*
X0172689Y0180129D01*
X0191896Y0199336D01*
X0191939Y0199379D01*
X0193693Y0199379D01*
X0193950Y0199252D01*
X0194044Y0199158D01*
X0194623Y0198918D01*
X0195042Y0198710D01*
X0195043Y0198710D01*
X0195142Y0198703D01*
X0195441Y0198579D01*
X0196953Y0198579D01*
X0198349Y0199158D01*
X0199418Y0200227D01*
X0199997Y0201623D01*
X0199997Y0203135D01*
X0199418Y0204532D01*
X0198349Y0205601D01*
X0196953Y0206179D01*
X0195441Y0206179D01*
X0195142Y0206055D01*
X0195042Y0206048D01*
X0194928Y0205992D01*
X0194623Y0205841D01*
X0194044Y0205601D01*
X0193950Y0205507D01*
X0193694Y0205379D01*
X0191439Y0205379D01*
X0164498Y0232321D01*
X0164247Y0234241D01*
X0164247Y0236178D01*
X0161424Y0239001D01*
X0161841Y0239174D01*
X0163402Y0240735D01*
X0164247Y0242775D01*
X0164247Y0244983D01*
X0164174Y0245160D01*
X0164247Y0244238D02*
X0165096Y0244238D01*
X0163859Y0241839D02*
X0167494Y0241839D01*
X0169893Y0239441D02*
X0162107Y0239441D01*
X0163383Y0237042D02*
X0172291Y0237042D01*
X0174690Y0234644D02*
X0164247Y0234644D01*
X0164573Y0232245D02*
X0177088Y0232245D01*
X0179487Y0229847D02*
X0166972Y0229847D01*
X0169370Y0227448D02*
X0181885Y0227448D01*
X0184284Y0225050D02*
X0171769Y0225050D01*
X0174168Y0222651D02*
X0186682Y0222651D01*
X0189081Y0220253D02*
X0176566Y0220253D01*
X0178965Y0217854D02*
X0191479Y0217854D01*
X0193878Y0215456D02*
X0181363Y0215456D01*
X0183762Y0213057D02*
X0196276Y0213057D01*
X0198675Y0210659D02*
X0186160Y0210659D01*
X0188559Y0208260D02*
X0201073Y0208260D01*
X0203472Y0205862D02*
X0197719Y0205862D01*
X0195042Y0206048D02*
X0195042Y0206048D01*
X0195042Y0206048D01*
X0194666Y0205862D02*
X0190957Y0205862D01*
X0191226Y0198666D02*
X0195231Y0198666D01*
X0195043Y0198710D02*
X0195043Y0198710D01*
X0197162Y0198666D02*
X0207167Y0198666D01*
X0206697Y0201065D02*
X0199765Y0201065D01*
X0199861Y0203463D02*
X0205870Y0203463D01*
X0211957Y0205862D02*
X0288697Y0205862D01*
X0288697Y0208260D02*
X0213452Y0208260D01*
X0212697Y0203463D02*
X0288697Y0203463D01*
X0288697Y0201065D02*
X0213254Y0201065D01*
X0215653Y0198666D02*
X0288697Y0198666D01*
X0288697Y0196268D02*
X0218051Y0196268D01*
X0221240Y0193869D02*
X0288697Y0193869D01*
X0288697Y0191471D02*
X0223358Y0191471D01*
X0223268Y0189072D02*
X0288697Y0189072D01*
X0288697Y0186674D02*
X0220680Y0186674D01*
X0218713Y0186674D02*
X0179234Y0186674D01*
X0181632Y0189072D02*
X0216125Y0189072D01*
X0214363Y0191471D02*
X0184031Y0191471D01*
X0186429Y0193869D02*
X0211964Y0193869D01*
X0209566Y0196268D02*
X0188828Y0196268D01*
X0176835Y0184275D02*
X0202219Y0184275D01*
X0200897Y0181877D02*
X0174437Y0181877D01*
X0163097Y0175129D02*
X0197447Y0175129D01*
X0197447Y0161256D01*
X0196197Y0160006D01*
X0194652Y0161551D01*
X0192410Y0162479D01*
X0189983Y0162479D01*
X0187741Y0161551D01*
X0186197Y0160006D01*
X0184652Y0161551D01*
X0182410Y0162479D01*
X0179983Y0162479D01*
X0177741Y0161551D01*
X0176197Y0160006D01*
X0174652Y0161551D01*
X0172410Y0162479D01*
X0169983Y0162479D01*
X0167741Y0161551D01*
X0166026Y0159835D01*
X0165097Y0157593D01*
X0165097Y0155166D01*
X0166026Y0152924D01*
X0167741Y0151208D01*
X0169983Y0150279D01*
X0172410Y0150279D01*
X0174652Y0151208D01*
X0176197Y0152753D01*
X0177741Y0151208D01*
X0179983Y0150279D01*
X0182410Y0150279D01*
X0184652Y0151208D01*
X0186197Y0152753D01*
X0187741Y0151208D01*
X0189983Y0150279D01*
X0192410Y0150279D01*
X0194652Y0151208D01*
X0196197Y0152753D01*
X0197447Y0151503D01*
X0197447Y0031230D01*
X0194996Y0028779D01*
X0154724Y0028779D01*
X0156368Y0030424D01*
X0157297Y0032666D01*
X0157297Y0033744D01*
X0157321Y0034284D01*
X0157396Y0035977D01*
X0162655Y0041237D01*
X0163097Y0042302D01*
X0163097Y0043302D01*
X0163238Y0043546D01*
X0163418Y0043727D01*
X0163612Y0044195D01*
X0163703Y0044352D01*
X0163776Y0044479D01*
X0163798Y0044643D01*
X0163997Y0045123D01*
X0163997Y0046635D01*
X0163798Y0047116D01*
X0163776Y0047280D01*
X0163612Y0047564D01*
X0163418Y0048032D01*
X0163238Y0048212D01*
X0163097Y0048456D01*
X0163097Y0117768D01*
X0163262Y0118020D01*
X0163518Y0118277D01*
X0163672Y0118647D01*
X0163793Y0118832D01*
X0163830Y0119029D01*
X0164097Y0119673D01*
X0164097Y0121185D01*
X0163918Y0121616D01*
X0163902Y0121762D01*
X0163902Y0121762D01*
X0163902Y0121762D01*
X0163726Y0122080D01*
X0163518Y0122582D01*
X0163363Y0122737D01*
X0163231Y0122977D01*
X0163231Y0136122D01*
X0163340Y0136348D01*
X0163418Y0136427D01*
X0163666Y0137026D01*
X0163870Y0137449D01*
X0163875Y0137529D01*
X0163997Y0137823D01*
X0163997Y0139335D01*
X0163798Y0139816D01*
X0163776Y0139980D01*
X0163627Y0140239D01*
X0163612Y0140264D01*
X0163418Y0140732D01*
X0163238Y0140912D01*
X0163097Y0141156D01*
X0163097Y0175129D01*
X0163097Y0174681D02*
X0197447Y0174681D01*
X0197447Y0172282D02*
X0163097Y0172282D01*
X0163097Y0169884D02*
X0197447Y0169884D01*
X0197447Y0167485D02*
X0163097Y0167485D01*
X0163097Y0165087D02*
X0197447Y0165087D01*
X0197447Y0162688D02*
X0163097Y0162688D01*
X0163097Y0160290D02*
X0166481Y0160290D01*
X0165221Y0157891D02*
X0163097Y0157891D01*
X0163097Y0155493D02*
X0165097Y0155493D01*
X0165955Y0153094D02*
X0163097Y0153094D01*
X0163097Y0150696D02*
X0168978Y0150696D01*
X0173416Y0150696D02*
X0178978Y0150696D01*
X0183416Y0150696D02*
X0188978Y0150696D01*
X0193416Y0150696D02*
X0197447Y0150696D01*
X0197447Y0148297D02*
X0163097Y0148297D01*
X0163097Y0145899D02*
X0197447Y0145899D01*
X0197447Y0143500D02*
X0195138Y0143500D01*
X0194918Y0144032D02*
X0193849Y0145101D01*
X0192453Y0145679D01*
X0190941Y0145679D01*
X0190460Y0145480D01*
X0190296Y0145459D01*
X0190162Y0145381D01*
X0190012Y0145295D01*
X0189544Y0145101D01*
X0189364Y0144920D01*
X0189120Y0144779D01*
X0182274Y0144779D01*
X0182030Y0144920D01*
X0181849Y0145101D01*
X0181381Y0145295D01*
X0181309Y0145336D01*
X0181097Y0145459D01*
X0180933Y0145480D01*
X0180453Y0145679D01*
X0178941Y0145679D01*
X0177544Y0145101D01*
X0176475Y0144032D01*
X0175897Y0142635D01*
X0175897Y0141123D01*
X0176475Y0139727D01*
X0177544Y0138658D01*
X0178941Y0138079D01*
X0180453Y0138079D01*
X0180933Y0138278D01*
X0181018Y0138290D01*
X0181097Y0138300D01*
X0181097Y0138300D01*
X0181097Y0138300D01*
X0181097Y0138300D01*
X0181097Y0138300D01*
X0181207Y0138363D01*
X0181381Y0138464D01*
X0181849Y0138658D01*
X0182030Y0138838D01*
X0182274Y0138979D01*
X0189120Y0138979D01*
X0189364Y0138838D01*
X0189544Y0138658D01*
X0190012Y0138464D01*
X0190296Y0138300D01*
X0190296Y0138300D01*
X0190296Y0138300D01*
X0190460Y0138278D01*
X0190941Y0138079D01*
X0192453Y0138079D01*
X0193849Y0138658D01*
X0194918Y0139727D01*
X0195497Y0141123D01*
X0195497Y0142635D01*
X0194918Y0144032D01*
X0195488Y0141102D02*
X0197447Y0141102D01*
X0197447Y0138703D02*
X0193895Y0138703D01*
X0190296Y0138300D02*
X0190296Y0138300D01*
X0189499Y0138703D02*
X0181895Y0138703D01*
X0177499Y0138703D02*
X0163997Y0138703D01*
X0163776Y0139980D02*
X0163776Y0139980D01*
X0163776Y0139980D01*
X0163128Y0141102D02*
X0175906Y0141102D01*
X0176255Y0143500D02*
X0163097Y0143500D01*
X0157297Y0143500D02*
X0131697Y0143500D01*
X0131697Y0141102D02*
X0157265Y0141102D01*
X0157297Y0141156D02*
X0157156Y0140912D01*
X0156975Y0140732D01*
X0156781Y0140264D01*
X0156681Y0140090D01*
X0156618Y0139980D01*
X0156618Y0139980D01*
X0156618Y0139980D01*
X0156618Y0139980D01*
X0156618Y0139980D01*
X0156596Y0139816D01*
X0156397Y0139335D01*
X0156397Y0137823D01*
X0156690Y0137115D01*
X0156732Y0136916D01*
X0156836Y0136763D01*
X0156975Y0136427D01*
X0157257Y0136145D01*
X0157381Y0135963D01*
X0157381Y0135963D01*
X0157431Y0135890D01*
X0157431Y0123035D01*
X0157282Y0122788D01*
X0157075Y0122582D01*
X0156895Y0122147D01*
X0156766Y0121932D01*
X0156745Y0121897D01*
X0156718Y0121718D01*
X0156497Y0121185D01*
X0156497Y0119673D01*
X0156637Y0119334D01*
X0156645Y0119230D01*
X0156645Y0119230D01*
X0156841Y0118843D01*
X0157075Y0118277D01*
X0157180Y0118172D01*
X0157297Y0117941D01*
X0157297Y0048456D01*
X0157156Y0048212D01*
X0156975Y0048032D01*
X0156781Y0047564D01*
X0156681Y0047390D01*
X0156618Y0047280D01*
X0156618Y0047280D01*
X0156618Y0047280D01*
X0156618Y0047280D01*
X0156618Y0047280D01*
X0156596Y0047116D01*
X0156397Y0046635D01*
X0156397Y0045123D01*
X0156596Y0044643D01*
X0156618Y0044479D01*
X0156618Y0044479D01*
X0156618Y0044479D01*
X0156781Y0044195D01*
X0156966Y0043750D01*
X0153295Y0040079D01*
X0151602Y0040003D01*
X0151061Y0039979D01*
X0149983Y0039979D01*
X0147741Y0039051D01*
X0146026Y0037335D01*
X0146009Y0037294D01*
X0145697Y0037723D01*
X0145040Y0038379D01*
X0144289Y0038925D01*
X0143462Y0039347D01*
X0142578Y0039634D01*
X0141661Y0039779D01*
X0141197Y0039779D01*
X0141197Y0033879D01*
X0141197Y0033879D01*
X0145097Y0033879D01*
X0145097Y0033879D01*
X0141197Y0033879D01*
X0141142Y0031380D01*
X0144264Y0031312D01*
X0143648Y0034373D01*
X0141197Y0033879D01*
X0141472Y0036364D01*
X0138368Y0036708D01*
X0138712Y0033604D01*
X0141197Y0033879D01*
X0141197Y0033879D01*
X0141197Y0039779D01*
X0140733Y0039779D01*
X0139815Y0039634D01*
X0138932Y0039347D01*
X0138105Y0038925D01*
X0137353Y0038379D01*
X0136697Y0037723D01*
X0136151Y0036972D01*
X0135729Y0036144D01*
X0135558Y0035619D01*
X0093097Y0078080D01*
X0093097Y0123302D01*
X0093238Y0123546D01*
X0093418Y0123727D01*
X0093612Y0124195D01*
X0093776Y0124479D01*
X0093798Y0124643D01*
X0093997Y0125123D01*
X0093997Y0126635D01*
X0093418Y0128032D01*
X0092349Y0129101D01*
X0090953Y0129679D01*
X0090097Y0129679D01*
X0090097Y0146178D01*
X0109099Y0165180D01*
X0111333Y0165279D01*
X0112410Y0165279D01*
X0114652Y0166208D01*
X0116197Y0167753D01*
X0117741Y0166208D01*
X0119983Y0165279D01*
X0122410Y0165279D01*
X0124652Y0166208D01*
X0125697Y0167253D01*
X0125697Y0143006D01*
X0124652Y0144051D01*
X0122410Y0144979D01*
X0119983Y0144979D01*
X0117741Y0144051D01*
X0116197Y0142506D01*
X0114652Y0144051D01*
X0112410Y0144979D01*
X0109983Y0144979D01*
X0107741Y0144051D01*
X0106026Y0142335D01*
X0105097Y0140093D01*
X0105097Y0137666D01*
X0106026Y0135424D01*
X0107741Y0133708D01*
X0109983Y0132779D01*
X0112410Y0132779D01*
X0114652Y0133708D01*
X0116197Y0135253D01*
X0117741Y0133708D01*
X0119983Y0132779D01*
X0121197Y0132779D01*
X0121197Y0106383D01*
X0121069Y0106126D01*
X0120975Y0106032D01*
X0120736Y0105453D01*
X0120528Y0105034D01*
X0120528Y0105033D01*
X0120528Y0105033D01*
X0120521Y0104934D01*
X0120397Y0104635D01*
X0120397Y0103123D01*
X0120664Y0102479D01*
X0119983Y0102479D01*
X0117741Y0101551D01*
X0116197Y0100006D01*
X0114652Y0101551D01*
X0112410Y0102479D01*
X0109983Y0102479D01*
X0107741Y0101551D01*
X0106026Y0099835D01*
X0105097Y0097593D01*
X0105097Y0095166D01*
X0106026Y0092924D01*
X0107741Y0091208D01*
X0109983Y0090279D01*
X0112410Y0090279D01*
X0114652Y0091208D01*
X0116197Y0092753D01*
X0117741Y0091208D01*
X0119983Y0090279D01*
X0122410Y0090279D01*
X0123697Y0090812D01*
X0123697Y0081946D01*
X0122410Y0082479D01*
X0119983Y0082479D01*
X0117741Y0081551D01*
X0116197Y0080006D01*
X0114652Y0081551D01*
X0112410Y0082479D01*
X0109983Y0082479D01*
X0107741Y0081551D01*
X0106026Y0079835D01*
X0105097Y0077593D01*
X0105097Y0075166D01*
X0106026Y0072924D01*
X0107741Y0071208D01*
X0109983Y0070279D01*
X0112410Y0070279D01*
X0114652Y0071208D01*
X0116197Y0072753D01*
X0117741Y0071208D01*
X0119983Y0070279D01*
X0122410Y0070279D01*
X0123697Y0070812D01*
X0123697Y0065383D01*
X0123569Y0065126D01*
X0123475Y0065032D01*
X0123236Y0064453D01*
X0123028Y0064034D01*
X0123028Y0064033D01*
X0123028Y0064033D01*
X0123021Y0063934D01*
X0122897Y0063635D01*
X0122897Y0062123D01*
X0123475Y0060727D01*
X0124544Y0059658D01*
X0125941Y0059079D01*
X0127453Y0059079D01*
X0128849Y0059658D01*
X0129918Y0060727D01*
X0130497Y0062123D01*
X0130497Y0063635D01*
X0130373Y0063934D01*
X0130367Y0064016D01*
X0130366Y0064034D01*
X0130158Y0064453D01*
X0129918Y0065032D01*
X0129824Y0065126D01*
X0129697Y0065383D01*
X0129697Y0101976D01*
X0129240Y0103079D01*
X0128396Y0103923D01*
X0128088Y0104230D01*
X0127997Y0104502D01*
X0127997Y0104635D01*
X0127873Y0104934D01*
X0127869Y0104991D01*
X0127866Y0105034D01*
X0127716Y0105337D01*
X0127608Y0105658D01*
X0127542Y0105732D01*
X0127418Y0106032D01*
X0127324Y0106126D01*
X0127197Y0106383D01*
X0127197Y0132637D01*
X0130396Y0135836D01*
X0131240Y0136680D01*
X0131697Y0137782D01*
X0131697Y0170879D01*
X0138856Y0170879D01*
X0138908Y0170827D01*
X0139096Y0170749D01*
X0139756Y0170221D01*
X0140274Y0169806D01*
X0140575Y0169565D01*
X0140872Y0169328D01*
X0141491Y0168708D01*
X0143733Y0167779D01*
X0146160Y0167779D01*
X0148402Y0168708D01*
X0150118Y0170424D01*
X0151047Y0172666D01*
X0151047Y0175093D01*
X0151032Y0175129D01*
X0157297Y0175129D01*
X0157297Y0141156D01*
X0156397Y0138703D02*
X0131697Y0138703D01*
X0130865Y0136305D02*
X0157097Y0136305D01*
X0157431Y0133906D02*
X0128467Y0133906D01*
X0127197Y0131508D02*
X0157431Y0131508D01*
X0157431Y0129109D02*
X0127197Y0129109D01*
X0127197Y0126711D02*
X0157431Y0126711D01*
X0157431Y0124312D02*
X0127197Y0124312D01*
X0127197Y0121914D02*
X0156755Y0121914D01*
X0156562Y0119515D02*
X0127197Y0119515D01*
X0127197Y0117117D02*
X0157297Y0117117D01*
X0157297Y0114718D02*
X0127197Y0114718D01*
X0127197Y0112320D02*
X0157297Y0112320D01*
X0157297Y0109921D02*
X0127197Y0109921D01*
X0127197Y0107523D02*
X0157297Y0107523D01*
X0157297Y0105124D02*
X0127821Y0105124D01*
X0127866Y0105034D02*
X0127866Y0105034D01*
X0127608Y0105658D02*
X0127608Y0105658D01*
X0127608Y0105658D01*
X0128396Y0103923D02*
X0128396Y0103923D01*
X0129386Y0102726D02*
X0157297Y0102726D01*
X0157297Y0100327D02*
X0129697Y0100327D01*
X0129697Y0097929D02*
X0157297Y0097929D01*
X0157297Y0095530D02*
X0129697Y0095530D01*
X0129697Y0093132D02*
X0157297Y0093132D01*
X0157297Y0090733D02*
X0129697Y0090733D01*
X0129697Y0088335D02*
X0157297Y0088335D01*
X0157297Y0085936D02*
X0129697Y0085936D01*
X0129697Y0083538D02*
X0157297Y0083538D01*
X0157297Y0081139D02*
X0129697Y0081139D01*
X0129697Y0078741D02*
X0157297Y0078741D01*
X0157297Y0076342D02*
X0129697Y0076342D01*
X0129697Y0073944D02*
X0157297Y0073944D01*
X0157297Y0071545D02*
X0129697Y0071545D01*
X0129697Y0069146D02*
X0157297Y0069146D01*
X0157297Y0066748D02*
X0129697Y0066748D01*
X0130209Y0064349D02*
X0157297Y0064349D01*
X0157297Y0061951D02*
X0130425Y0061951D01*
X0130366Y0064034D02*
X0130366Y0064034D01*
X0128595Y0059552D02*
X0157297Y0059552D01*
X0157297Y0057154D02*
X0114023Y0057154D01*
X0111625Y0059552D02*
X0124799Y0059552D01*
X0122968Y0061951D02*
X0109226Y0061951D01*
X0106828Y0064349D02*
X0123184Y0064349D01*
X0123697Y0066748D02*
X0104429Y0066748D01*
X0102031Y0069146D02*
X0123697Y0069146D01*
X0117404Y0071545D02*
X0114989Y0071545D01*
X0107404Y0071545D02*
X0099632Y0071545D01*
X0097234Y0073944D02*
X0105603Y0073944D01*
X0105097Y0076342D02*
X0094835Y0076342D01*
X0093097Y0078741D02*
X0105572Y0078741D01*
X0107330Y0081139D02*
X0093097Y0081139D01*
X0093097Y0083538D02*
X0123697Y0083538D01*
X0123697Y0085936D02*
X0093097Y0085936D01*
X0093097Y0088335D02*
X0123697Y0088335D01*
X0123697Y0090733D02*
X0123506Y0090733D01*
X0118888Y0090733D02*
X0113506Y0090733D01*
X0108888Y0090733D02*
X0093097Y0090733D01*
X0093097Y0093132D02*
X0105939Y0093132D01*
X0105097Y0095530D02*
X0093097Y0095530D01*
X0093097Y0097929D02*
X0105236Y0097929D01*
X0106518Y0100327D02*
X0093097Y0100327D01*
X0093097Y0102726D02*
X0120562Y0102726D01*
X0120573Y0105124D02*
X0093097Y0105124D01*
X0093097Y0107523D02*
X0121197Y0107523D01*
X0121197Y0109921D02*
X0093097Y0109921D01*
X0093097Y0112320D02*
X0121197Y0112320D01*
X0121197Y0114718D02*
X0093097Y0114718D01*
X0093097Y0117117D02*
X0121197Y0117117D01*
X0121197Y0119515D02*
X0093097Y0119515D01*
X0093097Y0121914D02*
X0121197Y0121914D01*
X0121197Y0124312D02*
X0093680Y0124312D01*
X0093966Y0126711D02*
X0121197Y0126711D01*
X0121197Y0129109D02*
X0092329Y0129109D01*
X0090097Y0131508D02*
X0121197Y0131508D01*
X0117543Y0133906D02*
X0114851Y0133906D01*
X0107543Y0133906D02*
X0090097Y0133906D01*
X0090097Y0136305D02*
X0105661Y0136305D01*
X0105097Y0138703D02*
X0090097Y0138703D01*
X0090097Y0141102D02*
X0105515Y0141102D01*
X0107191Y0143500D02*
X0090097Y0143500D01*
X0090097Y0145899D02*
X0125697Y0145899D01*
X0125697Y0148297D02*
X0092216Y0148297D01*
X0094615Y0150696D02*
X0125697Y0150696D01*
X0125697Y0153094D02*
X0097013Y0153094D01*
X0099412Y0155493D02*
X0125697Y0155493D01*
X0125697Y0157891D02*
X0101810Y0157891D01*
X0104209Y0160290D02*
X0125697Y0160290D01*
X0125697Y0162688D02*
X0106607Y0162688D01*
X0109006Y0165087D02*
X0125697Y0165087D01*
X0131697Y0165087D02*
X0157297Y0165087D01*
X0157297Y0167485D02*
X0131697Y0167485D01*
X0131697Y0169884D02*
X0140177Y0169884D01*
X0140575Y0169565D02*
X0140575Y0169565D01*
X0143384Y0171928D02*
X0140947Y0173879D01*
X0143384Y0175831D01*
X0144947Y0173879D01*
X0143384Y0175831D01*
X0140947Y0173879D01*
X0143384Y0171928D01*
X0144947Y0173879D01*
X0143384Y0171928D01*
X0143384Y0171928D01*
X0140947Y0173879D01*
X0143384Y0171928D01*
X0144947Y0173879D01*
X0143384Y0175831D01*
X0144947Y0173879D01*
X0143384Y0171928D01*
X0140947Y0173879D01*
X0143384Y0171928D01*
X0143384Y0171928D01*
X0140947Y0173879D01*
X0140947Y0173879D01*
X0143384Y0175831D01*
X0143384Y0175831D01*
X0140947Y0173879D01*
X0143384Y0171928D01*
X0143384Y0171928D01*
X0140947Y0173879D02*
X0140947Y0173879D01*
X0143384Y0175831D01*
X0143384Y0175831D01*
X0143384Y0175831D01*
X0140947Y0173879D01*
X0140947Y0173879D01*
X0149578Y0169884D02*
X0157297Y0169884D01*
X0157297Y0172282D02*
X0150888Y0172282D01*
X0151047Y0174681D02*
X0157297Y0174681D01*
X0157297Y0162688D02*
X0131697Y0162688D01*
X0131697Y0160290D02*
X0157297Y0160290D01*
X0157297Y0157891D02*
X0131697Y0157891D01*
X0131697Y0155493D02*
X0157297Y0155493D01*
X0157297Y0153094D02*
X0131697Y0153094D01*
X0131697Y0150696D02*
X0157297Y0150696D01*
X0157297Y0148297D02*
X0131697Y0148297D01*
X0131697Y0145899D02*
X0157297Y0145899D01*
X0163319Y0136305D02*
X0197447Y0136305D01*
X0197447Y0133906D02*
X0163231Y0133906D01*
X0163231Y0131508D02*
X0197447Y0131508D01*
X0197447Y0129109D02*
X0163231Y0129109D01*
X0163231Y0126711D02*
X0197447Y0126711D01*
X0197447Y0124312D02*
X0163231Y0124312D01*
X0163818Y0121914D02*
X0197447Y0121914D01*
X0197447Y0119515D02*
X0164031Y0119515D01*
X0163793Y0118832D02*
X0163793Y0118832D01*
X0163793Y0118832D01*
X0163097Y0117117D02*
X0197447Y0117117D01*
X0197447Y0114718D02*
X0163097Y0114718D01*
X0163097Y0112320D02*
X0197447Y0112320D01*
X0197447Y0109921D02*
X0163097Y0109921D01*
X0163097Y0107523D02*
X0197447Y0107523D01*
X0197447Y0105124D02*
X0163097Y0105124D01*
X0163097Y0102726D02*
X0197447Y0102726D01*
X0197447Y0100327D02*
X0163097Y0100327D01*
X0163097Y0097929D02*
X0197447Y0097929D01*
X0197447Y0095530D02*
X0163097Y0095530D01*
X0163097Y0093132D02*
X0181539Y0093132D01*
X0181432Y0093097D02*
X0180605Y0092675D01*
X0179853Y0092129D01*
X0179197Y0091473D01*
X0178651Y0090722D01*
X0178229Y0089894D01*
X0177942Y0089011D01*
X0177797Y0088094D01*
X0177797Y0087629D01*
X0177797Y0087165D01*
X0177942Y0086248D01*
X0178229Y0085364D01*
X0178651Y0084537D01*
X0179197Y0083786D01*
X0179853Y0083129D01*
X0180605Y0082583D01*
X0181432Y0082161D01*
X0182315Y0081875D01*
X0183233Y0081729D01*
X0183697Y0081729D01*
X0184161Y0081729D01*
X0185078Y0081875D01*
X0185962Y0082161D01*
X0186789Y0082583D01*
X0187540Y0083129D01*
X0188197Y0083786D01*
X0188743Y0084537D01*
X0189165Y0085364D01*
X0189452Y0086248D01*
X0189597Y0087165D01*
X0189597Y0087629D01*
X0183697Y0087629D01*
X0183697Y0081729D01*
X0183697Y0087629D01*
X0183697Y0087629D01*
X0183697Y0087629D01*
X0185259Y0085678D01*
X0187697Y0087629D01*
X0185259Y0085678D01*
X0183697Y0087629D01*
X0185259Y0089581D01*
X0183697Y0087629D01*
X0185259Y0085678D01*
X0187697Y0087629D01*
X0185259Y0089581D01*
X0185259Y0089581D01*
X0185259Y0089581D01*
X0183697Y0087629D01*
X0185259Y0085678D01*
X0185259Y0085678D01*
X0187697Y0087629D01*
X0185259Y0085678D01*
X0185259Y0085678D01*
X0187697Y0087629D01*
X0187697Y0087629D01*
X0185259Y0089581D01*
X0187697Y0087629D01*
X0187697Y0087629D01*
X0187697Y0087629D01*
X0185259Y0089581D01*
X0185259Y0089581D01*
X0187697Y0087629D01*
X0185259Y0089581D01*
X0185259Y0089581D01*
X0183697Y0087629D01*
X0189597Y0087629D01*
X0189597Y0088094D01*
X0189452Y0089011D01*
X0189165Y0089894D01*
X0188743Y0090722D01*
X0188197Y0091473D01*
X0187540Y0092129D01*
X0186789Y0092675D01*
X0185962Y0093097D01*
X0185078Y0093384D01*
X0184161Y0093529D01*
X0183697Y0093529D01*
X0183697Y0087629D01*
X0177797Y0087629D01*
X0183697Y0087629D01*
X0183697Y0087629D01*
X0183697Y0087629D01*
X0183697Y0093529D01*
X0183233Y0093529D01*
X0182315Y0093384D01*
X0181432Y0093097D01*
X0183697Y0093132D02*
X0183697Y0093132D01*
X0185855Y0093132D02*
X0197447Y0093132D01*
X0197447Y0090733D02*
X0188735Y0090733D01*
X0189559Y0088335D02*
X0197447Y0088335D01*
X0197447Y0085936D02*
X0189350Y0085936D01*
X0187949Y0083538D02*
X0197447Y0083538D01*
X0197447Y0081139D02*
X0163097Y0081139D01*
X0163097Y0078741D02*
X0197447Y0078741D01*
X0197447Y0076342D02*
X0163097Y0076342D01*
X0163097Y0073944D02*
X0197447Y0073944D01*
X0197447Y0071545D02*
X0163097Y0071545D01*
X0163097Y0069146D02*
X0197447Y0069146D01*
X0197447Y0066748D02*
X0163097Y0066748D01*
X0163097Y0064349D02*
X0197447Y0064349D01*
X0197447Y0061951D02*
X0163097Y0061951D01*
X0163097Y0059552D02*
X0197447Y0059552D01*
X0197447Y0057154D02*
X0163097Y0057154D01*
X0163097Y0054755D02*
X0197447Y0054755D01*
X0197447Y0052357D02*
X0163097Y0052357D01*
X0163097Y0049958D02*
X0197447Y0049958D01*
X0197447Y0047560D02*
X0163614Y0047560D01*
X0163997Y0045161D02*
X0197447Y0045161D01*
X0197447Y0042763D02*
X0163097Y0042763D01*
X0163776Y0044479D02*
X0163776Y0044479D01*
X0163776Y0044479D01*
X0161783Y0040364D02*
X0197447Y0040364D01*
X0197447Y0037966D02*
X0159385Y0037966D01*
X0157378Y0035567D02*
X0197447Y0035567D01*
X0197447Y0033169D02*
X0157297Y0033169D01*
X0156512Y0030770D02*
X0196987Y0030770D01*
X0202791Y0028372D02*
X0235131Y0028372D01*
X0235044Y0028408D02*
X0236441Y0027829D01*
X0237953Y0027829D01*
X0239349Y0028408D01*
X0240418Y0029477D01*
X0240997Y0030873D01*
X0240997Y0032385D01*
X0240798Y0032866D01*
X0240776Y0033030D01*
X0240612Y0033314D01*
X0240418Y0033782D01*
X0240238Y0033962D01*
X0240097Y0034206D01*
X0240097Y0103802D01*
X0240238Y0104046D01*
X0240418Y0104227D01*
X0240612Y0104695D01*
X0240656Y0104770D01*
X0240776Y0104979D01*
X0240798Y0105143D01*
X0240997Y0105623D01*
X0240997Y0107135D01*
X0240798Y0107616D01*
X0240776Y0107780D01*
X0240612Y0108064D01*
X0240418Y0108532D01*
X0240238Y0108712D01*
X0240097Y0108956D01*
X0240097Y0147456D01*
X0239655Y0148522D01*
X0232655Y0155522D01*
X0231840Y0156338D01*
X0230774Y0156779D01*
X0230597Y0156779D01*
X0230597Y0165802D01*
X0230738Y0166046D01*
X0230918Y0166227D01*
X0231112Y0166695D01*
X0231156Y0166770D01*
X0231276Y0166979D01*
X0231298Y0167143D01*
X0231497Y0167623D01*
X0231497Y0169135D01*
X0230918Y0170532D01*
X0229849Y0171601D01*
X0228453Y0172179D01*
X0226941Y0172179D01*
X0225544Y0171601D01*
X0224475Y0170532D01*
X0223897Y0169135D01*
X0223897Y0167623D01*
X0224096Y0167143D01*
X0224118Y0166979D01*
X0224118Y0166979D01*
X0224118Y0166979D01*
X0224282Y0166695D01*
X0224475Y0166227D01*
X0224656Y0166046D01*
X0224765Y0165857D01*
X0224797Y0165802D01*
X0224797Y0158756D01*
X0224797Y0157602D01*
X0224797Y0156456D01*
X0224656Y0156212D01*
X0224475Y0156032D01*
X0224281Y0155564D01*
X0224181Y0155390D01*
X0224118Y0155280D01*
X0224118Y0155280D01*
X0224118Y0155280D01*
X0224118Y0155280D01*
X0224118Y0155280D01*
X0224096Y0155116D01*
X0223897Y0154635D01*
X0223897Y0153123D01*
X0224475Y0151727D01*
X0225544Y0150658D01*
X0226941Y0150079D01*
X0228453Y0150079D01*
X0228933Y0150278D01*
X0229097Y0150300D01*
X0229097Y0150300D01*
X0229097Y0150300D01*
X0229097Y0150300D01*
X0229097Y0150300D01*
X0229207Y0150363D01*
X0229381Y0150464D01*
X0229473Y0150502D01*
X0234297Y0145678D01*
X0234297Y0108956D01*
X0234156Y0108712D01*
X0233975Y0108532D01*
X0233781Y0108064D01*
X0233681Y0107890D01*
X0233618Y0107780D01*
X0233618Y0107780D01*
X0233618Y0107780D01*
X0233618Y0107780D01*
X0233618Y0107780D01*
X0233596Y0107616D01*
X0233397Y0107135D01*
X0233397Y0105623D01*
X0233596Y0105143D01*
X0233618Y0104979D01*
X0233618Y0104979D01*
X0233618Y0104979D01*
X0233618Y0104979D01*
X0233782Y0104695D01*
X0233975Y0104227D01*
X0234156Y0104046D01*
X0234297Y0103802D01*
X0234297Y0042756D01*
X0234297Y0041602D01*
X0234297Y0034206D01*
X0234156Y0033962D01*
X0233975Y0033782D01*
X0233781Y0033314D01*
X0233681Y0033140D01*
X0233618Y0033030D01*
X0233618Y0033030D01*
X0233618Y0033030D01*
X0233618Y0033030D01*
X0233618Y0033030D01*
X0233596Y0032866D01*
X0233397Y0032385D01*
X0233397Y0030873D01*
X0233975Y0029477D01*
X0235044Y0028408D01*
X0233440Y0030770D02*
X0205189Y0030770D01*
X0207588Y0033169D02*
X0233698Y0033169D01*
X0234297Y0035567D02*
X0209986Y0035567D01*
X0212385Y0037966D02*
X0234297Y0037966D01*
X0234297Y0040364D02*
X0214783Y0040364D01*
X0217182Y0042763D02*
X0234297Y0042763D01*
X0234297Y0042756D02*
X0234297Y0042756D01*
X0234297Y0041602D02*
X0234297Y0041602D01*
X0234297Y0045161D02*
X0219580Y0045161D01*
X0223252Y0047560D02*
X0234297Y0047560D01*
X0234297Y0049958D02*
X0223997Y0049958D01*
X0223093Y0052357D02*
X0234297Y0052357D01*
X0234297Y0054755D02*
X0207197Y0054755D01*
X0207197Y0057154D02*
X0234297Y0057154D01*
X0234297Y0059552D02*
X0207197Y0059552D01*
X0207197Y0061951D02*
X0234297Y0061951D01*
X0234297Y0064349D02*
X0207197Y0064349D01*
X0207197Y0066748D02*
X0234297Y0066748D01*
X0234297Y0069146D02*
X0207197Y0069146D01*
X0207197Y0071545D02*
X0234297Y0071545D01*
X0234297Y0073944D02*
X0207197Y0073944D01*
X0207197Y0076342D02*
X0234297Y0076342D01*
X0234297Y0078741D02*
X0207197Y0078741D01*
X0207197Y0081139D02*
X0234297Y0081139D01*
X0234297Y0083538D02*
X0207197Y0083538D01*
X0207197Y0085936D02*
X0234297Y0085936D01*
X0234297Y0088335D02*
X0207197Y0088335D01*
X0207197Y0090733D02*
X0234297Y0090733D01*
X0234297Y0093132D02*
X0207197Y0093132D01*
X0207197Y0095530D02*
X0234297Y0095530D01*
X0234297Y0097929D02*
X0207197Y0097929D01*
X0207197Y0100327D02*
X0234297Y0100327D01*
X0234297Y0102726D02*
X0207197Y0102726D01*
X0207197Y0105124D02*
X0233598Y0105124D01*
X0233557Y0107523D02*
X0207197Y0107523D01*
X0207197Y0109921D02*
X0234297Y0109921D01*
X0234297Y0112320D02*
X0207197Y0112320D01*
X0209910Y0114718D02*
X0234297Y0114718D01*
X0234297Y0117117D02*
X0211494Y0117117D01*
X0211132Y0119515D02*
X0234297Y0119515D01*
X0234297Y0121914D02*
X0207197Y0121914D01*
X0207197Y0124312D02*
X0234297Y0124312D01*
X0234297Y0126711D02*
X0207197Y0126711D01*
X0207197Y0129109D02*
X0234297Y0129109D01*
X0234297Y0131508D02*
X0207197Y0131508D01*
X0207197Y0133906D02*
X0234297Y0133906D01*
X0234297Y0136305D02*
X0207197Y0136305D01*
X0207197Y0138703D02*
X0234297Y0138703D01*
X0234297Y0141102D02*
X0207197Y0141102D01*
X0207197Y0143500D02*
X0234297Y0143500D01*
X0234076Y0145899D02*
X0207197Y0145899D01*
X0207197Y0148297D02*
X0231677Y0148297D01*
X0235083Y0153094D02*
X0288697Y0153094D01*
X0288697Y0150696D02*
X0237481Y0150696D01*
X0239748Y0148297D02*
X0288697Y0148297D01*
X0288697Y0145899D02*
X0240097Y0145899D01*
X0240097Y0143500D02*
X0288697Y0143500D01*
X0288697Y0141102D02*
X0240097Y0141102D01*
X0240097Y0138703D02*
X0288697Y0138703D01*
X0288697Y0136305D02*
X0240097Y0136305D01*
X0240097Y0133906D02*
X0288697Y0133906D01*
X0288697Y0131508D02*
X0240097Y0131508D01*
X0240097Y0129109D02*
X0288697Y0129109D01*
X0288697Y0126711D02*
X0240097Y0126711D01*
X0240097Y0124312D02*
X0288697Y0124312D01*
X0288697Y0121914D02*
X0240097Y0121914D01*
X0240097Y0119515D02*
X0288697Y0119515D01*
X0288697Y0117117D02*
X0240097Y0117117D01*
X0240097Y0114718D02*
X0288697Y0114718D01*
X0288697Y0112320D02*
X0240097Y0112320D01*
X0240097Y0109921D02*
X0288697Y0109921D01*
X0288697Y0107523D02*
X0240836Y0107523D01*
X0240776Y0107780D02*
X0240776Y0107780D01*
X0240776Y0107780D01*
X0240795Y0105124D02*
X0288697Y0105124D01*
X0288697Y0102726D02*
X0240097Y0102726D01*
X0240776Y0104979D02*
X0240776Y0104979D01*
X0240776Y0104979D01*
X0240097Y0100327D02*
X0288697Y0100327D01*
X0288697Y0097929D02*
X0240097Y0097929D01*
X0240097Y0095530D02*
X0288697Y0095530D01*
X0288697Y0093132D02*
X0240097Y0093132D01*
X0240097Y0090733D02*
X0288697Y0090733D01*
X0288697Y0088335D02*
X0240097Y0088335D01*
X0240097Y0085936D02*
X0288697Y0085936D01*
X0288697Y0083538D02*
X0240097Y0083538D01*
X0240097Y0081139D02*
X0288697Y0081139D01*
X0288697Y0078741D02*
X0240097Y0078741D01*
X0240097Y0076342D02*
X0288697Y0076342D01*
X0288697Y0073944D02*
X0240097Y0073944D01*
X0240097Y0071545D02*
X0288697Y0071545D01*
X0288697Y0069146D02*
X0240097Y0069146D01*
X0240097Y0066748D02*
X0288697Y0066748D01*
X0288697Y0064349D02*
X0240097Y0064349D01*
X0240097Y0061951D02*
X0288697Y0061951D01*
X0288697Y0059552D02*
X0240097Y0059552D01*
X0240097Y0057154D02*
X0288697Y0057154D01*
X0288697Y0054755D02*
X0240097Y0054755D01*
X0240097Y0052357D02*
X0288697Y0052357D01*
X0288697Y0049958D02*
X0240097Y0049958D01*
X0240097Y0047560D02*
X0288697Y0047560D01*
X0288697Y0045161D02*
X0240097Y0045161D01*
X0240097Y0042763D02*
X0288697Y0042763D01*
X0288697Y0040364D02*
X0240097Y0040364D01*
X0240097Y0037966D02*
X0288697Y0037966D01*
X0288697Y0035567D02*
X0240097Y0035567D01*
X0240696Y0033169D02*
X0288697Y0033169D01*
X0288697Y0030770D02*
X0240954Y0030770D01*
X0240776Y0033030D02*
X0240776Y0033030D01*
X0240776Y0033030D01*
X0239263Y0028372D02*
X0288697Y0028372D01*
X0288697Y0025973D02*
X0202447Y0025973D01*
X0202447Y0023575D02*
X0288697Y0023575D01*
X0293697Y0023575D02*
X0387799Y0023575D01*
X0387431Y0024213D02*
X0388951Y0021579D01*
X0293697Y0021579D01*
X0293697Y0102657D01*
X0295345Y0101008D01*
X0295650Y0100704D01*
X0296492Y0099430D01*
X0296502Y0099379D01*
X0296797Y0097935D01*
X0296797Y0097504D01*
X0296797Y0074754D01*
X0296797Y0074324D01*
X0296473Y0072737D01*
X0296473Y0072737D01*
X0296394Y0072349D01*
X0296197Y0071874D01*
X0296197Y0071384D01*
X0296123Y0071022D01*
X0296123Y0071022D01*
X0296123Y0071022D01*
X0296123Y0071022D01*
X0296197Y0070639D01*
X0296197Y0069885D01*
X0296958Y0068047D01*
X0298365Y0066640D01*
X0300202Y0065879D01*
X0302191Y0065879D01*
X0304029Y0066640D01*
X0305436Y0068047D01*
X0306197Y0069885D01*
X0306197Y0070640D01*
X0306271Y0071022D01*
X0306197Y0071384D01*
X0306197Y0071874D01*
X0306000Y0072349D01*
X0305927Y0072707D01*
X0305923Y0072725D01*
X0305921Y0072737D01*
X0305597Y0074324D01*
X0305597Y0097935D01*
X0305902Y0099430D01*
X0306000Y0099909D01*
X0306197Y0100385D01*
X0306197Y0100874D01*
X0306271Y0101237D01*
X0306264Y0101273D01*
X0306197Y0101619D01*
X0306197Y0102374D01*
X0305436Y0104212D01*
X0304902Y0104745D01*
X0304684Y0105068D01*
X0304375Y0105272D01*
X0304029Y0105618D01*
X0303554Y0105815D01*
X0301873Y0106926D01*
X0301568Y0107231D01*
X0300597Y0108202D01*
X0300597Y0189830D01*
X0301166Y0190778D01*
X0301436Y0191047D01*
X0301674Y0191622D01*
X0301933Y0192053D01*
X0301933Y0192054D01*
X0301979Y0192358D01*
X0302197Y0192885D01*
X0302197Y0194874D01*
X0301436Y0196712D01*
X0300029Y0198118D01*
X0298191Y0198879D01*
X0296202Y0198879D01*
X0294365Y0198118D01*
X0293697Y0197450D01*
X0293697Y0207679D01*
X0303664Y0207679D01*
X0315597Y0195747D01*
X0315597Y0195464D01*
X0315832Y0194897D01*
X0315944Y0194478D01*
X0315944Y0194478D01*
X0315944Y0194478D01*
X0316077Y0194304D01*
X0316297Y0193774D01*
X0317591Y0192480D01*
X0319282Y0191779D01*
X0321112Y0191779D01*
X0322803Y0192480D01*
X0324097Y0193774D01*
X0324797Y0195464D01*
X0324797Y0197294D01*
X0324097Y0198985D01*
X0322803Y0200279D01*
X0322272Y0200499D01*
X0322098Y0200632D01*
X0321679Y0200744D01*
X0321112Y0200979D01*
X0320829Y0200979D01*
X0308334Y0213475D01*
X0307293Y0214516D01*
X0305933Y0215079D01*
X0293697Y0215079D01*
X0293697Y0256179D01*
X0388951Y0256179D01*
X0387431Y0253546D01*
X0386607Y0250471D01*
X0386607Y0247288D01*
X0387431Y0244213D01*
X0389023Y0241456D01*
X0391274Y0239205D01*
X0394030Y0237613D01*
X0397105Y0236789D01*
X0400288Y0236789D01*
X0403363Y0237613D01*
X0405997Y0239134D01*
X0405997Y0038625D01*
X0403363Y0040145D01*
X0400288Y0040969D01*
X0397105Y0040969D01*
X0394030Y0040145D01*
X0391274Y0038553D01*
X0389023Y0036303D01*
X0387431Y0033546D01*
X0386607Y0030471D01*
X0386607Y0027288D01*
X0387431Y0024213D01*
X0386959Y0025973D02*
X0293697Y0025973D01*
X0293697Y0028372D02*
X0386607Y0028372D01*
X0386687Y0030770D02*
X0293697Y0030770D01*
X0293697Y0033169D02*
X0387330Y0033169D01*
X0388598Y0035567D02*
X0293697Y0035567D01*
X0293697Y0037966D02*
X0390686Y0037966D01*
X0394849Y0040364D02*
X0293697Y0040364D01*
X0293697Y0042763D02*
X0405997Y0042763D01*
X0405997Y0045161D02*
X0293697Y0045161D01*
X0293697Y0047560D02*
X0405997Y0047560D01*
X0405997Y0049958D02*
X0293697Y0049958D01*
X0293697Y0052357D02*
X0405997Y0052357D01*
X0405997Y0054755D02*
X0293697Y0054755D01*
X0293697Y0057154D02*
X0405997Y0057154D01*
X0405997Y0059552D02*
X0293697Y0059552D01*
X0293697Y0061951D02*
X0405997Y0061951D01*
X0405997Y0064349D02*
X0293697Y0064349D01*
X0293697Y0066748D02*
X0298257Y0066748D01*
X0296503Y0069146D02*
X0293697Y0069146D01*
X0293697Y0071545D02*
X0296197Y0071545D01*
X0296719Y0073944D02*
X0293697Y0073944D01*
X0293697Y0076342D02*
X0296797Y0076342D01*
X0296797Y0074754D02*
X0296797Y0074754D01*
X0301197Y0073879D02*
X0301785Y0070999D01*
X0301197Y0070879D01*
X0300609Y0070999D01*
X0301197Y0070879D01*
X0301785Y0070999D01*
X0301197Y0073879D01*
X0301785Y0070999D01*
X0301785Y0070999D01*
X0301197Y0073879D01*
X0300609Y0070999D01*
X0300609Y0070999D01*
X0301197Y0073879D01*
X0301197Y0070879D01*
X0300609Y0070999D02*
X0301197Y0073879D01*
X0301197Y0073879D01*
X0300609Y0070999D01*
X0301197Y0073879D02*
X0301197Y0073879D01*
X0301197Y0098379D01*
X0300609Y0101259D01*
X0301197Y0101379D01*
X0301528Y0101880D01*
X0299076Y0103501D01*
X0300696Y0101048D01*
X0301197Y0101379D01*
X0300609Y0101259D01*
X0301197Y0098379D01*
X0301785Y0101259D01*
X0301197Y0101379D01*
X0301785Y0101259D01*
X0301197Y0098379D01*
X0301197Y0098379D01*
X0301197Y0098379D01*
X0300609Y0101259D01*
X0300609Y0101259D01*
X0301197Y0098379D01*
X0301785Y0101259D01*
X0301785Y0101259D01*
X0301197Y0098379D01*
X0301197Y0101379D01*
X0299076Y0103501D01*
X0296197Y0106379D01*
X0296197Y0191051D01*
X0296603Y0193962D01*
X0297197Y0193879D01*
X0297711Y0193570D01*
X0296197Y0191051D01*
X0296197Y0192879D01*
X0297197Y0193879D01*
X0302197Y0193869D02*
X0316258Y0193869D01*
X0315076Y0196268D02*
X0301620Y0196268D01*
X0298706Y0198666D02*
X0312677Y0198666D01*
X0310279Y0201065D02*
X0293697Y0201065D01*
X0293697Y0203463D02*
X0307880Y0203463D01*
X0305482Y0205862D02*
X0293697Y0205862D01*
X0293697Y0198666D02*
X0295688Y0198666D01*
X0301933Y0192054D02*
X0301933Y0192054D01*
X0301611Y0191471D02*
X0384447Y0191471D01*
X0384447Y0191379D02*
X0393697Y0191379D01*
X0402947Y0191379D01*
X0402947Y0191830D01*
X0402806Y0192720D01*
X0402527Y0193577D01*
X0402118Y0194380D01*
X0401589Y0195109D01*
X0400951Y0195746D01*
X0400222Y0196276D01*
X0399419Y0196685D01*
X0398562Y0196963D01*
X0397672Y0197104D01*
X0393697Y0197104D01*
X0393697Y0191379D01*
X0384447Y0191379D01*
X0386197Y0191379D02*
X0354025Y0159208D01*
X0351197Y0156379D01*
X0351197Y0149179D01*
X0354179Y0149179D01*
X0358397Y0153397D01*
X0358397Y0156379D01*
X0351197Y0156379D01*
X0351197Y0156379D01*
X0351197Y0156379D01*
X0351197Y0149179D01*
X0348215Y0149179D01*
X0343997Y0153397D01*
X0343997Y0156379D01*
X0351197Y0156379D01*
X0358397Y0156379D01*
X0358397Y0159362D01*
X0354179Y0163579D01*
X0351197Y0163579D01*
X0351197Y0156379D01*
X0351197Y0156379D01*
X0351197Y0156379D01*
X0343997Y0156379D01*
X0343997Y0159362D01*
X0348215Y0163579D01*
X0351197Y0163579D01*
X0351197Y0156379D01*
X0351197Y0155493D02*
X0351197Y0155493D01*
X0351197Y0157891D02*
X0351197Y0157891D01*
X0351197Y0160290D02*
X0351197Y0160290D01*
X0351197Y0162688D02*
X0351197Y0162688D01*
X0355070Y0162688D02*
X0405997Y0162688D01*
X0405997Y0160290D02*
X0357468Y0160290D01*
X0358397Y0157891D02*
X0405997Y0157891D01*
X0405997Y0155493D02*
X0358397Y0155493D01*
X0358094Y0153094D02*
X0405997Y0153094D01*
X0405997Y0150696D02*
X0355696Y0150696D01*
X0351197Y0150696D02*
X0351197Y0150696D01*
X0351197Y0153094D02*
X0351197Y0153094D01*
X0346698Y0150696D02*
X0337126Y0150696D01*
X0337221Y0150807D02*
X0338148Y0151734D01*
X0339397Y0154748D01*
X0339397Y0158010D01*
X0338148Y0161024D01*
X0335842Y0163331D01*
X0332828Y0164579D01*
X0329566Y0164579D01*
X0326552Y0163331D01*
X0324245Y0161024D01*
X0322997Y0158010D01*
X0322997Y0154748D01*
X0324245Y0151734D01*
X0325173Y0150807D01*
X0326508Y0149246D01*
X0326710Y0148848D01*
X0326797Y0148774D01*
X0326797Y0088985D01*
X0326710Y0088911D01*
X0326508Y0088512D01*
X0325173Y0086952D01*
X0324245Y0086024D01*
X0322997Y0083010D01*
X0322997Y0079748D01*
X0324245Y0076734D01*
X0326552Y0074428D01*
X0329566Y0073179D01*
X0332828Y0073179D01*
X0335842Y0074428D01*
X0338148Y0076734D01*
X0339397Y0079748D01*
X0339397Y0083010D01*
X0338148Y0086024D01*
X0337221Y0086952D01*
X0337017Y0087190D01*
X0335886Y0088512D01*
X0335683Y0088911D01*
X0335597Y0088985D01*
X0335597Y0148774D01*
X0335683Y0148848D01*
X0335886Y0149246D01*
X0337221Y0150807D01*
X0338712Y0153094D02*
X0344299Y0153094D01*
X0343997Y0155493D02*
X0339397Y0155493D01*
X0339397Y0157891D02*
X0343997Y0157891D01*
X0344925Y0160290D02*
X0338453Y0160290D01*
X0336484Y0162688D02*
X0347324Y0162688D01*
X0331197Y0156379D02*
X0331197Y0152379D01*
X0331197Y0085379D01*
X0331197Y0081379D01*
X0324209Y0085936D02*
X0305597Y0085936D01*
X0305597Y0083538D02*
X0323215Y0083538D01*
X0322997Y0081139D02*
X0305597Y0081139D01*
X0305597Y0078741D02*
X0323414Y0078741D01*
X0324638Y0076342D02*
X0305597Y0076342D01*
X0305674Y0073944D02*
X0327721Y0073944D01*
X0334673Y0073944D02*
X0405997Y0073944D01*
X0405997Y0076342D02*
X0356342Y0076342D01*
X0358397Y0078397D02*
X0354179Y0074179D01*
X0351197Y0074179D01*
X0351197Y0081379D01*
X0351197Y0081379D01*
X0351197Y0081379D01*
X0358397Y0081379D01*
X0358397Y0078397D01*
X0358397Y0078741D02*
X0405997Y0078741D01*
X0405997Y0081139D02*
X0358397Y0081139D01*
X0358397Y0081379D02*
X0358397Y0084362D01*
X0354179Y0088579D01*
X0351197Y0088579D01*
X0351197Y0081379D01*
X0351197Y0074179D01*
X0348215Y0074179D01*
X0343997Y0078397D01*
X0343997Y0081379D01*
X0351197Y0081379D01*
X0358397Y0081379D01*
X0358397Y0083538D02*
X0405997Y0083538D01*
X0405997Y0085936D02*
X0356822Y0085936D01*
X0354424Y0088335D02*
X0405997Y0088335D01*
X0405997Y0090733D02*
X0335597Y0090733D01*
X0335597Y0093132D02*
X0386268Y0093132D01*
X0386215Y0093154D02*
X0388833Y0092069D01*
X0398718Y0092069D01*
X0401337Y0093154D01*
X0403341Y0095158D01*
X0404426Y0097777D01*
X0404426Y0100611D01*
X0403341Y0103230D01*
X0401337Y0105234D01*
X0398718Y0106319D01*
X0388833Y0106319D01*
X0386215Y0105234D01*
X0384210Y0103230D01*
X0383126Y0100611D01*
X0383126Y0097777D01*
X0384210Y0095158D01*
X0386215Y0093154D01*
X0384056Y0095530D02*
X0335597Y0095530D01*
X0335597Y0097929D02*
X0383126Y0097929D01*
X0383126Y0100327D02*
X0335597Y0100327D01*
X0335597Y0102726D02*
X0384001Y0102726D01*
X0386104Y0105124D02*
X0335597Y0105124D01*
X0335597Y0107523D02*
X0405997Y0107523D01*
X0405997Y0109921D02*
X0335597Y0109921D01*
X0335597Y0112320D02*
X0387468Y0112320D01*
X0386215Y0112839D02*
X0388833Y0111754D01*
X0398718Y0111754D01*
X0401337Y0112839D01*
X0403341Y0114843D01*
X0404426Y0117462D01*
X0404426Y0120296D01*
X0403341Y0122915D01*
X0401337Y0124920D01*
X0398718Y0126004D01*
X0388833Y0126004D01*
X0386215Y0124920D01*
X0384210Y0122915D01*
X0383126Y0120296D01*
X0383126Y0117462D01*
X0384210Y0114843D01*
X0386215Y0112839D01*
X0384335Y0114718D02*
X0335597Y0114718D01*
X0335597Y0117117D02*
X0383269Y0117117D01*
X0383126Y0119515D02*
X0335597Y0119515D01*
X0335597Y0121914D02*
X0383795Y0121914D01*
X0385607Y0124312D02*
X0335597Y0124312D01*
X0335597Y0126711D02*
X0405997Y0126711D01*
X0405997Y0129109D02*
X0335597Y0129109D01*
X0335597Y0131508D02*
X0388668Y0131508D01*
X0388833Y0131439D02*
X0386215Y0132524D01*
X0384210Y0134528D01*
X0383126Y0137147D01*
X0383126Y0139982D01*
X0384210Y0142600D01*
X0386215Y0144605D01*
X0388833Y0145689D01*
X0398718Y0145689D01*
X0401337Y0144605D01*
X0403341Y0142600D01*
X0404426Y0139982D01*
X0404426Y0137147D01*
X0403341Y0134528D01*
X0401337Y0132524D01*
X0398718Y0131439D01*
X0388833Y0131439D01*
X0384832Y0133906D02*
X0335597Y0133906D01*
X0335597Y0136305D02*
X0383474Y0136305D01*
X0383126Y0138703D02*
X0335597Y0138703D01*
X0335597Y0141102D02*
X0383590Y0141102D01*
X0385110Y0143500D02*
X0335597Y0143500D01*
X0335597Y0145899D02*
X0405997Y0145899D01*
X0405997Y0148297D02*
X0335597Y0148297D01*
X0326797Y0148297D02*
X0300597Y0148297D01*
X0300597Y0145899D02*
X0326797Y0145899D01*
X0326797Y0143500D02*
X0300597Y0143500D01*
X0300597Y0141102D02*
X0326797Y0141102D01*
X0326797Y0138703D02*
X0300597Y0138703D01*
X0300597Y0136305D02*
X0326797Y0136305D01*
X0326797Y0133906D02*
X0300597Y0133906D01*
X0300597Y0131508D02*
X0326797Y0131508D01*
X0326797Y0129109D02*
X0300597Y0129109D01*
X0300597Y0126711D02*
X0326797Y0126711D01*
X0326797Y0124312D02*
X0300597Y0124312D01*
X0300597Y0121914D02*
X0326797Y0121914D01*
X0326797Y0119515D02*
X0300597Y0119515D01*
X0300597Y0117117D02*
X0326797Y0117117D01*
X0326797Y0114718D02*
X0300597Y0114718D01*
X0300597Y0112320D02*
X0326797Y0112320D01*
X0326797Y0109921D02*
X0300597Y0109921D01*
X0301276Y0107523D02*
X0326797Y0107523D01*
X0326797Y0105124D02*
X0304599Y0105124D01*
X0304684Y0105068D02*
X0304684Y0105068D01*
X0304684Y0105068D01*
X0306051Y0102726D02*
X0326797Y0102726D01*
X0326797Y0100327D02*
X0306173Y0100327D01*
X0306271Y0101237D02*
X0306271Y0101237D01*
X0306271Y0101237D01*
X0306271Y0101237D01*
X0305597Y0097929D02*
X0326797Y0097929D01*
X0326797Y0095530D02*
X0305597Y0095530D01*
X0305597Y0093132D02*
X0326797Y0093132D01*
X0326797Y0090733D02*
X0305597Y0090733D01*
X0305597Y0088335D02*
X0326356Y0088335D01*
X0336038Y0088335D02*
X0347970Y0088335D01*
X0348215Y0088579D02*
X0343997Y0084362D01*
X0343997Y0081379D01*
X0351197Y0081379D01*
X0351197Y0081379D01*
X0351197Y0081379D01*
X0351197Y0088579D01*
X0348215Y0088579D01*
X0351197Y0088335D02*
X0351197Y0088335D01*
X0351197Y0085936D02*
X0351197Y0085936D01*
X0351197Y0083538D02*
X0351197Y0083538D01*
X0351197Y0081139D02*
X0351197Y0081139D01*
X0351197Y0078741D02*
X0351197Y0078741D01*
X0351197Y0076342D02*
X0351197Y0076342D01*
X0346052Y0076342D02*
X0337756Y0076342D01*
X0338979Y0078741D02*
X0343997Y0078741D01*
X0343997Y0081139D02*
X0339397Y0081139D01*
X0339178Y0083538D02*
X0343997Y0083538D01*
X0345571Y0085936D02*
X0338185Y0085936D01*
X0306197Y0071545D02*
X0405997Y0071545D01*
X0405997Y0069146D02*
X0305891Y0069146D01*
X0306271Y0071022D02*
X0306271Y0071022D01*
X0304137Y0066748D02*
X0405997Y0066748D01*
X0405997Y0040364D02*
X0402545Y0040364D01*
X0401283Y0093132D02*
X0405997Y0093132D01*
X0405997Y0095530D02*
X0403495Y0095530D01*
X0404426Y0097929D02*
X0405997Y0097929D01*
X0405997Y0100327D02*
X0404426Y0100327D01*
X0403550Y0102726D02*
X0405997Y0102726D01*
X0405997Y0105124D02*
X0401447Y0105124D01*
X0400083Y0112320D02*
X0405997Y0112320D01*
X0405997Y0114718D02*
X0403216Y0114718D01*
X0404283Y0117117D02*
X0405997Y0117117D01*
X0405997Y0119515D02*
X0404426Y0119515D01*
X0403756Y0121914D02*
X0405997Y0121914D01*
X0405997Y0124312D02*
X0401944Y0124312D01*
X0398883Y0131508D02*
X0405997Y0131508D01*
X0405997Y0133906D02*
X0402719Y0133906D01*
X0404077Y0136305D02*
X0405997Y0136305D01*
X0405997Y0138703D02*
X0404426Y0138703D01*
X0403962Y0141102D02*
X0405997Y0141102D01*
X0405997Y0143500D02*
X0402441Y0143500D01*
X0405997Y0165087D02*
X0300597Y0165087D01*
X0300597Y0167485D02*
X0405997Y0167485D01*
X0405997Y0169884D02*
X0300597Y0169884D01*
X0300597Y0172282D02*
X0405997Y0172282D01*
X0405997Y0174681D02*
X0300597Y0174681D01*
X0300597Y0177079D02*
X0405997Y0177079D01*
X0405997Y0179478D02*
X0300597Y0179478D01*
X0300597Y0181877D02*
X0405997Y0181877D01*
X0405997Y0184275D02*
X0300597Y0184275D01*
X0300597Y0186674D02*
X0386909Y0186674D01*
X0384922Y0189072D02*
X0300597Y0189072D01*
X0288697Y0184275D02*
X0207175Y0184275D01*
X0208497Y0181877D02*
X0288697Y0181877D01*
X0288697Y0179478D02*
X0208022Y0179478D01*
X0208366Y0180225D02*
X0208366Y0180225D01*
X0208366Y0180225D01*
X0207697Y0177079D02*
X0288697Y0177079D01*
X0288697Y0174681D02*
X0207697Y0174681D01*
X0207697Y0172282D02*
X0288697Y0172282D01*
X0288697Y0169884D02*
X0231187Y0169884D01*
X0231440Y0167485D02*
X0288697Y0167485D01*
X0288697Y0165087D02*
X0230597Y0165087D01*
X0231276Y0166979D02*
X0231276Y0166979D01*
X0231276Y0166979D01*
X0231276Y0166979D01*
X0230597Y0162688D02*
X0288697Y0162688D01*
X0288697Y0160290D02*
X0230597Y0160290D01*
X0230597Y0157891D02*
X0288697Y0157891D01*
X0288697Y0155493D02*
X0232684Y0155493D01*
X0224797Y0157602D02*
X0224797Y0157602D01*
X0224797Y0157891D02*
X0207331Y0157891D01*
X0207432Y0155493D02*
X0224241Y0155493D01*
X0223909Y0153094D02*
X0207641Y0153094D01*
X0207197Y0150696D02*
X0225506Y0150696D01*
X0224797Y0158756D02*
X0224797Y0158756D01*
X0224797Y0160290D02*
X0207697Y0160290D01*
X0207697Y0162688D02*
X0224797Y0162688D01*
X0224797Y0165087D02*
X0207697Y0165087D01*
X0207697Y0167485D02*
X0223954Y0167485D01*
X0224207Y0169884D02*
X0207697Y0169884D01*
X0196481Y0160290D02*
X0195913Y0160290D01*
X0200703Y0158830D02*
X0201197Y0156379D01*
X0203696Y0156325D01*
X0203764Y0159447D01*
X0200703Y0158830D01*
X0201197Y0156379D02*
X0200922Y0153894D01*
X0204025Y0153551D01*
X0203682Y0156654D01*
X0201197Y0156379D01*
X0190296Y0145459D02*
X0190296Y0145459D01*
X0190296Y0145459D01*
X0181097Y0145459D02*
X0181097Y0145459D01*
X0181097Y0145459D01*
X0176481Y0160290D02*
X0175913Y0160290D01*
X0185913Y0160290D02*
X0186481Y0160290D01*
X0201028Y0180225D02*
X0201028Y0180225D01*
X0221475Y0193790D02*
X0221475Y0193790D01*
X0221475Y0193790D01*
X0207397Y0210659D02*
X0207160Y0210659D01*
X0207779Y0213057D02*
X0204762Y0213057D01*
X0202363Y0215456D02*
X0288697Y0215456D01*
X0288697Y0217854D02*
X0199965Y0217854D01*
X0197566Y0220253D02*
X0288697Y0220253D01*
X0288697Y0222651D02*
X0195168Y0222651D01*
X0192769Y0225050D02*
X0288697Y0225050D01*
X0288697Y0227448D02*
X0190370Y0227448D01*
X0187972Y0229847D02*
X0278588Y0229847D01*
X0277385Y0232245D02*
X0185573Y0232245D01*
X0183175Y0234644D02*
X0277264Y0234644D01*
X0278084Y0237042D02*
X0180776Y0237042D01*
X0160630Y0234132D02*
X0160960Y0231616D01*
X0158444Y0231946D01*
X0158697Y0233879D01*
X0160630Y0234132D01*
X0150697Y0237042D02*
X0063989Y0237042D01*
X0064797Y0234644D02*
X0149219Y0234644D01*
X0146820Y0232245D02*
X0064623Y0232245D01*
X0063291Y0229847D02*
X0144422Y0229847D01*
X0142023Y0227448D02*
X0061870Y0227448D01*
X0064269Y0225050D02*
X0139625Y0225050D01*
X0137226Y0222651D02*
X0066668Y0222651D01*
X0069066Y0220253D02*
X0105328Y0220253D01*
X0102929Y0217854D02*
X0071465Y0217854D01*
X0073863Y0215456D02*
X0101197Y0215456D01*
X0101477Y0208260D02*
X0074320Y0208260D01*
X0071922Y0205862D02*
X0099078Y0205862D01*
X0096680Y0203463D02*
X0069523Y0203463D01*
X0067125Y0201065D02*
X0094281Y0201065D01*
X0091883Y0198666D02*
X0064726Y0198666D01*
X0063697Y0196268D02*
X0089484Y0196268D01*
X0087085Y0193869D02*
X0063158Y0193869D01*
X0054236Y0193869D02*
X0026397Y0193869D01*
X0026397Y0191471D02*
X0084717Y0191471D01*
X0084297Y0189072D02*
X0026397Y0189072D01*
X0026397Y0186674D02*
X0084297Y0186674D01*
X0084297Y0184275D02*
X0026397Y0184275D01*
X0026397Y0181877D02*
X0084297Y0181877D01*
X0084297Y0175129D02*
X0084297Y0153580D01*
X0064361Y0133645D01*
X0063868Y0134835D01*
X0062324Y0136379D01*
X0063868Y0137924D01*
X0064797Y0140166D01*
X0064797Y0142593D01*
X0063868Y0144835D01*
X0062324Y0146379D01*
X0063868Y0147924D01*
X0064797Y0150166D01*
X0064797Y0152593D01*
X0063868Y0154835D01*
X0062324Y0156379D01*
X0063868Y0157924D01*
X0064797Y0160166D01*
X0064797Y0162593D01*
X0063868Y0164835D01*
X0062152Y0166551D01*
X0062112Y0166567D01*
X0062540Y0166879D01*
X0063197Y0167536D01*
X0063743Y0168287D01*
X0064165Y0169114D01*
X0064452Y0169998D01*
X0064597Y0170915D01*
X0064597Y0171379D01*
X0058697Y0171379D01*
X0058697Y0171379D01*
X0064597Y0171379D01*
X0064597Y0171844D01*
X0064452Y0172761D01*
X0064165Y0173644D01*
X0063743Y0174472D01*
X0063265Y0175129D01*
X0084297Y0175129D01*
X0084297Y0174681D02*
X0063591Y0174681D01*
X0064527Y0172282D02*
X0084297Y0172282D01*
X0084297Y0169884D02*
X0064415Y0169884D01*
X0063147Y0167485D02*
X0084297Y0167485D01*
X0084297Y0165087D02*
X0063616Y0165087D01*
X0064757Y0162688D02*
X0084297Y0162688D01*
X0084297Y0160290D02*
X0064797Y0160290D01*
X0063836Y0157891D02*
X0084297Y0157891D01*
X0084297Y0155493D02*
X0063210Y0155493D01*
X0064589Y0153094D02*
X0083811Y0153094D01*
X0081412Y0150696D02*
X0064797Y0150696D01*
X0064023Y0148297D02*
X0079014Y0148297D01*
X0076615Y0145899D02*
X0062804Y0145899D01*
X0064421Y0143500D02*
X0074217Y0143500D01*
X0071818Y0141102D02*
X0064797Y0141102D01*
X0064191Y0138703D02*
X0069420Y0138703D01*
X0067021Y0136305D02*
X0062398Y0136305D01*
X0064253Y0133906D02*
X0064623Y0133906D01*
X0055070Y0136379D02*
X0053526Y0134835D01*
X0052597Y0132593D01*
X0052597Y0130166D01*
X0053526Y0127924D01*
X0055241Y0126208D01*
X0056431Y0125715D01*
X0056238Y0125522D01*
X0055797Y0124456D01*
X0055797Y0109763D01*
X0055785Y0109733D01*
X0055470Y0109389D01*
X0054653Y0108496D01*
X0054653Y0108496D01*
X0054287Y0108096D01*
X0053526Y0107335D01*
X0052597Y0105093D01*
X0052597Y0102666D01*
X0053526Y0100424D01*
X0055070Y0098879D01*
X0053526Y0097335D01*
X0052597Y0095093D01*
X0052597Y0092666D01*
X0053526Y0090424D01*
X0055070Y0088879D01*
X0053526Y0087335D01*
X0052597Y0085093D01*
X0052597Y0082666D01*
X0053526Y0080424D01*
X0055070Y0078879D01*
X0053526Y0077335D01*
X0052597Y0075093D01*
X0052597Y0072666D01*
X0053526Y0070424D01*
X0055070Y0068879D01*
X0053526Y0067335D01*
X0052597Y0065093D01*
X0052597Y0062666D01*
X0053526Y0060424D01*
X0055070Y0058879D01*
X0053526Y0057335D01*
X0052597Y0055093D01*
X0052597Y0052666D01*
X0053526Y0050424D01*
X0055241Y0048708D01*
X0057483Y0047779D01*
X0058561Y0047779D01*
X0060795Y0047680D01*
X0077054Y0031421D01*
X0078120Y0030979D01*
X0105313Y0030979D01*
X0105343Y0030967D01*
X0105886Y0030470D01*
X0106012Y0030355D01*
X0106980Y0029470D01*
X0107741Y0028708D01*
X0109983Y0027779D01*
X0112410Y0027779D01*
X0114652Y0028708D01*
X0116197Y0030253D01*
X0117741Y0028708D01*
X0119983Y0027779D01*
X0122410Y0027779D01*
X0124652Y0028708D01*
X0126368Y0030424D01*
X0127297Y0032666D01*
X0127297Y0035093D01*
X0126883Y0036092D01*
X0138738Y0024237D01*
X0139554Y0023421D01*
X0140620Y0022979D01*
X0196774Y0022979D01*
X0197447Y0023258D01*
X0197447Y0021579D01*
X0043442Y0021579D01*
X0044963Y0024213D01*
X0045787Y0027288D01*
X0045787Y0030471D01*
X0044963Y0033546D01*
X0043371Y0036303D01*
X0041120Y0038553D01*
X0038363Y0040145D01*
X0035288Y0040969D01*
X0032105Y0040969D01*
X0029030Y0040145D01*
X0026397Y0038625D01*
X0026397Y0175129D01*
X0054129Y0175129D01*
X0053651Y0174472D01*
X0053229Y0173644D01*
X0052942Y0172761D01*
X0052797Y0171844D01*
X0052797Y0171379D01*
X0052797Y0170915D01*
X0052942Y0169998D01*
X0053229Y0169114D01*
X0053651Y0168287D01*
X0054197Y0167536D01*
X0054853Y0166879D01*
X0055282Y0166567D01*
X0055241Y0166551D01*
X0053526Y0164835D01*
X0052597Y0162593D01*
X0052597Y0160166D01*
X0053526Y0157924D01*
X0055070Y0156379D01*
X0053526Y0154835D01*
X0052597Y0152593D01*
X0052597Y0150166D01*
X0053526Y0147924D01*
X0055070Y0146379D01*
X0053526Y0144835D01*
X0052597Y0142593D01*
X0052597Y0140166D01*
X0053526Y0137924D01*
X0055070Y0136379D01*
X0054996Y0136305D02*
X0026397Y0136305D01*
X0026397Y0138703D02*
X0053203Y0138703D01*
X0052597Y0141102D02*
X0026397Y0141102D01*
X0026397Y0143500D02*
X0052973Y0143500D01*
X0054590Y0145899D02*
X0026397Y0145899D01*
X0026397Y0148297D02*
X0053371Y0148297D01*
X0052597Y0150696D02*
X0026397Y0150696D01*
X0026397Y0153094D02*
X0052805Y0153094D01*
X0054184Y0155493D02*
X0026397Y0155493D01*
X0026397Y0157891D02*
X0053558Y0157891D01*
X0052597Y0160290D02*
X0026397Y0160290D01*
X0026397Y0162688D02*
X0052637Y0162688D01*
X0053778Y0165087D02*
X0026397Y0165087D01*
X0026397Y0167485D02*
X0054247Y0167485D01*
X0052979Y0169884D02*
X0026397Y0169884D01*
X0026397Y0172282D02*
X0052866Y0172282D01*
X0052797Y0171379D02*
X0058697Y0171379D01*
X0052797Y0171379D01*
X0053803Y0174681D02*
X0026397Y0174681D01*
X0026397Y0196268D02*
X0053697Y0196268D01*
X0053813Y0198666D02*
X0026397Y0198666D01*
X0026397Y0201065D02*
X0056211Y0201065D01*
X0053697Y0204308D02*
X0050768Y0201379D01*
X0046626Y0201379D01*
X0043697Y0204308D01*
X0043697Y0208450D01*
X0046626Y0211379D01*
X0050768Y0211379D01*
X0053697Y0208450D01*
X0053697Y0204308D01*
X0052852Y0203463D02*
X0061038Y0203463D01*
X0063437Y0205862D02*
X0053697Y0205862D01*
X0053697Y0208260D02*
X0065835Y0208260D01*
X0068234Y0210659D02*
X0051488Y0210659D01*
X0054848Y0213057D02*
X0026397Y0213057D01*
X0026397Y0210659D02*
X0045905Y0210659D01*
X0043697Y0208260D02*
X0026397Y0208260D01*
X0026397Y0205862D02*
X0043697Y0205862D01*
X0044542Y0203463D02*
X0026397Y0203463D01*
X0026397Y0215456D02*
X0053697Y0215456D01*
X0053697Y0217854D02*
X0026397Y0217854D01*
X0026397Y0220253D02*
X0055599Y0220253D01*
X0058182Y0222651D02*
X0026397Y0222651D01*
X0026397Y0225050D02*
X0056000Y0225050D01*
X0055697Y0227448D02*
X0026397Y0227448D01*
X0026397Y0229847D02*
X0054103Y0229847D01*
X0054383Y0229508D02*
X0054383Y0229508D01*
X0055645Y0227840D02*
X0055645Y0227840D01*
X0055645Y0227840D01*
X0058697Y0229879D02*
X0056745Y0232317D01*
X0058697Y0233879D01*
X0060648Y0232317D01*
X0058697Y0229879D01*
X0058697Y0229879D01*
X0060648Y0232317D01*
X0058697Y0233879D01*
X0056745Y0232317D01*
X0058697Y0229879D01*
X0060648Y0232317D01*
X0060648Y0232317D01*
X0058697Y0229879D01*
X0060648Y0232317D01*
X0058697Y0229879D01*
X0056745Y0232317D01*
X0056745Y0232317D01*
X0058697Y0233879D01*
X0056745Y0232317D01*
X0056745Y0232317D01*
X0058697Y0229879D01*
X0058697Y0229879D01*
X0060648Y0232317D01*
X0058697Y0233879D01*
X0060648Y0232317D01*
X0060648Y0232317D01*
X0060648Y0232317D01*
X0058697Y0229879D02*
X0058697Y0229879D01*
X0056745Y0232317D01*
X0056745Y0232317D01*
X0058697Y0229879D01*
X0052771Y0232245D02*
X0026397Y0232245D01*
X0026397Y0234644D02*
X0052597Y0234644D01*
X0053404Y0237042D02*
X0036232Y0237042D01*
X0031162Y0237042D02*
X0026397Y0237042D01*
X0041356Y0239441D02*
X0054509Y0239441D01*
X0052939Y0241839D02*
X0043592Y0241839D01*
X0044969Y0244238D02*
X0052597Y0244238D01*
X0053236Y0246636D02*
X0045612Y0246636D01*
X0045787Y0249035D02*
X0055226Y0249035D01*
X0062168Y0249035D02*
X0148610Y0249035D01*
X0151008Y0251433D02*
X0045529Y0251433D01*
X0044798Y0253832D02*
X0153407Y0253832D01*
X0153146Y0244238D02*
X0152298Y0244238D01*
X0152414Y0241839D02*
X0149900Y0241839D01*
X0150697Y0239441D02*
X0131826Y0239441D01*
X0128568Y0239441D02*
X0062885Y0239441D01*
X0064454Y0241839D02*
X0126515Y0241839D01*
X0126647Y0244238D02*
X0064797Y0244238D01*
X0064157Y0246636D02*
X0129337Y0246636D01*
X0131056Y0246636D02*
X0146211Y0246636D01*
X0156763Y0244132D02*
X0156434Y0241616D01*
X0158950Y0241946D01*
X0158697Y0243879D01*
X0156763Y0244132D01*
X0134828Y0220253D02*
X0127066Y0220253D01*
X0129333Y0217854D02*
X0132429Y0217854D01*
X0130031Y0215456D02*
X0129697Y0215456D01*
X0067776Y0213057D02*
X0062546Y0213057D01*
X0063697Y0215456D02*
X0065378Y0215456D01*
X0058697Y0171379D02*
X0058697Y0171379D01*
X0053141Y0133906D02*
X0026397Y0133906D01*
X0026397Y0131508D02*
X0052597Y0131508D01*
X0053034Y0129109D02*
X0026397Y0129109D01*
X0026397Y0126711D02*
X0054739Y0126711D01*
X0055797Y0124312D02*
X0026397Y0124312D01*
X0026397Y0121914D02*
X0055797Y0121914D01*
X0055797Y0119515D02*
X0026397Y0119515D01*
X0026397Y0117117D02*
X0055797Y0117117D01*
X0055797Y0114718D02*
X0026397Y0114718D01*
X0026397Y0112320D02*
X0055797Y0112320D01*
X0055797Y0109921D02*
X0026397Y0109921D01*
X0026397Y0107523D02*
X0053714Y0107523D01*
X0052610Y0105124D02*
X0026397Y0105124D01*
X0026397Y0102726D02*
X0052597Y0102726D01*
X0053622Y0100327D02*
X0026397Y0100327D01*
X0026397Y0097929D02*
X0054120Y0097929D01*
X0052778Y0095530D02*
X0026397Y0095530D01*
X0026397Y0093132D02*
X0052597Y0093132D01*
X0053397Y0090733D02*
X0026397Y0090733D01*
X0026397Y0088335D02*
X0054525Y0088335D01*
X0052946Y0085936D02*
X0026397Y0085936D01*
X0026397Y0083538D02*
X0052597Y0083538D01*
X0053229Y0081139D02*
X0026397Y0081139D01*
X0026397Y0078741D02*
X0054931Y0078741D01*
X0053114Y0076342D02*
X0026397Y0076342D01*
X0026397Y0073944D02*
X0052597Y0073944D01*
X0053061Y0071545D02*
X0026397Y0071545D01*
X0026397Y0069146D02*
X0054803Y0069146D01*
X0053283Y0066748D02*
X0026397Y0066748D01*
X0026397Y0064349D02*
X0052597Y0064349D01*
X0052893Y0061951D02*
X0026397Y0061951D01*
X0026397Y0059552D02*
X0054397Y0059552D01*
X0053451Y0057154D02*
X0026397Y0057154D01*
X0026397Y0054755D02*
X0052597Y0054755D01*
X0052725Y0052357D02*
X0026397Y0052357D01*
X0026397Y0049958D02*
X0053991Y0049958D01*
X0060915Y0047560D02*
X0026397Y0047560D01*
X0026397Y0045161D02*
X0063313Y0045161D01*
X0065712Y0042763D02*
X0026397Y0042763D01*
X0026397Y0040364D02*
X0029849Y0040364D01*
X0037545Y0040364D02*
X0068111Y0040364D01*
X0070509Y0037966D02*
X0041708Y0037966D01*
X0043796Y0035567D02*
X0072908Y0035567D01*
X0075306Y0033169D02*
X0045064Y0033169D01*
X0045706Y0030770D02*
X0105558Y0030770D01*
X0108553Y0028372D02*
X0045787Y0028372D01*
X0045434Y0025973D02*
X0137002Y0025973D01*
X0139400Y0023575D02*
X0044594Y0023575D01*
X0071516Y0045161D02*
X0117813Y0045161D01*
X0115415Y0047560D02*
X0069117Y0047560D01*
X0066719Y0049958D02*
X0113016Y0049958D01*
X0110618Y0052357D02*
X0064871Y0052357D01*
X0064896Y0051781D02*
X0064821Y0053475D01*
X0064797Y0054015D01*
X0064797Y0055093D01*
X0063868Y0057335D01*
X0062324Y0058879D01*
X0063868Y0060424D01*
X0064797Y0062666D01*
X0064797Y0065093D01*
X0063868Y0067335D01*
X0062324Y0068879D01*
X0063868Y0070424D01*
X0064797Y0072666D01*
X0064797Y0075093D01*
X0063868Y0077335D01*
X0062324Y0078879D01*
X0063868Y0080424D01*
X0064797Y0082666D01*
X0064797Y0085093D01*
X0063868Y0087335D01*
X0062324Y0088879D01*
X0063868Y0090424D01*
X0064797Y0092666D01*
X0064797Y0095093D01*
X0064556Y0095675D01*
X0064555Y0095710D01*
X0064308Y0096272D01*
X0063868Y0097335D01*
X0063822Y0097381D01*
X0063815Y0097396D01*
X0076422Y0110003D01*
X0076422Y0108177D01*
X0076863Y0107112D01*
X0077679Y0106296D01*
X0083324Y0100651D01*
X0083397Y0100379D01*
X0083397Y0100123D01*
X0083591Y0099655D01*
X0083670Y0099359D01*
X0083676Y0099339D01*
X0083776Y0099207D01*
X0083975Y0098727D01*
X0085044Y0097658D01*
X0086441Y0097079D01*
X0087297Y0097079D01*
X0087297Y0076302D01*
X0087738Y0075237D01*
X0123410Y0039565D01*
X0122410Y0039979D01*
X0119983Y0039979D01*
X0117741Y0039051D01*
X0116197Y0037506D01*
X0114652Y0039051D01*
X0112410Y0039979D01*
X0109983Y0039979D01*
X0107741Y0039051D01*
X0106980Y0038289D01*
X0105459Y0036897D01*
X0105343Y0036792D01*
X0105313Y0036779D01*
X0079898Y0036779D01*
X0064896Y0051781D01*
X0064797Y0054755D02*
X0108219Y0054755D01*
X0105821Y0057154D02*
X0063943Y0057154D01*
X0062997Y0059552D02*
X0103422Y0059552D01*
X0101024Y0061951D02*
X0064501Y0061951D01*
X0064797Y0064349D02*
X0098625Y0064349D01*
X0096227Y0066748D02*
X0064111Y0066748D01*
X0062591Y0069146D02*
X0093828Y0069146D01*
X0091430Y0071545D02*
X0064333Y0071545D01*
X0064797Y0073944D02*
X0089031Y0073944D01*
X0087297Y0076342D02*
X0064279Y0076342D01*
X0062462Y0078741D02*
X0087297Y0078741D01*
X0087297Y0081139D02*
X0064164Y0081139D01*
X0064797Y0083538D02*
X0087297Y0083538D01*
X0087297Y0085936D02*
X0064447Y0085936D01*
X0062868Y0088335D02*
X0087297Y0088335D01*
X0087297Y0090733D02*
X0063996Y0090733D01*
X0064797Y0093132D02*
X0087297Y0093132D01*
X0087297Y0095530D02*
X0064616Y0095530D01*
X0064347Y0097929D02*
X0084773Y0097929D01*
X0083397Y0100327D02*
X0066746Y0100327D01*
X0069144Y0102726D02*
X0081249Y0102726D01*
X0078851Y0105124D02*
X0071543Y0105124D01*
X0073941Y0107523D02*
X0076693Y0107523D01*
X0076422Y0109921D02*
X0076340Y0109921D01*
X0115876Y0100327D02*
X0116518Y0100327D01*
X0117330Y0081139D02*
X0115064Y0081139D01*
X0116422Y0054755D02*
X0157297Y0054755D01*
X0157297Y0052357D02*
X0118820Y0052357D01*
X0121219Y0049958D02*
X0157297Y0049958D01*
X0156779Y0047560D02*
X0123617Y0047560D01*
X0126016Y0045161D02*
X0156397Y0045161D01*
X0155979Y0042763D02*
X0128414Y0042763D01*
X0130813Y0040364D02*
X0153581Y0040364D01*
X0146657Y0037966D02*
X0145454Y0037966D01*
X0141197Y0037966D02*
X0141197Y0037966D01*
X0141197Y0035567D02*
X0141197Y0035567D01*
X0136940Y0037966D02*
X0133211Y0037966D01*
X0129806Y0033169D02*
X0127297Y0033169D01*
X0127408Y0035567D02*
X0127100Y0035567D01*
X0122611Y0040364D02*
X0076313Y0040364D01*
X0078711Y0037966D02*
X0106627Y0037966D01*
X0115737Y0037966D02*
X0116657Y0037966D01*
X0120212Y0042763D02*
X0073914Y0042763D01*
X0113841Y0028372D02*
X0118553Y0028372D01*
X0123841Y0028372D02*
X0134603Y0028372D01*
X0132205Y0030770D02*
X0126512Y0030770D01*
X0163097Y0083538D02*
X0179445Y0083538D01*
X0178043Y0085936D02*
X0163097Y0085936D01*
X0163097Y0088335D02*
X0177835Y0088335D01*
X0178659Y0090733D02*
X0163097Y0090733D01*
X0183697Y0090733D02*
X0183697Y0090733D01*
X0183697Y0088335D02*
X0183697Y0088335D01*
X0183697Y0085936D02*
X0183697Y0085936D01*
X0185259Y0085678D02*
X0185259Y0085678D01*
X0183697Y0083538D02*
X0183697Y0083538D01*
X0207706Y0052357D02*
X0217301Y0052357D01*
X0216175Y0049958D02*
X0207929Y0049958D01*
X0207866Y0052034D02*
X0207866Y0052034D01*
X0207866Y0052034D01*
X0207866Y0052034D01*
X0206113Y0047560D02*
X0213776Y0047560D01*
X0211378Y0045161D02*
X0202447Y0045161D01*
X0202447Y0042763D02*
X0208979Y0042763D01*
X0206581Y0040364D02*
X0202447Y0040364D01*
X0202447Y0037966D02*
X0204182Y0037966D01*
X0293697Y0078741D02*
X0296797Y0078741D01*
X0296797Y0081139D02*
X0293697Y0081139D01*
X0293697Y0083538D02*
X0296797Y0083538D01*
X0296797Y0085936D02*
X0293697Y0085936D01*
X0293697Y0088335D02*
X0296797Y0088335D01*
X0296797Y0090733D02*
X0293697Y0090733D01*
X0293697Y0093132D02*
X0296797Y0093132D01*
X0296797Y0095530D02*
X0293697Y0095530D01*
X0293697Y0097929D02*
X0296797Y0097929D01*
X0296797Y0097504D02*
X0296797Y0097504D01*
X0295899Y0100327D02*
X0293697Y0100327D01*
X0300597Y0150696D02*
X0325268Y0150696D01*
X0323682Y0153094D02*
X0300597Y0153094D01*
X0300597Y0155493D02*
X0322997Y0155493D01*
X0322997Y0157891D02*
X0300597Y0157891D01*
X0300597Y0160290D02*
X0323941Y0160290D01*
X0325909Y0162688D02*
X0300597Y0162688D01*
X0324136Y0193869D02*
X0385015Y0193869D01*
X0387171Y0196276D02*
X0387974Y0196685D01*
X0388831Y0196963D01*
X0389721Y0197104D01*
X0393697Y0197104D01*
X0393697Y0191379D01*
X0393697Y0191379D01*
X0393697Y0191379D01*
X0393697Y0191471D02*
X0393697Y0191471D01*
X0393697Y0193869D02*
X0393697Y0193869D01*
X0393697Y0196268D02*
X0393697Y0196268D01*
X0400234Y0196268D02*
X0405997Y0196268D01*
X0405997Y0198666D02*
X0324229Y0198666D01*
X0322098Y0200632D02*
X0322098Y0200632D01*
X0322098Y0200632D01*
X0320744Y0201065D02*
X0405997Y0201065D01*
X0405997Y0203463D02*
X0318346Y0203463D01*
X0315947Y0205862D02*
X0386179Y0205862D01*
X0386362Y0205678D02*
X0388834Y0204654D01*
X0398560Y0204654D01*
X0401031Y0205678D01*
X0402923Y0207570D01*
X0403947Y0210042D01*
X0403947Y0212717D01*
X0402923Y0215189D01*
X0401031Y0217080D01*
X0398560Y0218104D01*
X0388834Y0218104D01*
X0386362Y0217080D01*
X0384471Y0215189D01*
X0383447Y0212717D01*
X0383447Y0210042D01*
X0384471Y0207570D01*
X0386362Y0205678D01*
X0384185Y0208260D02*
X0313549Y0208260D01*
X0311150Y0210659D02*
X0383447Y0210659D01*
X0383588Y0213057D02*
X0308752Y0213057D01*
X0310069Y0216979D02*
X0312605Y0218030D01*
X0314546Y0219971D01*
X0315597Y0222507D01*
X0315597Y0225252D01*
X0314546Y0227788D01*
X0312605Y0229729D01*
X0310069Y0230779D01*
X0307324Y0230779D01*
X0304788Y0229729D01*
X0302847Y0227788D01*
X0301797Y0225252D01*
X0301797Y0222507D01*
X0302847Y0219971D01*
X0304788Y0218030D01*
X0307324Y0216979D01*
X0310069Y0216979D01*
X0312182Y0217854D02*
X0388231Y0217854D01*
X0384738Y0215456D02*
X0293697Y0215456D01*
X0293697Y0217854D02*
X0305212Y0217854D01*
X0302730Y0220253D02*
X0293697Y0220253D01*
X0293697Y0222651D02*
X0301797Y0222651D01*
X0301797Y0225050D02*
X0293697Y0225050D01*
X0293697Y0227448D02*
X0302707Y0227448D01*
X0305073Y0229847D02*
X0293697Y0229847D01*
X0293697Y0232245D02*
X0322997Y0232245D01*
X0322997Y0233010D02*
X0322997Y0229748D01*
X0324245Y0226734D01*
X0326552Y0224428D01*
X0329566Y0223179D01*
X0332828Y0223179D01*
X0335842Y0224428D01*
X0338148Y0226734D01*
X0339397Y0229748D01*
X0339397Y0233010D01*
X0338148Y0236024D01*
X0335842Y0238331D01*
X0332828Y0239579D01*
X0329566Y0239579D01*
X0326552Y0238331D01*
X0324245Y0236024D01*
X0322997Y0233010D01*
X0323673Y0234644D02*
X0293697Y0234644D01*
X0293697Y0237042D02*
X0307172Y0237042D01*
X0307324Y0236979D02*
X0310069Y0236979D01*
X0312605Y0238030D01*
X0314546Y0239971D01*
X0315597Y0242507D01*
X0315597Y0245252D01*
X0314546Y0247788D01*
X0312605Y0249729D01*
X0310069Y0250779D01*
X0307324Y0250779D01*
X0304788Y0249729D01*
X0302847Y0247788D01*
X0301797Y0245252D01*
X0301797Y0242507D01*
X0302847Y0239971D01*
X0304788Y0238030D01*
X0307324Y0236979D01*
X0310222Y0237042D02*
X0325263Y0237042D01*
X0329232Y0239441D02*
X0314016Y0239441D01*
X0315320Y0241839D02*
X0388801Y0241839D01*
X0387424Y0244238D02*
X0315597Y0244238D01*
X0315023Y0246636D02*
X0386782Y0246636D01*
X0386607Y0249035D02*
X0313299Y0249035D01*
X0304094Y0249035D02*
X0293697Y0249035D01*
X0293697Y0251433D02*
X0386865Y0251433D01*
X0387596Y0253832D02*
X0293697Y0253832D01*
X0293697Y0246636D02*
X0302370Y0246636D01*
X0301797Y0244238D02*
X0293697Y0244238D01*
X0293697Y0241839D02*
X0302073Y0241839D01*
X0303377Y0239441D02*
X0293697Y0239441D01*
X0288697Y0229847D02*
X0288640Y0229847D01*
X0312321Y0229847D02*
X0322997Y0229847D01*
X0323949Y0227448D02*
X0314687Y0227448D01*
X0315597Y0225050D02*
X0325930Y0225050D01*
X0315597Y0222651D02*
X0405997Y0222651D01*
X0405997Y0220253D02*
X0314663Y0220253D01*
X0336464Y0225050D02*
X0347344Y0225050D01*
X0344946Y0227448D02*
X0338444Y0227448D01*
X0339397Y0229847D02*
X0343997Y0229847D01*
X0343997Y0231379D02*
X0351197Y0231379D01*
X0358397Y0231379D01*
X0358397Y0234362D01*
X0354179Y0238579D01*
X0351197Y0238579D01*
X0351197Y0231379D01*
X0351197Y0231379D01*
X0351197Y0231379D01*
X0351197Y0238579D01*
X0348215Y0238579D01*
X0343997Y0234362D01*
X0343997Y0231379D01*
X0343997Y0232245D02*
X0339397Y0232245D01*
X0338720Y0234644D02*
X0344279Y0234644D01*
X0346678Y0237042D02*
X0337130Y0237042D01*
X0333162Y0239441D02*
X0391038Y0239441D01*
X0396162Y0237042D02*
X0355716Y0237042D01*
X0358115Y0234644D02*
X0405997Y0234644D01*
X0405997Y0237042D02*
X0401232Y0237042D01*
X0405997Y0232245D02*
X0358397Y0232245D01*
X0358397Y0229847D02*
X0405997Y0229847D01*
X0405997Y0227448D02*
X0357448Y0227448D01*
X0355050Y0225050D02*
X0405997Y0225050D01*
X0405997Y0217854D02*
X0399163Y0217854D01*
X0402656Y0215456D02*
X0405997Y0215456D01*
X0405997Y0213057D02*
X0403806Y0213057D01*
X0403947Y0210659D02*
X0405997Y0210659D01*
X0405997Y0208260D02*
X0403209Y0208260D01*
X0401215Y0205862D02*
X0405997Y0205862D01*
X0405997Y0193869D02*
X0402379Y0193869D01*
X0402947Y0191471D02*
X0405997Y0191471D01*
X0405997Y0189072D02*
X0402472Y0189072D01*
X0400485Y0186674D02*
X0405997Y0186674D01*
X0393697Y0186674D02*
X0393697Y0186674D01*
X0393697Y0189072D02*
X0393697Y0189072D01*
X0351197Y0225050D02*
X0351197Y0225050D01*
X0351197Y0227448D02*
X0351197Y0227448D01*
X0351197Y0229847D02*
X0351197Y0229847D01*
X0351197Y0232245D02*
X0351197Y0232245D01*
X0351197Y0234644D02*
X0351197Y0234644D01*
X0351197Y0237042D02*
X0351197Y0237042D01*
X0212597Y0214959D02*
X0212597Y0214959D01*
X0212597Y0214959D01*
X0116464Y0167485D02*
X0115930Y0167485D01*
X0115202Y0143500D02*
X0117191Y0143500D01*
X0125202Y0143500D02*
X0125697Y0143500D01*
D21*
X0153697Y0096379D03*
X0142447Y0083879D03*
X0078697Y0046379D03*
X0059947Y0033879D03*
X0051197Y0120129D03*
X0212447Y0067629D03*
X0249947Y0067629D03*
X0281197Y0067629D03*
X0348697Y0066379D03*
X0362447Y0048879D03*
X0383697Y0045129D03*
X0381197Y0066379D03*
X0397447Y0066379D03*
X0364947Y0100129D03*
X0363697Y0133879D03*
X0346197Y0142629D03*
X0316197Y0145129D03*
X0307447Y0155129D03*
X0279947Y0138879D03*
X0253697Y0138879D03*
X0358697Y0210129D03*
X0348697Y0216379D03*
X0377447Y0170129D03*
X0389947Y0170129D03*
X0397447Y0153879D03*
D22*
X0320197Y0196379D02*
X0320430Y0197249D01*
X0318924Y0197652D01*
X0319328Y0196146D01*
X0320197Y0196379D01*
X0318924Y0197652D01*
X0305197Y0211379D01*
X0212997Y0211379D01*
X0211647Y0210600D01*
X0211197Y0211379D01*
X0211647Y0210600D01*
X0212997Y0211379D01*
X0211647Y0212159D01*
X0211197Y0211379D01*
X0211647Y0210600D01*
X0211647Y0210600D01*
X0211647Y0210600D01*
X0212997Y0211379D01*
X0212997Y0211379D01*
X0211647Y0212159D01*
X0211197Y0211379D01*
X0211647Y0212159D01*
X0212997Y0211379D01*
X0212997Y0211379D01*
X0211647Y0212159D01*
X0211647Y0212159D01*
X0211647Y0212159D01*
X0212997Y0211379D01*
X0212997Y0211379D01*
X0212997Y0211379D01*
X0212697Y0211379D01*
X0211624Y0210703D01*
X0211197Y0211379D01*
X0211624Y0210702D01*
X0211624Y0210703D01*
X0212697Y0211379D01*
X0211624Y0212056D01*
X0211197Y0211379D01*
X0211624Y0212056D01*
X0211624Y0212056D01*
X0212697Y0211379D01*
X0211624Y0210702D01*
X0212697Y0211379D01*
X0212697Y0211379D01*
X0211624Y0210702D01*
X0211624Y0210703D01*
X0211197Y0211379D01*
X0211624Y0212056D01*
X0211624Y0212056D01*
X0212697Y0211379D01*
X0211624Y0212056D01*
X0212697Y0211379D01*
X0212697Y0211379D01*
X0212697Y0211379D01*
X0212697Y0211379D01*
X0211624Y0210703D01*
X0211623Y0210702D01*
X0211197Y0211379D01*
X0212697Y0211379D01*
X0211624Y0212056D01*
X0160976Y0193429D02*
X0160197Y0193879D01*
X0159417Y0193429D01*
X0160197Y0192079D01*
X0160197Y0192079D01*
X0160197Y0192079D01*
X0160976Y0193429D01*
X0160197Y0193879D01*
X0159417Y0193429D01*
X0160197Y0192079D01*
X0160197Y0140379D01*
X0160976Y0139029D01*
X0160197Y0138579D01*
X0159453Y0138073D01*
X0160331Y0136784D01*
X0161008Y0138188D01*
X0160197Y0138579D01*
X0160976Y0139029D01*
X0160197Y0140379D01*
X0159417Y0139029D01*
X0160197Y0138579D01*
X0160976Y0139029D01*
X0160976Y0139029D01*
X0160976Y0139029D01*
X0160976Y0139029D01*
X0160197Y0140379D01*
X0160976Y0139029D01*
X0160976Y0139029D01*
X0160197Y0140379D01*
X0160197Y0140379D01*
X0160197Y0140379D01*
X0160197Y0138579D01*
X0159417Y0139029D01*
X0160197Y0140379D01*
X0159417Y0139029D01*
X0159417Y0139029D01*
X0160197Y0140379D01*
X0159417Y0139029D01*
X0159417Y0139029D01*
X0160197Y0138579D01*
X0160331Y0138445D01*
X0160331Y0136784D01*
X0160331Y0122229D01*
X0161085Y0120864D01*
X0160297Y0120429D01*
X0159526Y0120894D01*
X0160331Y0122229D01*
X0160331Y0120463D01*
X0160297Y0120429D01*
X0159494Y0120023D01*
X0160197Y0118632D01*
X0161050Y0119937D01*
X0160297Y0120429D01*
X0160197Y0120329D01*
X0160197Y0118632D01*
X0160197Y0047679D01*
X0160976Y0046329D01*
X0160197Y0045879D01*
X0160976Y0046329D01*
X0160197Y0047679D01*
X0159417Y0046329D01*
X0160197Y0045879D01*
X0160976Y0046329D01*
X0160976Y0046329D01*
X0160976Y0046329D01*
X0160976Y0046329D01*
X0160197Y0047679D01*
X0160976Y0046329D01*
X0160976Y0046329D01*
X0160197Y0047679D01*
X0160197Y0047679D01*
X0160197Y0047679D01*
X0160197Y0045879D01*
X0159417Y0046329D01*
X0160197Y0047679D01*
X0159417Y0046329D01*
X0159417Y0046329D01*
X0160197Y0047679D01*
X0159417Y0046329D01*
X0159417Y0046329D01*
X0160197Y0045879D01*
X0159417Y0045429D01*
X0160197Y0044079D01*
X0160197Y0044079D01*
X0160197Y0044079D01*
X0160976Y0045429D01*
X0160197Y0045879D01*
X0160976Y0045429D01*
X0160197Y0044079D01*
X0160197Y0042879D01*
X0154025Y0036708D01*
X0151197Y0033879D01*
X0141197Y0025879D02*
X0196197Y0025879D01*
X0218924Y0048606D01*
X0219328Y0050112D01*
X0220197Y0049879D01*
X0220430Y0049010D01*
X0218924Y0048606D01*
X0220197Y0049879D01*
X0237197Y0042179D02*
X0237197Y0042179D01*
X0237197Y0033429D01*
X0237976Y0032079D01*
X0237197Y0031629D01*
X0237976Y0032079D01*
X0237197Y0033429D01*
X0236417Y0032079D01*
X0237197Y0031629D01*
X0236417Y0032079D01*
X0237197Y0033429D01*
X0237976Y0032079D01*
X0237976Y0032079D01*
X0237197Y0031629D01*
X0236417Y0032079D01*
X0237197Y0033429D01*
X0237197Y0033429D01*
X0237197Y0033429D01*
X0237197Y0031629D01*
X0237976Y0032079D02*
X0237976Y0032079D01*
X0237976Y0032079D01*
X0237197Y0033429D01*
X0237976Y0032079D01*
X0237976Y0032079D01*
X0237197Y0033429D01*
X0236417Y0032079D01*
X0236417Y0032079D01*
X0237197Y0033429D01*
X0237197Y0033429D01*
X0236417Y0032079D01*
X0236417Y0032079D01*
X0237197Y0033429D01*
X0237197Y0033429D01*
X0237197Y0033429D01*
X0237976Y0032079D01*
X0237197Y0042179D02*
X0237197Y0042179D01*
X0237197Y0104579D01*
X0237197Y0104579D01*
X0237197Y0104579D01*
X0237976Y0105929D01*
X0237197Y0106379D01*
X0236417Y0105929D01*
X0237197Y0104579D01*
X0236417Y0105929D01*
X0237197Y0106379D01*
X0237976Y0105929D01*
X0237197Y0104579D01*
X0237976Y0105929D01*
X0237976Y0105929D01*
X0237197Y0104579D01*
X0237197Y0104579D01*
X0237197Y0104579D01*
X0237976Y0105929D01*
X0237976Y0105929D01*
X0237976Y0105929D01*
X0237197Y0104579D01*
X0237197Y0106379D01*
X0237976Y0105929D01*
X0237976Y0105929D01*
X0237197Y0104579D01*
X0236417Y0105929D01*
X0236417Y0105929D01*
X0237197Y0104579D01*
X0236417Y0105929D01*
X0237197Y0106379D01*
X0237976Y0106829D01*
X0237197Y0106379D01*
X0236417Y0106829D01*
X0237197Y0108179D01*
X0237976Y0106829D01*
X0237197Y0108179D01*
X0236417Y0106829D01*
X0237197Y0108179D01*
X0237976Y0106829D01*
X0237197Y0106379D01*
X0236417Y0106829D01*
X0236417Y0106829D01*
X0237197Y0108179D01*
X0237197Y0108179D01*
X0237197Y0108179D01*
X0237197Y0106379D01*
X0236417Y0106829D01*
X0237197Y0108179D01*
X0237976Y0106829D01*
X0237976Y0106829D01*
X0237976Y0106829D01*
X0237976Y0106829D01*
X0237976Y0106829D01*
X0237197Y0108179D01*
X0237197Y0108179D01*
X0236417Y0106829D01*
X0236417Y0106829D01*
X0237197Y0108179D01*
X0237197Y0108179D01*
X0237197Y0108179D01*
X0237197Y0146879D01*
X0230197Y0153879D01*
X0229497Y0153879D01*
X0228147Y0153100D01*
X0227697Y0153879D01*
X0228147Y0153100D01*
X0229497Y0153879D01*
X0228147Y0154659D01*
X0227697Y0153879D01*
X0228147Y0153100D01*
X0228147Y0153100D01*
X0228147Y0153100D01*
X0229497Y0153879D01*
X0229497Y0153879D01*
X0228147Y0154659D01*
X0227697Y0153879D01*
X0228476Y0154329D01*
X0227697Y0153879D01*
X0226917Y0154329D01*
X0227697Y0155679D01*
X0228476Y0154329D01*
X0227697Y0155679D01*
X0226917Y0154329D01*
X0227697Y0155679D01*
X0228476Y0154329D01*
X0228476Y0154329D01*
X0227697Y0153879D01*
X0226917Y0154329D01*
X0227697Y0155679D01*
X0227697Y0155679D01*
X0227697Y0155679D01*
X0227697Y0153879D01*
X0226917Y0154329D01*
X0226917Y0154329D01*
X0227697Y0155679D01*
X0228476Y0154329D01*
X0228476Y0154329D01*
X0228476Y0154329D01*
X0227697Y0155679D01*
X0227697Y0155679D01*
X0228476Y0154329D01*
X0228476Y0154329D01*
X0227697Y0155679D01*
X0226917Y0154329D01*
X0226917Y0154329D01*
X0227697Y0155679D01*
X0227697Y0155679D01*
X0227697Y0155679D01*
X0227697Y0158179D01*
X0227697Y0158179D01*
X0227697Y0166579D01*
X0227697Y0166579D01*
X0227697Y0166579D01*
X0228476Y0167929D01*
X0227697Y0168379D01*
X0226917Y0167929D01*
X0227697Y0166579D01*
X0226917Y0167929D01*
X0227697Y0168379D01*
X0228476Y0167929D01*
X0227697Y0166579D01*
X0228476Y0167929D01*
X0228476Y0167929D01*
X0227697Y0166579D01*
X0227697Y0166579D01*
X0227697Y0166579D01*
X0228476Y0167929D01*
X0228476Y0167929D01*
X0228476Y0167929D01*
X0227697Y0166579D01*
X0227697Y0168379D01*
X0228476Y0167929D01*
X0228476Y0167929D01*
X0227697Y0166579D01*
X0226917Y0167929D01*
X0226917Y0167929D01*
X0227697Y0166579D01*
X0226917Y0167929D01*
X0227697Y0168379D01*
X0226917Y0167929D02*
X0226917Y0167929D01*
X0227697Y0166579D01*
X0228147Y0154659D02*
X0227697Y0153879D01*
X0229497Y0153879D01*
X0229497Y0153879D01*
X0228147Y0154659D01*
X0229497Y0153879D01*
X0229497Y0153879D01*
X0229497Y0153879D01*
X0228147Y0154659D01*
X0228147Y0154659D01*
X0228147Y0154659D01*
X0191697Y0141879D02*
X0191247Y0142659D01*
X0189897Y0141879D01*
X0191247Y0142659D01*
X0191697Y0141879D01*
X0191247Y0141100D01*
X0189897Y0141879D01*
X0191247Y0141100D01*
X0191697Y0141879D01*
X0191247Y0142659D01*
X0191247Y0142659D01*
X0191247Y0142659D01*
X0191247Y0142659D01*
X0189897Y0141879D01*
X0191247Y0141100D01*
X0189897Y0141879D01*
X0191247Y0141100D01*
X0191247Y0141100D01*
X0189897Y0141879D01*
X0189897Y0141879D01*
X0191247Y0142659D01*
X0189897Y0141879D01*
X0189897Y0141879D01*
X0191247Y0141100D01*
X0191247Y0141100D01*
X0191697Y0141879D01*
X0189897Y0141879D01*
X0189897Y0141879D01*
X0191247Y0142659D01*
X0191247Y0142659D01*
X0189897Y0141879D01*
X0189897Y0141879D01*
X0189897Y0141879D01*
X0181497Y0141879D01*
X0180147Y0141100D01*
X0179697Y0141879D01*
X0180147Y0141100D01*
X0181497Y0141879D01*
X0180147Y0142659D01*
X0179697Y0141879D01*
X0180147Y0141100D01*
X0180147Y0141100D01*
X0181497Y0141879D01*
X0180147Y0141100D01*
X0180147Y0141100D01*
X0179697Y0141879D02*
X0180147Y0142659D01*
X0180147Y0142659D01*
X0181497Y0141879D01*
X0181497Y0141879D01*
X0181497Y0141879D01*
X0181497Y0141879D01*
X0181497Y0141879D01*
X0180147Y0142659D01*
X0179697Y0141879D01*
X0181497Y0141879D01*
X0180147Y0142659D02*
X0180147Y0142659D01*
X0160197Y0140379D02*
X0160197Y0140379D01*
X0160197Y0140379D01*
X0159417Y0139029D01*
X0160197Y0140379D01*
X0160197Y0140379D01*
X0111197Y0171379D02*
X0108368Y0168551D01*
X0087197Y0147379D01*
X0087197Y0124879D01*
X0079322Y0117004D01*
X0079322Y0108754D01*
X0085924Y0102152D01*
X0087430Y0101749D01*
X0087197Y0100879D01*
X0086328Y0100646D01*
X0085924Y0102152D01*
X0087197Y0100879D01*
X0079322Y0117004D02*
X0059984Y0097666D01*
X0058697Y0096379D01*
X0058697Y0093879D01*
X0058697Y0103879D02*
X0058697Y0107879D01*
X0058697Y0107879D01*
X0058697Y0123879D01*
X0087197Y0152379D01*
X0087197Y0189879D01*
X0108368Y0211051D01*
X0111197Y0213879D01*
X0159417Y0193429D02*
X0159417Y0193429D01*
X0160197Y0192079D01*
X0160976Y0193429D01*
X0160197Y0192079D01*
X0160197Y0192079D01*
X0160976Y0193429D01*
X0160976Y0193429D01*
X0160976Y0193429D01*
X0160197Y0192079D01*
X0160197Y0192079D01*
X0160197Y0193879D01*
X0160976Y0193429D01*
X0160976Y0193429D01*
X0160197Y0192079D01*
X0160976Y0193429D01*
X0160976Y0193429D01*
X0160197Y0193879D02*
X0159417Y0193429D01*
X0160197Y0192079D01*
X0159417Y0193429D01*
X0159417Y0193429D01*
X0160197Y0192079D01*
X0098697Y0163379D02*
X0098930Y0162510D01*
X0097424Y0162106D01*
X0097828Y0163612D01*
X0098697Y0163379D01*
X0097424Y0162106D01*
X0097197Y0161879D01*
X0091997Y0161879D01*
X0090647Y0161100D01*
X0090197Y0161879D01*
X0090647Y0161100D01*
X0091997Y0161879D01*
X0090647Y0162659D01*
X0090197Y0161879D01*
X0090647Y0161100D01*
X0090647Y0161100D01*
X0091997Y0161879D01*
X0090647Y0161100D01*
X0090647Y0161100D01*
X0090197Y0161879D02*
X0090647Y0162659D01*
X0090647Y0162659D01*
X0091997Y0161879D01*
X0091997Y0161879D01*
X0091997Y0161879D01*
X0091997Y0161879D01*
X0091997Y0161879D01*
X0090647Y0162659D01*
X0090197Y0161879D01*
X0091997Y0161879D01*
X0090647Y0162659D02*
X0090647Y0162659D01*
X0090197Y0125879D02*
X0089417Y0125429D01*
X0090197Y0124079D01*
X0090197Y0124079D01*
X0090197Y0124079D01*
X0090976Y0125429D01*
X0090197Y0125879D01*
X0090976Y0125429D01*
X0090197Y0124079D01*
X0090197Y0076879D01*
X0141197Y0025879D01*
X0160197Y0044079D02*
X0159417Y0045429D01*
X0160197Y0045879D01*
X0160976Y0045429D01*
X0160976Y0045429D01*
X0160197Y0044079D01*
X0159417Y0045429D01*
X0159417Y0045429D01*
X0160197Y0044079D01*
X0160976Y0045429D01*
X0160976Y0045429D01*
X0160197Y0044079D01*
X0160197Y0044079D01*
X0160197Y0044079D01*
X0160197Y0045879D01*
X0159417Y0045429D01*
X0160197Y0044079D01*
X0160976Y0045429D01*
X0160976Y0045429D01*
X0160976Y0045429D01*
X0160197Y0044079D01*
X0159417Y0045429D01*
X0159417Y0045429D01*
X0159417Y0046329D02*
X0160197Y0047679D01*
X0160197Y0047679D01*
X0160197Y0047679D01*
X0159417Y0046329D01*
X0160197Y0047679D02*
X0160197Y0047679D01*
X0111197Y0033879D02*
X0107197Y0033879D01*
X0107197Y0033879D01*
X0078697Y0033879D01*
X0061525Y0051051D01*
X0058697Y0053879D01*
X0090197Y0124079D02*
X0089417Y0125429D01*
X0090197Y0125879D01*
X0090976Y0125429D01*
X0090976Y0125429D01*
X0090197Y0124079D01*
X0089417Y0125429D01*
X0089417Y0125429D01*
X0090197Y0124079D01*
X0090976Y0125429D01*
X0090976Y0125429D01*
X0090197Y0124079D01*
X0090197Y0124079D01*
X0090197Y0124079D01*
X0090197Y0125879D01*
X0089417Y0125429D01*
X0090197Y0124079D01*
X0090976Y0125429D01*
X0090976Y0125429D01*
X0090976Y0125429D01*
X0090197Y0124079D01*
X0089417Y0125429D01*
X0089417Y0125429D01*
X0236417Y0105929D02*
X0236417Y0105929D01*
X0237197Y0104579D01*
D23*
X0154025Y0036708D02*
X0151077Y0036577D01*
X0151197Y0033879D01*
X0153894Y0033759D01*
X0154025Y0036708D01*
X0111197Y0033879D02*
X0109374Y0031887D01*
X0111197Y0033879D01*
X0109374Y0035871D01*
X0111197Y0033879D01*
X0109374Y0031887D01*
X0107197Y0033879D01*
X0109374Y0035871D01*
X0109374Y0035871D01*
X0107197Y0033879D01*
X0109374Y0031887D01*
X0111197Y0033879D01*
X0109374Y0035871D01*
X0107197Y0033879D01*
X0109374Y0031887D01*
X0107197Y0033879D01*
X0107197Y0033879D01*
X0109374Y0035871D01*
X0109374Y0035871D01*
X0107197Y0033879D01*
X0109374Y0031887D01*
X0107197Y0033879D01*
X0107197Y0033879D01*
X0107197Y0033879D01*
X0109374Y0035871D01*
X0109374Y0031887D02*
X0109374Y0031887D01*
X0061525Y0051051D02*
X0058577Y0051182D01*
X0058697Y0053879D01*
X0061394Y0053999D01*
X0061525Y0051051D01*
X0058697Y0093879D02*
X0061169Y0094964D01*
X0059984Y0097666D01*
X0057397Y0096246D01*
X0058697Y0093879D01*
X0058697Y0103879D02*
X0060689Y0105702D01*
X0060689Y0105702D01*
X0058697Y0107879D01*
X0060689Y0105702D01*
X0058697Y0107879D01*
X0056705Y0105702D01*
X0058697Y0103879D01*
X0056705Y0105702D01*
X0058697Y0107879D01*
X0058697Y0107879D01*
X0056705Y0105702D01*
X0058697Y0103879D01*
X0060689Y0105702D01*
X0058697Y0107879D01*
X0056705Y0105702D01*
X0058697Y0107879D01*
X0060689Y0105702D01*
X0060689Y0105702D01*
X0058697Y0107879D01*
X0058697Y0107879D01*
X0058697Y0107879D01*
X0056705Y0105702D01*
X0056705Y0105702D01*
X0058697Y0103879D01*
X0060689Y0105702D01*
X0108368Y0168551D02*
X0108500Y0171499D01*
X0111197Y0171379D01*
X0111317Y0168682D01*
X0108368Y0168551D01*
X0108368Y0211051D02*
X0108500Y0213999D01*
X0111197Y0213879D01*
X0111317Y0211182D01*
X0108368Y0211051D01*
D24*
X0297197Y0193879D03*
X0301197Y0101379D03*
X0301197Y0070879D03*
D25*
X0329221Y0083069D02*
X0331197Y0081379D01*
X0333173Y0083069D01*
X0331197Y0085379D01*
X0329221Y0083069D01*
X0331197Y0152379D02*
X0329221Y0154689D01*
X0331197Y0156379D01*
X0333173Y0154689D01*
X0331197Y0152379D01*
X0351197Y0156379D02*
X0353789Y0156177D01*
X0354025Y0159208D01*
X0350995Y0158971D01*
X0351197Y0156379D01*
X0351197Y0227379D02*
X0349221Y0229689D01*
X0351197Y0231379D01*
X0351399Y0233971D01*
X0348368Y0234208D01*
X0348605Y0231177D01*
X0351197Y0231379D01*
X0353173Y0229689D01*
X0351197Y0227379D01*
M02*
