G75*
%MOIN*%
%OFA0B0*%
%FSLAX25Y25*%
%IPPOS*%
%LPD*%
%AMOC8*
5,1,8,0,0,1.08239X$1,22.5*
%
%ADD10C,0.00000*%
%ADD11R,0.04724X0.04724*%
%ADD12R,0.12598X0.07087*%
%ADD13R,0.04724X0.02165*%
%ADD14R,0.04724X0.02362*%
%ADD15R,0.06299X0.03937*%
%ADD16R,0.24409X0.21260*%
%ADD17R,0.05118X0.05906*%
%ADD18R,0.05906X0.05118*%
%ADD19R,0.03937X0.05512*%
%ADD20R,0.05000X0.02200*%
D10*
X0031197Y0016379D02*
X0401197Y0016379D01*
X0401439Y0016382D01*
X0401680Y0016391D01*
X0401921Y0016405D01*
X0402162Y0016426D01*
X0402402Y0016452D01*
X0402642Y0016484D01*
X0402881Y0016522D01*
X0403118Y0016565D01*
X0403355Y0016615D01*
X0403590Y0016670D01*
X0403824Y0016730D01*
X0404056Y0016797D01*
X0404287Y0016868D01*
X0404516Y0016946D01*
X0404743Y0017029D01*
X0404968Y0017117D01*
X0405191Y0017211D01*
X0405411Y0017310D01*
X0405629Y0017415D01*
X0405844Y0017524D01*
X0406057Y0017639D01*
X0406267Y0017759D01*
X0406473Y0017884D01*
X0406677Y0018014D01*
X0406878Y0018149D01*
X0407075Y0018289D01*
X0407269Y0018433D01*
X0407459Y0018582D01*
X0407645Y0018736D01*
X0407828Y0018894D01*
X0408007Y0019056D01*
X0408182Y0019223D01*
X0408353Y0019394D01*
X0408520Y0019569D01*
X0408682Y0019748D01*
X0408840Y0019931D01*
X0408994Y0020117D01*
X0409143Y0020307D01*
X0409287Y0020501D01*
X0409427Y0020698D01*
X0409562Y0020899D01*
X0409692Y0021103D01*
X0409817Y0021309D01*
X0409937Y0021519D01*
X0410052Y0021732D01*
X0410161Y0021947D01*
X0410266Y0022165D01*
X0410365Y0022385D01*
X0410459Y0022608D01*
X0410547Y0022833D01*
X0410630Y0023060D01*
X0410708Y0023289D01*
X0410779Y0023520D01*
X0410846Y0023752D01*
X0410906Y0023986D01*
X0410961Y0024221D01*
X0411011Y0024458D01*
X0411054Y0024695D01*
X0411092Y0024934D01*
X0411124Y0025174D01*
X0411150Y0025414D01*
X0411171Y0025655D01*
X0411185Y0025896D01*
X0411194Y0026137D01*
X0411197Y0026379D01*
X0411197Y0253879D01*
X0411164Y0254090D01*
X0411127Y0254300D01*
X0411084Y0254510D01*
X0411036Y0254718D01*
X0410983Y0254925D01*
X0410925Y0255130D01*
X0410862Y0255334D01*
X0410794Y0255537D01*
X0410721Y0255738D01*
X0410644Y0255937D01*
X0410561Y0256134D01*
X0410474Y0256329D01*
X0410383Y0256522D01*
X0410286Y0256712D01*
X0410185Y0256901D01*
X0410080Y0257086D01*
X0409970Y0257270D01*
X0409856Y0257450D01*
X0409737Y0257628D01*
X0409614Y0257802D01*
X0409487Y0257974D01*
X0409356Y0258142D01*
X0409220Y0258308D01*
X0409081Y0258470D01*
X0408938Y0258628D01*
X0408791Y0258784D01*
X0408641Y0258935D01*
X0408487Y0259083D01*
X0408329Y0259227D01*
X0408168Y0259367D01*
X0408003Y0259503D01*
X0407835Y0259636D01*
X0407665Y0259764D01*
X0407491Y0259888D01*
X0407314Y0260008D01*
X0407134Y0260123D01*
X0406952Y0260234D01*
X0406767Y0260341D01*
X0406579Y0260443D01*
X0406389Y0260540D01*
X0406197Y0260633D01*
X0406002Y0260722D01*
X0405805Y0260805D01*
X0405607Y0260884D01*
X0405407Y0260958D01*
X0405204Y0261027D01*
X0405001Y0261091D01*
X0404795Y0261150D01*
X0404589Y0261205D01*
X0404381Y0261254D01*
X0404172Y0261298D01*
X0403962Y0261337D01*
X0403751Y0261371D01*
X0403540Y0261400D01*
X0403327Y0261424D01*
X0403115Y0261443D01*
X0402901Y0261456D01*
X0402688Y0261465D01*
X0402474Y0261468D01*
X0402261Y0261466D01*
X0402047Y0261459D01*
X0401834Y0261447D01*
X0401621Y0261429D01*
X0401409Y0261407D01*
X0401197Y0261379D01*
X0031197Y0261379D01*
X0030955Y0261376D01*
X0030714Y0261367D01*
X0030473Y0261353D01*
X0030232Y0261332D01*
X0029992Y0261306D01*
X0029752Y0261274D01*
X0029513Y0261236D01*
X0029276Y0261193D01*
X0029039Y0261143D01*
X0028804Y0261088D01*
X0028570Y0261028D01*
X0028338Y0260961D01*
X0028107Y0260890D01*
X0027878Y0260812D01*
X0027651Y0260729D01*
X0027426Y0260641D01*
X0027203Y0260547D01*
X0026983Y0260448D01*
X0026765Y0260343D01*
X0026550Y0260234D01*
X0026337Y0260119D01*
X0026127Y0259999D01*
X0025921Y0259874D01*
X0025717Y0259744D01*
X0025516Y0259609D01*
X0025319Y0259469D01*
X0025125Y0259325D01*
X0024935Y0259176D01*
X0024749Y0259022D01*
X0024566Y0258864D01*
X0024387Y0258702D01*
X0024212Y0258535D01*
X0024041Y0258364D01*
X0023874Y0258189D01*
X0023712Y0258010D01*
X0023554Y0257827D01*
X0023400Y0257641D01*
X0023251Y0257451D01*
X0023107Y0257257D01*
X0022967Y0257060D01*
X0022832Y0256859D01*
X0022702Y0256655D01*
X0022577Y0256449D01*
X0022457Y0256239D01*
X0022342Y0256026D01*
X0022233Y0255811D01*
X0022128Y0255593D01*
X0022029Y0255373D01*
X0021935Y0255150D01*
X0021847Y0254925D01*
X0021764Y0254698D01*
X0021686Y0254469D01*
X0021615Y0254238D01*
X0021548Y0254006D01*
X0021488Y0253772D01*
X0021433Y0253537D01*
X0021383Y0253300D01*
X0021340Y0253063D01*
X0021302Y0252824D01*
X0021270Y0252584D01*
X0021244Y0252344D01*
X0021223Y0252103D01*
X0021209Y0251862D01*
X0021200Y0251621D01*
X0021197Y0251379D01*
X0021197Y0028879D01*
X0021170Y0028603D01*
X0021149Y0028325D01*
X0021136Y0028048D01*
X0021129Y0027770D01*
X0021129Y0027492D01*
X0021136Y0027215D01*
X0021149Y0026937D01*
X0021170Y0026660D01*
X0021197Y0026384D01*
X0021231Y0026108D01*
X0021271Y0025833D01*
X0021319Y0025560D01*
X0021373Y0025287D01*
X0021434Y0025016D01*
X0021501Y0024746D01*
X0021575Y0024479D01*
X0021656Y0024213D01*
X0021743Y0023949D01*
X0021836Y0023687D01*
X0021936Y0023428D01*
X0022043Y0023172D01*
X0022155Y0022918D01*
X0022274Y0022666D01*
X0022399Y0022418D01*
X0022530Y0022173D01*
X0022666Y0021932D01*
X0022809Y0021693D01*
X0022958Y0021458D01*
X0023112Y0021227D01*
X0023272Y0021000D01*
X0023437Y0020777D01*
X0023608Y0020558D01*
X0023785Y0020343D01*
X0023966Y0020133D01*
X0024152Y0019927D01*
X0024344Y0019726D01*
X0024540Y0019529D01*
X0024742Y0019338D01*
X0024947Y0019151D01*
X0025158Y0018970D01*
X0025372Y0018793D01*
X0025591Y0018622D01*
X0025814Y0018457D01*
X0026042Y0018297D01*
X0026272Y0018142D01*
X0026507Y0017994D01*
X0026745Y0017851D01*
X0026987Y0017714D01*
X0027232Y0017583D01*
X0027480Y0017458D01*
X0027731Y0017339D01*
X0027985Y0017226D01*
X0028242Y0017120D01*
X0028501Y0017020D01*
X0028763Y0016926D01*
X0029026Y0016839D01*
X0029292Y0016759D01*
X0029560Y0016684D01*
X0029829Y0016617D01*
X0030100Y0016556D01*
X0030373Y0016502D01*
X0030647Y0016454D01*
X0030921Y0016413D01*
X0031197Y0016379D01*
X0026807Y0028879D02*
X0026809Y0029048D01*
X0026815Y0029217D01*
X0026826Y0029386D01*
X0026840Y0029554D01*
X0026859Y0029722D01*
X0026882Y0029890D01*
X0026908Y0030057D01*
X0026939Y0030223D01*
X0026974Y0030389D01*
X0027013Y0030553D01*
X0027057Y0030717D01*
X0027104Y0030879D01*
X0027155Y0031040D01*
X0027210Y0031200D01*
X0027269Y0031359D01*
X0027331Y0031516D01*
X0027398Y0031671D01*
X0027469Y0031825D01*
X0027543Y0031977D01*
X0027621Y0032127D01*
X0027702Y0032275D01*
X0027787Y0032421D01*
X0027876Y0032565D01*
X0027968Y0032707D01*
X0028064Y0032846D01*
X0028163Y0032983D01*
X0028265Y0033118D01*
X0028371Y0033250D01*
X0028480Y0033379D01*
X0028592Y0033506D01*
X0028707Y0033630D01*
X0028825Y0033751D01*
X0028946Y0033869D01*
X0029070Y0033984D01*
X0029197Y0034096D01*
X0029326Y0034205D01*
X0029458Y0034311D01*
X0029593Y0034413D01*
X0029730Y0034512D01*
X0029869Y0034608D01*
X0030011Y0034700D01*
X0030155Y0034789D01*
X0030301Y0034874D01*
X0030449Y0034955D01*
X0030599Y0035033D01*
X0030751Y0035107D01*
X0030905Y0035178D01*
X0031060Y0035245D01*
X0031217Y0035307D01*
X0031376Y0035366D01*
X0031536Y0035421D01*
X0031697Y0035472D01*
X0031859Y0035519D01*
X0032023Y0035563D01*
X0032187Y0035602D01*
X0032353Y0035637D01*
X0032519Y0035668D01*
X0032686Y0035694D01*
X0032854Y0035717D01*
X0033022Y0035736D01*
X0033190Y0035750D01*
X0033359Y0035761D01*
X0033528Y0035767D01*
X0033697Y0035769D01*
X0033866Y0035767D01*
X0034035Y0035761D01*
X0034204Y0035750D01*
X0034372Y0035736D01*
X0034540Y0035717D01*
X0034708Y0035694D01*
X0034875Y0035668D01*
X0035041Y0035637D01*
X0035207Y0035602D01*
X0035371Y0035563D01*
X0035535Y0035519D01*
X0035697Y0035472D01*
X0035858Y0035421D01*
X0036018Y0035366D01*
X0036177Y0035307D01*
X0036334Y0035245D01*
X0036489Y0035178D01*
X0036643Y0035107D01*
X0036795Y0035033D01*
X0036945Y0034955D01*
X0037093Y0034874D01*
X0037239Y0034789D01*
X0037383Y0034700D01*
X0037525Y0034608D01*
X0037664Y0034512D01*
X0037801Y0034413D01*
X0037936Y0034311D01*
X0038068Y0034205D01*
X0038197Y0034096D01*
X0038324Y0033984D01*
X0038448Y0033869D01*
X0038569Y0033751D01*
X0038687Y0033630D01*
X0038802Y0033506D01*
X0038914Y0033379D01*
X0039023Y0033250D01*
X0039129Y0033118D01*
X0039231Y0032983D01*
X0039330Y0032846D01*
X0039426Y0032707D01*
X0039518Y0032565D01*
X0039607Y0032421D01*
X0039692Y0032275D01*
X0039773Y0032127D01*
X0039851Y0031977D01*
X0039925Y0031825D01*
X0039996Y0031671D01*
X0040063Y0031516D01*
X0040125Y0031359D01*
X0040184Y0031200D01*
X0040239Y0031040D01*
X0040290Y0030879D01*
X0040337Y0030717D01*
X0040381Y0030553D01*
X0040420Y0030389D01*
X0040455Y0030223D01*
X0040486Y0030057D01*
X0040512Y0029890D01*
X0040535Y0029722D01*
X0040554Y0029554D01*
X0040568Y0029386D01*
X0040579Y0029217D01*
X0040585Y0029048D01*
X0040587Y0028879D01*
X0040585Y0028710D01*
X0040579Y0028541D01*
X0040568Y0028372D01*
X0040554Y0028204D01*
X0040535Y0028036D01*
X0040512Y0027868D01*
X0040486Y0027701D01*
X0040455Y0027535D01*
X0040420Y0027369D01*
X0040381Y0027205D01*
X0040337Y0027041D01*
X0040290Y0026879D01*
X0040239Y0026718D01*
X0040184Y0026558D01*
X0040125Y0026399D01*
X0040063Y0026242D01*
X0039996Y0026087D01*
X0039925Y0025933D01*
X0039851Y0025781D01*
X0039773Y0025631D01*
X0039692Y0025483D01*
X0039607Y0025337D01*
X0039518Y0025193D01*
X0039426Y0025051D01*
X0039330Y0024912D01*
X0039231Y0024775D01*
X0039129Y0024640D01*
X0039023Y0024508D01*
X0038914Y0024379D01*
X0038802Y0024252D01*
X0038687Y0024128D01*
X0038569Y0024007D01*
X0038448Y0023889D01*
X0038324Y0023774D01*
X0038197Y0023662D01*
X0038068Y0023553D01*
X0037936Y0023447D01*
X0037801Y0023345D01*
X0037664Y0023246D01*
X0037525Y0023150D01*
X0037383Y0023058D01*
X0037239Y0022969D01*
X0037093Y0022884D01*
X0036945Y0022803D01*
X0036795Y0022725D01*
X0036643Y0022651D01*
X0036489Y0022580D01*
X0036334Y0022513D01*
X0036177Y0022451D01*
X0036018Y0022392D01*
X0035858Y0022337D01*
X0035697Y0022286D01*
X0035535Y0022239D01*
X0035371Y0022195D01*
X0035207Y0022156D01*
X0035041Y0022121D01*
X0034875Y0022090D01*
X0034708Y0022064D01*
X0034540Y0022041D01*
X0034372Y0022022D01*
X0034204Y0022008D01*
X0034035Y0021997D01*
X0033866Y0021991D01*
X0033697Y0021989D01*
X0033528Y0021991D01*
X0033359Y0021997D01*
X0033190Y0022008D01*
X0033022Y0022022D01*
X0032854Y0022041D01*
X0032686Y0022064D01*
X0032519Y0022090D01*
X0032353Y0022121D01*
X0032187Y0022156D01*
X0032023Y0022195D01*
X0031859Y0022239D01*
X0031697Y0022286D01*
X0031536Y0022337D01*
X0031376Y0022392D01*
X0031217Y0022451D01*
X0031060Y0022513D01*
X0030905Y0022580D01*
X0030751Y0022651D01*
X0030599Y0022725D01*
X0030449Y0022803D01*
X0030301Y0022884D01*
X0030155Y0022969D01*
X0030011Y0023058D01*
X0029869Y0023150D01*
X0029730Y0023246D01*
X0029593Y0023345D01*
X0029458Y0023447D01*
X0029326Y0023553D01*
X0029197Y0023662D01*
X0029070Y0023774D01*
X0028946Y0023889D01*
X0028825Y0024007D01*
X0028707Y0024128D01*
X0028592Y0024252D01*
X0028480Y0024379D01*
X0028371Y0024508D01*
X0028265Y0024640D01*
X0028163Y0024775D01*
X0028064Y0024912D01*
X0027968Y0025051D01*
X0027876Y0025193D01*
X0027787Y0025337D01*
X0027702Y0025483D01*
X0027621Y0025631D01*
X0027543Y0025781D01*
X0027469Y0025933D01*
X0027398Y0026087D01*
X0027331Y0026242D01*
X0027269Y0026399D01*
X0027210Y0026558D01*
X0027155Y0026718D01*
X0027104Y0026879D01*
X0027057Y0027041D01*
X0027013Y0027205D01*
X0026974Y0027369D01*
X0026939Y0027535D01*
X0026908Y0027701D01*
X0026882Y0027868D01*
X0026859Y0028036D01*
X0026840Y0028204D01*
X0026826Y0028372D01*
X0026815Y0028541D01*
X0026809Y0028710D01*
X0026807Y0028879D01*
X0026807Y0248879D02*
X0026809Y0249048D01*
X0026815Y0249217D01*
X0026826Y0249386D01*
X0026840Y0249554D01*
X0026859Y0249722D01*
X0026882Y0249890D01*
X0026908Y0250057D01*
X0026939Y0250223D01*
X0026974Y0250389D01*
X0027013Y0250553D01*
X0027057Y0250717D01*
X0027104Y0250879D01*
X0027155Y0251040D01*
X0027210Y0251200D01*
X0027269Y0251359D01*
X0027331Y0251516D01*
X0027398Y0251671D01*
X0027469Y0251825D01*
X0027543Y0251977D01*
X0027621Y0252127D01*
X0027702Y0252275D01*
X0027787Y0252421D01*
X0027876Y0252565D01*
X0027968Y0252707D01*
X0028064Y0252846D01*
X0028163Y0252983D01*
X0028265Y0253118D01*
X0028371Y0253250D01*
X0028480Y0253379D01*
X0028592Y0253506D01*
X0028707Y0253630D01*
X0028825Y0253751D01*
X0028946Y0253869D01*
X0029070Y0253984D01*
X0029197Y0254096D01*
X0029326Y0254205D01*
X0029458Y0254311D01*
X0029593Y0254413D01*
X0029730Y0254512D01*
X0029869Y0254608D01*
X0030011Y0254700D01*
X0030155Y0254789D01*
X0030301Y0254874D01*
X0030449Y0254955D01*
X0030599Y0255033D01*
X0030751Y0255107D01*
X0030905Y0255178D01*
X0031060Y0255245D01*
X0031217Y0255307D01*
X0031376Y0255366D01*
X0031536Y0255421D01*
X0031697Y0255472D01*
X0031859Y0255519D01*
X0032023Y0255563D01*
X0032187Y0255602D01*
X0032353Y0255637D01*
X0032519Y0255668D01*
X0032686Y0255694D01*
X0032854Y0255717D01*
X0033022Y0255736D01*
X0033190Y0255750D01*
X0033359Y0255761D01*
X0033528Y0255767D01*
X0033697Y0255769D01*
X0033866Y0255767D01*
X0034035Y0255761D01*
X0034204Y0255750D01*
X0034372Y0255736D01*
X0034540Y0255717D01*
X0034708Y0255694D01*
X0034875Y0255668D01*
X0035041Y0255637D01*
X0035207Y0255602D01*
X0035371Y0255563D01*
X0035535Y0255519D01*
X0035697Y0255472D01*
X0035858Y0255421D01*
X0036018Y0255366D01*
X0036177Y0255307D01*
X0036334Y0255245D01*
X0036489Y0255178D01*
X0036643Y0255107D01*
X0036795Y0255033D01*
X0036945Y0254955D01*
X0037093Y0254874D01*
X0037239Y0254789D01*
X0037383Y0254700D01*
X0037525Y0254608D01*
X0037664Y0254512D01*
X0037801Y0254413D01*
X0037936Y0254311D01*
X0038068Y0254205D01*
X0038197Y0254096D01*
X0038324Y0253984D01*
X0038448Y0253869D01*
X0038569Y0253751D01*
X0038687Y0253630D01*
X0038802Y0253506D01*
X0038914Y0253379D01*
X0039023Y0253250D01*
X0039129Y0253118D01*
X0039231Y0252983D01*
X0039330Y0252846D01*
X0039426Y0252707D01*
X0039518Y0252565D01*
X0039607Y0252421D01*
X0039692Y0252275D01*
X0039773Y0252127D01*
X0039851Y0251977D01*
X0039925Y0251825D01*
X0039996Y0251671D01*
X0040063Y0251516D01*
X0040125Y0251359D01*
X0040184Y0251200D01*
X0040239Y0251040D01*
X0040290Y0250879D01*
X0040337Y0250717D01*
X0040381Y0250553D01*
X0040420Y0250389D01*
X0040455Y0250223D01*
X0040486Y0250057D01*
X0040512Y0249890D01*
X0040535Y0249722D01*
X0040554Y0249554D01*
X0040568Y0249386D01*
X0040579Y0249217D01*
X0040585Y0249048D01*
X0040587Y0248879D01*
X0040585Y0248710D01*
X0040579Y0248541D01*
X0040568Y0248372D01*
X0040554Y0248204D01*
X0040535Y0248036D01*
X0040512Y0247868D01*
X0040486Y0247701D01*
X0040455Y0247535D01*
X0040420Y0247369D01*
X0040381Y0247205D01*
X0040337Y0247041D01*
X0040290Y0246879D01*
X0040239Y0246718D01*
X0040184Y0246558D01*
X0040125Y0246399D01*
X0040063Y0246242D01*
X0039996Y0246087D01*
X0039925Y0245933D01*
X0039851Y0245781D01*
X0039773Y0245631D01*
X0039692Y0245483D01*
X0039607Y0245337D01*
X0039518Y0245193D01*
X0039426Y0245051D01*
X0039330Y0244912D01*
X0039231Y0244775D01*
X0039129Y0244640D01*
X0039023Y0244508D01*
X0038914Y0244379D01*
X0038802Y0244252D01*
X0038687Y0244128D01*
X0038569Y0244007D01*
X0038448Y0243889D01*
X0038324Y0243774D01*
X0038197Y0243662D01*
X0038068Y0243553D01*
X0037936Y0243447D01*
X0037801Y0243345D01*
X0037664Y0243246D01*
X0037525Y0243150D01*
X0037383Y0243058D01*
X0037239Y0242969D01*
X0037093Y0242884D01*
X0036945Y0242803D01*
X0036795Y0242725D01*
X0036643Y0242651D01*
X0036489Y0242580D01*
X0036334Y0242513D01*
X0036177Y0242451D01*
X0036018Y0242392D01*
X0035858Y0242337D01*
X0035697Y0242286D01*
X0035535Y0242239D01*
X0035371Y0242195D01*
X0035207Y0242156D01*
X0035041Y0242121D01*
X0034875Y0242090D01*
X0034708Y0242064D01*
X0034540Y0242041D01*
X0034372Y0242022D01*
X0034204Y0242008D01*
X0034035Y0241997D01*
X0033866Y0241991D01*
X0033697Y0241989D01*
X0033528Y0241991D01*
X0033359Y0241997D01*
X0033190Y0242008D01*
X0033022Y0242022D01*
X0032854Y0242041D01*
X0032686Y0242064D01*
X0032519Y0242090D01*
X0032353Y0242121D01*
X0032187Y0242156D01*
X0032023Y0242195D01*
X0031859Y0242239D01*
X0031697Y0242286D01*
X0031536Y0242337D01*
X0031376Y0242392D01*
X0031217Y0242451D01*
X0031060Y0242513D01*
X0030905Y0242580D01*
X0030751Y0242651D01*
X0030599Y0242725D01*
X0030449Y0242803D01*
X0030301Y0242884D01*
X0030155Y0242969D01*
X0030011Y0243058D01*
X0029869Y0243150D01*
X0029730Y0243246D01*
X0029593Y0243345D01*
X0029458Y0243447D01*
X0029326Y0243553D01*
X0029197Y0243662D01*
X0029070Y0243774D01*
X0028946Y0243889D01*
X0028825Y0244007D01*
X0028707Y0244128D01*
X0028592Y0244252D01*
X0028480Y0244379D01*
X0028371Y0244508D01*
X0028265Y0244640D01*
X0028163Y0244775D01*
X0028064Y0244912D01*
X0027968Y0245051D01*
X0027876Y0245193D01*
X0027787Y0245337D01*
X0027702Y0245483D01*
X0027621Y0245631D01*
X0027543Y0245781D01*
X0027469Y0245933D01*
X0027398Y0246087D01*
X0027331Y0246242D01*
X0027269Y0246399D01*
X0027210Y0246558D01*
X0027155Y0246718D01*
X0027104Y0246879D01*
X0027057Y0247041D01*
X0027013Y0247205D01*
X0026974Y0247369D01*
X0026939Y0247535D01*
X0026908Y0247701D01*
X0026882Y0247868D01*
X0026859Y0248036D01*
X0026840Y0248204D01*
X0026826Y0248372D01*
X0026815Y0248541D01*
X0026809Y0248710D01*
X0026807Y0248879D01*
X0391807Y0248879D02*
X0391809Y0249048D01*
X0391815Y0249217D01*
X0391826Y0249386D01*
X0391840Y0249554D01*
X0391859Y0249722D01*
X0391882Y0249890D01*
X0391908Y0250057D01*
X0391939Y0250223D01*
X0391974Y0250389D01*
X0392013Y0250553D01*
X0392057Y0250717D01*
X0392104Y0250879D01*
X0392155Y0251040D01*
X0392210Y0251200D01*
X0392269Y0251359D01*
X0392331Y0251516D01*
X0392398Y0251671D01*
X0392469Y0251825D01*
X0392543Y0251977D01*
X0392621Y0252127D01*
X0392702Y0252275D01*
X0392787Y0252421D01*
X0392876Y0252565D01*
X0392968Y0252707D01*
X0393064Y0252846D01*
X0393163Y0252983D01*
X0393265Y0253118D01*
X0393371Y0253250D01*
X0393480Y0253379D01*
X0393592Y0253506D01*
X0393707Y0253630D01*
X0393825Y0253751D01*
X0393946Y0253869D01*
X0394070Y0253984D01*
X0394197Y0254096D01*
X0394326Y0254205D01*
X0394458Y0254311D01*
X0394593Y0254413D01*
X0394730Y0254512D01*
X0394869Y0254608D01*
X0395011Y0254700D01*
X0395155Y0254789D01*
X0395301Y0254874D01*
X0395449Y0254955D01*
X0395599Y0255033D01*
X0395751Y0255107D01*
X0395905Y0255178D01*
X0396060Y0255245D01*
X0396217Y0255307D01*
X0396376Y0255366D01*
X0396536Y0255421D01*
X0396697Y0255472D01*
X0396859Y0255519D01*
X0397023Y0255563D01*
X0397187Y0255602D01*
X0397353Y0255637D01*
X0397519Y0255668D01*
X0397686Y0255694D01*
X0397854Y0255717D01*
X0398022Y0255736D01*
X0398190Y0255750D01*
X0398359Y0255761D01*
X0398528Y0255767D01*
X0398697Y0255769D01*
X0398866Y0255767D01*
X0399035Y0255761D01*
X0399204Y0255750D01*
X0399372Y0255736D01*
X0399540Y0255717D01*
X0399708Y0255694D01*
X0399875Y0255668D01*
X0400041Y0255637D01*
X0400207Y0255602D01*
X0400371Y0255563D01*
X0400535Y0255519D01*
X0400697Y0255472D01*
X0400858Y0255421D01*
X0401018Y0255366D01*
X0401177Y0255307D01*
X0401334Y0255245D01*
X0401489Y0255178D01*
X0401643Y0255107D01*
X0401795Y0255033D01*
X0401945Y0254955D01*
X0402093Y0254874D01*
X0402239Y0254789D01*
X0402383Y0254700D01*
X0402525Y0254608D01*
X0402664Y0254512D01*
X0402801Y0254413D01*
X0402936Y0254311D01*
X0403068Y0254205D01*
X0403197Y0254096D01*
X0403324Y0253984D01*
X0403448Y0253869D01*
X0403569Y0253751D01*
X0403687Y0253630D01*
X0403802Y0253506D01*
X0403914Y0253379D01*
X0404023Y0253250D01*
X0404129Y0253118D01*
X0404231Y0252983D01*
X0404330Y0252846D01*
X0404426Y0252707D01*
X0404518Y0252565D01*
X0404607Y0252421D01*
X0404692Y0252275D01*
X0404773Y0252127D01*
X0404851Y0251977D01*
X0404925Y0251825D01*
X0404996Y0251671D01*
X0405063Y0251516D01*
X0405125Y0251359D01*
X0405184Y0251200D01*
X0405239Y0251040D01*
X0405290Y0250879D01*
X0405337Y0250717D01*
X0405381Y0250553D01*
X0405420Y0250389D01*
X0405455Y0250223D01*
X0405486Y0250057D01*
X0405512Y0249890D01*
X0405535Y0249722D01*
X0405554Y0249554D01*
X0405568Y0249386D01*
X0405579Y0249217D01*
X0405585Y0249048D01*
X0405587Y0248879D01*
X0405585Y0248710D01*
X0405579Y0248541D01*
X0405568Y0248372D01*
X0405554Y0248204D01*
X0405535Y0248036D01*
X0405512Y0247868D01*
X0405486Y0247701D01*
X0405455Y0247535D01*
X0405420Y0247369D01*
X0405381Y0247205D01*
X0405337Y0247041D01*
X0405290Y0246879D01*
X0405239Y0246718D01*
X0405184Y0246558D01*
X0405125Y0246399D01*
X0405063Y0246242D01*
X0404996Y0246087D01*
X0404925Y0245933D01*
X0404851Y0245781D01*
X0404773Y0245631D01*
X0404692Y0245483D01*
X0404607Y0245337D01*
X0404518Y0245193D01*
X0404426Y0245051D01*
X0404330Y0244912D01*
X0404231Y0244775D01*
X0404129Y0244640D01*
X0404023Y0244508D01*
X0403914Y0244379D01*
X0403802Y0244252D01*
X0403687Y0244128D01*
X0403569Y0244007D01*
X0403448Y0243889D01*
X0403324Y0243774D01*
X0403197Y0243662D01*
X0403068Y0243553D01*
X0402936Y0243447D01*
X0402801Y0243345D01*
X0402664Y0243246D01*
X0402525Y0243150D01*
X0402383Y0243058D01*
X0402239Y0242969D01*
X0402093Y0242884D01*
X0401945Y0242803D01*
X0401795Y0242725D01*
X0401643Y0242651D01*
X0401489Y0242580D01*
X0401334Y0242513D01*
X0401177Y0242451D01*
X0401018Y0242392D01*
X0400858Y0242337D01*
X0400697Y0242286D01*
X0400535Y0242239D01*
X0400371Y0242195D01*
X0400207Y0242156D01*
X0400041Y0242121D01*
X0399875Y0242090D01*
X0399708Y0242064D01*
X0399540Y0242041D01*
X0399372Y0242022D01*
X0399204Y0242008D01*
X0399035Y0241997D01*
X0398866Y0241991D01*
X0398697Y0241989D01*
X0398528Y0241991D01*
X0398359Y0241997D01*
X0398190Y0242008D01*
X0398022Y0242022D01*
X0397854Y0242041D01*
X0397686Y0242064D01*
X0397519Y0242090D01*
X0397353Y0242121D01*
X0397187Y0242156D01*
X0397023Y0242195D01*
X0396859Y0242239D01*
X0396697Y0242286D01*
X0396536Y0242337D01*
X0396376Y0242392D01*
X0396217Y0242451D01*
X0396060Y0242513D01*
X0395905Y0242580D01*
X0395751Y0242651D01*
X0395599Y0242725D01*
X0395449Y0242803D01*
X0395301Y0242884D01*
X0395155Y0242969D01*
X0395011Y0243058D01*
X0394869Y0243150D01*
X0394730Y0243246D01*
X0394593Y0243345D01*
X0394458Y0243447D01*
X0394326Y0243553D01*
X0394197Y0243662D01*
X0394070Y0243774D01*
X0393946Y0243889D01*
X0393825Y0244007D01*
X0393707Y0244128D01*
X0393592Y0244252D01*
X0393480Y0244379D01*
X0393371Y0244508D01*
X0393265Y0244640D01*
X0393163Y0244775D01*
X0393064Y0244912D01*
X0392968Y0245051D01*
X0392876Y0245193D01*
X0392787Y0245337D01*
X0392702Y0245483D01*
X0392621Y0245631D01*
X0392543Y0245781D01*
X0392469Y0245933D01*
X0392398Y0246087D01*
X0392331Y0246242D01*
X0392269Y0246399D01*
X0392210Y0246558D01*
X0392155Y0246718D01*
X0392104Y0246879D01*
X0392057Y0247041D01*
X0392013Y0247205D01*
X0391974Y0247369D01*
X0391939Y0247535D01*
X0391908Y0247701D01*
X0391882Y0247868D01*
X0391859Y0248036D01*
X0391840Y0248204D01*
X0391826Y0248372D01*
X0391815Y0248541D01*
X0391809Y0248710D01*
X0391807Y0248879D01*
X0391807Y0028879D02*
X0391809Y0029048D01*
X0391815Y0029217D01*
X0391826Y0029386D01*
X0391840Y0029554D01*
X0391859Y0029722D01*
X0391882Y0029890D01*
X0391908Y0030057D01*
X0391939Y0030223D01*
X0391974Y0030389D01*
X0392013Y0030553D01*
X0392057Y0030717D01*
X0392104Y0030879D01*
X0392155Y0031040D01*
X0392210Y0031200D01*
X0392269Y0031359D01*
X0392331Y0031516D01*
X0392398Y0031671D01*
X0392469Y0031825D01*
X0392543Y0031977D01*
X0392621Y0032127D01*
X0392702Y0032275D01*
X0392787Y0032421D01*
X0392876Y0032565D01*
X0392968Y0032707D01*
X0393064Y0032846D01*
X0393163Y0032983D01*
X0393265Y0033118D01*
X0393371Y0033250D01*
X0393480Y0033379D01*
X0393592Y0033506D01*
X0393707Y0033630D01*
X0393825Y0033751D01*
X0393946Y0033869D01*
X0394070Y0033984D01*
X0394197Y0034096D01*
X0394326Y0034205D01*
X0394458Y0034311D01*
X0394593Y0034413D01*
X0394730Y0034512D01*
X0394869Y0034608D01*
X0395011Y0034700D01*
X0395155Y0034789D01*
X0395301Y0034874D01*
X0395449Y0034955D01*
X0395599Y0035033D01*
X0395751Y0035107D01*
X0395905Y0035178D01*
X0396060Y0035245D01*
X0396217Y0035307D01*
X0396376Y0035366D01*
X0396536Y0035421D01*
X0396697Y0035472D01*
X0396859Y0035519D01*
X0397023Y0035563D01*
X0397187Y0035602D01*
X0397353Y0035637D01*
X0397519Y0035668D01*
X0397686Y0035694D01*
X0397854Y0035717D01*
X0398022Y0035736D01*
X0398190Y0035750D01*
X0398359Y0035761D01*
X0398528Y0035767D01*
X0398697Y0035769D01*
X0398866Y0035767D01*
X0399035Y0035761D01*
X0399204Y0035750D01*
X0399372Y0035736D01*
X0399540Y0035717D01*
X0399708Y0035694D01*
X0399875Y0035668D01*
X0400041Y0035637D01*
X0400207Y0035602D01*
X0400371Y0035563D01*
X0400535Y0035519D01*
X0400697Y0035472D01*
X0400858Y0035421D01*
X0401018Y0035366D01*
X0401177Y0035307D01*
X0401334Y0035245D01*
X0401489Y0035178D01*
X0401643Y0035107D01*
X0401795Y0035033D01*
X0401945Y0034955D01*
X0402093Y0034874D01*
X0402239Y0034789D01*
X0402383Y0034700D01*
X0402525Y0034608D01*
X0402664Y0034512D01*
X0402801Y0034413D01*
X0402936Y0034311D01*
X0403068Y0034205D01*
X0403197Y0034096D01*
X0403324Y0033984D01*
X0403448Y0033869D01*
X0403569Y0033751D01*
X0403687Y0033630D01*
X0403802Y0033506D01*
X0403914Y0033379D01*
X0404023Y0033250D01*
X0404129Y0033118D01*
X0404231Y0032983D01*
X0404330Y0032846D01*
X0404426Y0032707D01*
X0404518Y0032565D01*
X0404607Y0032421D01*
X0404692Y0032275D01*
X0404773Y0032127D01*
X0404851Y0031977D01*
X0404925Y0031825D01*
X0404996Y0031671D01*
X0405063Y0031516D01*
X0405125Y0031359D01*
X0405184Y0031200D01*
X0405239Y0031040D01*
X0405290Y0030879D01*
X0405337Y0030717D01*
X0405381Y0030553D01*
X0405420Y0030389D01*
X0405455Y0030223D01*
X0405486Y0030057D01*
X0405512Y0029890D01*
X0405535Y0029722D01*
X0405554Y0029554D01*
X0405568Y0029386D01*
X0405579Y0029217D01*
X0405585Y0029048D01*
X0405587Y0028879D01*
X0405585Y0028710D01*
X0405579Y0028541D01*
X0405568Y0028372D01*
X0405554Y0028204D01*
X0405535Y0028036D01*
X0405512Y0027868D01*
X0405486Y0027701D01*
X0405455Y0027535D01*
X0405420Y0027369D01*
X0405381Y0027205D01*
X0405337Y0027041D01*
X0405290Y0026879D01*
X0405239Y0026718D01*
X0405184Y0026558D01*
X0405125Y0026399D01*
X0405063Y0026242D01*
X0404996Y0026087D01*
X0404925Y0025933D01*
X0404851Y0025781D01*
X0404773Y0025631D01*
X0404692Y0025483D01*
X0404607Y0025337D01*
X0404518Y0025193D01*
X0404426Y0025051D01*
X0404330Y0024912D01*
X0404231Y0024775D01*
X0404129Y0024640D01*
X0404023Y0024508D01*
X0403914Y0024379D01*
X0403802Y0024252D01*
X0403687Y0024128D01*
X0403569Y0024007D01*
X0403448Y0023889D01*
X0403324Y0023774D01*
X0403197Y0023662D01*
X0403068Y0023553D01*
X0402936Y0023447D01*
X0402801Y0023345D01*
X0402664Y0023246D01*
X0402525Y0023150D01*
X0402383Y0023058D01*
X0402239Y0022969D01*
X0402093Y0022884D01*
X0401945Y0022803D01*
X0401795Y0022725D01*
X0401643Y0022651D01*
X0401489Y0022580D01*
X0401334Y0022513D01*
X0401177Y0022451D01*
X0401018Y0022392D01*
X0400858Y0022337D01*
X0400697Y0022286D01*
X0400535Y0022239D01*
X0400371Y0022195D01*
X0400207Y0022156D01*
X0400041Y0022121D01*
X0399875Y0022090D01*
X0399708Y0022064D01*
X0399540Y0022041D01*
X0399372Y0022022D01*
X0399204Y0022008D01*
X0399035Y0021997D01*
X0398866Y0021991D01*
X0398697Y0021989D01*
X0398528Y0021991D01*
X0398359Y0021997D01*
X0398190Y0022008D01*
X0398022Y0022022D01*
X0397854Y0022041D01*
X0397686Y0022064D01*
X0397519Y0022090D01*
X0397353Y0022121D01*
X0397187Y0022156D01*
X0397023Y0022195D01*
X0396859Y0022239D01*
X0396697Y0022286D01*
X0396536Y0022337D01*
X0396376Y0022392D01*
X0396217Y0022451D01*
X0396060Y0022513D01*
X0395905Y0022580D01*
X0395751Y0022651D01*
X0395599Y0022725D01*
X0395449Y0022803D01*
X0395301Y0022884D01*
X0395155Y0022969D01*
X0395011Y0023058D01*
X0394869Y0023150D01*
X0394730Y0023246D01*
X0394593Y0023345D01*
X0394458Y0023447D01*
X0394326Y0023553D01*
X0394197Y0023662D01*
X0394070Y0023774D01*
X0393946Y0023889D01*
X0393825Y0024007D01*
X0393707Y0024128D01*
X0393592Y0024252D01*
X0393480Y0024379D01*
X0393371Y0024508D01*
X0393265Y0024640D01*
X0393163Y0024775D01*
X0393064Y0024912D01*
X0392968Y0025051D01*
X0392876Y0025193D01*
X0392787Y0025337D01*
X0392702Y0025483D01*
X0392621Y0025631D01*
X0392543Y0025781D01*
X0392469Y0025933D01*
X0392398Y0026087D01*
X0392331Y0026242D01*
X0392269Y0026399D01*
X0392210Y0026558D01*
X0392155Y0026718D01*
X0392104Y0026879D01*
X0392057Y0027041D01*
X0392013Y0027205D01*
X0391974Y0027369D01*
X0391939Y0027535D01*
X0391908Y0027701D01*
X0391882Y0027868D01*
X0391859Y0028036D01*
X0391840Y0028204D01*
X0391826Y0028372D01*
X0391815Y0028541D01*
X0391809Y0028710D01*
X0391807Y0028879D01*
D11*
X0160331Y0051379D03*
X0152063Y0051379D03*
X0152063Y0068879D03*
X0160331Y0068879D03*
X0160331Y0113879D03*
X0152063Y0113879D03*
X0152063Y0131379D03*
X0160331Y0131379D03*
X0160331Y0188879D03*
X0152063Y0188879D03*
X0152063Y0206379D03*
X0160331Y0206379D03*
X0092831Y0196379D03*
X0084563Y0196379D03*
D12*
X0301197Y0204903D03*
X0301197Y0182856D03*
X0301197Y0132403D03*
X0301197Y0110356D03*
X0301197Y0057403D03*
X0301197Y0035356D03*
D13*
X0121315Y0056389D03*
X0121315Y0060129D03*
X0121315Y0063869D03*
X0111078Y0063869D03*
X0111078Y0060129D03*
X0111078Y0056389D03*
X0111078Y0118889D03*
X0111078Y0122629D03*
X0111078Y0126369D03*
X0121315Y0126369D03*
X0121315Y0122629D03*
X0121315Y0118889D03*
X0121315Y0193889D03*
X0121315Y0197629D03*
X0121315Y0201369D03*
X0111078Y0201369D03*
X0111078Y0197629D03*
X0111078Y0193889D03*
D14*
X0330173Y0196379D03*
X0330173Y0191379D03*
X0330173Y0186379D03*
X0330173Y0201379D03*
X0352220Y0201379D03*
X0352220Y0196379D03*
X0352220Y0191379D03*
X0352220Y0186379D03*
X0352220Y0126379D03*
X0352220Y0121379D03*
X0352220Y0116379D03*
X0352220Y0111379D03*
X0330173Y0111379D03*
X0330173Y0116379D03*
X0330173Y0121379D03*
X0330173Y0126379D03*
X0330173Y0051379D03*
X0330173Y0046379D03*
X0330173Y0041379D03*
X0330173Y0036379D03*
X0352220Y0036379D03*
X0352220Y0041379D03*
X0352220Y0046379D03*
X0352220Y0051379D03*
D15*
X0222594Y0229903D03*
X0222594Y0247856D03*
D16*
X0193854Y0238879D03*
D17*
X0179937Y0211379D03*
X0172457Y0211379D03*
X0172457Y0193879D03*
X0179937Y0193879D03*
X0192457Y0193879D03*
X0199937Y0193879D03*
X0179937Y0176379D03*
X0172457Y0176379D03*
X0141187Y0188879D03*
X0133707Y0188879D03*
X0119937Y0183879D03*
X0112457Y0183879D03*
X0092437Y0181379D03*
X0084957Y0181379D03*
X0084957Y0168879D03*
X0092437Y0168879D03*
X0092437Y0156379D03*
X0084957Y0156379D03*
X0084957Y0143879D03*
X0092437Y0143879D03*
X0092437Y0131379D03*
X0084957Y0131379D03*
X0084957Y0118879D03*
X0092437Y0118879D03*
X0078687Y0108879D03*
X0071207Y0108879D03*
X0092457Y0101379D03*
X0099937Y0101379D03*
X0112457Y0108879D03*
X0119937Y0108879D03*
X0133707Y0113879D03*
X0141187Y0113879D03*
X0141187Y0131379D03*
X0133707Y0131379D03*
X0172457Y0136379D03*
X0179937Y0136379D03*
X0179937Y0118879D03*
X0172457Y0118879D03*
X0192457Y0118879D03*
X0199937Y0118879D03*
X0224957Y0111379D03*
X0232437Y0111379D03*
X0244957Y0115129D03*
X0252437Y0115129D03*
X0252437Y0127629D03*
X0244957Y0127629D03*
X0232437Y0135129D03*
X0224957Y0135129D03*
X0224957Y0101379D03*
X0232437Y0101379D03*
X0278707Y0115129D03*
X0286187Y0115129D03*
X0286187Y0127629D03*
X0278707Y0127629D03*
X0232437Y0173879D03*
X0224957Y0173879D03*
X0224957Y0183879D03*
X0232437Y0183879D03*
X0244957Y0187629D03*
X0252437Y0187629D03*
X0252437Y0200129D03*
X0244957Y0200129D03*
X0232437Y0207629D03*
X0224957Y0207629D03*
X0244957Y0242629D03*
X0252437Y0242629D03*
X0278707Y0200129D03*
X0286187Y0200129D03*
X0286187Y0187629D03*
X0278707Y0187629D03*
X0179937Y0101379D03*
X0172457Y0101379D03*
X0172457Y0073879D03*
X0179937Y0073879D03*
X0179937Y0056379D03*
X0172457Y0056379D03*
X0192457Y0056379D03*
X0199937Y0056379D03*
X0224957Y0060129D03*
X0232437Y0060129D03*
X0244957Y0052629D03*
X0252437Y0052629D03*
X0252437Y0040129D03*
X0244957Y0040129D03*
X0232437Y0036379D03*
X0224957Y0036379D03*
X0224957Y0026379D03*
X0232437Y0026379D03*
X0278707Y0040129D03*
X0286187Y0040129D03*
X0286187Y0052629D03*
X0278707Y0052629D03*
X0179937Y0038879D03*
X0172457Y0038879D03*
X0141187Y0051379D03*
X0133707Y0051379D03*
X0119937Y0046379D03*
X0112457Y0046379D03*
X0099937Y0046379D03*
X0092457Y0046379D03*
X0133707Y0068879D03*
X0141187Y0068879D03*
X0099937Y0081379D03*
X0092457Y0081379D03*
X0078687Y0088879D03*
X0071207Y0088879D03*
X0084957Y0208879D03*
X0092437Y0208879D03*
X0092437Y0221379D03*
X0084957Y0221379D03*
X0084957Y0233879D03*
X0092437Y0233879D03*
X0092437Y0243879D03*
X0084957Y0243879D03*
X0133707Y0206379D03*
X0141187Y0206379D03*
D18*
X0136197Y0235139D03*
X0136197Y0242619D03*
X0123697Y0242619D03*
X0123697Y0235139D03*
X0111197Y0235139D03*
X0111197Y0242619D03*
X0074947Y0242619D03*
X0074947Y0235139D03*
X0213697Y0197619D03*
X0213697Y0190139D03*
X0221197Y0157619D03*
X0221197Y0150139D03*
X0251197Y0150139D03*
X0251197Y0157619D03*
X0263697Y0157619D03*
X0263697Y0150139D03*
X0277447Y0150139D03*
X0277447Y0157619D03*
X0318697Y0175139D03*
X0318697Y0182619D03*
X0264947Y0190139D03*
X0264947Y0197619D03*
X0262447Y0235139D03*
X0262447Y0242619D03*
X0234947Y0242619D03*
X0234947Y0235139D03*
X0213697Y0125119D03*
X0213697Y0117639D03*
X0264947Y0117639D03*
X0264947Y0125119D03*
X0318697Y0107619D03*
X0318697Y0100139D03*
X0264947Y0050119D03*
X0264947Y0042639D03*
X0213697Y0042639D03*
X0213697Y0050119D03*
X0318697Y0032619D03*
X0318697Y0025139D03*
X0099947Y0063889D03*
X0099947Y0071369D03*
D19*
X0192457Y0069549D03*
X0199937Y0069549D03*
X0196197Y0078210D03*
X0196197Y0097049D03*
X0199937Y0105710D03*
X0192457Y0105710D03*
X0192457Y0132049D03*
X0199937Y0132049D03*
X0196197Y0140710D03*
X0196197Y0172049D03*
X0199937Y0180710D03*
X0192457Y0180710D03*
X0192457Y0207049D03*
X0199937Y0207049D03*
X0196197Y0215710D03*
X0192457Y0043210D03*
X0199937Y0043210D03*
X0196197Y0034549D03*
D20*
X0225147Y0043829D03*
X0225147Y0051429D03*
X0234747Y0051429D03*
X0234747Y0047629D03*
X0234747Y0043829D03*
X0234747Y0118204D03*
X0234747Y0122004D03*
X0234747Y0125804D03*
X0225147Y0125804D03*
X0225147Y0118204D03*
X0231397Y0150079D03*
X0231397Y0157679D03*
X0240997Y0157679D03*
X0240997Y0153879D03*
X0240997Y0150079D03*
X0234747Y0191329D03*
X0234747Y0195129D03*
X0234747Y0198929D03*
X0225147Y0198929D03*
X0225147Y0191329D03*
M02*
