G75*
%MOIN*%
%OFA0B0*%
%FSLAX25Y25*%
%IPPOS*%
%LPD*%
%AMOC8*
5,1,8,0,0,1.08239X$1,22.5*
%
%ADD10C,0.00000*%
%ADD11OC8,0.06300*%
%ADD12C,0.06300*%
%ADD13C,0.07050*%
%ADD14OC8,0.05200*%
%ADD15C,0.10000*%
%ADD16OC8,0.10000*%
%ADD17C,0.07400*%
%ADD18C,0.01400*%
%ADD19C,0.02800*%
%ADD20C,0.02800*%
%ADD21C,0.01000*%
%ADD22C,0.02000*%
%ADD23C,0.03200*%
%ADD24C,0.04000*%
D10*
X0031197Y0021379D02*
X0401197Y0021379D01*
X0401439Y0021382D01*
X0401680Y0021391D01*
X0401921Y0021405D01*
X0402162Y0021426D01*
X0402402Y0021452D01*
X0402642Y0021484D01*
X0402881Y0021522D01*
X0403118Y0021565D01*
X0403355Y0021615D01*
X0403590Y0021670D01*
X0403824Y0021730D01*
X0404056Y0021797D01*
X0404287Y0021868D01*
X0404516Y0021946D01*
X0404743Y0022029D01*
X0404968Y0022117D01*
X0405191Y0022211D01*
X0405411Y0022310D01*
X0405629Y0022415D01*
X0405844Y0022524D01*
X0406057Y0022639D01*
X0406267Y0022759D01*
X0406473Y0022884D01*
X0406677Y0023014D01*
X0406878Y0023149D01*
X0407075Y0023289D01*
X0407269Y0023433D01*
X0407459Y0023582D01*
X0407645Y0023736D01*
X0407828Y0023894D01*
X0408007Y0024056D01*
X0408182Y0024223D01*
X0408353Y0024394D01*
X0408520Y0024569D01*
X0408682Y0024748D01*
X0408840Y0024931D01*
X0408994Y0025117D01*
X0409143Y0025307D01*
X0409287Y0025501D01*
X0409427Y0025698D01*
X0409562Y0025899D01*
X0409692Y0026103D01*
X0409817Y0026309D01*
X0409937Y0026519D01*
X0410052Y0026732D01*
X0410161Y0026947D01*
X0410266Y0027165D01*
X0410365Y0027385D01*
X0410459Y0027608D01*
X0410547Y0027833D01*
X0410630Y0028060D01*
X0410708Y0028289D01*
X0410779Y0028520D01*
X0410846Y0028752D01*
X0410906Y0028986D01*
X0410961Y0029221D01*
X0411011Y0029458D01*
X0411054Y0029695D01*
X0411092Y0029934D01*
X0411124Y0030174D01*
X0411150Y0030414D01*
X0411171Y0030655D01*
X0411185Y0030896D01*
X0411194Y0031137D01*
X0411197Y0031379D01*
X0411197Y0256379D01*
X0411163Y0256650D01*
X0411123Y0256921D01*
X0411077Y0257191D01*
X0411024Y0257459D01*
X0410964Y0257726D01*
X0410898Y0257991D01*
X0410826Y0258255D01*
X0410747Y0258517D01*
X0410662Y0258777D01*
X0410571Y0259035D01*
X0410473Y0259290D01*
X0410370Y0259544D01*
X0410260Y0259794D01*
X0410144Y0260042D01*
X0410022Y0260287D01*
X0409895Y0260529D01*
X0409762Y0260768D01*
X0409622Y0261003D01*
X0409478Y0261235D01*
X0409327Y0261464D01*
X0409171Y0261689D01*
X0409010Y0261910D01*
X0408844Y0262127D01*
X0408672Y0262340D01*
X0408495Y0262548D01*
X0408314Y0262753D01*
X0408127Y0262953D01*
X0407935Y0263148D01*
X0407739Y0263339D01*
X0407539Y0263525D01*
X0407334Y0263706D01*
X0407124Y0263882D01*
X0406911Y0264052D01*
X0406693Y0264218D01*
X0406471Y0264378D01*
X0406246Y0264533D01*
X0406017Y0264683D01*
X0405784Y0264827D01*
X0405548Y0264965D01*
X0405309Y0265097D01*
X0405066Y0265224D01*
X0404821Y0265345D01*
X0404573Y0265460D01*
X0404322Y0265568D01*
X0404068Y0265671D01*
X0403812Y0265768D01*
X0403554Y0265858D01*
X0403294Y0265942D01*
X0403032Y0266020D01*
X0402767Y0266091D01*
X0402502Y0266156D01*
X0402235Y0266214D01*
X0401966Y0266266D01*
X0401696Y0266312D01*
X0401426Y0266351D01*
X0401154Y0266383D01*
X0400882Y0266409D01*
X0400609Y0266429D01*
X0400336Y0266441D01*
X0400062Y0266447D01*
X0399789Y0266447D01*
X0399515Y0266440D01*
X0399242Y0266426D01*
X0398969Y0266406D01*
X0398697Y0266379D01*
X0031197Y0266379D01*
X0030921Y0266345D01*
X0030647Y0266304D01*
X0030373Y0266256D01*
X0030100Y0266202D01*
X0029829Y0266141D01*
X0029560Y0266074D01*
X0029292Y0265999D01*
X0029026Y0265919D01*
X0028763Y0265832D01*
X0028501Y0265738D01*
X0028242Y0265638D01*
X0027985Y0265532D01*
X0027731Y0265419D01*
X0027480Y0265300D01*
X0027232Y0265175D01*
X0026987Y0265044D01*
X0026745Y0264907D01*
X0026507Y0264764D01*
X0026272Y0264616D01*
X0026042Y0264461D01*
X0025814Y0264301D01*
X0025591Y0264136D01*
X0025372Y0263965D01*
X0025158Y0263788D01*
X0024947Y0263607D01*
X0024742Y0263420D01*
X0024540Y0263229D01*
X0024344Y0263032D01*
X0024152Y0262831D01*
X0023966Y0262625D01*
X0023785Y0262415D01*
X0023608Y0262200D01*
X0023437Y0261981D01*
X0023272Y0261758D01*
X0023112Y0261531D01*
X0022958Y0261300D01*
X0022809Y0261065D01*
X0022666Y0260826D01*
X0022530Y0260585D01*
X0022399Y0260340D01*
X0022274Y0260092D01*
X0022155Y0259840D01*
X0022043Y0259586D01*
X0021936Y0259330D01*
X0021836Y0259071D01*
X0021743Y0258809D01*
X0021656Y0258545D01*
X0021575Y0258279D01*
X0021501Y0258012D01*
X0021434Y0257742D01*
X0021373Y0257471D01*
X0021319Y0257198D01*
X0021271Y0256925D01*
X0021231Y0256650D01*
X0021197Y0256374D01*
X0021170Y0256098D01*
X0021149Y0255821D01*
X0021136Y0255543D01*
X0021129Y0255266D01*
X0021129Y0254988D01*
X0021136Y0254710D01*
X0021149Y0254433D01*
X0021170Y0254155D01*
X0021197Y0253879D01*
X0021197Y0031379D01*
X0021200Y0031137D01*
X0021209Y0030896D01*
X0021223Y0030655D01*
X0021244Y0030414D01*
X0021270Y0030174D01*
X0021302Y0029934D01*
X0021340Y0029695D01*
X0021383Y0029458D01*
X0021433Y0029221D01*
X0021488Y0028986D01*
X0021548Y0028752D01*
X0021615Y0028520D01*
X0021686Y0028289D01*
X0021764Y0028060D01*
X0021847Y0027833D01*
X0021935Y0027608D01*
X0022029Y0027385D01*
X0022128Y0027165D01*
X0022233Y0026947D01*
X0022342Y0026732D01*
X0022457Y0026519D01*
X0022577Y0026309D01*
X0022702Y0026103D01*
X0022832Y0025899D01*
X0022967Y0025698D01*
X0023107Y0025501D01*
X0023251Y0025307D01*
X0023400Y0025117D01*
X0023554Y0024931D01*
X0023712Y0024748D01*
X0023874Y0024569D01*
X0024041Y0024394D01*
X0024212Y0024223D01*
X0024387Y0024056D01*
X0024566Y0023894D01*
X0024749Y0023736D01*
X0024935Y0023582D01*
X0025125Y0023433D01*
X0025319Y0023289D01*
X0025516Y0023149D01*
X0025717Y0023014D01*
X0025921Y0022884D01*
X0026127Y0022759D01*
X0026337Y0022639D01*
X0026550Y0022524D01*
X0026765Y0022415D01*
X0026983Y0022310D01*
X0027203Y0022211D01*
X0027426Y0022117D01*
X0027651Y0022029D01*
X0027878Y0021946D01*
X0028107Y0021868D01*
X0028338Y0021797D01*
X0028570Y0021730D01*
X0028804Y0021670D01*
X0029039Y0021615D01*
X0029276Y0021565D01*
X0029513Y0021522D01*
X0029752Y0021484D01*
X0029992Y0021452D01*
X0030232Y0021426D01*
X0030473Y0021405D01*
X0030714Y0021391D01*
X0030955Y0021382D01*
X0031197Y0021379D01*
X0026807Y0033879D02*
X0026809Y0034048D01*
X0026815Y0034217D01*
X0026826Y0034386D01*
X0026840Y0034554D01*
X0026859Y0034722D01*
X0026882Y0034890D01*
X0026908Y0035057D01*
X0026939Y0035223D01*
X0026974Y0035389D01*
X0027013Y0035553D01*
X0027057Y0035717D01*
X0027104Y0035879D01*
X0027155Y0036040D01*
X0027210Y0036200D01*
X0027269Y0036359D01*
X0027331Y0036516D01*
X0027398Y0036671D01*
X0027469Y0036825D01*
X0027543Y0036977D01*
X0027621Y0037127D01*
X0027702Y0037275D01*
X0027787Y0037421D01*
X0027876Y0037565D01*
X0027968Y0037707D01*
X0028064Y0037846D01*
X0028163Y0037983D01*
X0028265Y0038118D01*
X0028371Y0038250D01*
X0028480Y0038379D01*
X0028592Y0038506D01*
X0028707Y0038630D01*
X0028825Y0038751D01*
X0028946Y0038869D01*
X0029070Y0038984D01*
X0029197Y0039096D01*
X0029326Y0039205D01*
X0029458Y0039311D01*
X0029593Y0039413D01*
X0029730Y0039512D01*
X0029869Y0039608D01*
X0030011Y0039700D01*
X0030155Y0039789D01*
X0030301Y0039874D01*
X0030449Y0039955D01*
X0030599Y0040033D01*
X0030751Y0040107D01*
X0030905Y0040178D01*
X0031060Y0040245D01*
X0031217Y0040307D01*
X0031376Y0040366D01*
X0031536Y0040421D01*
X0031697Y0040472D01*
X0031859Y0040519D01*
X0032023Y0040563D01*
X0032187Y0040602D01*
X0032353Y0040637D01*
X0032519Y0040668D01*
X0032686Y0040694D01*
X0032854Y0040717D01*
X0033022Y0040736D01*
X0033190Y0040750D01*
X0033359Y0040761D01*
X0033528Y0040767D01*
X0033697Y0040769D01*
X0033866Y0040767D01*
X0034035Y0040761D01*
X0034204Y0040750D01*
X0034372Y0040736D01*
X0034540Y0040717D01*
X0034708Y0040694D01*
X0034875Y0040668D01*
X0035041Y0040637D01*
X0035207Y0040602D01*
X0035371Y0040563D01*
X0035535Y0040519D01*
X0035697Y0040472D01*
X0035858Y0040421D01*
X0036018Y0040366D01*
X0036177Y0040307D01*
X0036334Y0040245D01*
X0036489Y0040178D01*
X0036643Y0040107D01*
X0036795Y0040033D01*
X0036945Y0039955D01*
X0037093Y0039874D01*
X0037239Y0039789D01*
X0037383Y0039700D01*
X0037525Y0039608D01*
X0037664Y0039512D01*
X0037801Y0039413D01*
X0037936Y0039311D01*
X0038068Y0039205D01*
X0038197Y0039096D01*
X0038324Y0038984D01*
X0038448Y0038869D01*
X0038569Y0038751D01*
X0038687Y0038630D01*
X0038802Y0038506D01*
X0038914Y0038379D01*
X0039023Y0038250D01*
X0039129Y0038118D01*
X0039231Y0037983D01*
X0039330Y0037846D01*
X0039426Y0037707D01*
X0039518Y0037565D01*
X0039607Y0037421D01*
X0039692Y0037275D01*
X0039773Y0037127D01*
X0039851Y0036977D01*
X0039925Y0036825D01*
X0039996Y0036671D01*
X0040063Y0036516D01*
X0040125Y0036359D01*
X0040184Y0036200D01*
X0040239Y0036040D01*
X0040290Y0035879D01*
X0040337Y0035717D01*
X0040381Y0035553D01*
X0040420Y0035389D01*
X0040455Y0035223D01*
X0040486Y0035057D01*
X0040512Y0034890D01*
X0040535Y0034722D01*
X0040554Y0034554D01*
X0040568Y0034386D01*
X0040579Y0034217D01*
X0040585Y0034048D01*
X0040587Y0033879D01*
X0040585Y0033710D01*
X0040579Y0033541D01*
X0040568Y0033372D01*
X0040554Y0033204D01*
X0040535Y0033036D01*
X0040512Y0032868D01*
X0040486Y0032701D01*
X0040455Y0032535D01*
X0040420Y0032369D01*
X0040381Y0032205D01*
X0040337Y0032041D01*
X0040290Y0031879D01*
X0040239Y0031718D01*
X0040184Y0031558D01*
X0040125Y0031399D01*
X0040063Y0031242D01*
X0039996Y0031087D01*
X0039925Y0030933D01*
X0039851Y0030781D01*
X0039773Y0030631D01*
X0039692Y0030483D01*
X0039607Y0030337D01*
X0039518Y0030193D01*
X0039426Y0030051D01*
X0039330Y0029912D01*
X0039231Y0029775D01*
X0039129Y0029640D01*
X0039023Y0029508D01*
X0038914Y0029379D01*
X0038802Y0029252D01*
X0038687Y0029128D01*
X0038569Y0029007D01*
X0038448Y0028889D01*
X0038324Y0028774D01*
X0038197Y0028662D01*
X0038068Y0028553D01*
X0037936Y0028447D01*
X0037801Y0028345D01*
X0037664Y0028246D01*
X0037525Y0028150D01*
X0037383Y0028058D01*
X0037239Y0027969D01*
X0037093Y0027884D01*
X0036945Y0027803D01*
X0036795Y0027725D01*
X0036643Y0027651D01*
X0036489Y0027580D01*
X0036334Y0027513D01*
X0036177Y0027451D01*
X0036018Y0027392D01*
X0035858Y0027337D01*
X0035697Y0027286D01*
X0035535Y0027239D01*
X0035371Y0027195D01*
X0035207Y0027156D01*
X0035041Y0027121D01*
X0034875Y0027090D01*
X0034708Y0027064D01*
X0034540Y0027041D01*
X0034372Y0027022D01*
X0034204Y0027008D01*
X0034035Y0026997D01*
X0033866Y0026991D01*
X0033697Y0026989D01*
X0033528Y0026991D01*
X0033359Y0026997D01*
X0033190Y0027008D01*
X0033022Y0027022D01*
X0032854Y0027041D01*
X0032686Y0027064D01*
X0032519Y0027090D01*
X0032353Y0027121D01*
X0032187Y0027156D01*
X0032023Y0027195D01*
X0031859Y0027239D01*
X0031697Y0027286D01*
X0031536Y0027337D01*
X0031376Y0027392D01*
X0031217Y0027451D01*
X0031060Y0027513D01*
X0030905Y0027580D01*
X0030751Y0027651D01*
X0030599Y0027725D01*
X0030449Y0027803D01*
X0030301Y0027884D01*
X0030155Y0027969D01*
X0030011Y0028058D01*
X0029869Y0028150D01*
X0029730Y0028246D01*
X0029593Y0028345D01*
X0029458Y0028447D01*
X0029326Y0028553D01*
X0029197Y0028662D01*
X0029070Y0028774D01*
X0028946Y0028889D01*
X0028825Y0029007D01*
X0028707Y0029128D01*
X0028592Y0029252D01*
X0028480Y0029379D01*
X0028371Y0029508D01*
X0028265Y0029640D01*
X0028163Y0029775D01*
X0028064Y0029912D01*
X0027968Y0030051D01*
X0027876Y0030193D01*
X0027787Y0030337D01*
X0027702Y0030483D01*
X0027621Y0030631D01*
X0027543Y0030781D01*
X0027469Y0030933D01*
X0027398Y0031087D01*
X0027331Y0031242D01*
X0027269Y0031399D01*
X0027210Y0031558D01*
X0027155Y0031718D01*
X0027104Y0031879D01*
X0027057Y0032041D01*
X0027013Y0032205D01*
X0026974Y0032369D01*
X0026939Y0032535D01*
X0026908Y0032701D01*
X0026882Y0032868D01*
X0026859Y0033036D01*
X0026840Y0033204D01*
X0026826Y0033372D01*
X0026815Y0033541D01*
X0026809Y0033710D01*
X0026807Y0033879D01*
X0026807Y0253879D02*
X0026809Y0254048D01*
X0026815Y0254217D01*
X0026826Y0254386D01*
X0026840Y0254554D01*
X0026859Y0254722D01*
X0026882Y0254890D01*
X0026908Y0255057D01*
X0026939Y0255223D01*
X0026974Y0255389D01*
X0027013Y0255553D01*
X0027057Y0255717D01*
X0027104Y0255879D01*
X0027155Y0256040D01*
X0027210Y0256200D01*
X0027269Y0256359D01*
X0027331Y0256516D01*
X0027398Y0256671D01*
X0027469Y0256825D01*
X0027543Y0256977D01*
X0027621Y0257127D01*
X0027702Y0257275D01*
X0027787Y0257421D01*
X0027876Y0257565D01*
X0027968Y0257707D01*
X0028064Y0257846D01*
X0028163Y0257983D01*
X0028265Y0258118D01*
X0028371Y0258250D01*
X0028480Y0258379D01*
X0028592Y0258506D01*
X0028707Y0258630D01*
X0028825Y0258751D01*
X0028946Y0258869D01*
X0029070Y0258984D01*
X0029197Y0259096D01*
X0029326Y0259205D01*
X0029458Y0259311D01*
X0029593Y0259413D01*
X0029730Y0259512D01*
X0029869Y0259608D01*
X0030011Y0259700D01*
X0030155Y0259789D01*
X0030301Y0259874D01*
X0030449Y0259955D01*
X0030599Y0260033D01*
X0030751Y0260107D01*
X0030905Y0260178D01*
X0031060Y0260245D01*
X0031217Y0260307D01*
X0031376Y0260366D01*
X0031536Y0260421D01*
X0031697Y0260472D01*
X0031859Y0260519D01*
X0032023Y0260563D01*
X0032187Y0260602D01*
X0032353Y0260637D01*
X0032519Y0260668D01*
X0032686Y0260694D01*
X0032854Y0260717D01*
X0033022Y0260736D01*
X0033190Y0260750D01*
X0033359Y0260761D01*
X0033528Y0260767D01*
X0033697Y0260769D01*
X0033866Y0260767D01*
X0034035Y0260761D01*
X0034204Y0260750D01*
X0034372Y0260736D01*
X0034540Y0260717D01*
X0034708Y0260694D01*
X0034875Y0260668D01*
X0035041Y0260637D01*
X0035207Y0260602D01*
X0035371Y0260563D01*
X0035535Y0260519D01*
X0035697Y0260472D01*
X0035858Y0260421D01*
X0036018Y0260366D01*
X0036177Y0260307D01*
X0036334Y0260245D01*
X0036489Y0260178D01*
X0036643Y0260107D01*
X0036795Y0260033D01*
X0036945Y0259955D01*
X0037093Y0259874D01*
X0037239Y0259789D01*
X0037383Y0259700D01*
X0037525Y0259608D01*
X0037664Y0259512D01*
X0037801Y0259413D01*
X0037936Y0259311D01*
X0038068Y0259205D01*
X0038197Y0259096D01*
X0038324Y0258984D01*
X0038448Y0258869D01*
X0038569Y0258751D01*
X0038687Y0258630D01*
X0038802Y0258506D01*
X0038914Y0258379D01*
X0039023Y0258250D01*
X0039129Y0258118D01*
X0039231Y0257983D01*
X0039330Y0257846D01*
X0039426Y0257707D01*
X0039518Y0257565D01*
X0039607Y0257421D01*
X0039692Y0257275D01*
X0039773Y0257127D01*
X0039851Y0256977D01*
X0039925Y0256825D01*
X0039996Y0256671D01*
X0040063Y0256516D01*
X0040125Y0256359D01*
X0040184Y0256200D01*
X0040239Y0256040D01*
X0040290Y0255879D01*
X0040337Y0255717D01*
X0040381Y0255553D01*
X0040420Y0255389D01*
X0040455Y0255223D01*
X0040486Y0255057D01*
X0040512Y0254890D01*
X0040535Y0254722D01*
X0040554Y0254554D01*
X0040568Y0254386D01*
X0040579Y0254217D01*
X0040585Y0254048D01*
X0040587Y0253879D01*
X0040585Y0253710D01*
X0040579Y0253541D01*
X0040568Y0253372D01*
X0040554Y0253204D01*
X0040535Y0253036D01*
X0040512Y0252868D01*
X0040486Y0252701D01*
X0040455Y0252535D01*
X0040420Y0252369D01*
X0040381Y0252205D01*
X0040337Y0252041D01*
X0040290Y0251879D01*
X0040239Y0251718D01*
X0040184Y0251558D01*
X0040125Y0251399D01*
X0040063Y0251242D01*
X0039996Y0251087D01*
X0039925Y0250933D01*
X0039851Y0250781D01*
X0039773Y0250631D01*
X0039692Y0250483D01*
X0039607Y0250337D01*
X0039518Y0250193D01*
X0039426Y0250051D01*
X0039330Y0249912D01*
X0039231Y0249775D01*
X0039129Y0249640D01*
X0039023Y0249508D01*
X0038914Y0249379D01*
X0038802Y0249252D01*
X0038687Y0249128D01*
X0038569Y0249007D01*
X0038448Y0248889D01*
X0038324Y0248774D01*
X0038197Y0248662D01*
X0038068Y0248553D01*
X0037936Y0248447D01*
X0037801Y0248345D01*
X0037664Y0248246D01*
X0037525Y0248150D01*
X0037383Y0248058D01*
X0037239Y0247969D01*
X0037093Y0247884D01*
X0036945Y0247803D01*
X0036795Y0247725D01*
X0036643Y0247651D01*
X0036489Y0247580D01*
X0036334Y0247513D01*
X0036177Y0247451D01*
X0036018Y0247392D01*
X0035858Y0247337D01*
X0035697Y0247286D01*
X0035535Y0247239D01*
X0035371Y0247195D01*
X0035207Y0247156D01*
X0035041Y0247121D01*
X0034875Y0247090D01*
X0034708Y0247064D01*
X0034540Y0247041D01*
X0034372Y0247022D01*
X0034204Y0247008D01*
X0034035Y0246997D01*
X0033866Y0246991D01*
X0033697Y0246989D01*
X0033528Y0246991D01*
X0033359Y0246997D01*
X0033190Y0247008D01*
X0033022Y0247022D01*
X0032854Y0247041D01*
X0032686Y0247064D01*
X0032519Y0247090D01*
X0032353Y0247121D01*
X0032187Y0247156D01*
X0032023Y0247195D01*
X0031859Y0247239D01*
X0031697Y0247286D01*
X0031536Y0247337D01*
X0031376Y0247392D01*
X0031217Y0247451D01*
X0031060Y0247513D01*
X0030905Y0247580D01*
X0030751Y0247651D01*
X0030599Y0247725D01*
X0030449Y0247803D01*
X0030301Y0247884D01*
X0030155Y0247969D01*
X0030011Y0248058D01*
X0029869Y0248150D01*
X0029730Y0248246D01*
X0029593Y0248345D01*
X0029458Y0248447D01*
X0029326Y0248553D01*
X0029197Y0248662D01*
X0029070Y0248774D01*
X0028946Y0248889D01*
X0028825Y0249007D01*
X0028707Y0249128D01*
X0028592Y0249252D01*
X0028480Y0249379D01*
X0028371Y0249508D01*
X0028265Y0249640D01*
X0028163Y0249775D01*
X0028064Y0249912D01*
X0027968Y0250051D01*
X0027876Y0250193D01*
X0027787Y0250337D01*
X0027702Y0250483D01*
X0027621Y0250631D01*
X0027543Y0250781D01*
X0027469Y0250933D01*
X0027398Y0251087D01*
X0027331Y0251242D01*
X0027269Y0251399D01*
X0027210Y0251558D01*
X0027155Y0251718D01*
X0027104Y0251879D01*
X0027057Y0252041D01*
X0027013Y0252205D01*
X0026974Y0252369D01*
X0026939Y0252535D01*
X0026908Y0252701D01*
X0026882Y0252868D01*
X0026859Y0253036D01*
X0026840Y0253204D01*
X0026826Y0253372D01*
X0026815Y0253541D01*
X0026809Y0253710D01*
X0026807Y0253879D01*
X0391807Y0253879D02*
X0391809Y0254048D01*
X0391815Y0254217D01*
X0391826Y0254386D01*
X0391840Y0254554D01*
X0391859Y0254722D01*
X0391882Y0254890D01*
X0391908Y0255057D01*
X0391939Y0255223D01*
X0391974Y0255389D01*
X0392013Y0255553D01*
X0392057Y0255717D01*
X0392104Y0255879D01*
X0392155Y0256040D01*
X0392210Y0256200D01*
X0392269Y0256359D01*
X0392331Y0256516D01*
X0392398Y0256671D01*
X0392469Y0256825D01*
X0392543Y0256977D01*
X0392621Y0257127D01*
X0392702Y0257275D01*
X0392787Y0257421D01*
X0392876Y0257565D01*
X0392968Y0257707D01*
X0393064Y0257846D01*
X0393163Y0257983D01*
X0393265Y0258118D01*
X0393371Y0258250D01*
X0393480Y0258379D01*
X0393592Y0258506D01*
X0393707Y0258630D01*
X0393825Y0258751D01*
X0393946Y0258869D01*
X0394070Y0258984D01*
X0394197Y0259096D01*
X0394326Y0259205D01*
X0394458Y0259311D01*
X0394593Y0259413D01*
X0394730Y0259512D01*
X0394869Y0259608D01*
X0395011Y0259700D01*
X0395155Y0259789D01*
X0395301Y0259874D01*
X0395449Y0259955D01*
X0395599Y0260033D01*
X0395751Y0260107D01*
X0395905Y0260178D01*
X0396060Y0260245D01*
X0396217Y0260307D01*
X0396376Y0260366D01*
X0396536Y0260421D01*
X0396697Y0260472D01*
X0396859Y0260519D01*
X0397023Y0260563D01*
X0397187Y0260602D01*
X0397353Y0260637D01*
X0397519Y0260668D01*
X0397686Y0260694D01*
X0397854Y0260717D01*
X0398022Y0260736D01*
X0398190Y0260750D01*
X0398359Y0260761D01*
X0398528Y0260767D01*
X0398697Y0260769D01*
X0398866Y0260767D01*
X0399035Y0260761D01*
X0399204Y0260750D01*
X0399372Y0260736D01*
X0399540Y0260717D01*
X0399708Y0260694D01*
X0399875Y0260668D01*
X0400041Y0260637D01*
X0400207Y0260602D01*
X0400371Y0260563D01*
X0400535Y0260519D01*
X0400697Y0260472D01*
X0400858Y0260421D01*
X0401018Y0260366D01*
X0401177Y0260307D01*
X0401334Y0260245D01*
X0401489Y0260178D01*
X0401643Y0260107D01*
X0401795Y0260033D01*
X0401945Y0259955D01*
X0402093Y0259874D01*
X0402239Y0259789D01*
X0402383Y0259700D01*
X0402525Y0259608D01*
X0402664Y0259512D01*
X0402801Y0259413D01*
X0402936Y0259311D01*
X0403068Y0259205D01*
X0403197Y0259096D01*
X0403324Y0258984D01*
X0403448Y0258869D01*
X0403569Y0258751D01*
X0403687Y0258630D01*
X0403802Y0258506D01*
X0403914Y0258379D01*
X0404023Y0258250D01*
X0404129Y0258118D01*
X0404231Y0257983D01*
X0404330Y0257846D01*
X0404426Y0257707D01*
X0404518Y0257565D01*
X0404607Y0257421D01*
X0404692Y0257275D01*
X0404773Y0257127D01*
X0404851Y0256977D01*
X0404925Y0256825D01*
X0404996Y0256671D01*
X0405063Y0256516D01*
X0405125Y0256359D01*
X0405184Y0256200D01*
X0405239Y0256040D01*
X0405290Y0255879D01*
X0405337Y0255717D01*
X0405381Y0255553D01*
X0405420Y0255389D01*
X0405455Y0255223D01*
X0405486Y0255057D01*
X0405512Y0254890D01*
X0405535Y0254722D01*
X0405554Y0254554D01*
X0405568Y0254386D01*
X0405579Y0254217D01*
X0405585Y0254048D01*
X0405587Y0253879D01*
X0405585Y0253710D01*
X0405579Y0253541D01*
X0405568Y0253372D01*
X0405554Y0253204D01*
X0405535Y0253036D01*
X0405512Y0252868D01*
X0405486Y0252701D01*
X0405455Y0252535D01*
X0405420Y0252369D01*
X0405381Y0252205D01*
X0405337Y0252041D01*
X0405290Y0251879D01*
X0405239Y0251718D01*
X0405184Y0251558D01*
X0405125Y0251399D01*
X0405063Y0251242D01*
X0404996Y0251087D01*
X0404925Y0250933D01*
X0404851Y0250781D01*
X0404773Y0250631D01*
X0404692Y0250483D01*
X0404607Y0250337D01*
X0404518Y0250193D01*
X0404426Y0250051D01*
X0404330Y0249912D01*
X0404231Y0249775D01*
X0404129Y0249640D01*
X0404023Y0249508D01*
X0403914Y0249379D01*
X0403802Y0249252D01*
X0403687Y0249128D01*
X0403569Y0249007D01*
X0403448Y0248889D01*
X0403324Y0248774D01*
X0403197Y0248662D01*
X0403068Y0248553D01*
X0402936Y0248447D01*
X0402801Y0248345D01*
X0402664Y0248246D01*
X0402525Y0248150D01*
X0402383Y0248058D01*
X0402239Y0247969D01*
X0402093Y0247884D01*
X0401945Y0247803D01*
X0401795Y0247725D01*
X0401643Y0247651D01*
X0401489Y0247580D01*
X0401334Y0247513D01*
X0401177Y0247451D01*
X0401018Y0247392D01*
X0400858Y0247337D01*
X0400697Y0247286D01*
X0400535Y0247239D01*
X0400371Y0247195D01*
X0400207Y0247156D01*
X0400041Y0247121D01*
X0399875Y0247090D01*
X0399708Y0247064D01*
X0399540Y0247041D01*
X0399372Y0247022D01*
X0399204Y0247008D01*
X0399035Y0246997D01*
X0398866Y0246991D01*
X0398697Y0246989D01*
X0398528Y0246991D01*
X0398359Y0246997D01*
X0398190Y0247008D01*
X0398022Y0247022D01*
X0397854Y0247041D01*
X0397686Y0247064D01*
X0397519Y0247090D01*
X0397353Y0247121D01*
X0397187Y0247156D01*
X0397023Y0247195D01*
X0396859Y0247239D01*
X0396697Y0247286D01*
X0396536Y0247337D01*
X0396376Y0247392D01*
X0396217Y0247451D01*
X0396060Y0247513D01*
X0395905Y0247580D01*
X0395751Y0247651D01*
X0395599Y0247725D01*
X0395449Y0247803D01*
X0395301Y0247884D01*
X0395155Y0247969D01*
X0395011Y0248058D01*
X0394869Y0248150D01*
X0394730Y0248246D01*
X0394593Y0248345D01*
X0394458Y0248447D01*
X0394326Y0248553D01*
X0394197Y0248662D01*
X0394070Y0248774D01*
X0393946Y0248889D01*
X0393825Y0249007D01*
X0393707Y0249128D01*
X0393592Y0249252D01*
X0393480Y0249379D01*
X0393371Y0249508D01*
X0393265Y0249640D01*
X0393163Y0249775D01*
X0393064Y0249912D01*
X0392968Y0250051D01*
X0392876Y0250193D01*
X0392787Y0250337D01*
X0392702Y0250483D01*
X0392621Y0250631D01*
X0392543Y0250781D01*
X0392469Y0250933D01*
X0392398Y0251087D01*
X0392331Y0251242D01*
X0392269Y0251399D01*
X0392210Y0251558D01*
X0392155Y0251718D01*
X0392104Y0251879D01*
X0392057Y0252041D01*
X0392013Y0252205D01*
X0391974Y0252369D01*
X0391939Y0252535D01*
X0391908Y0252701D01*
X0391882Y0252868D01*
X0391859Y0253036D01*
X0391840Y0253204D01*
X0391826Y0253372D01*
X0391815Y0253541D01*
X0391809Y0253710D01*
X0391807Y0253879D01*
X0391807Y0033879D02*
X0391809Y0034048D01*
X0391815Y0034217D01*
X0391826Y0034386D01*
X0391840Y0034554D01*
X0391859Y0034722D01*
X0391882Y0034890D01*
X0391908Y0035057D01*
X0391939Y0035223D01*
X0391974Y0035389D01*
X0392013Y0035553D01*
X0392057Y0035717D01*
X0392104Y0035879D01*
X0392155Y0036040D01*
X0392210Y0036200D01*
X0392269Y0036359D01*
X0392331Y0036516D01*
X0392398Y0036671D01*
X0392469Y0036825D01*
X0392543Y0036977D01*
X0392621Y0037127D01*
X0392702Y0037275D01*
X0392787Y0037421D01*
X0392876Y0037565D01*
X0392968Y0037707D01*
X0393064Y0037846D01*
X0393163Y0037983D01*
X0393265Y0038118D01*
X0393371Y0038250D01*
X0393480Y0038379D01*
X0393592Y0038506D01*
X0393707Y0038630D01*
X0393825Y0038751D01*
X0393946Y0038869D01*
X0394070Y0038984D01*
X0394197Y0039096D01*
X0394326Y0039205D01*
X0394458Y0039311D01*
X0394593Y0039413D01*
X0394730Y0039512D01*
X0394869Y0039608D01*
X0395011Y0039700D01*
X0395155Y0039789D01*
X0395301Y0039874D01*
X0395449Y0039955D01*
X0395599Y0040033D01*
X0395751Y0040107D01*
X0395905Y0040178D01*
X0396060Y0040245D01*
X0396217Y0040307D01*
X0396376Y0040366D01*
X0396536Y0040421D01*
X0396697Y0040472D01*
X0396859Y0040519D01*
X0397023Y0040563D01*
X0397187Y0040602D01*
X0397353Y0040637D01*
X0397519Y0040668D01*
X0397686Y0040694D01*
X0397854Y0040717D01*
X0398022Y0040736D01*
X0398190Y0040750D01*
X0398359Y0040761D01*
X0398528Y0040767D01*
X0398697Y0040769D01*
X0398866Y0040767D01*
X0399035Y0040761D01*
X0399204Y0040750D01*
X0399372Y0040736D01*
X0399540Y0040717D01*
X0399708Y0040694D01*
X0399875Y0040668D01*
X0400041Y0040637D01*
X0400207Y0040602D01*
X0400371Y0040563D01*
X0400535Y0040519D01*
X0400697Y0040472D01*
X0400858Y0040421D01*
X0401018Y0040366D01*
X0401177Y0040307D01*
X0401334Y0040245D01*
X0401489Y0040178D01*
X0401643Y0040107D01*
X0401795Y0040033D01*
X0401945Y0039955D01*
X0402093Y0039874D01*
X0402239Y0039789D01*
X0402383Y0039700D01*
X0402525Y0039608D01*
X0402664Y0039512D01*
X0402801Y0039413D01*
X0402936Y0039311D01*
X0403068Y0039205D01*
X0403197Y0039096D01*
X0403324Y0038984D01*
X0403448Y0038869D01*
X0403569Y0038751D01*
X0403687Y0038630D01*
X0403802Y0038506D01*
X0403914Y0038379D01*
X0404023Y0038250D01*
X0404129Y0038118D01*
X0404231Y0037983D01*
X0404330Y0037846D01*
X0404426Y0037707D01*
X0404518Y0037565D01*
X0404607Y0037421D01*
X0404692Y0037275D01*
X0404773Y0037127D01*
X0404851Y0036977D01*
X0404925Y0036825D01*
X0404996Y0036671D01*
X0405063Y0036516D01*
X0405125Y0036359D01*
X0405184Y0036200D01*
X0405239Y0036040D01*
X0405290Y0035879D01*
X0405337Y0035717D01*
X0405381Y0035553D01*
X0405420Y0035389D01*
X0405455Y0035223D01*
X0405486Y0035057D01*
X0405512Y0034890D01*
X0405535Y0034722D01*
X0405554Y0034554D01*
X0405568Y0034386D01*
X0405579Y0034217D01*
X0405585Y0034048D01*
X0405587Y0033879D01*
X0405585Y0033710D01*
X0405579Y0033541D01*
X0405568Y0033372D01*
X0405554Y0033204D01*
X0405535Y0033036D01*
X0405512Y0032868D01*
X0405486Y0032701D01*
X0405455Y0032535D01*
X0405420Y0032369D01*
X0405381Y0032205D01*
X0405337Y0032041D01*
X0405290Y0031879D01*
X0405239Y0031718D01*
X0405184Y0031558D01*
X0405125Y0031399D01*
X0405063Y0031242D01*
X0404996Y0031087D01*
X0404925Y0030933D01*
X0404851Y0030781D01*
X0404773Y0030631D01*
X0404692Y0030483D01*
X0404607Y0030337D01*
X0404518Y0030193D01*
X0404426Y0030051D01*
X0404330Y0029912D01*
X0404231Y0029775D01*
X0404129Y0029640D01*
X0404023Y0029508D01*
X0403914Y0029379D01*
X0403802Y0029252D01*
X0403687Y0029128D01*
X0403569Y0029007D01*
X0403448Y0028889D01*
X0403324Y0028774D01*
X0403197Y0028662D01*
X0403068Y0028553D01*
X0402936Y0028447D01*
X0402801Y0028345D01*
X0402664Y0028246D01*
X0402525Y0028150D01*
X0402383Y0028058D01*
X0402239Y0027969D01*
X0402093Y0027884D01*
X0401945Y0027803D01*
X0401795Y0027725D01*
X0401643Y0027651D01*
X0401489Y0027580D01*
X0401334Y0027513D01*
X0401177Y0027451D01*
X0401018Y0027392D01*
X0400858Y0027337D01*
X0400697Y0027286D01*
X0400535Y0027239D01*
X0400371Y0027195D01*
X0400207Y0027156D01*
X0400041Y0027121D01*
X0399875Y0027090D01*
X0399708Y0027064D01*
X0399540Y0027041D01*
X0399372Y0027022D01*
X0399204Y0027008D01*
X0399035Y0026997D01*
X0398866Y0026991D01*
X0398697Y0026989D01*
X0398528Y0026991D01*
X0398359Y0026997D01*
X0398190Y0027008D01*
X0398022Y0027022D01*
X0397854Y0027041D01*
X0397686Y0027064D01*
X0397519Y0027090D01*
X0397353Y0027121D01*
X0397187Y0027156D01*
X0397023Y0027195D01*
X0396859Y0027239D01*
X0396697Y0027286D01*
X0396536Y0027337D01*
X0396376Y0027392D01*
X0396217Y0027451D01*
X0396060Y0027513D01*
X0395905Y0027580D01*
X0395751Y0027651D01*
X0395599Y0027725D01*
X0395449Y0027803D01*
X0395301Y0027884D01*
X0395155Y0027969D01*
X0395011Y0028058D01*
X0394869Y0028150D01*
X0394730Y0028246D01*
X0394593Y0028345D01*
X0394458Y0028447D01*
X0394326Y0028553D01*
X0394197Y0028662D01*
X0394070Y0028774D01*
X0393946Y0028889D01*
X0393825Y0029007D01*
X0393707Y0029128D01*
X0393592Y0029252D01*
X0393480Y0029379D01*
X0393371Y0029508D01*
X0393265Y0029640D01*
X0393163Y0029775D01*
X0393064Y0029912D01*
X0392968Y0030051D01*
X0392876Y0030193D01*
X0392787Y0030337D01*
X0392702Y0030483D01*
X0392621Y0030631D01*
X0392543Y0030781D01*
X0392469Y0030933D01*
X0392398Y0031087D01*
X0392331Y0031242D01*
X0392269Y0031399D01*
X0392210Y0031558D01*
X0392155Y0031718D01*
X0392104Y0031879D01*
X0392057Y0032041D01*
X0392013Y0032205D01*
X0391974Y0032369D01*
X0391939Y0032535D01*
X0391908Y0032701D01*
X0391882Y0032868D01*
X0391859Y0033036D01*
X0391840Y0033204D01*
X0391826Y0033372D01*
X0391815Y0033541D01*
X0391809Y0033710D01*
X0391807Y0033879D01*
D11*
X0181197Y0236379D03*
X0298614Y0246301D03*
D12*
X0298614Y0236301D03*
X0181197Y0246379D03*
D13*
X0390172Y0213879D02*
X0397222Y0213879D01*
X0397222Y0193879D02*
X0390172Y0193879D01*
X0390251Y0141064D02*
X0397301Y0141064D01*
X0397301Y0121379D02*
X0390251Y0121379D01*
X0390251Y0101694D02*
X0397301Y0101694D01*
D14*
X0058697Y0203979D03*
X0048697Y0213879D03*
X0058697Y0223779D03*
D15*
X0331197Y0233879D03*
X0331197Y0158879D03*
X0331197Y0083879D03*
D16*
X0351197Y0083879D03*
X0351197Y0158879D03*
X0351197Y0233879D03*
D17*
X0373697Y0233879D03*
X0373697Y0253879D03*
X0201197Y0158879D03*
X0191197Y0158879D03*
X0181197Y0158879D03*
X0171197Y0158879D03*
X0161197Y0171379D03*
X0151197Y0171379D03*
X0151197Y0143879D03*
X0161197Y0143879D03*
X0161197Y0103879D03*
X0151197Y0103879D03*
X0151197Y0076379D03*
X0161197Y0076379D03*
X0161197Y0036379D03*
X0151197Y0036379D03*
X0128697Y0036379D03*
X0118697Y0036379D03*
X0058697Y0056379D03*
X0058697Y0066379D03*
X0058697Y0076379D03*
X0058697Y0086379D03*
X0058697Y0096379D03*
X0058697Y0106379D03*
X0058697Y0133879D03*
X0058697Y0143879D03*
X0058697Y0153879D03*
X0058697Y0163879D03*
X0058697Y0173879D03*
X0151197Y0211379D03*
X0161197Y0211379D03*
D18*
X0165672Y0207935D02*
X0165672Y0204248D01*
X0156227Y0194804D01*
X0155762Y0194679D01*
X0155540Y0194679D01*
X0155134Y0194511D01*
X0154882Y0194443D01*
X0154777Y0194363D01*
X0154328Y0194177D01*
X0153399Y0193249D01*
X0152897Y0192036D01*
X0152897Y0190723D01*
X0152925Y0190654D01*
X0111344Y0190654D01*
X0110462Y0190289D01*
X0109787Y0189614D01*
X0109787Y0189614D01*
X0092477Y0172304D01*
X0092012Y0172179D01*
X0091790Y0172179D01*
X0091384Y0172011D01*
X0091132Y0171943D01*
X0091027Y0171863D01*
X0090578Y0171677D01*
X0089649Y0170749D01*
X0089147Y0169536D01*
X0089147Y0168223D01*
X0062273Y0168223D01*
X0061869Y0168627D02*
X0063444Y0167051D01*
X0064297Y0164993D01*
X0064297Y0162765D01*
X0063444Y0160707D01*
X0061869Y0159132D01*
X0061259Y0158879D01*
X0061869Y0158627D01*
X0063444Y0157051D01*
X0064297Y0154993D01*
X0064297Y0152765D01*
X0063444Y0150707D01*
X0061869Y0149132D01*
X0061259Y0148879D01*
X0061869Y0148627D01*
X0063444Y0147051D01*
X0064297Y0144993D01*
X0064297Y0142765D01*
X0063444Y0140707D01*
X0061869Y0139132D01*
X0061259Y0138879D01*
X0061869Y0138627D01*
X0063444Y0137051D01*
X0064297Y0134993D01*
X0064297Y0132765D01*
X0063444Y0130707D01*
X0062766Y0130029D01*
X0137880Y0130029D01*
X0137149Y0130760D01*
X0136647Y0131973D01*
X0136647Y0133286D01*
X0137149Y0134499D01*
X0138078Y0135427D01*
X0138527Y0135613D01*
X0138632Y0135693D01*
X0138884Y0135761D01*
X0139290Y0135929D01*
X0139512Y0135929D01*
X0139977Y0136054D01*
X0145459Y0141536D01*
X0145491Y0141623D01*
X0145597Y0144004D01*
X0145597Y0144993D01*
X0146449Y0147051D01*
X0146502Y0147104D01*
X0089659Y0147104D01*
X0089619Y0147010D01*
X0089264Y0146654D01*
X0089057Y0146405D01*
X0088967Y0146357D01*
X0088691Y0146082D01*
X0087478Y0145579D01*
X0086165Y0145579D01*
X0084953Y0146082D01*
X0084024Y0147010D01*
X0083522Y0148223D01*
X0083522Y0149536D01*
X0084024Y0150749D01*
X0084953Y0151677D01*
X0086165Y0152179D01*
X0086760Y0152179D01*
X0086906Y0152213D01*
X0087000Y0152197D01*
X0087101Y0152179D01*
X0087478Y0152179D01*
X0087742Y0152070D01*
X0088602Y0151923D01*
X0088763Y0151938D01*
X0088872Y0151904D01*
X0113550Y0151904D01*
X0113522Y0151973D01*
X0113522Y0153286D01*
X0114024Y0154499D01*
X0114953Y0155427D01*
X0115402Y0155613D01*
X0115507Y0155693D01*
X0115759Y0155761D01*
X0116165Y0155929D01*
X0116387Y0155929D01*
X0116852Y0156054D01*
X0127912Y0167114D01*
X0128587Y0167789D01*
X0129469Y0168154D01*
X0146502Y0168154D01*
X0146449Y0168207D01*
X0146431Y0168251D01*
X0145429Y0169286D01*
X0145313Y0169349D01*
X0145031Y0169698D01*
X0144719Y0170019D01*
X0144670Y0170143D01*
X0144587Y0170246D01*
X0144460Y0170676D01*
X0144295Y0171092D01*
X0144296Y0171136D01*
X0139977Y0175455D01*
X0139512Y0175579D01*
X0139290Y0175579D01*
X0138884Y0175748D01*
X0138632Y0175815D01*
X0138527Y0175895D01*
X0138078Y0176082D01*
X0137149Y0177010D01*
X0136647Y0178223D01*
X0136647Y0179536D01*
X0137149Y0180749D01*
X0138078Y0181677D01*
X0139290Y0182179D01*
X0140603Y0182179D01*
X0141816Y0181677D01*
X0142744Y0180749D01*
X0142931Y0180299D01*
X0143011Y0180194D01*
X0143011Y0180194D01*
X0143078Y0179942D01*
X0143247Y0179536D01*
X0143247Y0179314D01*
X0143371Y0178849D01*
X0147018Y0175202D01*
X0147445Y0175547D01*
X0148025Y0176127D01*
X0150083Y0176979D01*
X0152311Y0176979D01*
X0154369Y0176127D01*
X0155944Y0174551D01*
X0156197Y0173942D01*
X0156449Y0174551D01*
X0158025Y0176127D01*
X0160083Y0176979D01*
X0162311Y0176979D01*
X0164369Y0176127D01*
X0165944Y0174551D01*
X0166797Y0172493D01*
X0166797Y0170265D01*
X0165944Y0168207D01*
X0164369Y0166632D01*
X0162311Y0165779D01*
X0161321Y0165779D01*
X0158941Y0165673D01*
X0158853Y0165642D01*
X0156931Y0163720D01*
X0156049Y0163354D01*
X0139468Y0163354D01*
X0139497Y0163286D01*
X0139497Y0163274D01*
X0139680Y0162823D01*
X0146649Y0155854D01*
X0166388Y0155854D01*
X0165597Y0157765D01*
X0165597Y0159993D01*
X0166449Y0162051D01*
X0168025Y0163627D01*
X0170083Y0164479D01*
X0172311Y0164479D01*
X0174369Y0163627D01*
X0175944Y0162051D01*
X0176197Y0161442D01*
X0176449Y0162051D01*
X0178025Y0163627D01*
X0180083Y0164479D01*
X0182311Y0164479D01*
X0184369Y0163627D01*
X0185944Y0162051D01*
X0186197Y0161442D01*
X0186449Y0162051D01*
X0188025Y0163627D01*
X0190083Y0164479D01*
X0191072Y0164479D01*
X0193453Y0164585D01*
X0193540Y0164617D01*
X0197287Y0168364D01*
X0197287Y0168364D01*
X0197962Y0169039D01*
X0198844Y0169404D01*
X0206197Y0169404D01*
X0206197Y0176479D01*
X0188219Y0176479D01*
X0187337Y0176845D01*
X0186662Y0177520D01*
X0186227Y0177955D01*
X0185762Y0178079D01*
X0185540Y0178079D01*
X0185134Y0178248D01*
X0184882Y0178315D01*
X0184777Y0178395D01*
X0184328Y0178582D01*
X0183399Y0179510D01*
X0182897Y0180723D01*
X0182897Y0182036D01*
X0183399Y0183249D01*
X0184328Y0184177D01*
X0185540Y0184679D01*
X0186853Y0184679D01*
X0188066Y0184177D01*
X0188994Y0183249D01*
X0189181Y0182799D01*
X0189261Y0182694D01*
X0189261Y0182694D01*
X0189328Y0182442D01*
X0189497Y0182036D01*
X0189497Y0181814D01*
X0189621Y0181349D01*
X0189691Y0181279D01*
X0206197Y0181279D01*
X0206197Y0185854D01*
X0112816Y0185854D01*
X0095871Y0168910D01*
X0095747Y0168445D01*
X0095747Y0168223D01*
X0146443Y0168223D01*
X0145092Y0169621D02*
X0096583Y0169621D01*
X0095747Y0168223D02*
X0095578Y0167816D01*
X0095511Y0167564D01*
X0095431Y0167460D01*
X0095244Y0167010D01*
X0094316Y0166082D01*
X0093103Y0165579D01*
X0091790Y0165579D01*
X0090578Y0166082D01*
X0089649Y0167010D01*
X0089147Y0168223D01*
X0089182Y0169621D02*
X0062024Y0169621D01*
X0062215Y0169760D02*
X0062816Y0170361D01*
X0063315Y0171049D01*
X0063701Y0171806D01*
X0063964Y0172615D01*
X0064097Y0173454D01*
X0064097Y0173579D01*
X0058997Y0173579D01*
X0058997Y0174179D01*
X0064097Y0174179D01*
X0064097Y0174304D01*
X0063964Y0175144D01*
X0063701Y0175952D01*
X0063315Y0176709D01*
X0062816Y0177397D01*
X0062215Y0177998D01*
X0061527Y0178498D01*
X0060770Y0178884D01*
X0059961Y0179146D01*
X0059122Y0179279D01*
X0058997Y0179279D01*
X0058997Y0174179D01*
X0058397Y0174179D01*
X0058397Y0173579D01*
X0053297Y0173579D01*
X0053297Y0173454D01*
X0053430Y0172615D01*
X0053692Y0171806D01*
X0054078Y0171049D01*
X0054578Y0170361D01*
X0055179Y0169760D01*
X0055867Y0169261D01*
X0056400Y0168989D01*
X0055525Y0168627D01*
X0054825Y0167927D01*
X0054293Y0167441D01*
X0053920Y0167099D01*
X0053130Y0166376D01*
X0051097Y0168409D01*
X0051097Y0194312D01*
X0051828Y0193582D01*
X0053040Y0193079D01*
X0054353Y0193079D01*
X0054803Y0193265D01*
X0054933Y0193283D01*
X0054933Y0193283D01*
X0054933Y0193283D01*
X0055160Y0193413D01*
X0055566Y0193582D01*
X0055723Y0193739D01*
X0055760Y0193760D01*
X0056100Y0193956D01*
X0056140Y0193979D01*
X0146674Y0193979D01*
X0147556Y0194345D01*
X0158853Y0205642D01*
X0158941Y0205673D01*
X0161322Y0205779D01*
X0162311Y0205779D01*
X0164369Y0206632D01*
X0165672Y0207935D01*
X0165672Y0207381D02*
X0165118Y0207381D01*
X0165672Y0205983D02*
X0162802Y0205983D01*
X0165672Y0204584D02*
X0157796Y0204584D01*
X0156397Y0203186D02*
X0164609Y0203186D01*
X0163211Y0201787D02*
X0154999Y0201787D01*
X0153600Y0200389D02*
X0161812Y0200389D01*
X0160414Y0198990D02*
X0152202Y0198990D01*
X0150803Y0197592D02*
X0159015Y0197592D01*
X0157617Y0196193D02*
X0149405Y0196193D01*
X0148006Y0194795D02*
X0156193Y0194795D01*
X0153547Y0193396D02*
X0055130Y0193396D01*
X0055760Y0193760D02*
X0055760Y0193760D01*
X0052275Y0193396D02*
X0051097Y0193396D01*
X0051097Y0191998D02*
X0152897Y0191998D01*
X0145414Y0198990D02*
X0055775Y0198990D01*
X0055760Y0198998D02*
X0055739Y0199011D01*
X0055723Y0199020D01*
X0055566Y0199177D01*
X0055160Y0199345D01*
X0054933Y0199476D01*
X0054803Y0199493D01*
X0054353Y0199679D01*
X0053040Y0199679D01*
X0051828Y0199177D01*
X0051097Y0198446D01*
X0051097Y0208978D01*
X0051155Y0209036D01*
X0051230Y0209217D01*
X0051349Y0209371D01*
X0051399Y0209560D01*
X0052298Y0211116D01*
X0053197Y0212015D01*
X0053197Y0215743D01*
X0050561Y0218379D01*
X0046833Y0218379D01*
X0044197Y0215743D01*
X0044197Y0212015D01*
X0045096Y0211116D01*
X0045835Y0209835D01*
X0045994Y0209560D01*
X0046045Y0209371D01*
X0046164Y0209217D01*
X0046238Y0209036D01*
X0046297Y0208978D01*
X0046297Y0166937D01*
X0046662Y0166055D01*
X0047337Y0165380D01*
X0050873Y0161845D01*
X0051755Y0161479D01*
X0052983Y0161479D01*
X0053007Y0161468D01*
X0053054Y0161421D01*
X0053054Y0161421D01*
X0053116Y0161395D01*
X0053720Y0160842D01*
X0054491Y0160137D01*
X0054491Y0160137D01*
X0054825Y0159831D01*
X0055525Y0159132D01*
X0056134Y0158879D01*
X0055525Y0158627D01*
X0053949Y0157051D01*
X0053097Y0154993D01*
X0053097Y0152765D01*
X0053949Y0150707D01*
X0055525Y0149132D01*
X0056134Y0148879D01*
X0055525Y0148627D01*
X0053949Y0147051D01*
X0053097Y0144993D01*
X0053097Y0142765D01*
X0053949Y0140707D01*
X0055525Y0139132D01*
X0056134Y0138879D01*
X0055525Y0138627D01*
X0053949Y0137051D01*
X0053097Y0134993D01*
X0053097Y0132765D01*
X0053949Y0130707D01*
X0055525Y0129132D01*
X0057394Y0128358D01*
X0051712Y0122676D01*
X0051037Y0122001D01*
X0050672Y0121119D01*
X0050672Y0081527D01*
X0051037Y0080645D01*
X0052959Y0078723D01*
X0052991Y0078635D01*
X0053097Y0076255D01*
X0053097Y0075265D01*
X0053949Y0073207D01*
X0055525Y0071632D01*
X0056134Y0071379D01*
X0055525Y0071127D01*
X0053949Y0069551D01*
X0053097Y0067493D01*
X0053097Y0066504D01*
X0052991Y0064123D01*
X0052959Y0064036D01*
X0049162Y0060239D01*
X0048797Y0059357D01*
X0048797Y0040044D01*
X0049162Y0039162D01*
X0062245Y0026079D01*
X0042287Y0026079D01*
X0042971Y0026763D01*
X0044497Y0029406D01*
X0045287Y0032353D01*
X0045287Y0035405D01*
X0044497Y0038353D01*
X0042971Y0040996D01*
X0040813Y0043153D01*
X0038170Y0044679D01*
X0035223Y0045469D01*
X0032171Y0045469D01*
X0029223Y0044679D01*
X0026581Y0043153D01*
X0025897Y0042470D01*
X0025897Y0245289D01*
X0026581Y0244605D01*
X0029223Y0243079D01*
X0032171Y0242289D01*
X0035223Y0242289D01*
X0038170Y0243079D01*
X0040813Y0244605D01*
X0042971Y0246763D01*
X0044497Y0249406D01*
X0045287Y0252353D01*
X0045287Y0255405D01*
X0044497Y0258353D01*
X0042971Y0260996D01*
X0042287Y0261679D01*
X0258697Y0261679D01*
X0258697Y0226379D01*
X0206197Y0226379D01*
X0206197Y0199431D01*
X0164651Y0240977D01*
X0163920Y0241708D01*
X0162964Y0242104D01*
X0148523Y0242104D01*
X0148076Y0242293D01*
X0148074Y0242294D01*
X0148066Y0242302D01*
X0147471Y0242549D01*
X0147297Y0242622D01*
X0148155Y0243479D01*
X0176877Y0243479D01*
X0177377Y0243026D01*
X0177559Y0242861D01*
X0177713Y0242721D01*
X0178336Y0242098D01*
X0180192Y0241329D01*
X0182201Y0241329D01*
X0184057Y0242098D01*
X0185478Y0243519D01*
X0186247Y0245375D01*
X0186247Y0247384D01*
X0185478Y0249240D01*
X0184057Y0250660D01*
X0182201Y0251429D01*
X0180192Y0251429D01*
X0178336Y0250660D01*
X0177713Y0250037D01*
X0176877Y0249279D01*
X0146377Y0249279D01*
X0145311Y0248838D01*
X0140804Y0244331D01*
X0139988Y0243515D01*
X0139547Y0242449D01*
X0139547Y0213357D01*
X0139538Y0213336D01*
X0139545Y0212923D01*
X0139504Y0212511D01*
X0139547Y0212372D01*
X0139547Y0211427D01*
X0139988Y0210362D01*
X0140197Y0210153D01*
X0140197Y0210058D01*
X0140398Y0209573D01*
X0140516Y0209184D01*
X0140602Y0209079D01*
X0140730Y0208772D01*
X0141714Y0207787D01*
X0143001Y0207254D01*
X0144393Y0207254D01*
X0145679Y0207787D01*
X0146347Y0208455D01*
X0146449Y0208207D01*
X0148025Y0206632D01*
X0150083Y0205779D01*
X0152203Y0205779D01*
X0145203Y0198779D01*
X0056140Y0198779D01*
X0055760Y0198998D01*
X0054933Y0199476D02*
X0054933Y0199476D01*
X0054933Y0199476D01*
X0054933Y0199476D01*
X0054933Y0199476D01*
X0056206Y0200389D02*
X0051097Y0200389D01*
X0051097Y0201787D02*
X0054808Y0201787D01*
X0054397Y0202198D02*
X0056916Y0199679D01*
X0058597Y0199679D01*
X0058597Y0203879D01*
X0058797Y0203879D01*
X0058797Y0199679D01*
X0060478Y0199679D01*
X0062997Y0202198D01*
X0062997Y0203879D01*
X0058797Y0203879D01*
X0058797Y0204079D01*
X0062997Y0204079D01*
X0062997Y0205760D01*
X0060478Y0208279D01*
X0058797Y0208279D01*
X0058797Y0204079D01*
X0058597Y0204079D01*
X0058597Y0203879D01*
X0054397Y0203879D01*
X0054397Y0202198D01*
X0054397Y0203186D02*
X0051097Y0203186D01*
X0051097Y0204584D02*
X0054397Y0204584D01*
X0054397Y0204079D02*
X0058597Y0204079D01*
X0058597Y0208279D01*
X0056916Y0208279D01*
X0054397Y0205760D01*
X0054397Y0204079D01*
X0054619Y0205983D02*
X0051097Y0205983D01*
X0051097Y0207381D02*
X0056018Y0207381D01*
X0058597Y0207381D02*
X0058797Y0207381D01*
X0058797Y0205983D02*
X0058597Y0205983D01*
X0058197Y0205812D02*
X0058697Y0203979D01*
X0060596Y0203916D01*
X0060682Y0206489D01*
X0058197Y0205812D01*
X0058597Y0204584D02*
X0058797Y0204584D01*
X0058697Y0204504D02*
X0058697Y0203979D01*
X0058697Y0204504D02*
X0060682Y0206489D01*
X0106197Y0252004D01*
X0183072Y0252004D01*
X0186822Y0248254D01*
X0186822Y0240381D01*
X0184121Y0237680D01*
X0182820Y0236379D01*
X0181197Y0236379D01*
X0181297Y0236279D02*
X0181297Y0231529D01*
X0183206Y0231529D01*
X0186047Y0234370D01*
X0186047Y0236279D01*
X0181297Y0236279D01*
X0181097Y0236279D01*
X0181097Y0231529D01*
X0179188Y0231529D01*
X0176347Y0234370D01*
X0176347Y0236279D01*
X0181097Y0236279D01*
X0181097Y0236479D01*
X0176347Y0236479D01*
X0176347Y0238388D01*
X0179188Y0241229D01*
X0181097Y0241229D01*
X0181097Y0236479D01*
X0181297Y0236479D01*
X0186047Y0236479D01*
X0186047Y0238388D01*
X0183206Y0241229D01*
X0181297Y0241229D01*
X0181297Y0236479D01*
X0181297Y0236279D01*
X0181297Y0236750D02*
X0181097Y0236750D01*
X0181097Y0238148D02*
X0181297Y0238148D01*
X0181297Y0239547D02*
X0181097Y0239547D01*
X0181097Y0240946D02*
X0181297Y0240946D01*
X0183489Y0240946D02*
X0258697Y0240946D01*
X0258697Y0242344D02*
X0184303Y0242344D01*
X0185571Y0243743D02*
X0258697Y0243743D01*
X0258697Y0245141D02*
X0186150Y0245141D01*
X0186247Y0246540D02*
X0258697Y0246540D01*
X0258697Y0247938D02*
X0186017Y0247938D01*
X0185381Y0249337D02*
X0258697Y0249337D01*
X0258697Y0250735D02*
X0183877Y0250735D01*
X0178517Y0250735D02*
X0044853Y0250735D01*
X0045228Y0252134D02*
X0258697Y0252134D01*
X0258697Y0253532D02*
X0045287Y0253532D01*
X0045287Y0254931D02*
X0258697Y0254931D01*
X0258697Y0256329D02*
X0045039Y0256329D01*
X0044664Y0257728D02*
X0258697Y0257728D01*
X0258697Y0259126D02*
X0044050Y0259126D01*
X0043243Y0260525D02*
X0258697Y0260525D01*
X0258697Y0239547D02*
X0184888Y0239547D01*
X0186047Y0238148D02*
X0258697Y0238148D01*
X0258697Y0236750D02*
X0186047Y0236750D01*
X0186047Y0235351D02*
X0258697Y0235351D01*
X0258697Y0233953D02*
X0185629Y0233953D01*
X0184231Y0232554D02*
X0258697Y0232554D01*
X0258697Y0231156D02*
X0174472Y0231156D01*
X0173074Y0232554D02*
X0178163Y0232554D01*
X0176764Y0233953D02*
X0171675Y0233953D01*
X0170277Y0235351D02*
X0176347Y0235351D01*
X0176347Y0236750D02*
X0168878Y0236750D01*
X0167480Y0238148D02*
X0176347Y0238148D01*
X0177506Y0239547D02*
X0166081Y0239547D01*
X0164683Y0240946D02*
X0178904Y0240946D01*
X0178090Y0242344D02*
X0147964Y0242344D01*
X0146469Y0240149D02*
X0146197Y0239504D01*
X0146469Y0238859D01*
X0147997Y0239504D01*
X0146469Y0240149D01*
X0146197Y0239504D01*
X0146469Y0238859D01*
X0147997Y0239504D01*
X0146469Y0240149D01*
X0147997Y0239504D01*
X0146469Y0238859D01*
X0146437Y0238954D02*
X0146197Y0239504D01*
X0146437Y0238954D01*
X0147697Y0239504D01*
X0146437Y0238954D01*
X0147697Y0239504D01*
X0146437Y0240054D01*
X0146197Y0239504D01*
X0146437Y0240054D01*
X0147697Y0239504D01*
X0147697Y0239504D01*
X0146437Y0240054D01*
X0146437Y0240054D01*
X0147697Y0239504D01*
X0147997Y0239504D01*
X0162447Y0239504D01*
X0205549Y0196402D01*
X0207085Y0195778D01*
X0206822Y0195129D01*
X0206173Y0194866D01*
X0205549Y0196402D01*
X0205761Y0196190D01*
X0207041Y0195688D01*
X0206822Y0195129D01*
X0206263Y0194910D01*
X0205761Y0196190D01*
X0206822Y0195129D01*
X0206197Y0200389D02*
X0205239Y0200389D01*
X0206197Y0201787D02*
X0203841Y0201787D01*
X0202442Y0203186D02*
X0206197Y0203186D01*
X0206197Y0204584D02*
X0201044Y0204584D01*
X0199645Y0205983D02*
X0206197Y0205983D01*
X0206197Y0207381D02*
X0198247Y0207381D01*
X0196848Y0208780D02*
X0206197Y0208780D01*
X0206197Y0210178D02*
X0195450Y0210178D01*
X0194051Y0211577D02*
X0206197Y0211577D01*
X0206197Y0212975D02*
X0192653Y0212975D01*
X0191254Y0214374D02*
X0206197Y0214374D01*
X0206197Y0215772D02*
X0189856Y0215772D01*
X0188457Y0217171D02*
X0206197Y0217171D01*
X0206197Y0218569D02*
X0187059Y0218569D01*
X0185660Y0219968D02*
X0206197Y0219968D01*
X0206197Y0221366D02*
X0184262Y0221366D01*
X0182863Y0222765D02*
X0206197Y0222765D01*
X0206197Y0224163D02*
X0181465Y0224163D01*
X0180066Y0225562D02*
X0206197Y0225562D01*
X0181297Y0232554D02*
X0181097Y0232554D01*
X0181097Y0233953D02*
X0181297Y0233953D01*
X0181297Y0235351D02*
X0181097Y0235351D01*
X0175871Y0229757D02*
X0258697Y0229757D01*
X0258697Y0228359D02*
X0177269Y0228359D01*
X0178668Y0226960D02*
X0258697Y0226960D01*
X0206197Y0185005D02*
X0111967Y0185005D01*
X0110568Y0183607D02*
X0183757Y0183607D01*
X0182968Y0182208D02*
X0109170Y0182208D01*
X0107771Y0180810D02*
X0137210Y0180810D01*
X0136647Y0179411D02*
X0106373Y0179411D01*
X0104974Y0178012D02*
X0136734Y0178012D01*
X0137545Y0176614D02*
X0103576Y0176614D01*
X0102177Y0175215D02*
X0140216Y0175215D01*
X0141615Y0173817D02*
X0100779Y0173817D01*
X0099380Y0172418D02*
X0143014Y0172418D01*
X0144324Y0171020D02*
X0097982Y0171020D01*
X0093990Y0173817D02*
X0058997Y0173817D01*
X0058397Y0173817D02*
X0051097Y0173817D01*
X0051097Y0175215D02*
X0053453Y0175215D01*
X0053430Y0175144D02*
X0053297Y0174304D01*
X0053297Y0174179D01*
X0058397Y0174179D01*
X0058397Y0179279D01*
X0058272Y0179279D01*
X0057432Y0179146D01*
X0056624Y0178884D01*
X0055867Y0178498D01*
X0055179Y0177998D01*
X0054578Y0177397D01*
X0054078Y0176709D01*
X0053692Y0175952D01*
X0053430Y0175144D01*
X0054030Y0176614D02*
X0051097Y0176614D01*
X0051097Y0178012D02*
X0055199Y0178012D01*
X0058397Y0178012D02*
X0058997Y0178012D01*
X0058997Y0176614D02*
X0058397Y0176614D01*
X0058397Y0175215D02*
X0058997Y0175215D01*
X0062195Y0178012D02*
X0098186Y0178012D01*
X0096788Y0176614D02*
X0063364Y0176614D01*
X0063941Y0175215D02*
X0095389Y0175215D01*
X0092592Y0172418D02*
X0063900Y0172418D01*
X0063294Y0171020D02*
X0089921Y0171020D01*
X0089835Y0166824D02*
X0063538Y0166824D01*
X0064118Y0165426D02*
X0126224Y0165426D01*
X0124826Y0164027D02*
X0064297Y0164027D01*
X0064240Y0162629D02*
X0123427Y0162629D01*
X0122029Y0161230D02*
X0063661Y0161230D01*
X0062569Y0159832D02*
X0120630Y0159832D01*
X0119232Y0158433D02*
X0062062Y0158433D01*
X0063451Y0157035D02*
X0117833Y0157035D01*
X0115432Y0155636D02*
X0064030Y0155636D01*
X0064297Y0154238D02*
X0113916Y0154238D01*
X0113522Y0152839D02*
X0064297Y0152839D01*
X0063748Y0151441D02*
X0084717Y0151441D01*
X0083732Y0150042D02*
X0062779Y0150042D01*
X0061828Y0148644D02*
X0083522Y0148644D01*
X0083927Y0147245D02*
X0063250Y0147245D01*
X0063943Y0145847D02*
X0085520Y0145847D01*
X0088124Y0145847D02*
X0145950Y0145847D01*
X0145597Y0144448D02*
X0064297Y0144448D01*
X0064297Y0143050D02*
X0145554Y0143050D01*
X0145492Y0141651D02*
X0063835Y0141651D01*
X0062990Y0140253D02*
X0144176Y0140253D01*
X0142778Y0138854D02*
X0061320Y0138854D01*
X0063040Y0137456D02*
X0141379Y0137456D01*
X0139981Y0136057D02*
X0063856Y0136057D01*
X0064297Y0134659D02*
X0137309Y0134659D01*
X0136647Y0133260D02*
X0064297Y0133260D01*
X0063923Y0131862D02*
X0136693Y0131862D01*
X0137446Y0130463D02*
X0063200Y0130463D01*
X0056702Y0127666D02*
X0025897Y0127666D01*
X0025897Y0126268D02*
X0055304Y0126268D01*
X0053905Y0124869D02*
X0025897Y0124869D01*
X0025897Y0123471D02*
X0052507Y0123471D01*
X0051712Y0122676D02*
X0051712Y0122676D01*
X0051108Y0122072D02*
X0025897Y0122072D01*
X0025897Y0120674D02*
X0050672Y0120674D01*
X0050672Y0119275D02*
X0025897Y0119275D01*
X0025897Y0117877D02*
X0050672Y0117877D01*
X0050672Y0116478D02*
X0025897Y0116478D01*
X0025897Y0115079D02*
X0050672Y0115079D01*
X0050672Y0113681D02*
X0025897Y0113681D01*
X0025897Y0112282D02*
X0050672Y0112282D01*
X0050672Y0110884D02*
X0025897Y0110884D01*
X0025897Y0109485D02*
X0050672Y0109485D01*
X0050672Y0108087D02*
X0025897Y0108087D01*
X0025897Y0106688D02*
X0050672Y0106688D01*
X0050672Y0105290D02*
X0025897Y0105290D01*
X0025897Y0103891D02*
X0050672Y0103891D01*
X0050672Y0102493D02*
X0025897Y0102493D01*
X0025897Y0101094D02*
X0050672Y0101094D01*
X0050672Y0099696D02*
X0025897Y0099696D01*
X0025897Y0098297D02*
X0050672Y0098297D01*
X0050672Y0096899D02*
X0025897Y0096899D01*
X0025897Y0095500D02*
X0050672Y0095500D01*
X0050672Y0094102D02*
X0025897Y0094102D01*
X0025897Y0092703D02*
X0050672Y0092703D01*
X0050672Y0091305D02*
X0025897Y0091305D01*
X0025897Y0089906D02*
X0050672Y0089906D01*
X0050672Y0088508D02*
X0025897Y0088508D01*
X0025897Y0087109D02*
X0050672Y0087109D01*
X0050672Y0085711D02*
X0025897Y0085711D01*
X0025897Y0084312D02*
X0050672Y0084312D01*
X0050672Y0082914D02*
X0025897Y0082914D01*
X0025897Y0081515D02*
X0050677Y0081515D01*
X0051565Y0080117D02*
X0025897Y0080117D01*
X0025897Y0078718D02*
X0052961Y0078718D01*
X0053049Y0077320D02*
X0025897Y0077320D01*
X0025897Y0075921D02*
X0053097Y0075921D01*
X0053404Y0074523D02*
X0025897Y0074523D01*
X0025897Y0073124D02*
X0054032Y0073124D01*
X0055431Y0071726D02*
X0025897Y0071726D01*
X0025897Y0070327D02*
X0054725Y0070327D01*
X0053691Y0068929D02*
X0025897Y0068929D01*
X0025897Y0067530D02*
X0053112Y0067530D01*
X0053080Y0066132D02*
X0025897Y0066132D01*
X0025897Y0064733D02*
X0053018Y0064733D01*
X0052258Y0063335D02*
X0025897Y0063335D01*
X0025897Y0061936D02*
X0050860Y0061936D01*
X0049461Y0060538D02*
X0025897Y0060538D01*
X0025897Y0059139D02*
X0048797Y0059139D01*
X0048797Y0057741D02*
X0025897Y0057741D01*
X0025897Y0056342D02*
X0048797Y0056342D01*
X0048797Y0054944D02*
X0025897Y0054944D01*
X0025897Y0053545D02*
X0048797Y0053545D01*
X0048797Y0052146D02*
X0025897Y0052146D01*
X0025897Y0050748D02*
X0048797Y0050748D01*
X0048797Y0049349D02*
X0025897Y0049349D01*
X0025897Y0047951D02*
X0048797Y0047951D01*
X0048797Y0046552D02*
X0025897Y0046552D01*
X0025897Y0045154D02*
X0030995Y0045154D01*
X0027623Y0043755D02*
X0025897Y0043755D01*
X0036398Y0045154D02*
X0048797Y0045154D01*
X0048797Y0043755D02*
X0039770Y0043755D01*
X0041610Y0042357D02*
X0048797Y0042357D01*
X0048797Y0040958D02*
X0042992Y0040958D01*
X0043800Y0039560D02*
X0048997Y0039560D01*
X0050163Y0038161D02*
X0044548Y0038161D01*
X0044923Y0036763D02*
X0051561Y0036763D01*
X0052960Y0035364D02*
X0045287Y0035364D01*
X0045287Y0033966D02*
X0054358Y0033966D01*
X0055757Y0032567D02*
X0045287Y0032567D01*
X0044969Y0031169D02*
X0057155Y0031169D01*
X0058554Y0029770D02*
X0044594Y0029770D01*
X0043900Y0028372D02*
X0059952Y0028372D01*
X0061351Y0026973D02*
X0043092Y0026973D01*
X0055552Y0039560D02*
X0113958Y0039560D01*
X0113949Y0039551D02*
X0113097Y0037493D01*
X0113097Y0035265D01*
X0113949Y0033207D01*
X0115525Y0031632D01*
X0117583Y0030779D01*
X0119811Y0030779D01*
X0121869Y0031632D01*
X0123444Y0033207D01*
X0123807Y0034082D01*
X0124078Y0033549D01*
X0124578Y0032861D01*
X0125179Y0032260D01*
X0125867Y0031761D01*
X0126624Y0031375D01*
X0127432Y0031112D01*
X0128272Y0030979D01*
X0128397Y0030979D01*
X0128397Y0036079D01*
X0128997Y0036079D01*
X0128997Y0030979D01*
X0129122Y0030979D01*
X0129961Y0031112D01*
X0130770Y0031375D01*
X0131527Y0031761D01*
X0132215Y0032260D01*
X0132816Y0032861D01*
X0133315Y0033549D01*
X0133701Y0034306D01*
X0133964Y0035115D01*
X0134097Y0035954D01*
X0134097Y0036079D01*
X0128997Y0036079D01*
X0128997Y0036679D01*
X0134097Y0036679D01*
X0134097Y0036804D01*
X0133964Y0037644D01*
X0133701Y0038452D01*
X0133315Y0039209D01*
X0132816Y0039897D01*
X0132215Y0040498D01*
X0131527Y0040998D01*
X0130770Y0041384D01*
X0129961Y0041646D01*
X0129122Y0041779D01*
X0128997Y0041779D01*
X0128997Y0036679D01*
X0128397Y0036679D01*
X0128397Y0041779D01*
X0128272Y0041779D01*
X0127432Y0041646D01*
X0126624Y0041384D01*
X0125867Y0040998D01*
X0125179Y0040498D01*
X0124578Y0039897D01*
X0124078Y0039209D01*
X0123807Y0038676D01*
X0123444Y0039551D01*
X0121869Y0041127D01*
X0119811Y0041979D01*
X0117583Y0041979D01*
X0115525Y0041127D01*
X0113949Y0039551D01*
X0113374Y0038161D02*
X0056951Y0038161D01*
X0058349Y0036763D02*
X0113097Y0036763D01*
X0113097Y0035364D02*
X0059748Y0035364D01*
X0061146Y0033966D02*
X0113635Y0033966D01*
X0114589Y0032567D02*
X0062545Y0032567D01*
X0063943Y0031169D02*
X0116642Y0031169D01*
X0120751Y0031169D02*
X0127258Y0031169D01*
X0128397Y0031169D02*
X0128997Y0031169D01*
X0130136Y0031169D02*
X0149142Y0031169D01*
X0150083Y0030779D02*
X0152311Y0030779D01*
X0154369Y0031632D01*
X0155944Y0033207D01*
X0156197Y0033817D01*
X0156449Y0033207D01*
X0157149Y0032508D01*
X0157454Y0032174D01*
X0158000Y0031577D01*
X0156819Y0030396D01*
X0064716Y0030396D01*
X0053597Y0041515D01*
X0053597Y0054058D01*
X0053949Y0053207D01*
X0055525Y0051632D01*
X0057583Y0050779D01*
X0059811Y0050779D01*
X0061869Y0051632D01*
X0062568Y0052331D01*
X0062770Y0052516D01*
X0064278Y0053895D01*
X0064340Y0053921D01*
X0064387Y0053968D01*
X0064411Y0053979D01*
X0153754Y0053979D01*
X0154133Y0053760D01*
X0154171Y0053739D01*
X0154328Y0053582D01*
X0154734Y0053413D01*
X0154818Y0053365D01*
X0154960Y0053283D01*
X0154960Y0053283D01*
X0154960Y0053283D01*
X0155091Y0053265D01*
X0155540Y0053079D01*
X0156853Y0053079D01*
X0158066Y0053582D01*
X0158994Y0054510D01*
X0159497Y0055723D01*
X0159497Y0057036D01*
X0159311Y0057485D01*
X0159293Y0057616D01*
X0159163Y0057842D01*
X0158994Y0058249D01*
X0158838Y0058405D01*
X0158816Y0058443D01*
X0158661Y0058711D01*
X0158597Y0058822D01*
X0158597Y0070385D01*
X0158853Y0070642D01*
X0158941Y0070673D01*
X0161322Y0070779D01*
X0162311Y0070779D01*
X0164369Y0071632D01*
X0165944Y0073207D01*
X0166797Y0075265D01*
X0166797Y0077493D01*
X0165944Y0079551D01*
X0164369Y0081127D01*
X0162311Y0081979D01*
X0160083Y0081979D01*
X0158025Y0081127D01*
X0156449Y0079551D01*
X0156197Y0078942D01*
X0155944Y0079551D01*
X0154369Y0081127D01*
X0152311Y0081979D01*
X0150083Y0081979D01*
X0148025Y0081127D01*
X0146449Y0079551D01*
X0145597Y0077493D01*
X0145597Y0076504D01*
X0145491Y0074123D01*
X0145459Y0074036D01*
X0139977Y0068554D01*
X0139512Y0068429D01*
X0139290Y0068429D01*
X0138884Y0068261D01*
X0138632Y0068193D01*
X0138527Y0068113D01*
X0138078Y0067927D01*
X0137149Y0066999D01*
X0136647Y0065786D01*
X0136647Y0064473D01*
X0137149Y0063260D01*
X0138078Y0062332D01*
X0139290Y0061829D01*
X0140603Y0061829D01*
X0141816Y0062332D01*
X0142744Y0063260D01*
X0142931Y0063710D01*
X0143011Y0063814D01*
X0143078Y0064066D01*
X0143247Y0064473D01*
X0143247Y0064695D01*
X0143371Y0065160D01*
X0148853Y0070642D01*
X0148941Y0070673D01*
X0151321Y0070779D01*
X0152311Y0070779D01*
X0153797Y0071395D01*
X0153797Y0058822D01*
X0153781Y0058795D01*
X0153754Y0058779D01*
X0064411Y0058779D01*
X0064387Y0058791D01*
X0064340Y0058838D01*
X0064278Y0058863D01*
X0062902Y0060122D01*
X0062568Y0060427D01*
X0061869Y0061127D01*
X0061259Y0061379D01*
X0061869Y0061632D01*
X0063444Y0063207D01*
X0064297Y0065265D01*
X0064297Y0067493D01*
X0063444Y0069551D01*
X0061869Y0071127D01*
X0061259Y0071379D01*
X0061869Y0071632D01*
X0063444Y0073207D01*
X0064297Y0075265D01*
X0064297Y0077493D01*
X0063444Y0079551D01*
X0061869Y0081127D01*
X0061259Y0081379D01*
X0061869Y0081632D01*
X0063444Y0083207D01*
X0064297Y0085265D01*
X0064297Y0086255D01*
X0064403Y0088635D01*
X0064434Y0088723D01*
X0071566Y0095854D01*
X0156049Y0095854D01*
X0156931Y0096220D01*
X0158853Y0098142D01*
X0158941Y0098173D01*
X0161322Y0098279D01*
X0162311Y0098279D01*
X0164369Y0099132D01*
X0165944Y0100707D01*
X0166797Y0102765D01*
X0166797Y0104993D01*
X0165944Y0107051D01*
X0164369Y0108627D01*
X0162311Y0109479D01*
X0160083Y0109479D01*
X0158025Y0108627D01*
X0156449Y0107051D01*
X0156197Y0106442D01*
X0155944Y0107051D01*
X0154369Y0108627D01*
X0152311Y0109479D01*
X0150083Y0109479D01*
X0148025Y0108627D01*
X0147445Y0108047D01*
X0147018Y0107702D01*
X0143371Y0111349D01*
X0143247Y0111814D01*
X0143247Y0112036D01*
X0143218Y0112104D01*
X0165203Y0112104D01*
X0206197Y0071110D01*
X0206197Y0026079D01*
X0159291Y0026079D01*
X0159848Y0026636D01*
X0159848Y0026636D01*
X0162556Y0029345D01*
X0163231Y0030020D01*
X0163425Y0030487D01*
X0163580Y0030629D01*
X0163608Y0030689D01*
X0163655Y0030736D01*
X0163681Y0030798D01*
X0164603Y0031806D01*
X0165245Y0032508D01*
X0165944Y0033207D01*
X0166797Y0035265D01*
X0166797Y0037493D01*
X0165944Y0039551D01*
X0164369Y0041127D01*
X0162311Y0041979D01*
X0160083Y0041979D01*
X0158025Y0041127D01*
X0156449Y0039551D01*
X0156197Y0038942D01*
X0155944Y0039551D01*
X0154369Y0041127D01*
X0152311Y0041979D01*
X0151321Y0041979D01*
X0148941Y0042085D01*
X0148853Y0042117D01*
X0148544Y0042427D01*
X0148568Y0042469D01*
X0148668Y0042643D01*
X0148686Y0042773D01*
X0148872Y0043223D01*
X0148872Y0044536D01*
X0148369Y0045749D01*
X0147441Y0046677D01*
X0146228Y0047179D01*
X0144915Y0047179D01*
X0143703Y0046677D01*
X0142774Y0045749D01*
X0142272Y0044536D01*
X0142272Y0043223D01*
X0142458Y0042773D01*
X0142475Y0042643D01*
X0142475Y0042643D01*
X0142475Y0042643D01*
X0142606Y0042416D01*
X0142774Y0042010D01*
X0142931Y0041853D01*
X0142953Y0041816D01*
X0143305Y0041206D01*
X0143351Y0041094D01*
X0143377Y0040997D01*
X0143408Y0040957D01*
X0143537Y0040645D01*
X0145459Y0038723D01*
X0145491Y0038635D01*
X0145597Y0036255D01*
X0145597Y0035265D01*
X0146449Y0033207D01*
X0148025Y0031632D01*
X0150083Y0030779D01*
X0153251Y0031169D02*
X0157592Y0031169D01*
X0157089Y0032567D02*
X0155305Y0032567D01*
X0155936Y0039560D02*
X0156458Y0039560D01*
X0157856Y0040958D02*
X0154537Y0040958D01*
X0148872Y0043755D02*
X0206197Y0043755D01*
X0206197Y0042357D02*
X0148613Y0042357D01*
X0148668Y0042643D02*
X0148668Y0042643D01*
X0148668Y0042643D01*
X0148616Y0045154D02*
X0206197Y0045154D01*
X0206197Y0046552D02*
X0147566Y0046552D01*
X0143578Y0046552D02*
X0053597Y0046552D01*
X0053597Y0045154D02*
X0142528Y0045154D01*
X0142272Y0043755D02*
X0053597Y0043755D01*
X0053597Y0042357D02*
X0142631Y0042357D01*
X0142953Y0041816D02*
X0142953Y0041816D01*
X0143407Y0040958D02*
X0131581Y0040958D01*
X0133061Y0039560D02*
X0144622Y0039560D01*
X0145512Y0038161D02*
X0133796Y0038161D01*
X0134097Y0036763D02*
X0145574Y0036763D01*
X0145597Y0035364D02*
X0134003Y0035364D01*
X0133528Y0033966D02*
X0146135Y0033966D01*
X0147089Y0032567D02*
X0132522Y0032567D01*
X0128997Y0032567D02*
X0128397Y0032567D01*
X0128397Y0033966D02*
X0128997Y0033966D01*
X0128997Y0035364D02*
X0128397Y0035364D01*
X0128397Y0036763D02*
X0128997Y0036763D01*
X0128997Y0038161D02*
X0128397Y0038161D01*
X0128397Y0039560D02*
X0128997Y0039560D01*
X0128997Y0040958D02*
X0128397Y0040958D01*
X0125813Y0040958D02*
X0122037Y0040958D01*
X0123436Y0039560D02*
X0124333Y0039560D01*
X0123866Y0033966D02*
X0123759Y0033966D01*
X0122805Y0032567D02*
X0124872Y0032567D01*
X0115356Y0040958D02*
X0054154Y0040958D01*
X0053597Y0047951D02*
X0188083Y0047951D01*
X0187774Y0048260D02*
X0188703Y0047332D01*
X0189915Y0046829D01*
X0191228Y0046829D01*
X0192441Y0047332D01*
X0193369Y0048260D01*
X0193872Y0049473D01*
X0193872Y0050786D01*
X0193369Y0051999D01*
X0193227Y0052141D01*
X0193222Y0052153D01*
X0193174Y0052200D01*
X0192893Y0052475D01*
X0192441Y0052927D01*
X0192425Y0052934D01*
X0192055Y0053296D01*
X0191974Y0053388D01*
X0191911Y0053495D01*
X0191665Y0053680D01*
X0191448Y0053898D01*
X0187121Y0058224D01*
X0186997Y0058689D01*
X0186997Y0058911D01*
X0186828Y0059317D01*
X0186761Y0059569D01*
X0186761Y0059569D01*
X0186761Y0059569D01*
X0186681Y0059674D01*
X0186494Y0060124D01*
X0185566Y0061052D01*
X0184353Y0061554D01*
X0183040Y0061554D01*
X0181828Y0061052D01*
X0180899Y0060124D01*
X0180397Y0058911D01*
X0180397Y0057598D01*
X0180899Y0056385D01*
X0181828Y0055457D01*
X0182277Y0055270D01*
X0182382Y0055190D01*
X0182634Y0055123D01*
X0183040Y0054954D01*
X0183262Y0054954D01*
X0183727Y0054830D01*
X0187418Y0051139D01*
X0187272Y0050786D01*
X0187272Y0050546D01*
X0187257Y0050488D01*
X0187272Y0050383D01*
X0187272Y0049473D01*
X0187774Y0048260D01*
X0187323Y0049349D02*
X0053597Y0049349D01*
X0053597Y0050748D02*
X0187272Y0050748D01*
X0187257Y0050488D02*
X0187257Y0050488D01*
X0186410Y0052146D02*
X0062384Y0052146D01*
X0063895Y0053545D02*
X0154416Y0053545D01*
X0154133Y0053760D02*
X0154133Y0053760D01*
X0157978Y0053545D02*
X0185012Y0053545D01*
X0183302Y0054944D02*
X0159174Y0054944D01*
X0159497Y0056342D02*
X0180942Y0056342D01*
X0180397Y0057741D02*
X0159221Y0057741D01*
X0159293Y0057616D02*
X0159293Y0057616D01*
X0159293Y0057616D01*
X0159293Y0057616D01*
X0159293Y0057616D01*
X0158816Y0058443D02*
X0158816Y0058443D01*
X0158816Y0058443D01*
X0158816Y0058443D01*
X0158597Y0059139D02*
X0180491Y0059139D01*
X0181313Y0060538D02*
X0158597Y0060538D01*
X0158597Y0061936D02*
X0206197Y0061936D01*
X0206197Y0060538D02*
X0186080Y0060538D01*
X0186902Y0059139D02*
X0206197Y0059139D01*
X0206197Y0057741D02*
X0187605Y0057741D01*
X0189003Y0056342D02*
X0206197Y0056342D01*
X0206197Y0054944D02*
X0190402Y0054944D01*
X0191845Y0053545D02*
X0206197Y0053545D01*
X0206197Y0052146D02*
X0193225Y0052146D01*
X0193872Y0050748D02*
X0206197Y0050748D01*
X0206197Y0049349D02*
X0193821Y0049349D01*
X0193060Y0047951D02*
X0206197Y0047951D01*
X0206197Y0040958D02*
X0164537Y0040958D01*
X0165936Y0039560D02*
X0206197Y0039560D01*
X0206197Y0038161D02*
X0166520Y0038161D01*
X0166797Y0036763D02*
X0206197Y0036763D01*
X0206197Y0035364D02*
X0166797Y0035364D01*
X0166259Y0033966D02*
X0206197Y0033966D01*
X0206197Y0032567D02*
X0165305Y0032567D01*
X0164020Y0031169D02*
X0206197Y0031169D01*
X0206197Y0029770D02*
X0162982Y0029770D01*
X0163580Y0030629D02*
X0163580Y0030629D01*
X0163580Y0030629D01*
X0161584Y0028372D02*
X0206197Y0028372D01*
X0206197Y0026973D02*
X0160185Y0026973D01*
X0153797Y0059139D02*
X0063977Y0059139D01*
X0062902Y0060122D02*
X0062902Y0060122D01*
X0062458Y0060538D02*
X0153797Y0060538D01*
X0153797Y0061936D02*
X0140861Y0061936D01*
X0139033Y0061936D02*
X0062173Y0061936D01*
X0063497Y0063335D02*
X0137118Y0063335D01*
X0136647Y0064733D02*
X0064076Y0064733D01*
X0064297Y0066132D02*
X0136790Y0066132D01*
X0137681Y0067530D02*
X0064282Y0067530D01*
X0063702Y0068929D02*
X0140352Y0068929D01*
X0141751Y0070327D02*
X0062669Y0070327D01*
X0061963Y0071726D02*
X0143149Y0071726D01*
X0144548Y0073124D02*
X0063361Y0073124D01*
X0063989Y0074523D02*
X0145509Y0074523D01*
X0145571Y0075921D02*
X0064297Y0075921D01*
X0064297Y0077320D02*
X0145597Y0077320D01*
X0146104Y0078718D02*
X0063789Y0078718D01*
X0062879Y0080117D02*
X0147015Y0080117D01*
X0148963Y0081515D02*
X0061588Y0081515D01*
X0063151Y0082914D02*
X0194393Y0082914D01*
X0192995Y0084312D02*
X0063902Y0084312D01*
X0064297Y0085711D02*
X0191596Y0085711D01*
X0190198Y0087109D02*
X0064335Y0087109D01*
X0064397Y0088508D02*
X0188799Y0088508D01*
X0187401Y0089906D02*
X0065618Y0089906D01*
X0067017Y0091305D02*
X0186002Y0091305D01*
X0184604Y0092703D02*
X0068415Y0092703D01*
X0069814Y0094102D02*
X0183205Y0094102D01*
X0181807Y0095500D02*
X0071212Y0095500D01*
X0055687Y0129065D02*
X0025897Y0129065D01*
X0025897Y0130463D02*
X0054193Y0130463D01*
X0053471Y0131862D02*
X0025897Y0131862D01*
X0025897Y0133260D02*
X0053097Y0133260D01*
X0053097Y0134659D02*
X0025897Y0134659D01*
X0025897Y0136057D02*
X0053538Y0136057D01*
X0054354Y0137456D02*
X0025897Y0137456D01*
X0025897Y0138854D02*
X0056074Y0138854D01*
X0054404Y0140253D02*
X0025897Y0140253D01*
X0025897Y0141651D02*
X0053558Y0141651D01*
X0053097Y0143050D02*
X0025897Y0143050D01*
X0025897Y0144448D02*
X0053097Y0144448D01*
X0053450Y0145847D02*
X0025897Y0145847D01*
X0025897Y0147245D02*
X0054143Y0147245D01*
X0055566Y0148644D02*
X0025897Y0148644D01*
X0025897Y0150042D02*
X0054614Y0150042D01*
X0053645Y0151441D02*
X0025897Y0151441D01*
X0025897Y0152839D02*
X0053097Y0152839D01*
X0053097Y0154238D02*
X0025897Y0154238D01*
X0025897Y0155636D02*
X0053363Y0155636D01*
X0053943Y0157035D02*
X0025897Y0157035D01*
X0025897Y0158433D02*
X0055331Y0158433D01*
X0054825Y0159832D02*
X0025897Y0159832D01*
X0025897Y0161230D02*
X0053296Y0161230D01*
X0050089Y0162629D02*
X0025897Y0162629D01*
X0025897Y0164027D02*
X0048690Y0164027D01*
X0047292Y0165426D02*
X0025897Y0165426D01*
X0025897Y0166824D02*
X0046344Y0166824D01*
X0046297Y0168223D02*
X0025897Y0168223D01*
X0025897Y0169621D02*
X0046297Y0169621D01*
X0046297Y0171020D02*
X0025897Y0171020D01*
X0025897Y0172418D02*
X0046297Y0172418D01*
X0046297Y0173817D02*
X0025897Y0173817D01*
X0025897Y0175215D02*
X0046297Y0175215D01*
X0046297Y0176614D02*
X0025897Y0176614D01*
X0025897Y0178012D02*
X0046297Y0178012D01*
X0046297Y0179411D02*
X0025897Y0179411D01*
X0025897Y0180810D02*
X0046297Y0180810D01*
X0046297Y0182208D02*
X0025897Y0182208D01*
X0025897Y0183607D02*
X0046297Y0183607D01*
X0046297Y0185005D02*
X0025897Y0185005D01*
X0025897Y0186404D02*
X0046297Y0186404D01*
X0046297Y0187802D02*
X0025897Y0187802D01*
X0025897Y0189201D02*
X0046297Y0189201D01*
X0046297Y0190599D02*
X0025897Y0190599D01*
X0025897Y0191998D02*
X0046297Y0191998D01*
X0046297Y0193396D02*
X0025897Y0193396D01*
X0025897Y0194795D02*
X0046297Y0194795D01*
X0046297Y0196193D02*
X0025897Y0196193D01*
X0025897Y0197592D02*
X0046297Y0197592D01*
X0046297Y0198990D02*
X0025897Y0198990D01*
X0025897Y0200389D02*
X0046297Y0200389D01*
X0046297Y0201787D02*
X0025897Y0201787D01*
X0025897Y0203186D02*
X0046297Y0203186D01*
X0046297Y0204584D02*
X0025897Y0204584D01*
X0025897Y0205983D02*
X0046297Y0205983D01*
X0046297Y0207381D02*
X0025897Y0207381D01*
X0025897Y0208780D02*
X0046297Y0208780D01*
X0045637Y0210178D02*
X0025897Y0210178D01*
X0025897Y0211577D02*
X0044635Y0211577D01*
X0044197Y0212975D02*
X0025897Y0212975D01*
X0025897Y0214374D02*
X0044197Y0214374D01*
X0044226Y0215772D02*
X0025897Y0215772D01*
X0025897Y0217171D02*
X0045624Y0217171D01*
X0051769Y0217171D02*
X0139547Y0217171D01*
X0139547Y0218569D02*
X0025897Y0218569D01*
X0025897Y0219968D02*
X0056144Y0219968D01*
X0056833Y0219279D02*
X0054197Y0221915D01*
X0054197Y0225643D01*
X0056833Y0228279D01*
X0060561Y0228279D01*
X0063197Y0225643D01*
X0063197Y0221915D01*
X0060561Y0219279D01*
X0056833Y0219279D01*
X0054746Y0221366D02*
X0025897Y0221366D01*
X0025897Y0222765D02*
X0054197Y0222765D01*
X0054197Y0224163D02*
X0025897Y0224163D01*
X0025897Y0225562D02*
X0054197Y0225562D01*
X0055514Y0226960D02*
X0025897Y0226960D01*
X0025897Y0228359D02*
X0139547Y0228359D01*
X0139547Y0229757D02*
X0025897Y0229757D01*
X0025897Y0231156D02*
X0139547Y0231156D01*
X0139547Y0232554D02*
X0025897Y0232554D01*
X0025897Y0233953D02*
X0139547Y0233953D01*
X0139547Y0235351D02*
X0025897Y0235351D01*
X0025897Y0236750D02*
X0139547Y0236750D01*
X0139547Y0238148D02*
X0025897Y0238148D01*
X0025897Y0239547D02*
X0139547Y0239547D01*
X0139547Y0240946D02*
X0025897Y0240946D01*
X0025897Y0242344D02*
X0031967Y0242344D01*
X0035426Y0242344D02*
X0139547Y0242344D01*
X0140216Y0243743D02*
X0039319Y0243743D01*
X0041349Y0245141D02*
X0141614Y0245141D01*
X0140804Y0244331D02*
X0140804Y0244331D01*
X0143013Y0246540D02*
X0042748Y0246540D01*
X0043649Y0247938D02*
X0144411Y0247938D01*
X0146197Y0239504D02*
X0146437Y0238954D01*
X0146437Y0238954D01*
X0147697Y0239504D01*
X0147697Y0239504D01*
X0146197Y0239504D01*
X0146437Y0238954D02*
X0146437Y0238954D01*
X0139547Y0226960D02*
X0061880Y0226960D01*
X0063197Y0225562D02*
X0139547Y0225562D01*
X0139547Y0224163D02*
X0063197Y0224163D01*
X0063197Y0222765D02*
X0139547Y0222765D01*
X0139547Y0221366D02*
X0062648Y0221366D01*
X0061249Y0219968D02*
X0139547Y0219968D01*
X0139547Y0215772D02*
X0053168Y0215772D01*
X0053197Y0214374D02*
X0139547Y0214374D01*
X0139544Y0212975D02*
X0053197Y0212975D01*
X0052758Y0211577D02*
X0139547Y0211577D01*
X0140172Y0210178D02*
X0051756Y0210178D01*
X0051097Y0208780D02*
X0140726Y0208780D01*
X0140516Y0209184D02*
X0140516Y0209184D01*
X0140516Y0209184D01*
X0142694Y0207381D02*
X0061376Y0207381D01*
X0062774Y0205983D02*
X0149592Y0205983D01*
X0151008Y0204584D02*
X0062997Y0204584D01*
X0062997Y0203186D02*
X0149609Y0203186D01*
X0148211Y0201787D02*
X0062586Y0201787D01*
X0061187Y0200389D02*
X0146812Y0200389D01*
X0147275Y0207381D02*
X0144700Y0207381D01*
X0142683Y0180810D02*
X0182897Y0180810D01*
X0183498Y0179411D02*
X0143247Y0179411D01*
X0143011Y0180194D02*
X0143011Y0180194D01*
X0144208Y0178012D02*
X0186011Y0178012D01*
X0187894Y0176614D02*
X0163193Y0176614D01*
X0165280Y0175215D02*
X0206197Y0175215D01*
X0206197Y0173817D02*
X0166248Y0173817D01*
X0166797Y0172418D02*
X0206197Y0172418D01*
X0206197Y0171020D02*
X0166797Y0171020D01*
X0166530Y0169621D02*
X0206197Y0169621D01*
X0197146Y0168223D02*
X0165951Y0168223D01*
X0164562Y0166824D02*
X0195748Y0166824D01*
X0194349Y0165426D02*
X0158638Y0165426D01*
X0157239Y0164027D02*
X0168992Y0164027D01*
X0167027Y0162629D02*
X0139874Y0162629D01*
X0141273Y0161230D02*
X0166109Y0161230D01*
X0165597Y0159832D02*
X0142671Y0159832D01*
X0144070Y0158433D02*
X0165597Y0158433D01*
X0165899Y0157035D02*
X0145468Y0157035D01*
X0145572Y0153254D02*
X0194947Y0153254D01*
X0198073Y0156381D01*
X0200572Y0158879D01*
X0201197Y0158879D01*
X0205197Y0158879D01*
X0209947Y0158879D01*
X0214634Y0154192D01*
X0214947Y0154504D01*
X0215572Y0154504D01*
X0223674Y0162606D01*
X0224298Y0164143D01*
X0224947Y0163879D01*
X0225210Y0163231D01*
X0223674Y0162606D01*
X0223886Y0162819D01*
X0224388Y0164098D01*
X0224947Y0163879D01*
X0225166Y0163321D01*
X0223886Y0162819D01*
X0224947Y0163879D01*
X0214634Y0154192D02*
X0219299Y0149527D01*
X0220835Y0148903D01*
X0220572Y0148254D01*
X0219923Y0147991D01*
X0219299Y0149527D01*
X0219511Y0149315D01*
X0220791Y0148813D01*
X0220572Y0148254D01*
X0220013Y0148035D01*
X0219511Y0149315D01*
X0220572Y0148254D01*
X0226197Y0132004D02*
X0225552Y0131732D01*
X0226197Y0130204D01*
X0225552Y0131732D01*
X0226197Y0132004D01*
X0226842Y0131732D01*
X0226197Y0130204D01*
X0226842Y0131732D01*
X0226197Y0132004D01*
X0225647Y0131764D01*
X0226197Y0132004D01*
X0226747Y0131764D01*
X0226197Y0130504D01*
X0225647Y0131764D01*
X0226197Y0130504D01*
X0226747Y0131764D01*
X0226197Y0132004D01*
X0225647Y0131764D01*
X0225647Y0131764D01*
X0226197Y0130504D01*
X0226197Y0130204D01*
X0225552Y0131732D01*
X0225647Y0131764D02*
X0226197Y0130504D01*
X0226197Y0130504D01*
X0226197Y0130504D01*
X0226747Y0131764D01*
X0226197Y0130504D01*
X0226197Y0132004D01*
X0226747Y0131764D02*
X0226747Y0131764D01*
X0226842Y0131732D02*
X0226197Y0130204D01*
X0226197Y0119429D01*
X0226842Y0117901D01*
X0226197Y0117629D01*
X0225552Y0117901D01*
X0226197Y0119429D01*
X0226842Y0117901D01*
X0226197Y0119429D01*
X0225552Y0117901D01*
X0226197Y0119429D01*
X0226197Y0119129D01*
X0226747Y0117869D01*
X0226197Y0117629D01*
X0226842Y0117901D01*
X0226747Y0117869D02*
X0226197Y0117629D01*
X0225552Y0117901D01*
X0225647Y0117869D02*
X0226197Y0117629D01*
X0225647Y0117869D01*
X0226197Y0119129D01*
X0225647Y0117869D01*
X0226197Y0119129D01*
X0226197Y0117629D01*
X0225647Y0117869D01*
X0225647Y0117869D01*
X0225647Y0117869D01*
X0226197Y0119129D01*
X0226197Y0119129D01*
X0226747Y0117869D01*
X0226197Y0119129D01*
X0226747Y0117869D01*
X0226747Y0117869D01*
X0226197Y0119129D01*
X0226197Y0119129D01*
X0225647Y0117869D01*
X0226747Y0117869D02*
X0226197Y0119129D01*
X0225647Y0131764D02*
X0225647Y0131764D01*
X0187027Y0162629D02*
X0185367Y0162629D01*
X0183402Y0164027D02*
X0188992Y0164027D01*
X0178992Y0164027D02*
X0173402Y0164027D01*
X0175367Y0162629D02*
X0177027Y0162629D01*
X0157114Y0175215D02*
X0155280Y0175215D01*
X0153193Y0176614D02*
X0159201Y0176614D01*
X0149201Y0176614D02*
X0145606Y0176614D01*
X0147005Y0175215D02*
X0147035Y0175215D01*
X0136845Y0162893D02*
X0136197Y0162629D01*
X0135933Y0161981D01*
X0137470Y0161356D01*
X0136845Y0162893D01*
X0136755Y0162848D02*
X0136197Y0162629D01*
X0135978Y0162071D01*
X0137258Y0161569D01*
X0136755Y0162848D01*
X0136197Y0162629D02*
X0137258Y0161569D01*
X0137470Y0161356D01*
X0145572Y0153254D01*
X0127623Y0166824D02*
X0095059Y0166824D01*
X0099585Y0179411D02*
X0051097Y0179411D01*
X0051097Y0180810D02*
X0100983Y0180810D01*
X0102382Y0182208D02*
X0051097Y0182208D01*
X0051097Y0183607D02*
X0103780Y0183607D01*
X0105179Y0185005D02*
X0051097Y0185005D01*
X0051097Y0186404D02*
X0106577Y0186404D01*
X0107976Y0187802D02*
X0051097Y0187802D01*
X0051097Y0189201D02*
X0109374Y0189201D01*
X0111211Y0190599D02*
X0051097Y0190599D01*
X0051097Y0198990D02*
X0051641Y0198990D01*
X0058597Y0200389D02*
X0058797Y0200389D01*
X0058797Y0201787D02*
X0058597Y0201787D01*
X0058597Y0203186D02*
X0058797Y0203186D01*
X0053494Y0172418D02*
X0051097Y0172418D01*
X0051097Y0171020D02*
X0054099Y0171020D01*
X0055370Y0169621D02*
X0051097Y0169621D01*
X0051283Y0168223D02*
X0055121Y0168223D01*
X0053620Y0166824D02*
X0052681Y0166824D01*
X0060994Y0168989D02*
X0061527Y0169261D01*
X0062215Y0169760D01*
X0061869Y0168627D02*
X0060994Y0168989D01*
X0143836Y0110884D02*
X0166423Y0110884D01*
X0167822Y0109485D02*
X0145235Y0109485D01*
X0146633Y0108087D02*
X0147485Y0108087D01*
X0154909Y0108087D02*
X0157485Y0108087D01*
X0156299Y0106688D02*
X0156095Y0106688D01*
X0164909Y0108087D02*
X0169220Y0108087D01*
X0170619Y0106688D02*
X0166095Y0106688D01*
X0166674Y0105290D02*
X0172017Y0105290D01*
X0173416Y0103891D02*
X0166797Y0103891D01*
X0166684Y0102493D02*
X0174814Y0102493D01*
X0176213Y0101094D02*
X0166105Y0101094D01*
X0164933Y0099696D02*
X0177611Y0099696D01*
X0179010Y0098297D02*
X0162355Y0098297D01*
X0157611Y0096899D02*
X0180408Y0096899D01*
X0195792Y0081515D02*
X0163431Y0081515D01*
X0165379Y0080117D02*
X0197190Y0080117D01*
X0198589Y0078718D02*
X0166289Y0078718D01*
X0166797Y0077320D02*
X0199987Y0077320D01*
X0201386Y0075921D02*
X0166797Y0075921D01*
X0166489Y0074523D02*
X0202784Y0074523D01*
X0204183Y0073124D02*
X0165861Y0073124D01*
X0164463Y0071726D02*
X0205581Y0071726D01*
X0206197Y0070327D02*
X0158597Y0070327D01*
X0158597Y0068929D02*
X0206197Y0068929D01*
X0206197Y0067530D02*
X0158597Y0067530D01*
X0158597Y0066132D02*
X0206197Y0066132D01*
X0206197Y0064733D02*
X0158597Y0064733D01*
X0158597Y0063335D02*
X0206197Y0063335D01*
X0216822Y0058879D02*
X0216822Y0048179D01*
X0217467Y0046651D01*
X0216822Y0046379D01*
X0216177Y0046651D01*
X0216822Y0048179D01*
X0217467Y0046651D01*
X0216822Y0048179D01*
X0216177Y0046651D01*
X0216822Y0048179D01*
X0216822Y0047879D01*
X0217372Y0046619D01*
X0216822Y0046379D01*
X0217467Y0046651D01*
X0217372Y0046619D02*
X0216822Y0046379D01*
X0216177Y0046651D01*
X0216272Y0046619D02*
X0216822Y0046379D01*
X0216272Y0046619D01*
X0216822Y0047879D01*
X0216272Y0046619D01*
X0216822Y0047879D01*
X0216822Y0046379D01*
X0216272Y0046619D01*
X0216272Y0046619D01*
X0216272Y0046619D01*
X0216822Y0047879D01*
X0216822Y0047879D01*
X0217372Y0046619D01*
X0216822Y0047879D01*
X0217372Y0046619D01*
X0217372Y0046619D01*
X0216822Y0047879D01*
X0216822Y0047879D01*
X0216272Y0046619D01*
X0217372Y0046619D02*
X0216822Y0047879D01*
X0216822Y0058879D02*
X0217424Y0059481D01*
X0218048Y0061018D01*
X0218697Y0060754D01*
X0218960Y0060106D01*
X0217424Y0059481D01*
X0217636Y0059694D01*
X0218138Y0060973D01*
X0218697Y0060754D01*
X0218916Y0060196D01*
X0217636Y0059694D01*
X0218697Y0060754D01*
X0158963Y0081515D02*
X0153431Y0081515D01*
X0155379Y0080117D02*
X0157015Y0080117D01*
X0153797Y0070327D02*
X0148539Y0070327D01*
X0147140Y0068929D02*
X0153797Y0068929D01*
X0153797Y0067530D02*
X0145742Y0067530D01*
X0144343Y0066132D02*
X0153797Y0066132D01*
X0153797Y0064733D02*
X0143257Y0064733D01*
X0142775Y0063335D02*
X0153797Y0063335D01*
X0055010Y0052146D02*
X0053597Y0052146D01*
X0053597Y0053545D02*
X0053809Y0053545D01*
X0189425Y0182208D02*
X0206197Y0182208D01*
X0206197Y0183607D02*
X0188636Y0183607D01*
X0189261Y0182694D02*
X0189261Y0182694D01*
X0164651Y0240977D02*
X0164651Y0240977D01*
X0177377Y0243026D02*
X0177377Y0243026D01*
X0176941Y0249337D02*
X0044457Y0249337D01*
X0028075Y0243743D02*
X0025897Y0243743D01*
X0025897Y0245141D02*
X0026045Y0245141D01*
D19*
X0181197Y0236379D02*
X0182667Y0235430D01*
X0184121Y0237680D01*
X0181476Y0238107D01*
X0181197Y0236379D01*
X0202519Y0160761D02*
X0201197Y0158879D01*
X0198989Y0159523D01*
X0198073Y0156381D01*
X0201340Y0156584D01*
X0201197Y0158879D01*
X0202519Y0156997D01*
X0205197Y0158879D01*
X0202519Y0160761D01*
D20*
X0220572Y0148254D03*
X0211197Y0143879D03*
X0228697Y0137629D03*
X0226197Y0132004D03*
X0236197Y0128879D03*
X0226197Y0117629D03*
X0226197Y0111379D03*
X0211197Y0103879D03*
X0186197Y0113879D03*
X0156197Y0123879D03*
X0139947Y0132629D03*
X0139947Y0111379D03*
X0101822Y0124504D03*
X0086822Y0148879D03*
X0092447Y0168879D03*
X0116822Y0152629D03*
X0136197Y0162629D03*
X0139947Y0178879D03*
X0156197Y0191379D03*
X0186197Y0181379D03*
X0206822Y0195129D03*
X0211197Y0178879D03*
X0224947Y0163879D03*
X0233697Y0163879D03*
X0233697Y0148879D03*
X0256822Y0167004D03*
X0227447Y0200129D03*
X0211197Y0218879D03*
X0146197Y0239504D03*
X0053697Y0196379D03*
X0211197Y0073879D03*
X0229322Y0063879D03*
X0226197Y0056379D03*
X0218697Y0060754D03*
X0216822Y0046379D03*
X0226197Y0036379D03*
X0211197Y0028879D03*
X0190572Y0050129D03*
X0183697Y0058254D03*
X0156197Y0056379D03*
X0139947Y0065129D03*
X0145572Y0043879D03*
X0301197Y0073879D03*
X0311197Y0103879D03*
X0303697Y0143879D03*
X0311197Y0178879D03*
X0303697Y0218879D03*
X0311197Y0028879D03*
D21*
X0310747Y0029659D01*
X0309397Y0028879D01*
X0310747Y0029659D01*
X0311197Y0028879D01*
X0310747Y0028100D01*
X0309397Y0028879D01*
X0310747Y0028100D01*
X0311197Y0028879D01*
X0310770Y0029556D01*
X0311197Y0028879D01*
X0310770Y0028202D01*
X0309697Y0028879D01*
X0310770Y0029556D01*
X0309697Y0028879D01*
X0310770Y0028202D01*
X0311197Y0028879D01*
X0310770Y0028202D01*
X0309697Y0028879D01*
X0309697Y0028879D01*
X0310770Y0028203D01*
X0311197Y0028879D01*
X0310770Y0029556D01*
X0310770Y0029556D01*
X0309697Y0028879D01*
X0310770Y0028203D01*
X0309697Y0028879D01*
X0310770Y0029556D01*
X0310770Y0029556D01*
X0309697Y0028879D01*
X0309697Y0028879D01*
X0310770Y0028202D01*
X0310770Y0028203D01*
X0311197Y0028879D01*
X0309697Y0028879D01*
X0310770Y0029556D01*
X0310747Y0029659D02*
X0309397Y0028879D01*
X0309397Y0028879D01*
X0309397Y0028879D01*
X0309697Y0028879D01*
X0310770Y0028203D01*
X0310770Y0028202D01*
X0310770Y0028202D01*
X0310770Y0028203D01*
X0310747Y0028100D02*
X0310747Y0028100D01*
X0309697Y0028879D02*
X0309697Y0028879D01*
X0309697Y0028879D01*
X0309397Y0028879D02*
X0212997Y0028879D01*
X0211647Y0028100D01*
X0211197Y0028879D01*
X0211647Y0028100D01*
X0212997Y0028879D01*
X0211647Y0029659D01*
X0211197Y0028879D01*
X0211647Y0028100D01*
X0212997Y0028879D01*
X0212997Y0028879D01*
X0212997Y0028879D01*
X0211647Y0029659D01*
X0211197Y0028879D01*
X0211647Y0029659D01*
X0211647Y0029659D01*
X0212997Y0028879D01*
X0212697Y0028879D01*
X0211624Y0028203D01*
X0211197Y0028879D01*
X0211624Y0028202D01*
X0211197Y0028879D01*
X0211624Y0029556D01*
X0211624Y0029556D01*
X0212697Y0028879D01*
X0211624Y0029556D01*
X0211197Y0028879D01*
X0211623Y0028202D01*
X0211624Y0028202D01*
X0212697Y0028879D01*
X0211624Y0028203D01*
X0212697Y0028879D01*
X0211624Y0028202D01*
X0211624Y0028203D01*
X0211624Y0028202D01*
X0212697Y0028879D01*
X0212697Y0028879D01*
X0211624Y0028202D01*
X0211624Y0028203D02*
X0211197Y0028879D01*
X0211624Y0029556D01*
X0212697Y0028879D01*
X0211624Y0029556D01*
X0211624Y0029556D01*
X0212697Y0028879D01*
X0212697Y0028879D01*
X0212697Y0028879D01*
X0211624Y0029556D01*
X0211197Y0028879D02*
X0212697Y0028879D01*
X0212697Y0028879D01*
X0211624Y0028203D01*
X0211623Y0028202D01*
X0225417Y0036829D02*
X0226197Y0036379D01*
X0226976Y0036829D01*
X0226197Y0038179D01*
X0225417Y0036829D01*
X0226197Y0036379D01*
X0226976Y0036829D01*
X0226197Y0038179D01*
X0226976Y0036829D01*
X0226197Y0036379D01*
X0225417Y0036829D01*
X0225417Y0036829D01*
X0226197Y0038179D01*
X0226197Y0038179D01*
X0226197Y0037879D01*
X0226874Y0036806D01*
X0226874Y0036806D01*
X0226197Y0037879D01*
X0225520Y0036806D01*
X0226197Y0036379D01*
X0226874Y0036806D01*
X0226197Y0036379D01*
X0225520Y0036806D01*
X0226197Y0037879D01*
X0226197Y0037879D01*
X0226197Y0036379D01*
X0225520Y0036806D01*
X0226197Y0037879D01*
X0226197Y0037879D01*
X0226874Y0036806D01*
X0226197Y0037879D01*
X0225520Y0036806D01*
X0226197Y0036379D01*
X0226874Y0036806D01*
X0226197Y0037879D01*
X0226197Y0037879D01*
X0225520Y0036806D01*
X0225520Y0036806D01*
X0225520Y0036806D01*
X0226197Y0037879D01*
X0226197Y0037879D01*
X0225520Y0036806D01*
X0225520Y0036806D01*
X0226197Y0036379D01*
X0226874Y0036806D02*
X0226874Y0036806D01*
X0226197Y0037879D01*
X0225520Y0036806D01*
X0225520Y0036806D01*
X0225417Y0036829D02*
X0226197Y0038179D01*
X0226197Y0038179D01*
X0226197Y0054579D01*
X0226197Y0054579D01*
X0226197Y0054579D01*
X0225417Y0055929D01*
X0226197Y0056379D01*
X0226976Y0055929D01*
X0226197Y0054579D01*
X0226976Y0055929D01*
X0226976Y0055929D01*
X0226197Y0056379D01*
X0225417Y0055929D01*
X0226197Y0054579D01*
X0226197Y0054879D01*
X0226197Y0054879D01*
X0226874Y0055953D01*
X0226197Y0056379D01*
X0225520Y0055953D01*
X0226197Y0056379D01*
X0225520Y0055953D01*
X0225520Y0055953D01*
X0225520Y0055953D01*
X0226197Y0054879D01*
X0226197Y0054879D01*
X0225520Y0055953D01*
X0225520Y0055953D01*
X0226197Y0056379D01*
X0225520Y0055953D01*
X0226197Y0054879D01*
X0226874Y0055953D01*
X0226197Y0054879D01*
X0226874Y0055953D01*
X0226874Y0055953D01*
X0226197Y0056379D01*
X0226874Y0055953D01*
X0226874Y0055953D01*
X0226197Y0054879D01*
X0226197Y0054879D01*
X0226197Y0054879D01*
X0226197Y0056379D01*
X0226874Y0055953D02*
X0226197Y0054879D01*
X0225520Y0055953D01*
X0226197Y0054879D01*
X0225520Y0055953D01*
X0225520Y0055953D01*
X0226197Y0054879D01*
X0225520Y0055953D01*
X0225417Y0055929D02*
X0226197Y0054579D01*
X0228872Y0063100D02*
X0229322Y0063879D01*
X0228872Y0064659D01*
X0227522Y0063879D01*
X0228872Y0064659D01*
X0229322Y0063879D01*
X0228872Y0063100D01*
X0227522Y0063879D01*
X0228872Y0063100D01*
X0228872Y0063100D01*
X0228895Y0063202D02*
X0229322Y0063879D01*
X0228895Y0064556D01*
X0229322Y0063879D01*
X0228895Y0063202D01*
X0227822Y0063879D01*
X0228895Y0064556D01*
X0227822Y0063879D01*
X0228895Y0063202D01*
X0229322Y0063879D01*
X0228895Y0063203D01*
X0227822Y0063879D01*
X0228895Y0063202D01*
X0228895Y0063203D01*
X0227822Y0063879D01*
X0227822Y0063879D01*
X0228895Y0063203D01*
X0229322Y0063879D01*
X0228895Y0064556D01*
X0228895Y0064556D01*
X0227822Y0063879D01*
X0228895Y0064556D01*
X0228895Y0064556D01*
X0227822Y0063879D01*
X0227822Y0063879D01*
X0228895Y0063202D01*
X0228895Y0063202D01*
X0228895Y0063203D01*
X0227822Y0063879D01*
X0228895Y0064556D01*
X0228872Y0064659D02*
X0227522Y0063879D01*
X0227522Y0063879D01*
X0227522Y0063879D01*
X0227822Y0063879D01*
X0227822Y0063879D01*
X0227822Y0063879D01*
X0229322Y0063879D01*
X0228895Y0063203D02*
X0228895Y0063202D01*
X0227522Y0063879D02*
X0216822Y0063879D01*
X0166197Y0114504D01*
X0111822Y0114504D01*
X0103095Y0123231D01*
X0101589Y0123635D01*
X0101822Y0124504D01*
X0102691Y0124737D01*
X0103095Y0123231D01*
X0102883Y0123444D01*
X0101645Y0123724D01*
X0101822Y0124504D01*
X0102602Y0124681D01*
X0102883Y0123444D01*
X0101822Y0124504D01*
X0087514Y0148305D02*
X0086822Y0148879D01*
X0086973Y0149766D01*
X0088510Y0149504D01*
X0087514Y0148305D01*
X0087492Y0148442D02*
X0086822Y0148879D01*
X0086928Y0149672D01*
X0088185Y0149504D01*
X0087492Y0148442D01*
X0086822Y0148879D02*
X0087447Y0149504D01*
X0088185Y0149504D01*
X0088510Y0149504D01*
X0201197Y0149504D01*
X0213072Y0137629D01*
X0226897Y0137629D01*
X0228247Y0138409D01*
X0228697Y0137629D01*
X0228247Y0136850D01*
X0226897Y0137629D01*
X0228247Y0136850D01*
X0228697Y0137629D01*
X0228247Y0138409D01*
X0226897Y0137629D01*
X0226897Y0137629D01*
X0228247Y0138409D01*
X0228270Y0138306D02*
X0228270Y0138306D01*
X0228697Y0137629D01*
X0228270Y0138306D01*
X0227197Y0137629D01*
X0228270Y0136952D01*
X0228697Y0137629D01*
X0228270Y0136952D01*
X0227197Y0137629D01*
X0228270Y0136952D01*
X0228697Y0137629D01*
X0228270Y0136953D01*
X0227197Y0137629D01*
X0227197Y0137629D01*
X0228270Y0136953D01*
X0228270Y0136952D01*
X0228270Y0136952D01*
X0228270Y0136953D01*
X0228697Y0137629D01*
X0228270Y0138306D01*
X0227197Y0137629D01*
X0228270Y0136953D01*
X0227197Y0137629D01*
X0228270Y0138306D01*
X0227197Y0137629D01*
X0227197Y0137629D01*
X0228270Y0136952D01*
X0228270Y0136953D01*
X0228247Y0136850D02*
X0228247Y0136850D01*
X0228697Y0137629D02*
X0227197Y0137629D01*
X0228270Y0138306D01*
X0228270Y0138306D01*
X0227197Y0137629D01*
X0227197Y0137629D01*
X0227197Y0137629D01*
X0226897Y0137629D01*
X0226897Y0137629D01*
X0235417Y0128429D02*
X0236197Y0128879D01*
X0236976Y0128429D01*
X0236197Y0127079D01*
X0236197Y0127079D01*
X0236197Y0127079D01*
X0236197Y0121379D01*
X0227470Y0112652D01*
X0227066Y0111146D01*
X0226197Y0111379D01*
X0225964Y0112249D01*
X0227470Y0112652D01*
X0227258Y0112440D01*
X0226977Y0111202D01*
X0226197Y0111379D01*
X0226020Y0112159D01*
X0227258Y0112440D01*
X0226197Y0111379D01*
X0212997Y0103879D02*
X0212997Y0103879D01*
X0211647Y0103100D01*
X0211197Y0103879D01*
X0210747Y0104659D01*
X0209397Y0103879D01*
X0210747Y0104659D01*
X0211197Y0103879D01*
X0210747Y0103100D01*
X0209397Y0103879D01*
X0210747Y0103100D01*
X0211197Y0103879D01*
X0211647Y0103100D01*
X0212997Y0103879D01*
X0211647Y0104659D01*
X0211197Y0103879D01*
X0211647Y0103100D01*
X0212997Y0103879D01*
X0212997Y0103879D01*
X0309397Y0103879D01*
X0310747Y0104659D01*
X0311197Y0103879D01*
X0310747Y0103100D01*
X0309397Y0103879D01*
X0310747Y0103100D01*
X0311197Y0103879D01*
X0310747Y0104659D01*
X0309397Y0103879D01*
X0309397Y0103879D01*
X0310747Y0104659D01*
X0310770Y0104556D02*
X0310770Y0104556D01*
X0311197Y0103879D01*
X0310770Y0104556D01*
X0309697Y0103879D01*
X0310770Y0103202D01*
X0311197Y0103879D01*
X0310770Y0103202D01*
X0309697Y0103879D01*
X0310770Y0103202D01*
X0311197Y0103879D01*
X0310770Y0103203D01*
X0309697Y0103879D01*
X0309697Y0103879D01*
X0310770Y0103203D01*
X0310770Y0103202D01*
X0310770Y0103202D01*
X0310770Y0103203D01*
X0311197Y0103879D01*
X0310770Y0104556D01*
X0309697Y0103879D01*
X0310770Y0103203D01*
X0309697Y0103879D01*
X0310770Y0104556D01*
X0309697Y0103879D01*
X0309697Y0103879D01*
X0310770Y0103202D01*
X0310770Y0103203D01*
X0310747Y0103100D02*
X0310747Y0103100D01*
X0311197Y0103879D02*
X0309697Y0103879D01*
X0310770Y0104556D01*
X0310770Y0104556D01*
X0309697Y0103879D01*
X0309697Y0103879D01*
X0309697Y0103879D01*
X0309397Y0103879D01*
X0309397Y0103879D01*
X0300747Y0074659D02*
X0301197Y0073879D01*
X0300747Y0073100D01*
X0299397Y0073879D01*
X0300747Y0074659D01*
X0299397Y0073879D01*
X0300747Y0073100D01*
X0301197Y0073879D01*
X0300747Y0074659D01*
X0299397Y0073879D01*
X0299397Y0073879D01*
X0299397Y0073879D01*
X0299697Y0073879D01*
X0300770Y0074556D01*
X0301197Y0073879D01*
X0300770Y0074556D01*
X0299697Y0073879D01*
X0300770Y0073202D01*
X0301197Y0073879D01*
X0300770Y0073202D01*
X0299697Y0073879D01*
X0300770Y0073202D01*
X0301197Y0073879D01*
X0300770Y0073203D01*
X0299697Y0073879D01*
X0299697Y0073879D01*
X0300770Y0073203D01*
X0300770Y0073202D01*
X0300770Y0073202D01*
X0300770Y0073203D01*
X0301197Y0073879D01*
X0300770Y0074556D01*
X0300770Y0074556D01*
X0299697Y0073879D01*
X0300770Y0073203D01*
X0299697Y0073879D01*
X0300770Y0074556D01*
X0300770Y0074556D01*
X0299697Y0073879D01*
X0299697Y0073879D01*
X0300770Y0073202D01*
X0300770Y0073203D01*
X0300747Y0073100D02*
X0300747Y0073100D01*
X0301197Y0073879D02*
X0299697Y0073879D01*
X0300770Y0074556D01*
X0299697Y0073879D02*
X0299697Y0073879D01*
X0299697Y0073879D01*
X0299397Y0073879D02*
X0212997Y0073879D01*
X0211647Y0073100D01*
X0211197Y0073879D01*
X0211647Y0073100D01*
X0212997Y0073879D01*
X0211647Y0074659D01*
X0211197Y0073879D01*
X0211647Y0073100D01*
X0212997Y0073879D01*
X0212997Y0073879D01*
X0212997Y0073879D01*
X0211647Y0074659D01*
X0211197Y0073879D01*
X0211647Y0074659D01*
X0211647Y0074659D01*
X0212997Y0073879D01*
X0212697Y0073879D01*
X0211624Y0073203D01*
X0211197Y0073879D01*
X0211624Y0073202D01*
X0211197Y0073879D01*
X0211624Y0074556D01*
X0211624Y0074556D01*
X0212697Y0073879D01*
X0211624Y0074556D01*
X0211197Y0073879D01*
X0211623Y0073202D01*
X0211624Y0073202D01*
X0212697Y0073879D01*
X0211624Y0073203D01*
X0212697Y0073879D01*
X0211624Y0073202D01*
X0211624Y0073203D01*
X0211624Y0073202D01*
X0212697Y0073879D01*
X0212697Y0073879D01*
X0211624Y0073202D01*
X0211624Y0073203D02*
X0211197Y0073879D01*
X0211624Y0074556D01*
X0212697Y0073879D01*
X0211624Y0074556D01*
X0211624Y0074556D01*
X0212697Y0073879D01*
X0212697Y0073879D01*
X0212697Y0073879D01*
X0211624Y0074556D01*
X0211197Y0073879D02*
X0212697Y0073879D01*
X0212697Y0073879D01*
X0211624Y0073203D01*
X0211623Y0073202D01*
X0190088Y0051863D02*
X0184970Y0056981D01*
X0183464Y0057385D01*
X0183697Y0058254D01*
X0184566Y0058487D01*
X0184970Y0056981D01*
X0184758Y0057194D01*
X0183520Y0057474D01*
X0183697Y0058254D01*
X0184477Y0058431D01*
X0184758Y0057194D01*
X0183697Y0058254D01*
X0190088Y0051863D02*
X0189700Y0050353D01*
X0190572Y0050129D01*
X0191202Y0050772D01*
X0190088Y0051863D01*
X0190340Y0051611D01*
X0191174Y0050655D01*
X0190572Y0050129D01*
X0189837Y0050446D01*
X0190340Y0051611D01*
X0190572Y0051379D01*
X0190572Y0050129D01*
X0161197Y0036379D02*
X0161197Y0032379D01*
X0161197Y0032379D01*
X0161197Y0031379D01*
X0157814Y0027996D01*
X0063722Y0027996D01*
X0051197Y0040521D01*
X0051197Y0058879D01*
X0055868Y0063551D01*
X0058697Y0066379D01*
X0058697Y0056379D02*
X0062697Y0056379D01*
X0062697Y0056379D01*
X0154397Y0056379D01*
X0155747Y0057159D01*
X0156197Y0056379D01*
X0155747Y0055600D01*
X0154397Y0056379D01*
X0155747Y0055600D01*
X0156197Y0056379D01*
X0155747Y0057159D01*
X0154397Y0056379D01*
X0154397Y0056379D01*
X0155747Y0057159D01*
X0155770Y0057056D02*
X0155770Y0057056D01*
X0156197Y0056379D01*
X0156976Y0056829D01*
X0156197Y0058179D01*
X0155417Y0056829D01*
X0156197Y0056379D01*
X0156976Y0056829D01*
X0156197Y0058179D01*
X0156976Y0056829D01*
X0156197Y0056379D01*
X0155417Y0056829D01*
X0155417Y0056829D01*
X0156197Y0058179D01*
X0156197Y0058179D01*
X0156197Y0057879D01*
X0156874Y0056806D01*
X0156874Y0056806D01*
X0156197Y0057879D01*
X0155520Y0056806D01*
X0156197Y0056379D01*
X0155417Y0056829D01*
X0156197Y0058179D01*
X0156197Y0058179D01*
X0156197Y0071379D01*
X0158368Y0073551D01*
X0161197Y0076379D01*
X0151197Y0076379D02*
X0148368Y0073551D01*
X0141220Y0066402D01*
X0140816Y0064896D01*
X0139947Y0065129D01*
X0139714Y0065999D01*
X0141220Y0066402D01*
X0141008Y0066190D01*
X0140727Y0064952D01*
X0139947Y0065129D01*
X0139770Y0065909D01*
X0141008Y0066190D01*
X0139947Y0065129D01*
X0154397Y0056379D02*
X0154397Y0056379D01*
X0154697Y0056379D01*
X0155770Y0057056D01*
X0154697Y0056379D01*
X0155770Y0055702D01*
X0156197Y0056379D01*
X0155770Y0057056D01*
X0154697Y0056379D01*
X0155770Y0055702D01*
X0154697Y0056379D01*
X0154697Y0056379D01*
X0155770Y0055703D01*
X0156197Y0056379D01*
X0155770Y0055702D01*
X0156197Y0056379D01*
X0156874Y0056806D01*
X0156197Y0056379D01*
X0155520Y0056806D01*
X0156197Y0057879D01*
X0156197Y0057879D01*
X0156197Y0056379D01*
X0155520Y0056806D01*
X0156197Y0057879D01*
X0156197Y0057879D01*
X0156874Y0056806D01*
X0156197Y0057879D01*
X0155520Y0056806D01*
X0156197Y0056379D01*
X0155770Y0057056D01*
X0155770Y0057056D01*
X0154697Y0056379D01*
X0155770Y0055703D01*
X0154697Y0056379D01*
X0155770Y0057056D01*
X0154697Y0056379D01*
X0154697Y0056379D01*
X0155770Y0055702D01*
X0155770Y0055703D01*
X0156197Y0056379D01*
X0156874Y0056806D01*
X0156197Y0057879D01*
X0156197Y0057879D01*
X0155520Y0056806D01*
X0155520Y0056806D01*
X0155520Y0056806D01*
X0156197Y0057879D01*
X0156197Y0057879D01*
X0155520Y0056806D01*
X0155520Y0056806D01*
X0156197Y0056379D01*
X0154697Y0056379D01*
X0155770Y0055703D01*
X0155770Y0055702D01*
X0155770Y0055702D01*
X0155770Y0055703D01*
X0155747Y0055600D02*
X0155747Y0055600D01*
X0155520Y0056806D02*
X0155520Y0056806D01*
X0156197Y0057879D01*
X0156874Y0056806D01*
X0156874Y0056806D01*
X0154697Y0056379D02*
X0154697Y0056379D01*
X0154697Y0056379D01*
X0146351Y0043429D02*
X0145572Y0043879D01*
X0144792Y0043429D01*
X0145572Y0042079D01*
X0145572Y0042079D01*
X0145572Y0042079D01*
X0145572Y0042004D01*
X0148368Y0039208D01*
X0151197Y0036379D01*
X0145572Y0042079D02*
X0146351Y0043429D01*
X0146351Y0043429D01*
X0145572Y0042079D01*
X0144792Y0043429D01*
X0145572Y0043879D01*
X0146351Y0043429D01*
X0146249Y0043453D02*
X0146249Y0043453D01*
X0145572Y0043879D01*
X0144895Y0043453D01*
X0145572Y0043879D01*
X0144895Y0043453D01*
X0144895Y0043453D01*
X0144895Y0043453D01*
X0145572Y0042379D01*
X0145572Y0042379D01*
X0146249Y0043453D01*
X0145572Y0042379D01*
X0145572Y0042379D01*
X0145572Y0042079D01*
X0144792Y0043429D01*
X0144895Y0043453D02*
X0145572Y0043879D01*
X0146249Y0043453D01*
X0145572Y0043879D01*
X0144895Y0043453D01*
X0144895Y0043453D01*
X0145572Y0042379D01*
X0144895Y0043453D01*
X0145572Y0042379D01*
X0146249Y0043453D01*
X0146249Y0043453D01*
X0145572Y0042379D01*
X0146249Y0043453D01*
X0145572Y0042379D01*
X0145572Y0042379D01*
X0145572Y0042379D01*
X0145572Y0043879D01*
X0144895Y0043453D02*
X0145572Y0042379D01*
X0144895Y0043453D01*
X0144895Y0043453D01*
X0145572Y0042379D01*
X0144895Y0043453D01*
X0155572Y0098254D02*
X0070572Y0098254D01*
X0061525Y0089208D01*
X0058697Y0086379D01*
X0053072Y0082004D02*
X0055868Y0079208D01*
X0058697Y0076379D01*
X0053072Y0082004D02*
X0053072Y0120642D01*
X0060060Y0127629D01*
X0156197Y0127629D01*
X0156197Y0125679D01*
X0156976Y0124329D01*
X0156197Y0123879D01*
X0155417Y0124329D01*
X0156197Y0125679D01*
X0156976Y0124329D01*
X0156197Y0123879D01*
X0155417Y0124329D01*
X0155417Y0124329D01*
X0156197Y0125679D01*
X0156197Y0125679D01*
X0156197Y0125379D01*
X0156874Y0124306D01*
X0156874Y0124306D01*
X0156197Y0125379D01*
X0155520Y0124306D01*
X0156197Y0123879D01*
X0156976Y0124329D01*
X0156197Y0125679D01*
X0155417Y0124329D01*
X0156197Y0123879D01*
X0156874Y0124306D01*
X0156197Y0123879D01*
X0155520Y0124306D01*
X0156197Y0125379D01*
X0156197Y0125379D01*
X0156197Y0123879D01*
X0155520Y0124306D01*
X0156197Y0125379D01*
X0156197Y0125379D01*
X0156874Y0124306D01*
X0156197Y0125379D01*
X0155520Y0124306D01*
X0156197Y0123879D01*
X0156874Y0124306D01*
X0156197Y0125379D01*
X0156197Y0125379D01*
X0155520Y0124306D01*
X0155520Y0124306D01*
X0155520Y0124306D01*
X0156197Y0125379D01*
X0156197Y0125379D01*
X0155520Y0124306D01*
X0155520Y0124306D01*
X0156197Y0123879D01*
X0156874Y0124306D02*
X0156874Y0124306D01*
X0156197Y0125379D01*
X0155520Y0124306D01*
X0155520Y0124306D01*
X0156197Y0125679D02*
X0156197Y0125679D01*
X0156197Y0127629D02*
X0156197Y0138879D01*
X0158368Y0141051D01*
X0161197Y0143879D01*
X0151197Y0143879D02*
X0148368Y0141051D01*
X0141220Y0133902D01*
X0140816Y0132396D01*
X0139947Y0132629D01*
X0139714Y0133499D01*
X0141220Y0133902D01*
X0141008Y0133690D01*
X0140727Y0132452D01*
X0139947Y0132629D01*
X0139770Y0133409D01*
X0141008Y0133690D01*
X0139947Y0132629D01*
X0140816Y0111612D02*
X0139947Y0111379D01*
X0139714Y0110510D01*
X0141220Y0110106D01*
X0140816Y0111612D01*
X0140727Y0111556D02*
X0139947Y0111379D01*
X0139770Y0110599D01*
X0141008Y0110319D01*
X0140727Y0111556D01*
X0139947Y0111379D02*
X0141008Y0110319D01*
X0141220Y0110106D01*
X0147204Y0104122D01*
X0147447Y0103879D01*
X0151197Y0103879D01*
X0155572Y0098254D02*
X0158368Y0101051D01*
X0161197Y0103879D01*
X0185964Y0113010D02*
X0186197Y0113879D01*
X0187066Y0114112D01*
X0187470Y0112606D01*
X0185964Y0113010D01*
X0186020Y0113099D02*
X0186197Y0113879D01*
X0186977Y0114056D01*
X0187258Y0112819D01*
X0186020Y0113099D01*
X0186197Y0113879D02*
X0187258Y0112819D01*
X0187470Y0112606D01*
X0196197Y0103879D01*
X0209397Y0103879D01*
X0209397Y0103879D01*
X0210747Y0104659D01*
X0210770Y0104556D02*
X0210770Y0104556D01*
X0211197Y0103879D01*
X0211647Y0104659D01*
X0211647Y0104659D01*
X0212997Y0103879D01*
X0211647Y0104659D01*
X0211197Y0103879D01*
X0210770Y0104556D01*
X0209697Y0103879D01*
X0210770Y0103202D01*
X0211197Y0103879D01*
X0210770Y0103202D01*
X0209697Y0103879D01*
X0210770Y0103202D01*
X0211197Y0103879D01*
X0210770Y0103203D01*
X0209697Y0103879D01*
X0209697Y0103879D01*
X0210770Y0103203D01*
X0210770Y0103202D01*
X0210770Y0103202D01*
X0210770Y0103203D01*
X0211197Y0103879D01*
X0211624Y0103202D01*
X0211197Y0103879D01*
X0211624Y0104556D01*
X0211624Y0104556D01*
X0212697Y0103879D01*
X0211624Y0103203D01*
X0211197Y0103879D01*
X0211624Y0104556D01*
X0212697Y0103879D01*
X0211624Y0104556D01*
X0211624Y0104556D01*
X0212697Y0103879D01*
X0211624Y0103203D01*
X0212697Y0103879D01*
X0211624Y0103202D01*
X0212697Y0103879D01*
X0212697Y0103879D01*
X0211624Y0103202D01*
X0211624Y0103203D01*
X0211624Y0103202D01*
X0212697Y0103879D01*
X0211624Y0104556D01*
X0212697Y0103879D01*
X0212697Y0103879D01*
X0212697Y0103879D01*
X0212997Y0103879D01*
X0212697Y0103879D02*
X0212697Y0103879D01*
X0211624Y0103203D01*
X0211197Y0103879D01*
X0211623Y0103202D01*
X0211624Y0103202D01*
X0211624Y0103203D02*
X0211623Y0103202D01*
X0211197Y0103879D02*
X0210770Y0104556D01*
X0209697Y0103879D01*
X0210770Y0103203D01*
X0209697Y0103879D01*
X0210770Y0104556D01*
X0209697Y0103879D01*
X0209697Y0103879D01*
X0210770Y0103202D01*
X0210770Y0103203D01*
X0210747Y0103100D02*
X0210747Y0103100D01*
X0211197Y0103879D02*
X0211624Y0104556D01*
X0211197Y0103879D02*
X0209697Y0103879D01*
X0210770Y0104556D01*
X0210770Y0104556D01*
X0209697Y0103879D01*
X0209697Y0103879D01*
X0209697Y0103879D01*
X0209397Y0103879D01*
X0209397Y0103879D01*
X0211197Y0103879D02*
X0212697Y0103879D01*
X0236197Y0127079D02*
X0235417Y0128429D01*
X0236197Y0128879D01*
X0236976Y0128429D01*
X0236976Y0128429D01*
X0236197Y0127079D01*
X0235417Y0128429D01*
X0236197Y0127079D01*
X0236197Y0127379D01*
X0236197Y0127379D01*
X0236874Y0128453D01*
X0236197Y0128879D01*
X0235520Y0128453D01*
X0236197Y0128879D01*
X0235520Y0128453D01*
X0235520Y0128453D01*
X0235520Y0128453D01*
X0236197Y0127379D01*
X0236197Y0127379D01*
X0235520Y0128453D01*
X0235520Y0128453D01*
X0236197Y0128879D01*
X0235520Y0128453D01*
X0236197Y0127379D01*
X0236874Y0128453D01*
X0236197Y0127379D01*
X0236874Y0128453D01*
X0236874Y0128453D01*
X0236197Y0128879D01*
X0236874Y0128453D01*
X0236874Y0128453D01*
X0236197Y0127379D01*
X0236197Y0127379D01*
X0236197Y0127379D01*
X0236197Y0128879D01*
X0236874Y0128453D02*
X0236197Y0127379D01*
X0235520Y0128453D01*
X0236197Y0127379D01*
X0235520Y0128453D01*
X0235520Y0128453D01*
X0236197Y0127379D01*
X0235520Y0128453D01*
X0212997Y0143879D02*
X0211647Y0143100D01*
X0211197Y0143879D01*
X0211647Y0143100D01*
X0212997Y0143879D01*
X0211647Y0144659D01*
X0211197Y0143879D01*
X0211647Y0143100D01*
X0212997Y0143879D01*
X0212997Y0143879D01*
X0212997Y0143879D01*
X0301897Y0143879D01*
X0303247Y0144659D01*
X0303697Y0143879D01*
X0303247Y0143100D01*
X0301897Y0143879D01*
X0303247Y0143100D01*
X0303697Y0143879D01*
X0303247Y0144659D01*
X0301897Y0143879D01*
X0301897Y0143879D01*
X0303247Y0144659D01*
X0303270Y0144556D02*
X0303270Y0144556D01*
X0303697Y0143879D01*
X0303270Y0144556D01*
X0302197Y0143879D01*
X0303270Y0143202D01*
X0303697Y0143879D01*
X0303270Y0143202D01*
X0302197Y0143879D01*
X0303270Y0143202D01*
X0303697Y0143879D01*
X0303270Y0143203D01*
X0302197Y0143879D01*
X0302197Y0143879D01*
X0303270Y0143203D01*
X0303270Y0143202D01*
X0303270Y0143202D01*
X0303270Y0143203D01*
X0303697Y0143879D01*
X0303270Y0144556D01*
X0302197Y0143879D01*
X0303270Y0143203D01*
X0302197Y0143879D01*
X0303270Y0144556D01*
X0302197Y0143879D01*
X0302197Y0143879D01*
X0303270Y0143202D01*
X0303270Y0143203D01*
X0303247Y0143100D02*
X0303247Y0143100D01*
X0303697Y0143879D02*
X0302197Y0143879D01*
X0303270Y0144556D01*
X0303270Y0144556D01*
X0302197Y0143879D01*
X0302197Y0143879D01*
X0302197Y0143879D01*
X0301897Y0143879D01*
X0301897Y0143879D01*
X0310747Y0178100D02*
X0311197Y0178879D01*
X0310747Y0179659D01*
X0309397Y0178879D01*
X0310747Y0179659D01*
X0311197Y0178879D01*
X0310747Y0178100D01*
X0309397Y0178879D01*
X0310747Y0178100D01*
X0310747Y0178100D01*
X0310770Y0178202D02*
X0311197Y0178879D01*
X0310770Y0179556D01*
X0311197Y0178879D01*
X0310770Y0178202D01*
X0309697Y0178879D01*
X0310770Y0179556D01*
X0309697Y0178879D01*
X0310770Y0178202D01*
X0311197Y0178879D01*
X0310770Y0178203D01*
X0309697Y0178879D01*
X0310770Y0178202D01*
X0310770Y0178203D01*
X0309697Y0178879D01*
X0309697Y0178879D01*
X0310770Y0178203D01*
X0311197Y0178879D01*
X0310770Y0179556D01*
X0310770Y0179556D01*
X0309697Y0178879D01*
X0310770Y0179556D01*
X0310770Y0179556D01*
X0309697Y0178879D01*
X0309697Y0178879D01*
X0310770Y0178202D01*
X0310770Y0178202D01*
X0310770Y0178203D01*
X0309697Y0178879D01*
X0310770Y0179556D01*
X0310747Y0179659D02*
X0309397Y0178879D01*
X0309397Y0178879D01*
X0309397Y0178879D01*
X0309697Y0178879D01*
X0309697Y0178879D01*
X0311197Y0178879D01*
X0310770Y0178203D02*
X0310770Y0178202D01*
X0309697Y0178879D02*
X0309697Y0178879D01*
X0309397Y0178879D02*
X0212997Y0178879D01*
X0211647Y0178100D01*
X0211197Y0178879D01*
X0210747Y0179659D01*
X0209397Y0178879D01*
X0210747Y0179659D01*
X0211197Y0178879D01*
X0210747Y0178100D01*
X0209397Y0178879D01*
X0210747Y0178100D01*
X0211197Y0178879D01*
X0211647Y0178100D01*
X0212997Y0178879D01*
X0211647Y0179659D01*
X0211197Y0178879D01*
X0211647Y0178100D01*
X0212997Y0178879D01*
X0212997Y0178879D01*
X0212997Y0178879D01*
X0211647Y0179659D01*
X0211197Y0178879D01*
X0211647Y0179659D01*
X0211647Y0179659D01*
X0212997Y0178879D01*
X0212697Y0178879D01*
X0211624Y0178203D01*
X0211197Y0178879D01*
X0210770Y0179556D01*
X0211197Y0178879D01*
X0210770Y0178202D01*
X0209697Y0178879D01*
X0210770Y0179556D01*
X0209697Y0178879D01*
X0210770Y0178202D01*
X0211197Y0178879D01*
X0210770Y0178202D01*
X0209697Y0178879D01*
X0209697Y0178879D01*
X0210770Y0178203D01*
X0211197Y0178879D01*
X0211624Y0178202D01*
X0211197Y0178879D01*
X0211624Y0179556D01*
X0211624Y0179556D01*
X0212697Y0178879D01*
X0211624Y0179556D01*
X0211197Y0178879D01*
X0211623Y0178202D01*
X0211624Y0178202D01*
X0212697Y0178879D01*
X0211624Y0178203D01*
X0212697Y0178879D01*
X0211624Y0178202D01*
X0211624Y0178203D01*
X0211624Y0178202D01*
X0212697Y0178879D01*
X0212697Y0178879D01*
X0211624Y0178202D01*
X0211624Y0178203D02*
X0211197Y0178879D01*
X0210770Y0179556D01*
X0210770Y0179556D01*
X0209697Y0178879D01*
X0210770Y0178203D01*
X0209697Y0178879D01*
X0210770Y0179556D01*
X0210770Y0179556D01*
X0209697Y0178879D01*
X0209697Y0178879D01*
X0210770Y0178202D01*
X0210770Y0178203D01*
X0211197Y0178879D01*
X0211624Y0179556D01*
X0212697Y0178879D01*
X0211624Y0179556D01*
X0211624Y0179556D01*
X0212697Y0178879D01*
X0212697Y0178879D01*
X0212697Y0178879D01*
X0211624Y0179556D01*
X0211197Y0178879D02*
X0209697Y0178879D01*
X0210770Y0179556D01*
X0210747Y0179659D02*
X0209397Y0178879D01*
X0209397Y0178879D01*
X0209397Y0178879D01*
X0209697Y0178879D01*
X0210770Y0178203D01*
X0210770Y0178202D01*
X0210770Y0178202D01*
X0210770Y0178203D01*
X0210747Y0178100D02*
X0210747Y0178100D01*
X0211623Y0178202D02*
X0211624Y0178203D01*
X0212697Y0178879D01*
X0212697Y0178879D01*
X0211197Y0178879D01*
X0209697Y0178879D02*
X0209697Y0178879D01*
X0209697Y0178879D01*
X0209397Y0178879D02*
X0188697Y0178879D01*
X0187470Y0180106D01*
X0185964Y0180510D01*
X0186197Y0181379D01*
X0187066Y0181612D01*
X0187470Y0180106D01*
X0187258Y0180319D01*
X0186020Y0180599D01*
X0186197Y0181379D01*
X0186977Y0181556D01*
X0187258Y0180319D01*
X0186197Y0181379D01*
X0199322Y0167004D02*
X0194025Y0161708D01*
X0191197Y0158879D01*
X0199322Y0167004D02*
X0255022Y0167004D01*
X0256372Y0167784D01*
X0256822Y0167004D01*
X0256372Y0166225D01*
X0255022Y0167004D01*
X0256372Y0166225D01*
X0256822Y0167004D01*
X0256372Y0167784D01*
X0255022Y0167004D01*
X0255022Y0167004D01*
X0256372Y0167784D01*
X0256395Y0167681D02*
X0256395Y0167681D01*
X0256822Y0167004D01*
X0256395Y0167681D01*
X0255322Y0167004D01*
X0256395Y0166327D01*
X0256822Y0167004D01*
X0256395Y0166327D01*
X0255322Y0167004D01*
X0256395Y0166327D01*
X0256822Y0167004D01*
X0256395Y0166328D01*
X0255322Y0167004D01*
X0255322Y0167004D01*
X0256395Y0166328D01*
X0256395Y0166327D01*
X0256395Y0166327D01*
X0256395Y0166328D01*
X0256822Y0167004D01*
X0256395Y0167681D01*
X0255322Y0167004D01*
X0256395Y0166328D01*
X0255322Y0167004D01*
X0256395Y0167681D01*
X0255322Y0167004D01*
X0255322Y0167004D01*
X0256395Y0166327D01*
X0256395Y0166328D01*
X0256372Y0166225D02*
X0256372Y0166225D01*
X0256822Y0167004D02*
X0255322Y0167004D01*
X0256395Y0167681D01*
X0256395Y0167681D01*
X0255322Y0167004D01*
X0255322Y0167004D01*
X0255322Y0167004D01*
X0255022Y0167004D01*
X0255022Y0167004D01*
X0234476Y0163429D02*
X0233697Y0163879D01*
X0232917Y0163429D01*
X0233697Y0162079D01*
X0233697Y0162079D01*
X0233697Y0162079D01*
X0233697Y0150679D01*
X0234476Y0149329D01*
X0233697Y0148879D01*
X0232917Y0149329D01*
X0233697Y0150679D01*
X0234476Y0149329D01*
X0233697Y0148879D01*
X0232917Y0149329D01*
X0232917Y0149329D01*
X0233697Y0150679D01*
X0233697Y0150679D01*
X0233697Y0150379D01*
X0234374Y0149306D01*
X0234374Y0149306D01*
X0233697Y0150379D01*
X0233020Y0149306D01*
X0233697Y0148879D01*
X0234476Y0149329D01*
X0233697Y0150679D01*
X0232917Y0149329D01*
X0233697Y0148879D01*
X0234374Y0149306D01*
X0233697Y0148879D01*
X0233020Y0149306D01*
X0233697Y0150379D01*
X0233697Y0150379D01*
X0233697Y0150379D01*
X0233697Y0148879D01*
X0233020Y0149306D01*
X0233697Y0150379D01*
X0234374Y0149306D01*
X0233697Y0150379D01*
X0233020Y0149306D01*
X0233697Y0148879D01*
X0234374Y0149306D01*
X0233697Y0150379D01*
X0233697Y0150379D01*
X0233020Y0149306D01*
X0233020Y0149306D01*
X0233020Y0149306D01*
X0233697Y0150379D01*
X0233697Y0150379D01*
X0233020Y0149306D01*
X0233020Y0149306D01*
X0233697Y0148879D01*
X0234374Y0149306D02*
X0234374Y0149306D01*
X0233697Y0150379D01*
X0233020Y0149306D01*
X0233020Y0149306D01*
X0233697Y0150679D02*
X0233697Y0150679D01*
X0233697Y0162079D02*
X0234476Y0163429D01*
X0234476Y0163429D01*
X0233697Y0162079D01*
X0232917Y0163429D01*
X0233697Y0163879D01*
X0234476Y0163429D01*
X0234374Y0163453D02*
X0234374Y0163453D01*
X0233697Y0163879D01*
X0233020Y0163453D01*
X0233697Y0163879D01*
X0233020Y0163453D01*
X0233020Y0163453D01*
X0233020Y0163453D01*
X0233697Y0162379D01*
X0233697Y0162379D01*
X0234374Y0163453D01*
X0233697Y0162379D01*
X0233697Y0162379D01*
X0233697Y0162079D01*
X0232917Y0163429D01*
X0233020Y0163453D02*
X0233697Y0163879D01*
X0234374Y0163453D01*
X0233697Y0163879D01*
X0233020Y0163453D01*
X0233020Y0163453D01*
X0233697Y0162379D01*
X0233020Y0163453D01*
X0233697Y0162379D01*
X0234374Y0163453D01*
X0234374Y0163453D01*
X0233697Y0162379D01*
X0234374Y0163453D01*
X0233697Y0162379D01*
X0233697Y0162379D01*
X0233697Y0162379D01*
X0233697Y0163879D01*
X0233020Y0163453D02*
X0233697Y0162379D01*
X0233020Y0163453D01*
X0233020Y0163453D01*
X0233697Y0162379D01*
X0233020Y0163453D01*
X0212997Y0143879D02*
X0211647Y0144659D01*
X0211197Y0143879D01*
X0211647Y0144659D01*
X0211647Y0144659D01*
X0212997Y0143879D01*
X0212697Y0143879D01*
X0211624Y0143203D01*
X0211197Y0143879D01*
X0211624Y0143202D01*
X0211197Y0143879D01*
X0211624Y0144556D01*
X0211624Y0144556D01*
X0212697Y0143879D01*
X0211624Y0144556D01*
X0211197Y0143879D01*
X0211623Y0143202D01*
X0211624Y0143202D01*
X0212697Y0143879D01*
X0211624Y0143203D01*
X0212697Y0143879D01*
X0211624Y0143202D01*
X0211624Y0143203D01*
X0211624Y0143202D01*
X0212697Y0143879D01*
X0212697Y0143879D01*
X0211624Y0143202D01*
X0211624Y0143203D02*
X0211197Y0143879D01*
X0211624Y0144556D01*
X0212697Y0143879D01*
X0211624Y0144556D01*
X0211624Y0144556D01*
X0212697Y0143879D01*
X0212697Y0143879D01*
X0212697Y0143879D01*
X0211624Y0144556D01*
X0211197Y0143879D02*
X0212697Y0143879D01*
X0212697Y0143879D01*
X0211624Y0143203D01*
X0211623Y0143202D01*
X0161197Y0171379D02*
X0158368Y0168551D01*
X0155572Y0165754D01*
X0129947Y0165754D01*
X0118095Y0153902D01*
X0117691Y0152396D01*
X0116822Y0152629D01*
X0116589Y0153499D01*
X0118095Y0153902D01*
X0117883Y0153690D01*
X0117602Y0152452D01*
X0116822Y0152629D01*
X0116645Y0153409D01*
X0117883Y0153690D01*
X0116822Y0152629D01*
X0093316Y0168646D02*
X0093720Y0170152D01*
X0092214Y0169749D01*
X0092447Y0168879D01*
X0093316Y0168646D01*
X0093227Y0168702D02*
X0092447Y0168879D01*
X0092270Y0169659D01*
X0093508Y0169940D01*
X0093227Y0168702D01*
X0092447Y0168879D02*
X0093508Y0169940D01*
X0093720Y0170152D01*
X0111822Y0188254D01*
X0215572Y0188254D01*
X0226174Y0198856D01*
X0226578Y0200362D01*
X0227447Y0200129D01*
X0227680Y0199260D01*
X0226174Y0198856D01*
X0226386Y0199069D01*
X0226667Y0200306D01*
X0227447Y0200129D01*
X0227624Y0199349D01*
X0226386Y0199069D01*
X0227447Y0200129D01*
X0212997Y0218879D02*
X0211647Y0218100D01*
X0211197Y0218879D01*
X0211647Y0218100D01*
X0212997Y0218879D01*
X0211647Y0219659D01*
X0211197Y0218879D01*
X0211647Y0218100D01*
X0212997Y0218879D01*
X0212997Y0218879D01*
X0212997Y0218879D01*
X0301897Y0218879D01*
X0303247Y0219659D01*
X0303697Y0218879D01*
X0303247Y0218100D01*
X0301897Y0218879D01*
X0303247Y0218100D01*
X0303697Y0218879D01*
X0303247Y0219659D01*
X0301897Y0218879D01*
X0301897Y0218879D01*
X0303247Y0219659D01*
X0303270Y0219556D02*
X0303270Y0219556D01*
X0303697Y0218879D01*
X0303270Y0219556D01*
X0302197Y0218879D01*
X0303270Y0218202D01*
X0303697Y0218879D01*
X0303270Y0218202D01*
X0302197Y0218879D01*
X0303270Y0218202D01*
X0303697Y0218879D01*
X0303270Y0218203D01*
X0302197Y0218879D01*
X0302197Y0218879D01*
X0303270Y0218203D01*
X0303270Y0218202D01*
X0303270Y0218202D01*
X0303270Y0218203D01*
X0303697Y0218879D01*
X0303270Y0219556D01*
X0302197Y0218879D01*
X0303270Y0218203D01*
X0302197Y0218879D01*
X0303270Y0219556D01*
X0302197Y0218879D01*
X0302197Y0218879D01*
X0303270Y0218202D01*
X0303270Y0218203D01*
X0303247Y0218100D02*
X0303247Y0218100D01*
X0303697Y0218879D02*
X0302197Y0218879D01*
X0303270Y0219556D01*
X0303270Y0219556D01*
X0302197Y0218879D01*
X0302197Y0218879D01*
X0302197Y0218879D01*
X0301897Y0218879D01*
X0301897Y0218879D01*
X0212997Y0218879D02*
X0211647Y0219659D01*
X0211197Y0218879D01*
X0211647Y0219659D01*
X0211647Y0219659D01*
X0212997Y0218879D01*
X0212697Y0218879D01*
X0211624Y0218203D01*
X0211197Y0218879D01*
X0211624Y0218202D01*
X0211197Y0218879D01*
X0211624Y0219556D01*
X0211624Y0219556D01*
X0212697Y0218879D01*
X0211624Y0219556D01*
X0211197Y0218879D01*
X0211623Y0218202D01*
X0211624Y0218202D01*
X0212697Y0218879D01*
X0211624Y0218203D01*
X0212697Y0218879D01*
X0211624Y0218202D01*
X0211624Y0218203D01*
X0211624Y0218202D01*
X0212697Y0218879D01*
X0212697Y0218879D01*
X0211624Y0218202D01*
X0211624Y0218203D02*
X0211197Y0218879D01*
X0211624Y0219556D01*
X0212697Y0218879D01*
X0211624Y0219556D01*
X0211624Y0219556D01*
X0212697Y0218879D01*
X0212697Y0218879D01*
X0212697Y0218879D01*
X0211624Y0219556D01*
X0211197Y0218879D02*
X0212697Y0218879D01*
X0212697Y0218879D01*
X0211624Y0218203D01*
X0211623Y0218202D01*
X0168072Y0213360D02*
X0168072Y0203254D01*
X0157470Y0192652D01*
X0157066Y0191146D01*
X0156197Y0191379D01*
X0155964Y0192249D01*
X0157470Y0192652D01*
X0157258Y0192440D01*
X0156977Y0191202D01*
X0156197Y0191379D01*
X0156020Y0192159D01*
X0157258Y0192440D01*
X0156197Y0191379D01*
X0146197Y0196379D02*
X0158368Y0208551D01*
X0161197Y0211379D01*
X0164428Y0217004D02*
X0168072Y0213360D01*
X0164428Y0217004D02*
X0156822Y0217004D01*
X0154025Y0214208D01*
X0151197Y0211379D01*
X0146197Y0196379D02*
X0055497Y0196379D01*
X0054147Y0195600D01*
X0053697Y0196379D01*
X0054147Y0195600D01*
X0055497Y0196379D01*
X0054147Y0197159D01*
X0053697Y0196379D01*
X0054147Y0195600D01*
X0055497Y0196379D01*
X0055497Y0196379D01*
X0055497Y0196379D01*
X0054147Y0197159D01*
X0053697Y0196379D01*
X0054147Y0197159D01*
X0054147Y0197159D01*
X0055497Y0196379D01*
X0055197Y0196379D01*
X0054124Y0195702D01*
X0054124Y0195703D01*
X0053697Y0196379D01*
X0054124Y0195702D01*
X0055197Y0196379D01*
X0054124Y0197056D01*
X0054124Y0197056D01*
X0055197Y0196379D01*
X0055197Y0196379D01*
X0055197Y0196379D01*
X0054124Y0195703D01*
X0053697Y0196379D02*
X0054124Y0197056D01*
X0053697Y0196379D01*
X0055197Y0196379D01*
X0054124Y0197056D01*
X0048697Y0210679D02*
X0048697Y0167415D01*
X0052232Y0163879D01*
X0054697Y0163879D01*
X0054697Y0163879D01*
X0058697Y0163879D01*
X0048697Y0210679D02*
X0048697Y0213879D01*
X0139947Y0178879D02*
X0139714Y0178010D01*
X0141220Y0177606D01*
X0140816Y0179112D01*
X0139947Y0178879D01*
X0139770Y0178099D01*
X0141008Y0177819D01*
X0140727Y0179056D01*
X0139947Y0178879D01*
X0141008Y0177819D01*
X0141220Y0177606D01*
X0147204Y0171622D01*
X0147447Y0171379D01*
X0151197Y0171379D01*
D22*
X0149499Y0173478D01*
X0147204Y0171622D01*
X0149257Y0169501D01*
X0151197Y0171379D01*
X0158500Y0171499D02*
X0158368Y0168551D01*
X0161317Y0168682D01*
X0161197Y0171379D01*
X0158500Y0171499D01*
X0191077Y0161577D02*
X0191197Y0158879D01*
X0193894Y0158759D01*
X0194025Y0161708D01*
X0191077Y0161577D01*
X0161197Y0143879D02*
X0161317Y0141182D01*
X0158368Y0141051D01*
X0158500Y0143999D01*
X0161197Y0143879D01*
X0151197Y0143879D02*
X0151317Y0141182D01*
X0148368Y0141051D01*
X0148500Y0143999D01*
X0151197Y0143879D01*
X0149499Y0105978D02*
X0151197Y0103879D01*
X0149257Y0102001D01*
X0147204Y0104122D01*
X0149499Y0105978D01*
X0158500Y0103999D02*
X0158368Y0101051D01*
X0161317Y0101182D01*
X0161197Y0103879D01*
X0158500Y0103999D01*
X0158500Y0076499D02*
X0161197Y0076379D01*
X0161317Y0073682D01*
X0158368Y0073551D01*
X0158500Y0076499D01*
X0151197Y0076379D02*
X0151317Y0073682D01*
X0148368Y0073551D01*
X0148500Y0076499D01*
X0151197Y0076379D01*
X0148368Y0039208D02*
X0151317Y0039077D01*
X0151197Y0036379D01*
X0148500Y0036259D01*
X0148368Y0039208D01*
X0159205Y0034557D02*
X0161197Y0036379D01*
X0163189Y0034557D01*
X0161197Y0036379D01*
X0159205Y0034557D01*
X0161197Y0032379D01*
X0161197Y0032379D01*
X0163189Y0034557D01*
X0161197Y0032379D01*
X0159205Y0034557D01*
X0161197Y0032379D01*
X0163189Y0034557D01*
X0161197Y0032379D01*
X0159205Y0034557D01*
X0161197Y0036379D01*
X0163189Y0034557D01*
X0161197Y0032379D02*
X0159205Y0034557D01*
X0062697Y0056379D02*
X0062697Y0056379D01*
X0060519Y0054387D01*
X0058697Y0056379D01*
X0060519Y0054387D01*
X0060519Y0054387D01*
X0062697Y0056379D01*
X0060519Y0058371D01*
X0058697Y0056379D01*
X0060519Y0058371D01*
X0058697Y0056379D01*
X0060519Y0054387D01*
X0058697Y0056379D01*
X0060519Y0058371D01*
X0060519Y0058371D01*
X0062697Y0056379D01*
X0060519Y0054387D01*
X0062697Y0056379D01*
X0062697Y0056379D01*
X0060519Y0058371D01*
X0060519Y0058371D01*
X0062697Y0056379D01*
X0060519Y0054387D01*
X0062697Y0056379D01*
X0060519Y0058371D01*
X0062697Y0056379D01*
X0062697Y0056379D01*
X0060519Y0054387D01*
X0062697Y0056379D02*
X0060519Y0058371D01*
X0058817Y0063682D02*
X0055868Y0063551D01*
X0056000Y0066499D01*
X0058697Y0066379D01*
X0058817Y0063682D01*
X0058697Y0076379D02*
X0056000Y0076259D01*
X0055868Y0079208D01*
X0058817Y0079077D01*
X0058697Y0076379D01*
X0058697Y0086379D02*
X0061394Y0086259D01*
X0061525Y0089208D01*
X0058577Y0089077D01*
X0058697Y0086379D01*
X0056874Y0161887D02*
X0058697Y0163879D01*
X0056874Y0165871D01*
X0058697Y0163879D01*
X0056874Y0161887D01*
X0058697Y0163879D01*
X0056874Y0161887D01*
X0054697Y0163879D01*
X0056874Y0165871D01*
X0056874Y0165871D01*
X0054697Y0163879D01*
X0056874Y0161887D01*
X0054697Y0163879D01*
X0054697Y0163879D01*
X0056874Y0165871D01*
X0056874Y0165871D01*
X0054697Y0163879D01*
X0056874Y0161887D01*
X0054697Y0163879D01*
X0054697Y0163879D01*
X0056874Y0161887D01*
X0056874Y0161887D01*
X0058697Y0163879D02*
X0056874Y0165871D01*
X0054697Y0163879D01*
X0056874Y0165871D01*
X0054697Y0163879D01*
X0054697Y0163879D01*
X0048697Y0210679D02*
X0048697Y0210679D01*
X0050082Y0213079D01*
X0048697Y0213879D01*
X0047311Y0213079D01*
X0048697Y0210679D01*
X0048697Y0210679D01*
X0048697Y0210679D01*
X0050082Y0213079D01*
X0048697Y0210679D01*
X0047311Y0213079D01*
X0048697Y0213879D01*
X0050082Y0213079D01*
X0048697Y0213879D01*
X0047311Y0213079D01*
X0048697Y0210679D01*
X0050082Y0213079D01*
X0050082Y0213079D01*
X0050082Y0213079D01*
X0050082Y0213079D01*
X0048697Y0213879D01*
X0047311Y0213079D01*
X0047311Y0213079D01*
X0047311Y0213079D01*
X0047311Y0213079D01*
X0047311Y0213079D01*
X0047311Y0213079D01*
X0047311Y0213079D01*
X0047311Y0213079D01*
X0048697Y0213879D01*
X0048697Y0210679D02*
X0048697Y0210679D01*
X0142447Y0212004D02*
X0143697Y0210754D01*
X0144115Y0211185D01*
X0142447Y0212803D01*
X0143123Y0210580D01*
X0143697Y0210754D01*
X0144278Y0210904D01*
X0143697Y0210754D01*
X0143116Y0210904D01*
X0143116Y0210904D01*
X0143697Y0210754D01*
X0144278Y0210904D01*
X0144278Y0210904D01*
X0144278Y0210904D01*
X0143697Y0210754D02*
X0143116Y0210904D01*
X0143116Y0210904D01*
X0142447Y0212004D02*
X0142447Y0212803D01*
X0142447Y0241872D01*
X0146954Y0246379D01*
X0177997Y0246379D01*
X0179752Y0247972D01*
X0181197Y0246379D01*
X0179752Y0247972D01*
X0177997Y0246379D01*
X0179752Y0244787D01*
X0181197Y0246379D01*
X0179752Y0244787D01*
X0177997Y0246379D01*
X0179752Y0244787D01*
X0179752Y0244787D01*
X0181197Y0246379D01*
X0179752Y0247972D01*
X0179752Y0247972D01*
X0177997Y0246379D01*
X0177997Y0246379D01*
X0179752Y0244787D01*
X0181197Y0246379D01*
X0179752Y0244787D01*
X0177997Y0246379D01*
X0179752Y0247972D01*
X0181197Y0246379D01*
X0177997Y0246379D01*
X0179752Y0244787D01*
X0179752Y0244787D01*
X0177997Y0246379D01*
X0179752Y0247972D01*
X0179752Y0247972D01*
X0177997Y0246379D01*
X0177997Y0246379D01*
X0177997Y0246379D01*
X0177997Y0246379D01*
X0179752Y0247972D01*
X0179752Y0247972D01*
X0179752Y0244787D02*
X0179752Y0244787D01*
X0154025Y0214208D02*
X0151077Y0214077D01*
X0151197Y0211379D01*
X0153894Y0211259D01*
X0154025Y0214208D01*
X0158500Y0211499D02*
X0161197Y0211379D01*
X0161317Y0208682D01*
X0158368Y0208551D01*
X0158500Y0211499D01*
X0263697Y0211238D02*
X0385069Y0211238D01*
X0385318Y0210636D02*
X0384447Y0212740D01*
X0384447Y0215018D01*
X0385318Y0217122D01*
X0386929Y0218733D01*
X0389033Y0219604D01*
X0398361Y0219604D01*
X0400465Y0218733D01*
X0402075Y0217122D01*
X0402947Y0215018D01*
X0402947Y0212740D01*
X0402075Y0210636D01*
X0400465Y0209026D01*
X0398361Y0208154D01*
X0389033Y0208154D01*
X0386929Y0209026D01*
X0385318Y0210636D01*
X0386715Y0209239D02*
X0263697Y0209239D01*
X0263697Y0207241D02*
X0406197Y0207241D01*
X0406197Y0209239D02*
X0400678Y0209239D01*
X0402324Y0211238D02*
X0406197Y0211238D01*
X0406197Y0213236D02*
X0402947Y0213236D01*
X0402857Y0215235D02*
X0406197Y0215235D01*
X0406197Y0217233D02*
X0401964Y0217233D01*
X0399260Y0219232D02*
X0406197Y0219232D01*
X0406197Y0221230D02*
X0306437Y0221230D01*
X0306749Y0220918D02*
X0305736Y0221931D01*
X0304413Y0222479D01*
X0302981Y0222479D01*
X0302513Y0222285D01*
X0302362Y0222265D01*
X0302199Y0222172D01*
X0302101Y0222115D01*
X0301658Y0221931D01*
X0301486Y0221760D01*
X0301173Y0221579D01*
X0263697Y0221579D01*
X0263697Y0261379D01*
X0389382Y0261379D01*
X0389183Y0261180D01*
X0387617Y0258469D01*
X0386807Y0255445D01*
X0386807Y0252314D01*
X0387617Y0249290D01*
X0389183Y0246579D01*
X0391396Y0244365D01*
X0394108Y0242800D01*
X0397132Y0241989D01*
X0400262Y0241989D01*
X0403286Y0242800D01*
X0405997Y0244365D01*
X0406197Y0244565D01*
X0406197Y0043194D01*
X0405997Y0043393D01*
X0403286Y0044959D01*
X0400262Y0045769D01*
X0397132Y0045769D01*
X0394108Y0044959D01*
X0391396Y0043393D01*
X0389183Y0041180D01*
X0387617Y0038469D01*
X0386807Y0035445D01*
X0386807Y0032314D01*
X0387617Y0029290D01*
X0389183Y0026579D01*
X0389382Y0026379D01*
X0313788Y0026379D01*
X0314249Y0026840D01*
X0314797Y0028163D01*
X0314797Y0029595D01*
X0314249Y0030918D01*
X0313236Y0031931D01*
X0311913Y0032479D01*
X0310481Y0032479D01*
X0310013Y0032285D01*
X0309862Y0032265D01*
X0309601Y0032115D01*
X0309158Y0031931D01*
X0308986Y0031760D01*
X0308673Y0031579D01*
X0263697Y0031579D01*
X0263697Y0071179D01*
X0298673Y0071179D01*
X0298986Y0070998D01*
X0299158Y0070827D01*
X0299601Y0070644D01*
X0299862Y0070493D01*
X0300013Y0070473D01*
X0300481Y0070279D01*
X0301913Y0070279D01*
X0303236Y0070827D01*
X0304249Y0071840D01*
X0304797Y0073163D01*
X0304797Y0074595D01*
X0304249Y0075918D01*
X0303236Y0076931D01*
X0301913Y0077479D01*
X0300481Y0077479D01*
X0300013Y0077285D01*
X0299862Y0077265D01*
X0299601Y0077115D01*
X0299158Y0076931D01*
X0298986Y0076760D01*
X0298673Y0076579D01*
X0263697Y0076579D01*
X0263697Y0101179D01*
X0308673Y0101179D01*
X0308986Y0100998D01*
X0309158Y0100827D01*
X0309601Y0100644D01*
X0309862Y0100493D01*
X0310013Y0100473D01*
X0310481Y0100279D01*
X0311913Y0100279D01*
X0313236Y0100827D01*
X0314249Y0101840D01*
X0314797Y0103163D01*
X0314797Y0104595D01*
X0314249Y0105918D01*
X0313236Y0106931D01*
X0311913Y0107479D01*
X0310481Y0107479D01*
X0310013Y0107285D01*
X0309862Y0107265D01*
X0309601Y0107115D01*
X0309158Y0106931D01*
X0308986Y0106760D01*
X0308673Y0106579D01*
X0263697Y0106579D01*
X0263697Y0141179D01*
X0301173Y0141179D01*
X0301486Y0140998D01*
X0301658Y0140827D01*
X0302101Y0140644D01*
X0302362Y0140493D01*
X0302513Y0140473D01*
X0302981Y0140279D01*
X0304413Y0140279D01*
X0305736Y0140827D01*
X0306749Y0141840D01*
X0307297Y0143163D01*
X0307297Y0144595D01*
X0306749Y0145918D01*
X0305736Y0146931D01*
X0304413Y0147479D01*
X0302981Y0147479D01*
X0302513Y0147285D01*
X0263697Y0147285D01*
X0263697Y0146579D02*
X0263697Y0176179D01*
X0308673Y0176179D01*
X0308986Y0175998D01*
X0309158Y0175827D01*
X0309601Y0175644D01*
X0309862Y0175493D01*
X0310013Y0175473D01*
X0310481Y0175279D01*
X0311747Y0175279D01*
X0311747Y0122541D01*
X0311747Y0122541D01*
X0311747Y0122311D01*
X0311427Y0121070D01*
X0311334Y0120712D01*
X0311147Y0120260D01*
X0311147Y0119987D01*
X0311108Y0119838D01*
X0311108Y0119838D01*
X0311108Y0119838D01*
X0311108Y0119838D01*
X0311108Y0119838D01*
X0311147Y0119565D01*
X0311147Y0118748D01*
X0311725Y0117352D01*
X0312794Y0116283D01*
X0314191Y0115704D01*
X0315703Y0115704D01*
X0317099Y0116283D01*
X0318168Y0117352D01*
X0318747Y0118748D01*
X0318747Y0119565D01*
X0318785Y0119838D01*
X0318785Y0119838D01*
X0318785Y0119838D01*
X0318747Y0119987D01*
X0318747Y0120260D01*
X0318560Y0120712D01*
X0318549Y0120753D01*
X0318467Y0121070D01*
X0318467Y0121070D01*
X0318147Y0122311D01*
X0318147Y0188266D01*
X0317660Y0189442D01*
X0312660Y0194442D01*
X0311759Y0195342D01*
X0310583Y0195829D01*
X0304984Y0195829D01*
X0304145Y0196305D01*
X0303974Y0196476D01*
X0303493Y0196675D01*
X0303283Y0196794D01*
X0303144Y0196873D01*
X0302959Y0196896D01*
X0302578Y0197054D01*
X0301066Y0197054D01*
X0299669Y0196476D01*
X0298600Y0195407D01*
X0298022Y0194010D01*
X0298022Y0192498D01*
X0298600Y0191102D01*
X0299178Y0190524D01*
X0299344Y0190304D01*
X0299476Y0190226D01*
X0299669Y0190033D01*
X0300121Y0189845D01*
X0300440Y0189658D01*
X0300645Y0189629D01*
X0301066Y0189454D01*
X0301750Y0189454D01*
X0301810Y0189429D01*
X0303941Y0189429D01*
X0304377Y0189375D01*
X0304556Y0189425D01*
X0304741Y0189423D01*
X0304758Y0189429D01*
X0308621Y0189429D01*
X0311747Y0186304D01*
X0311747Y0182479D01*
X0310481Y0182479D01*
X0310013Y0182285D01*
X0309862Y0182265D01*
X0309601Y0182115D01*
X0309158Y0181931D01*
X0308986Y0181760D01*
X0308673Y0181579D01*
X0263697Y0181579D01*
X0263697Y0216179D01*
X0301173Y0216179D01*
X0301486Y0215998D01*
X0301658Y0215827D01*
X0302101Y0215644D01*
X0302362Y0215493D01*
X0302513Y0215473D01*
X0302981Y0215279D01*
X0304413Y0215279D01*
X0305736Y0215827D01*
X0306749Y0216840D01*
X0307297Y0218163D01*
X0307297Y0219595D01*
X0306749Y0220918D01*
X0307297Y0219232D02*
X0388134Y0219232D01*
X0385430Y0217233D02*
X0306912Y0217233D01*
X0302362Y0222265D02*
X0302362Y0222265D01*
X0302362Y0222265D01*
X0299678Y0230951D02*
X0301645Y0231765D01*
X0303150Y0233270D01*
X0303964Y0235237D01*
X0303964Y0237365D01*
X0303150Y0239331D01*
X0301645Y0240836D01*
X0300788Y0241191D01*
X0303764Y0244168D01*
X0303764Y0246301D01*
X0303764Y0248434D01*
X0300747Y0251451D01*
X0298614Y0251451D01*
X0296481Y0251451D01*
X0293464Y0248434D01*
X0293464Y0246301D01*
X0298614Y0246301D01*
X0298614Y0251451D01*
X0298614Y0246301D01*
X0298614Y0246301D01*
X0298614Y0246301D01*
X0296919Y0247623D01*
X0295461Y0245754D01*
X0297463Y0244485D01*
X0298614Y0246301D01*
X0298072Y0245754D01*
X0295461Y0245754D01*
X0276197Y0245754D01*
X0273519Y0243076D01*
X0272339Y0241075D01*
X0271822Y0241379D01*
X0271517Y0241896D01*
X0273519Y0243076D01*
X0271822Y0241379D01*
X0263697Y0241215D02*
X0296416Y0241215D01*
X0296440Y0241191D02*
X0295584Y0240836D01*
X0294079Y0239331D01*
X0293264Y0237365D01*
X0293264Y0235237D01*
X0294079Y0233270D01*
X0295584Y0231765D01*
X0297550Y0230951D01*
X0299678Y0230951D01*
X0300335Y0231223D02*
X0324504Y0231223D01*
X0323997Y0232447D02*
X0325093Y0229801D01*
X0327118Y0227775D01*
X0329765Y0226679D01*
X0332629Y0226679D01*
X0335275Y0227775D01*
X0337301Y0229801D01*
X0338397Y0232447D01*
X0338397Y0233385D01*
X0338435Y0233496D01*
X0338435Y0233496D01*
X0338397Y0234105D01*
X0338397Y0235311D01*
X0338308Y0235527D01*
X0338252Y0236409D01*
X0340022Y0238179D01*
X0345597Y0238179D01*
X0344197Y0236779D01*
X0344197Y0233879D01*
X0344197Y0230980D01*
X0348297Y0226879D01*
X0351197Y0226879D01*
X0354096Y0226879D01*
X0358197Y0230980D01*
X0358197Y0233879D01*
X0351197Y0233879D01*
X0351197Y0226879D01*
X0351197Y0233879D01*
X0351197Y0233879D01*
X0351197Y0233879D01*
X0354025Y0231051D01*
X0391822Y0193254D01*
X0393697Y0193879D01*
X0358697Y0158879D01*
X0355197Y0158879D01*
X0351197Y0158879D01*
X0351197Y0151879D01*
X0354096Y0151879D01*
X0358197Y0155980D01*
X0358197Y0158879D01*
X0351197Y0158879D01*
X0351197Y0158879D01*
X0351197Y0158879D01*
X0351197Y0151879D01*
X0348297Y0151879D01*
X0344197Y0155980D01*
X0344197Y0158879D01*
X0351197Y0158879D01*
X0350572Y0158254D01*
X0347246Y0158254D01*
X0345572Y0158254D01*
X0321644Y0134326D01*
X0320464Y0132325D01*
X0319947Y0132629D01*
X0319425Y0132333D01*
X0320572Y0130312D01*
X0320547Y0132636D01*
X0319947Y0132629D01*
X0319642Y0133146D01*
X0321644Y0134326D01*
X0319947Y0132629D01*
X0320572Y0132004D01*
X0320572Y0130312D01*
X0320572Y0114504D01*
X0348368Y0086708D01*
X0351197Y0083879D01*
X0351197Y0076879D01*
X0354096Y0076879D01*
X0358197Y0080980D01*
X0358197Y0083879D01*
X0351197Y0083879D01*
X0351197Y0083879D01*
X0351197Y0083879D01*
X0351197Y0076879D01*
X0348297Y0076879D01*
X0344197Y0080980D01*
X0344197Y0083879D01*
X0351197Y0083879D01*
X0358197Y0083879D01*
X0358197Y0086779D01*
X0354096Y0090879D01*
X0351197Y0090879D01*
X0351197Y0083879D01*
X0351197Y0083879D01*
X0351197Y0083879D01*
X0344197Y0083879D01*
X0344197Y0086779D01*
X0348297Y0090879D01*
X0351197Y0090879D01*
X0351197Y0083879D01*
X0351197Y0083333D02*
X0351197Y0083333D01*
X0351197Y0081335D02*
X0351197Y0081335D01*
X0351197Y0079336D02*
X0351197Y0079336D01*
X0351197Y0077338D02*
X0351197Y0077338D01*
X0354555Y0077338D02*
X0406197Y0077338D01*
X0406197Y0079336D02*
X0356553Y0079336D01*
X0358197Y0081335D02*
X0406197Y0081335D01*
X0406197Y0083333D02*
X0358197Y0083333D01*
X0358197Y0085332D02*
X0406197Y0085332D01*
X0406197Y0087330D02*
X0357645Y0087330D01*
X0355647Y0089329D02*
X0406197Y0089329D01*
X0406197Y0091327D02*
X0263697Y0091327D01*
X0263697Y0089329D02*
X0326464Y0089329D01*
X0327118Y0089983D02*
X0325093Y0087958D01*
X0323997Y0085311D01*
X0323997Y0082447D01*
X0325093Y0079801D01*
X0327118Y0077775D01*
X0329765Y0076679D01*
X0332629Y0076679D01*
X0335275Y0077775D01*
X0337301Y0079801D01*
X0338397Y0082447D01*
X0338397Y0085311D01*
X0337301Y0087958D01*
X0335275Y0089983D01*
X0332629Y0091079D01*
X0329765Y0091079D01*
X0327118Y0089983D01*
X0324833Y0087330D02*
X0263697Y0087330D01*
X0263697Y0085332D02*
X0324005Y0085332D01*
X0323997Y0083333D02*
X0263697Y0083333D01*
X0263697Y0081335D02*
X0324458Y0081335D01*
X0325558Y0079336D02*
X0263697Y0079336D01*
X0263697Y0077338D02*
X0300139Y0077338D01*
X0299862Y0077265D02*
X0299862Y0077265D01*
X0299862Y0077265D01*
X0302255Y0077338D02*
X0328175Y0077338D01*
X0334218Y0077338D02*
X0347839Y0077338D01*
X0345841Y0079336D02*
X0336836Y0079336D01*
X0337936Y0081335D02*
X0344197Y0081335D01*
X0344197Y0083333D02*
X0338397Y0083333D01*
X0338388Y0085332D02*
X0344197Y0085332D01*
X0344748Y0087330D02*
X0337561Y0087330D01*
X0335930Y0089329D02*
X0346747Y0089329D01*
X0351197Y0089329D02*
X0351197Y0089329D01*
X0351197Y0087330D02*
X0351197Y0087330D01*
X0351197Y0085332D02*
X0351197Y0085332D01*
X0384727Y0103318D02*
X0314797Y0103318D01*
X0314498Y0105317D02*
X0385777Y0105317D01*
X0385397Y0104937D02*
X0384526Y0102833D01*
X0384526Y0100555D01*
X0385397Y0098451D01*
X0387008Y0096841D01*
X0389112Y0095969D01*
X0398439Y0095969D01*
X0400544Y0096841D01*
X0402154Y0098451D01*
X0403026Y0100555D01*
X0403026Y0102833D01*
X0402154Y0104937D01*
X0400544Y0106548D01*
X0398439Y0107419D01*
X0389112Y0107419D01*
X0387008Y0106548D01*
X0385397Y0104937D01*
X0384526Y0101320D02*
X0313728Y0101320D01*
X0312309Y0107315D02*
X0388861Y0107315D01*
X0398690Y0107315D02*
X0406197Y0107315D01*
X0406197Y0105317D02*
X0401774Y0105317D01*
X0402825Y0103318D02*
X0406197Y0103318D01*
X0406197Y0101320D02*
X0403026Y0101320D01*
X0402514Y0099321D02*
X0406197Y0099321D01*
X0406197Y0097323D02*
X0401025Y0097323D01*
X0406197Y0095324D02*
X0263697Y0095324D01*
X0263697Y0093326D02*
X0406197Y0093326D01*
X0386526Y0097323D02*
X0263697Y0097323D01*
X0263697Y0099321D02*
X0385037Y0099321D01*
X0406197Y0109314D02*
X0263697Y0109314D01*
X0263697Y0111312D02*
X0406197Y0111312D01*
X0406197Y0113311D02*
X0263697Y0113311D01*
X0263697Y0115309D02*
X0406197Y0115309D01*
X0406197Y0117308D02*
X0401326Y0117308D01*
X0400544Y0116526D02*
X0402154Y0118136D01*
X0403026Y0120240D01*
X0403026Y0122518D01*
X0402154Y0124622D01*
X0400544Y0126233D01*
X0398439Y0127104D01*
X0389112Y0127104D01*
X0387008Y0126233D01*
X0385397Y0124622D01*
X0384526Y0122518D01*
X0384526Y0120240D01*
X0385397Y0118136D01*
X0387008Y0116526D01*
X0389112Y0115654D01*
X0398439Y0115654D01*
X0400544Y0116526D01*
X0402639Y0119306D02*
X0406197Y0119306D01*
X0406197Y0121305D02*
X0403026Y0121305D01*
X0402700Y0123303D02*
X0406197Y0123303D01*
X0406197Y0125302D02*
X0401474Y0125302D01*
X0406197Y0127300D02*
X0318147Y0127300D01*
X0318147Y0125302D02*
X0386077Y0125302D01*
X0384851Y0123303D02*
X0318147Y0123303D01*
X0318407Y0121305D02*
X0384526Y0121305D01*
X0384913Y0119306D02*
X0318747Y0119306D01*
X0318785Y0119838D02*
X0318785Y0119838D01*
X0318785Y0119838D01*
X0318785Y0119838D01*
X0318124Y0117308D02*
X0386226Y0117308D01*
X0406197Y0129299D02*
X0318147Y0129299D01*
X0318147Y0131297D02*
X0406197Y0131297D01*
X0406197Y0133296D02*
X0318147Y0133296D01*
X0318147Y0135294D02*
X0406197Y0135294D01*
X0406197Y0137293D02*
X0401626Y0137293D01*
X0402154Y0137821D02*
X0403026Y0139925D01*
X0403026Y0142203D01*
X0402154Y0144307D01*
X0400544Y0145918D01*
X0398439Y0146789D01*
X0389112Y0146789D01*
X0387008Y0145918D01*
X0385397Y0144307D01*
X0384526Y0142203D01*
X0384526Y0139925D01*
X0385397Y0137821D01*
X0387008Y0136211D01*
X0389112Y0135339D01*
X0398439Y0135339D01*
X0400544Y0136211D01*
X0402154Y0137821D01*
X0402763Y0139291D02*
X0406197Y0139291D01*
X0406197Y0141290D02*
X0403026Y0141290D01*
X0402576Y0143288D02*
X0406197Y0143288D01*
X0406197Y0145287D02*
X0401174Y0145287D01*
X0406197Y0147285D02*
X0318147Y0147285D01*
X0318147Y0145287D02*
X0386377Y0145287D01*
X0384975Y0143288D02*
X0318147Y0143288D01*
X0318147Y0141290D02*
X0384526Y0141290D01*
X0384788Y0139291D02*
X0318147Y0139291D01*
X0318147Y0137293D02*
X0385926Y0137293D01*
X0406197Y0149284D02*
X0318147Y0149284D01*
X0318147Y0151282D02*
X0406197Y0151282D01*
X0406197Y0153281D02*
X0355498Y0153281D01*
X0357497Y0155279D02*
X0406197Y0155279D01*
X0406197Y0157278D02*
X0358197Y0157278D01*
X0358197Y0158879D02*
X0358197Y0161779D01*
X0354096Y0165879D01*
X0351197Y0165879D01*
X0351197Y0158879D01*
X0358197Y0158879D01*
X0358197Y0159277D02*
X0406197Y0159277D01*
X0406197Y0161275D02*
X0358197Y0161275D01*
X0356702Y0163274D02*
X0406197Y0163274D01*
X0406197Y0165272D02*
X0354704Y0165272D01*
X0351197Y0165272D02*
X0351197Y0165272D01*
X0351197Y0165879D02*
X0348297Y0165879D01*
X0344197Y0161779D01*
X0344197Y0158879D01*
X0351197Y0158879D01*
X0351197Y0158879D01*
X0351197Y0158879D01*
X0351197Y0165879D01*
X0351197Y0163274D02*
X0351197Y0163274D01*
X0351197Y0161275D02*
X0351197Y0161275D01*
X0351197Y0159277D02*
X0351197Y0159277D01*
X0351197Y0157278D02*
X0351197Y0157278D01*
X0351197Y0155279D02*
X0351197Y0155279D01*
X0351197Y0153281D02*
X0351197Y0153281D01*
X0346896Y0153281D02*
X0335781Y0153281D01*
X0335275Y0152775D02*
X0337301Y0154801D01*
X0338397Y0157447D01*
X0338397Y0160311D01*
X0337301Y0162958D01*
X0335275Y0164983D01*
X0332629Y0166079D01*
X0329765Y0166079D01*
X0327118Y0164983D01*
X0325093Y0162958D01*
X0323997Y0160311D01*
X0323997Y0157447D01*
X0325093Y0154801D01*
X0327118Y0152775D01*
X0329765Y0151679D01*
X0332629Y0151679D01*
X0335275Y0152775D01*
X0337499Y0155279D02*
X0344897Y0155279D01*
X0344197Y0157278D02*
X0338327Y0157278D01*
X0338397Y0159277D02*
X0344197Y0159277D01*
X0344197Y0161275D02*
X0337998Y0161275D01*
X0336985Y0163274D02*
X0345692Y0163274D01*
X0347690Y0165272D02*
X0334578Y0165272D01*
X0327816Y0165272D02*
X0318147Y0165272D01*
X0318147Y0163274D02*
X0325409Y0163274D01*
X0324396Y0161275D02*
X0318147Y0161275D01*
X0318147Y0159277D02*
X0323997Y0159277D01*
X0324067Y0157278D02*
X0318147Y0157278D01*
X0318147Y0155279D02*
X0324895Y0155279D01*
X0326613Y0153281D02*
X0318147Y0153281D01*
X0311747Y0153281D02*
X0263697Y0153281D01*
X0263697Y0155279D02*
X0311747Y0155279D01*
X0311747Y0157278D02*
X0263697Y0157278D01*
X0263697Y0159277D02*
X0311747Y0159277D01*
X0311747Y0161275D02*
X0263697Y0161275D01*
X0263697Y0163274D02*
X0311747Y0163274D01*
X0311747Y0165272D02*
X0263697Y0165272D01*
X0263697Y0167271D02*
X0311747Y0167271D01*
X0311747Y0169269D02*
X0263697Y0169269D01*
X0263697Y0171268D02*
X0311747Y0171268D01*
X0311747Y0173266D02*
X0263697Y0173266D01*
X0263697Y0175265D02*
X0311747Y0175265D01*
X0318147Y0175265D02*
X0406197Y0175265D01*
X0406197Y0177263D02*
X0318147Y0177263D01*
X0318147Y0179262D02*
X0406197Y0179262D01*
X0406197Y0181260D02*
X0318147Y0181260D01*
X0318147Y0183259D02*
X0406197Y0183259D01*
X0406197Y0185257D02*
X0318147Y0185257D01*
X0318147Y0187256D02*
X0406197Y0187256D01*
X0406197Y0189254D02*
X0400256Y0189254D01*
X0400118Y0189154D02*
X0400821Y0189665D01*
X0401436Y0190280D01*
X0401947Y0190983D01*
X0402342Y0191758D01*
X0402611Y0192585D01*
X0402747Y0193444D01*
X0402747Y0193704D01*
X0393872Y0193704D01*
X0393872Y0188354D01*
X0397657Y0188354D01*
X0398516Y0188490D01*
X0399343Y0188759D01*
X0400118Y0189154D01*
X0402084Y0191253D02*
X0406197Y0191253D01*
X0406197Y0193251D02*
X0402716Y0193251D01*
X0402747Y0194054D02*
X0402747Y0194314D01*
X0402611Y0195173D01*
X0402342Y0196000D01*
X0401947Y0196775D01*
X0401436Y0197479D01*
X0400821Y0198093D01*
X0400118Y0198605D01*
X0399343Y0198999D01*
X0398516Y0199268D01*
X0397657Y0199404D01*
X0393872Y0199404D01*
X0393872Y0194054D01*
X0402747Y0194054D01*
X0402586Y0195250D02*
X0406197Y0195250D01*
X0406197Y0197248D02*
X0401603Y0197248D01*
X0398582Y0199247D02*
X0406197Y0199247D01*
X0406197Y0201245D02*
X0263697Y0201245D01*
X0263697Y0199247D02*
X0388812Y0199247D01*
X0388878Y0199268D02*
X0388051Y0198999D01*
X0387276Y0198605D01*
X0386573Y0198093D01*
X0385958Y0197479D01*
X0385446Y0196775D01*
X0385052Y0196000D01*
X0384783Y0195173D01*
X0384647Y0194314D01*
X0384647Y0194054D01*
X0393522Y0194054D01*
X0393522Y0193704D01*
X0393872Y0193704D01*
X0393872Y0194054D01*
X0393522Y0194054D01*
X0393522Y0199404D01*
X0389737Y0199404D01*
X0388878Y0199268D01*
X0385790Y0197248D02*
X0263697Y0197248D01*
X0263697Y0195250D02*
X0298535Y0195250D01*
X0298022Y0193251D02*
X0263697Y0193251D01*
X0263697Y0191253D02*
X0298538Y0191253D01*
X0301517Y0192737D02*
X0301822Y0193254D01*
X0301815Y0192654D01*
X0304139Y0192629D01*
X0302118Y0193776D01*
X0301822Y0193254D01*
X0302447Y0192629D01*
X0304139Y0192629D01*
X0309947Y0192629D01*
X0314947Y0187629D01*
X0314947Y0121904D01*
X0315528Y0119654D01*
X0314947Y0119504D01*
X0315528Y0119654D01*
X0315528Y0119654D01*
X0314947Y0121904D01*
X0314366Y0119654D01*
X0314947Y0119504D01*
X0315528Y0119654D01*
X0314947Y0121904D01*
X0314947Y0121904D01*
X0314947Y0119504D01*
X0314366Y0119654D01*
X0314947Y0121904D01*
X0314366Y0119654D01*
X0314366Y0119654D01*
X0314947Y0121904D01*
X0315528Y0119654D01*
X0315528Y0119654D01*
X0314947Y0121904D01*
X0314947Y0121904D01*
X0314366Y0119654D01*
X0314366Y0119654D01*
X0314947Y0119504D01*
X0315528Y0119654D02*
X0314947Y0121904D01*
X0314366Y0119654D01*
X0314947Y0121904D01*
X0311747Y0123303D02*
X0263697Y0123303D01*
X0263697Y0121305D02*
X0311487Y0121305D01*
X0311427Y0121070D02*
X0311427Y0121070D01*
X0311108Y0119838D02*
X0311108Y0119838D01*
X0311147Y0119306D02*
X0263697Y0119306D01*
X0263697Y0117308D02*
X0311769Y0117308D01*
X0311747Y0125302D02*
X0263697Y0125302D01*
X0263697Y0127300D02*
X0311747Y0127300D01*
X0311747Y0129299D02*
X0263697Y0129299D01*
X0263697Y0131297D02*
X0311747Y0131297D01*
X0311747Y0133296D02*
X0263697Y0133296D01*
X0263697Y0135294D02*
X0311747Y0135294D01*
X0311747Y0137293D02*
X0263697Y0137293D01*
X0263697Y0139291D02*
X0311747Y0139291D01*
X0311747Y0141290D02*
X0306199Y0141290D01*
X0307297Y0143288D02*
X0311747Y0143288D01*
X0311747Y0145287D02*
X0307010Y0145287D01*
X0304881Y0147285D02*
X0311747Y0147285D01*
X0311747Y0149284D02*
X0263697Y0149284D01*
X0263697Y0151282D02*
X0311747Y0151282D01*
X0302513Y0147285D02*
X0302362Y0147265D01*
X0302101Y0147115D01*
X0301658Y0146931D01*
X0301486Y0146760D01*
X0301173Y0146579D01*
X0263697Y0146579D01*
X0302362Y0147265D02*
X0302362Y0147265D01*
X0302362Y0147265D01*
X0318147Y0167271D02*
X0406197Y0167271D01*
X0406197Y0169269D02*
X0318147Y0169269D01*
X0318147Y0171268D02*
X0406197Y0171268D01*
X0406197Y0173266D02*
X0318147Y0173266D01*
X0311747Y0183259D02*
X0263697Y0183259D01*
X0263697Y0185257D02*
X0311747Y0185257D01*
X0310795Y0187256D02*
X0263697Y0187256D01*
X0263697Y0189254D02*
X0308796Y0189254D01*
X0313850Y0193251D02*
X0384677Y0193251D01*
X0384647Y0193444D02*
X0384783Y0192585D01*
X0385052Y0191758D01*
X0385446Y0190983D01*
X0385958Y0190280D01*
X0386573Y0189665D01*
X0387276Y0189154D01*
X0388051Y0188759D01*
X0388878Y0188490D01*
X0389737Y0188354D01*
X0393522Y0188354D01*
X0393522Y0193704D01*
X0384647Y0193704D01*
X0384647Y0193444D01*
X0384808Y0195250D02*
X0311852Y0195250D01*
X0315849Y0191253D02*
X0385309Y0191253D01*
X0387138Y0189254D02*
X0317737Y0189254D01*
X0309862Y0182265D02*
X0309862Y0182265D01*
X0309862Y0182265D01*
X0302339Y0193559D02*
X0301822Y0193254D01*
X0303144Y0196873D02*
X0303144Y0196873D01*
X0328445Y0227226D02*
X0263697Y0227226D01*
X0263697Y0229224D02*
X0325669Y0229224D01*
X0323997Y0232447D02*
X0323997Y0235311D01*
X0325093Y0237958D01*
X0327118Y0239983D01*
X0329765Y0241079D01*
X0330702Y0241079D01*
X0330814Y0241117D01*
X0330814Y0241117D01*
X0331422Y0241079D01*
X0332629Y0241079D01*
X0332844Y0240990D01*
X0333727Y0240935D01*
X0336884Y0244092D01*
X0338060Y0244579D01*
X0359871Y0244579D01*
X0367234Y0251942D01*
X0367350Y0252472D01*
X0367483Y0253216D01*
X0367528Y0253285D01*
X0367797Y0254517D01*
X0367797Y0255053D01*
X0368045Y0255652D01*
X0368111Y0255956D01*
X0368111Y0255956D01*
X0368182Y0256058D01*
X0368258Y0256166D01*
X0368695Y0257221D01*
X0370355Y0258881D01*
X0372523Y0259779D01*
X0374870Y0259779D01*
X0377039Y0258881D01*
X0378699Y0257221D01*
X0379597Y0255053D01*
X0379597Y0252706D01*
X0378699Y0250537D01*
X0377039Y0248877D01*
X0375984Y0248440D01*
X0375875Y0248365D01*
X0375773Y0248294D01*
X0375773Y0248294D01*
X0375773Y0248294D01*
X0375470Y0248227D01*
X0374870Y0247979D01*
X0374334Y0247979D01*
X0373103Y0247710D01*
X0373033Y0247666D01*
X0372289Y0247532D01*
X0371759Y0247416D01*
X0363910Y0239567D01*
X0363910Y0239567D01*
X0363009Y0238666D01*
X0361833Y0238179D01*
X0356796Y0238179D01*
X0358197Y0236779D01*
X0358197Y0233879D01*
X0351197Y0233879D01*
X0344197Y0233879D01*
X0351197Y0233879D01*
X0351197Y0233879D01*
X0351197Y0233221D02*
X0351197Y0233221D01*
X0351197Y0231223D02*
X0351197Y0231223D01*
X0351197Y0229224D02*
X0351197Y0229224D01*
X0351197Y0227226D02*
X0351197Y0227226D01*
X0354443Y0227226D02*
X0406197Y0227226D01*
X0406197Y0229224D02*
X0377386Y0229224D01*
X0377039Y0228877D02*
X0378699Y0230537D01*
X0379597Y0232706D01*
X0379597Y0235053D01*
X0378699Y0237221D01*
X0377039Y0238881D01*
X0374870Y0239779D01*
X0372523Y0239779D01*
X0370355Y0238881D01*
X0368695Y0237221D01*
X0367797Y0235053D01*
X0367797Y0232706D01*
X0368695Y0230537D01*
X0370355Y0228877D01*
X0372523Y0227979D01*
X0374870Y0227979D01*
X0377039Y0228877D01*
X0378983Y0231223D02*
X0406197Y0231223D01*
X0406197Y0233221D02*
X0379597Y0233221D01*
X0379528Y0235220D02*
X0406197Y0235220D01*
X0406197Y0237218D02*
X0378700Y0237218D01*
X0376228Y0239217D02*
X0406197Y0239217D01*
X0406197Y0241215D02*
X0365559Y0241215D01*
X0363560Y0239217D02*
X0371166Y0239217D01*
X0368694Y0237218D02*
X0357757Y0237218D01*
X0358197Y0235220D02*
X0367866Y0235220D01*
X0367797Y0233221D02*
X0358197Y0233221D01*
X0358197Y0231223D02*
X0368411Y0231223D01*
X0370008Y0229224D02*
X0356442Y0229224D01*
X0347951Y0227226D02*
X0333949Y0227226D01*
X0336724Y0229224D02*
X0345952Y0229224D01*
X0344197Y0231223D02*
X0337890Y0231223D01*
X0338397Y0233221D02*
X0344197Y0233221D01*
X0344197Y0235220D02*
X0338397Y0235220D01*
X0339062Y0237218D02*
X0344637Y0237218D01*
X0338697Y0241379D02*
X0334025Y0236708D01*
X0331197Y0233879D01*
X0326352Y0239217D02*
X0303197Y0239217D01*
X0303964Y0237218D02*
X0324787Y0237218D01*
X0323997Y0235220D02*
X0303957Y0235220D01*
X0303101Y0233221D02*
X0323997Y0233221D01*
X0334008Y0241215D02*
X0300812Y0241215D01*
X0302810Y0243214D02*
X0336006Y0243214D01*
X0338697Y0241379D02*
X0361197Y0241379D01*
X0371470Y0251652D01*
X0373697Y0253879D01*
X0378977Y0251208D02*
X0387103Y0251208D01*
X0386807Y0253207D02*
X0379597Y0253207D01*
X0379534Y0255205D02*
X0386807Y0255205D01*
X0387278Y0257204D02*
X0378706Y0257204D01*
X0376264Y0259202D02*
X0388041Y0259202D01*
X0389204Y0261201D02*
X0263697Y0261201D01*
X0263697Y0259202D02*
X0371130Y0259202D01*
X0368688Y0257204D02*
X0263697Y0257204D01*
X0263697Y0255205D02*
X0367860Y0255205D01*
X0368111Y0255956D02*
X0368111Y0255956D01*
X0367481Y0253207D02*
X0263697Y0253207D01*
X0263697Y0251208D02*
X0296238Y0251208D01*
X0298614Y0251208D02*
X0298614Y0251208D01*
X0298614Y0249210D02*
X0298614Y0249210D01*
X0298614Y0247211D02*
X0298614Y0247211D01*
X0298614Y0246301D02*
X0303764Y0246301D01*
X0298614Y0246301D01*
X0293464Y0246301D01*
X0293464Y0244168D01*
X0296440Y0241191D01*
X0294418Y0243214D02*
X0263697Y0243214D01*
X0263697Y0245212D02*
X0293464Y0245212D01*
X0293464Y0247211D02*
X0263697Y0247211D01*
X0263697Y0249210D02*
X0294240Y0249210D01*
X0298614Y0246301D02*
X0298614Y0246301D01*
X0303764Y0247211D02*
X0362503Y0247211D01*
X0360505Y0245212D02*
X0303764Y0245212D01*
X0302989Y0249210D02*
X0364502Y0249210D01*
X0366500Y0251208D02*
X0300990Y0251208D01*
X0294031Y0239217D02*
X0263697Y0239217D01*
X0263697Y0237218D02*
X0293264Y0237218D01*
X0293271Y0235220D02*
X0263697Y0235220D01*
X0263697Y0233221D02*
X0294128Y0233221D01*
X0296893Y0231223D02*
X0263697Y0231223D01*
X0263697Y0225227D02*
X0406197Y0225227D01*
X0406197Y0223229D02*
X0263697Y0223229D01*
X0263697Y0215235D02*
X0384537Y0215235D01*
X0384447Y0213236D02*
X0263697Y0213236D01*
X0263697Y0205242D02*
X0406197Y0205242D01*
X0406197Y0203244D02*
X0263697Y0203244D01*
X0367557Y0243214D02*
X0393390Y0243214D01*
X0390549Y0245212D02*
X0369556Y0245212D01*
X0371554Y0247211D02*
X0388818Y0247211D01*
X0387664Y0249210D02*
X0377371Y0249210D01*
X0404004Y0243214D02*
X0406197Y0243214D01*
X0393872Y0199247D02*
X0393522Y0199247D01*
X0393522Y0197248D02*
X0393872Y0197248D01*
X0393872Y0195250D02*
X0393522Y0195250D01*
X0393522Y0193251D02*
X0393872Y0193251D01*
X0393872Y0191253D02*
X0393522Y0191253D01*
X0393522Y0189254D02*
X0393872Y0189254D01*
X0310085Y0107315D02*
X0263697Y0107315D01*
X0309862Y0107265D02*
X0309862Y0107265D01*
X0309862Y0107265D01*
X0304489Y0075339D02*
X0406197Y0075339D01*
X0406197Y0073341D02*
X0304797Y0073341D01*
X0303751Y0071342D02*
X0406197Y0071342D01*
X0406197Y0069344D02*
X0263697Y0069344D01*
X0263697Y0067345D02*
X0406197Y0067345D01*
X0406197Y0065346D02*
X0263697Y0065346D01*
X0263697Y0063348D02*
X0406197Y0063348D01*
X0406197Y0061349D02*
X0263697Y0061349D01*
X0263697Y0059351D02*
X0406197Y0059351D01*
X0406197Y0057352D02*
X0263697Y0057352D01*
X0263697Y0055354D02*
X0406197Y0055354D01*
X0406197Y0053355D02*
X0263697Y0053355D01*
X0263697Y0051357D02*
X0406197Y0051357D01*
X0406197Y0049358D02*
X0263697Y0049358D01*
X0263697Y0047360D02*
X0406197Y0047360D01*
X0406197Y0045361D02*
X0401783Y0045361D01*
X0406028Y0043363D02*
X0406197Y0043363D01*
X0395610Y0045361D02*
X0263697Y0045361D01*
X0263697Y0043363D02*
X0391366Y0043363D01*
X0389367Y0041364D02*
X0263697Y0041364D01*
X0263697Y0039366D02*
X0388135Y0039366D01*
X0387322Y0037367D02*
X0263697Y0037367D01*
X0263697Y0035369D02*
X0386807Y0035369D01*
X0386807Y0033370D02*
X0263697Y0033370D01*
X0309862Y0032265D02*
X0309862Y0032265D01*
X0309862Y0032265D01*
X0313795Y0031372D02*
X0387060Y0031372D01*
X0387595Y0029373D02*
X0314797Y0029373D01*
X0314470Y0027375D02*
X0388723Y0027375D01*
D23*
X0314947Y0119504D03*
X0319947Y0132629D03*
X0301822Y0193254D03*
X0271822Y0241379D03*
X0143697Y0210754D03*
D24*
X0331197Y0233879D02*
X0334191Y0234067D01*
X0334025Y0236708D01*
X0331385Y0236873D01*
X0331197Y0233879D01*
X0351197Y0233879D02*
X0351385Y0230885D01*
X0354025Y0231051D01*
X0354191Y0233691D01*
X0351197Y0233879D01*
X0371470Y0251652D02*
X0372036Y0254242D01*
X0373697Y0253879D01*
X0374060Y0252218D01*
X0371470Y0251652D01*
X0353447Y0160864D02*
X0351197Y0158879D01*
X0348664Y0160488D01*
X0347246Y0158254D01*
X0349285Y0156568D01*
X0351197Y0158879D01*
X0353447Y0156895D01*
X0355197Y0158879D01*
X0353447Y0160864D01*
X0351009Y0086873D02*
X0351197Y0083879D01*
X0348203Y0084067D01*
X0348368Y0086708D01*
X0351009Y0086873D01*
M02*
